<svg xmlns="http://www.w3.org/2000/svg" viewBox="0 0 137.5 32.4"><path fill="#fff" d="M129.1.8c-4.2 0-7.7 3.4-7.7 7.7v11c0 .9.8 1.7 1.7 1.7.9 0 1.7-.8 1.7-1.7v-4.6c1.2.8 2.7 1.3 4.3 1.3 1.6 0 3-.5 4.3-1.3v4.6c0 .9.8 1.7 1.7 1.7.9 0 1.7-.8 1.7-1.7v-11c0-4.3-3.5-7.7-7.7-7.7m0 11.9c-2.3 0-4.3-1.9-4.3-4.3 0-2.3 1.9-4.3 4.3-4.3s4.3 1.9 4.3 4.3-2 4.3-4.3 4.3m-96.7-5c0-3.8-3.1-6.9-6.9-6.9-3.8 0-6.9 3.1-6.9 6.9v11.8c0 .9.8 1.7 1.7 1.7s1.7-.8 1.7-1.7v-5.8l7 7c.3.3.8.5 1.2.5.4 0 .9-.2 1.2-.5.7-.7.7-1.8 0-2.4l-3.9-3.9c2.8-.9 4.9-3.6 4.9-6.7m-6.9 3.5c-1.9 0-3.5-1.6-3.5-3.5s1.6-3.5 3.5-3.5S29 5.8 29 7.7s-1.6 3.5-3.5 3.5M8.4.8C4.2.8.7 4.2.7 8.5v11c0 .9.8 1.7 1.7 1.7.9 0 1.7-.8 1.7-1.7v-4.6c1.2.8 2.7 1.3 4.3 1.3 1.6 0 3-.5 4.3-1.3v4.6c0 .9.8 1.7 1.7 1.7.9 0 1.7-.8 1.7-1.7v-11c0-4.3-3.4-7.7-7.7-7.7m0 11.9c-2.3 0-4.3-1.9-4.3-4.3 0-2.3 1.9-4.3 4.3-4.3s4.3 1.9 4.3 4.3-1.9 4.3-4.3 4.3M56.2.8c-4.2 0-7.7 3.4-7.7 7.7v11c0 .9.8 1.7 1.7 1.7.9 0 1.7-.8 1.7-1.7v-4.6c1.2.8 2.7 1.3 4.3 1.3s3-.5 4.3-1.3v4.6c0 .9.8 1.7 1.7 1.7.9 0 1.7-.8 1.7-1.7v-11c0-4.3-3.4-7.7-7.7-7.7m0 11.9c-2.3 0-4.3-1.9-4.3-4.3 0-2.3 1.9-4.3 4.3-4.3s4.3 1.9 4.3 4.3-1.9 4.3-4.3 4.3M43.9 5.3c.7.7 1.8.7 2.4 0 .7-.7.7-1.8 0-2.4C44.9 1.5 43.1.8 41.2.8c-1.8 0-3.7.7-5.1 2.1C34.7 4.3 34 6.2 34 8c0 1.1.3 2.1.9 3-.6.9-.9 1.9-.9 3 0 1.9.7 3.7 2.1 5.1 1.4 1.4 3.2 2.1 5.1 2.1 1.8 0 3.7-.7 5.1-2.1.7-.7.7-1.7 0-2.4s-1.7-.7-2.4 0c-1.5 1.5-3.9 1.5-5.3 0-.8-.8-1.2-1.9-1.1-3 1.1.8 2.3 1.2 3.8 1.2 2.3 0 4.1-1.7 4.1-4s-1.9-4-4.1-4c-1.4 0-2.6.5-3.7 1.2-.1-1.1.3-2.1 1.1-3 1.4-1.3 3.7-1.3 5.2.2m-2.5 4.9c.4 0 .8.3.8.8 0 .4-.3.8-.8.8-.9 0-1.7-.3-2.4-.8.7-.5 1.5-.8 2.4-.8M78.5.8c-.9 0-1.7.8-1.7 1.7v7.7l-7.4-8.8c-.5-.6-1.2-.8-1.9-.5s-1.1.9-1.1 1.6v17c0 .9.8 1.7 1.7 1.7s1.7-.8 1.7-1.7V7.2l7 8.3v4c0 .9.8 1.7 1.7 1.7s1.7-.8 1.7-1.7v-17c0-1-.7-1.7-1.7-1.7m22.1 0c-.9 0-1.7.8-1.7 1.7v17c0 .9.8 1.7 1.7 1.7.9 0 1.7-.8 1.7-1.7v-17c0-1-.8-1.7-1.7-1.7m16.6 0c-.9 0-1.7.8-1.7 1.7v7.7l-7.4-8.8c-.5-.6-1.2-.8-1.9-.5-.7.2-1.1.9-1.1 1.6v17c0 .9.8 1.7 1.7 1.7.9 0 1.7-.8 1.7-1.7V7.2l7 8.3v4c0 .9.8 1.7 1.7 1.7.9 0 1.7-.8 1.7-1.7v-17c.1-1-.7-1.7-1.7-1.7M86.7.8h-2c-.9 0-1.7.8-1.7 1.7v17c0 .9.8 1.7 1.7 1.7h2c5.6 0 10.2-4.6 10.2-10.2C96.9 5.3 92.4.8 86.7.8m0 17h-.3V4.2h.3c3.7 0 6.8 3 6.8 6.8 0 3.7-3 6.8-6.8 6.8m-85 9.5v1h1.7v.9H1.7v2.4h-1v-5.2h3.2v.9zm6 .7v3.6h-1v-.3c-.3.3-.6.4-1 .4-.5 0-.9-.2-1.2-.6-.2-.3-.4-.6-.4-1.2V28h1v1.9c0 .3.1.5.2.6.1.2.4.2.5.2.4 0 .7-.3.8-.4V28h1.1zm.9 3.6V28h.9v.3c.3-.2.6-.4 1-.4.5 0 .9.2 1.2.6.2.3.4.6.4 1.3v1.8h-1v-1.9c0-.4-.1-.5-.2-.7-.1-.1-.3-.2-.5-.2-.4 0-.7.3-.9.4v2.3h-.9zm7 0v-.3c-.3.3-.6.4-1 .4-.5 0-1-.2-1.4-.6-.3-.3-.5-.8-.5-1.3 0-1.1.8-1.9 1.8-1.9.4 0 .7.1 1 .3v-1.9h1v5.3h-.9zm0-2.4c-.2-.3-.5-.4-.9-.4-.6 0-.9.5-.9 1 0 .6.4 1 .9 1 .4 0 .7-.2.9-.4v-1.2zm5.4 2.4h-.9v-.3c-.3.3-.6.4-1 .4-.5 0-1-.2-1.4-.6-.3-.3-.5-.8-.5-1.3 0-1.1.8-1.9 1.8-1.9.4 0 .8.1 1.1.4V28h.9v3.6zm-1-2.4c-.2-.3-.5-.4-.9-.4-.6 0-.9.5-.9 1 0 .6.4 1 .9 1 .4 0 .7-.2.9-.4v-1.2zm5.2 1.6c-.4.6-1 .8-1.6.8-1.1 0-1.9-.8-1.9-1.9 0-1 .8-1.9 1.9-1.9.6 0 1.2.3 1.5.7l-.7.6c-.2-.3-.5-.4-.8-.4-.6 0-1 .4-1 1s.4 1 1 1c.4 0 .7-.2.9-.5l.7.6zm1.1-4.7c.4 0 .6.3.6.6s-.3.6-.6.6-.6-.3-.6-.6c-.1-.4.2-.6.6-.6m.4 5.5h-1V28h1v3.6zm5.2 0V28h.9v.3c.3-.2.6-.4 1-.4.5 0 .9.2 1.2.6.2.3.4.6.4 1.3v1.8h-1v-1.9c0-.4-.1-.5-.2-.7-.1-.1-.3-.2-.5-.2-.4 0-.7.3-.9.4v2.3h-.9zm6.5-.5c-.4-.4-.7-.9-.7-1.7v-3h1v3.1c0 .5.1.8.3 1 .2.2.5.3.9.3s.7-.1.9-.3c.2-.2.3-.5.3-1v-3.1h1v3c0 .8-.2 1.3-.7 1.7-.4.4-1 .5-1.6.5-.4 0-1-.1-1.4-.5m4.8.5V28h.9v.3c.3-.2.6-.4 1-.4.5 0 .9.2 1.2.6.2.3.4.6.4 1.3v1.8h-1v-1.9c0-.4-.1-.5-.2-.7-.1-.1-.3-.2-.5-.2-.4 0-.7.3-.9.4v2.3h-.9zm4.9-5.5c.3 0 .6.3.6.6s-.3.6-.6.6-.6-.3-.6-.6.2-.6.6-.6m.5 5.5h-1V28h1v3.6zm2.4-1.4 1-2.2h1l-1.6 3.6h-.7L49 28h1zm5.4.8c-.4.4-.9.6-1.5.6-1.1 0-1.9-.7-1.9-1.9 0-1 .7-1.9 1.7-1.9s1.7.8 1.7 1.8v.3H54c.1.5.5.9 1 .9.4 0 .7-.2.9-.4l.5.6zm-.9-1.7c0-.3-.3-.6-.7-.6s-.7.3-.8.6h1.5zm3.9-.5H59c-.4 0-.8.3-.9.5v2.3h-1V28h.9v.4c.2-.3.6-.4 1-.4h.3l.1.8zm.8 1.7c.2.2.6.4 1 .4.3 0 .5-.1.5-.3 0-.5-1.7-.4-1.7-1.5 0-.7.7-1.1 1.4-1.1.5 0 1 .2 1.2.4l-.5.6c-.2-.1-.4-.2-.7-.2-.3 0-.5.1-.5.3 0 .5 1.7.3 1.7 1.5 0 .7-.7 1.1-1.4 1.1-.5 0-1-.2-1.4-.5l.4-.7zm3.6-4.4c.4 0 .6.3.6.6s-.3.6-.6.6-.6-.3-.6-.6.3-.6.6-.6m.5 5.5h-1V28h1v3.6zm3.6 0c-.1 0-.4.1-.6.1-.6 0-1-.2-1.2-.5-.2-.2-.3-.6-.3-1.1v-1.3h-1V28h1v-1h1v1H68v.8h-1.2v1.4c0 .2 0 .4.1.5.1.1.3.2.5.2h.4l.1.7zm4.2 0h-.9v-.3c-.3.3-.6.4-1 .4-.5 0-1-.2-1.4-.6-.3-.3-.5-.8-.5-1.3 0-1.1.8-1.9 1.8-1.9.4 0 .8.1 1.1.4V28h.9v3.6zm-.9-2.4c-.2-.3-.5-.4-.9-.4-.6 0-.9.5-.9 1 0 .6.4 1 .9 1 .4 0 .7-.2.9-.4v-1.2zm4-.4h-.4c-.4 0-.8.3-.9.5v2.3h-1V28H74v.4c.2-.3.6-.4 1-.4h.3l-.1.8zm1.2-2.7c.4 0 .6.3.6.6s-.3.6-.6.6c-.4 0-.6-.3-.6-.6s.2-.6.6-.6m.5 5.5h-1V28h1v3.6zm4.4 0h-.9v-.3c-.3.3-.6.4-1 .4-.5 0-1-.2-1.4-.6-.3-.3-.5-.8-.5-1.3 0-1.1.8-1.9 1.8-1.9.4 0 .8.1 1.1.4V28h.9v3.6zm-1-2.4c-.2-.3-.5-.4-.9-.4-.6 0-.9.5-.9 1 0 .6.4 1 .9 1 .4 0 .7-.2.9-.4v-1.2zm6 2.4v-.3c-.3.3-.6.4-1 .4-.5 0-1-.2-1.4-.6-.3-.3-.5-.8-.5-1.3 0-1.1.8-1.9 1.8-1.9.4 0 .7.1 1 .3v-1.9h1v5.3h-.9zm-.1-2.4c-.2-.3-.5-.4-.9-.4-.6 0-.9.5-.9 1 0 .6.4 1 .9 1 .4 0 .7-.2.9-.4v-1.2zm5 1.8c-.4.4-.9.6-1.5.6-1.1 0-1.9-.7-1.9-1.9 0-1 .7-1.9 1.7-1.9s1.7.8 1.7 1.8v.3h-2.5c.1.5.5.9 1 .9.4 0 .7-.2.9-.4l.6.6zm-.9-1.7c0-.3-.3-.6-.7-.6-.4 0-.7.3-.8.6h1.5zm1.7-3h1v5.3h-1zm10.6 2.5h-.4c-.4 0-.8.3-.9.5v2.3h-1V28h.9v.4c.2-.3.6-.4 1-.4h.3l.1.8zm3.7 2.2c-.4.4-.9.6-1.5.6-1.1 0-1.9-.7-1.9-1.9 0-1 .7-1.9 1.7-1.9s1.7.8 1.7 1.8v.3h-2.5c.1.5.5.9 1 .9.4 0 .7-.2.9-.4l.6.6zm-.9-1.7c0-.3-.3-.6-.7-.6-.4 0-.7.3-.8.6h1.5zm5.2 2.3h-.9v-.3c-.3.3-.6.4-1 .4-.5 0-1-.2-1.4-.6-.3-.3-.5-.8-.5-1.3 0-1.1.8-1.9 1.8-1.9.4 0 .8.1 1.1.4V28h.9v3.6zm-1-2.4c-.2-.3-.5-.4-.9-.4-.6 0-.9.5-.9 1 0 .6.4 1 .9 1 .4 0 .7-.2.9-.4v-1.2zm2.9 2.4 2.2-5.2h.7l2.2 5.2h-1l-.5-1.1H114l-.5 1.1h-1zm1.9-2.1h1.3L115 28l-.6 1.5zm3.6 2.1V28h.9v.3c.3-.2.6-.4 1-.4.5 0 .9.2 1.2.6.2.3.4.6.4 1.3v1.8h-1v-1.9c0-.4-.1-.5-.2-.7-.1-.1-.3-.2-.5-.2-.4 0-.7.3-.9.4v2.3h-.9zm7 0v-.3c-.3.3-.6.4-1 .4-.5 0-1-.2-1.4-.6-.3-.3-.5-.8-.5-1.3 0-1.1.8-1.9 1.8-1.9.4 0 .7.1 1 .3v-1.9h1v5.3h-.9zm0-2.4c-.2-.3-.5-.4-.9-.4-.6 0-.9.5-.9 1 0 .6.4 1 .9 1 .4 0 .7-.2.9-.4v-1.2zm2.4-3.1c.3 0 .6.3.6.6s-.3.6-.6.6c-.4 0-.6-.3-.6-.6s.3-.6.6-.6m.5 5.5h-1V28h1v3.6zm.9 0V28h.9v.3c.3-.2.6-.4 1-.4.5 0 .9.2 1.2.6.2.3.4.6.4 1.3v1.8h-1v-1.9c0-.4-.1-.5-.2-.7-.1-.1-.3-.2-.5-.2-.4 0-.7.3-.9.4v2.3h-.9zm7.9 0h-.9v-.3c-.3.3-.6.4-1 .4-.5 0-1-.2-1.4-.6-.3-.3-.5-.8-.5-1.3 0-1.1.8-1.9 1.8-1.9.4 0 .8.1 1.1.4V28h.9v3.6zm-.9-2.4c-.2-.3-.5-.4-.9-.4-.6 0-.9.5-.9 1 0 .6.4 1 .9 1 .4 0 .7-.2.9-.4v-1.2zm-37.1-4.5h-1.2l-.5 1.1h.8l.9-1.1zm-.9 1.7h-.7l-2.2 5.2h1l.5-1.1h2.1l.5 1.1h1l-2.2-5.2zm-1 3.1.7-1.5.7 1.5h-1.4zm-66.2-3.3h-1.2l-.4 1.1h.8l.8-1.1zm-1.3 1.7c-1.1 0-1.9.8-1.9 1.9 0 1 .8 1.9 1.9 1.9 1.1 0 1.9-.8 1.9-1.9 0-1.1-.8-1.9-1.9-1.9m0 2.8c-.6 0-.9-.4-.9-1 0-.5.4-1 .9-1s.9.4.9 1c.1.6-.3 1-.9 1"/></svg>