<svg xmlns="http://www.w3.org/2000/svg" id="Layer_2" data-name="Layer 2" viewBox="0 0 652.1 307.34"><defs><style>.cls-1{fill:#2836d9}.cls-2{fill:#fff}.cls-3{fill:#ff00bc}</style></defs><g id="Layer_1-2" data-name="Layer 1"><path d="M584.06 276.2c-4.54 2.29-9.42 3.16-15.85 3.16-5.01 0-9.94-.88-14.59-2.57a43.06 43.06 0 0 0 14.52 2.52c6.45 0 11.3-.86 15.83-3.15.03.01.05.03.08.04Z" class="cls-2"/><path d="M626.48 152.56c-14.48 0-25.82 11.25-25.82 25.62v4.16c-1.96-.48-4-.74-6.09-.74-3.5 0-6.94.97-10.45 3-4.23-2.01-9.05-3.11-15.37-3.11-8.85 0-17.11 2.68-24.09 7.35a23.649 23.649 0 0 0-5.79-3.95c-1.64-12.66-12.45-22.47-25.51-22.47-5.02 0-9.81 1.41-13.92 4.04a26.902 26.902 0 0 0-6.5-7.98c3.94-4.78 6.64-10.65 7.53-17.13l.94-5.82c12.07 17.5 33.12 28.4 58.59 28.4 34.14 0 58.94-15.61 58.94-37.13 0-5.19-1.53-10.03-4.17-14.14 3.54-4.52 5.41-10.55 5.41-17.91 0-32.73-30.07-61.45-64.36-61.45-2.81 0-5.57.16-8.28.51.33-1.67.49-3.39.49-5.16 0-15.44-12.55-28-27.99-28h-24.29c-17.11 0-31.68 12.73-33.99 29.66l-.79 4.84-101.31-.11c-10.48 0-20.25 4.69-26.79 12.88-.37.47-.74.94-1.08 1.42-9.32-10.15-23.1-16.35-39-16.35-9.03 0-18.24 2.2-25.95 6.12-5.32-4.04-10.29-5.97-15.22-5.97-13.23 0-24.56 8.4-29.03 20.21-11.93-12.19-28.71-20.05-46.65-20.05-10.92 0-21.13 2.55-30.09 7.1.86-3.19 1.29-6.2 1.29-9 0-17.31-14.51-31.39-32.32-31.39-13.22 0-24.81 8.07-29.53 20.6L73.62 52.76 61.88 20.61C57.13 8.07 45.6 0 32.47 0 14.56 0 0 14.08 0 31.39c0 3.9.89 8.02 2.72 12.62l40.92 98.33c5.93 14.33 16.07 21.58 30.15 21.58s24.22-7.23 30.31-21.58l9.5-23c8.54 26.73 33.93 44.59 66.51 44.59 19.35 0 35.69-5.01 46.23-13.26 5.64 7.94 14.86 13.11 25.28 13.11 15.33 0 28.11-11.17 30.63-25.8 1.64 9.66 7.77 17.83 16.22 22.29h-17c-14.73 0-26.26 11.5-26.26 26.17v65.37c0 1.27.08 2.53.26 3.8.42 3.07 1.35 5.98 2.76 8.68l.25.44c.14.25.27.49.41.73.08.15.18.29.27.44l.41.66c.85 1.26 1.82 2.46 2.89 3.59 4.94 5.12 11.73 7.94 19.12 7.94l.11-.11h22.81c15.86 0 29.7-5.31 40-14.41.67 1.61 1.51 3.16 2.52 4.63l.26.36c.37.51.74.99 1.12 1.45a25.26 25.26 0 0 0 5.43 4.89c.34.23.7.47 1.07.67 4 2.44 8.61 3.72 13.34 3.72 2.45 0 4.82-.34 7.05-1 .14 5.16 2.08 10.13 5.58 14.36.73.89 1.55 1.77 2.41 2.59l.16.15a35.1 35.1 0 0 0 2.83 2.37c8.13 6.12 20.1 9.62 32.83 9.62 15.11 0 28.93-5.54 37.93-15.18 4-4.3 7.01-9.18 9.06-14.86 3.09 1.29 6.43 1.96 9.88 1.96 7.36 0 14.03-3.12 18.71-8.09.63.68 1.33 1.33 2.05 1.94 4.58 3.89 10.45 6.03 16.52 6.03 9.95 0 18.6-5.71 22.87-14.04.38.41.77.82 1.16 1.22 2.08 2.11 4.38 4 6.82 5.64.01.01.03.01.04.03 1.34.9 2.72 1.71 4.13 2.45.38.21.77.4 1.16.59.73.36 1.46.68 2.22 1 .66.27 1.31.52 1.97.77a43.06 43.06 0 0 0 14.52 2.52c6.45 0 11.3-.86 15.83-3.15.03.01.05.03.08.04 3.43 2.03 6.92 3.05 10.39 3.05 5.99 0 11.51-2.05 15.89-5.49.49.41 1.01.78 1.53 1.14a25.67 25.67 0 0 0 14.51 4.46c14.19 0 25.73-11.59 25.73-25.84v-75.25c0-14.18-11.5-25.71-25.62-25.71Z" class="cls-2"/><path d="M330.85 182.14c-7.93-5.25-16.49-7.5-29.14-7.5h-20.24c-6.75 0-11.89 5.25-11.89 11.78v65.38c0 .62.04 1.23.12 1.82.2 1.44.63 2.78 1.26 3.98.09.16.18.33.28.49.09.16.19.31.28.46.38.57.81 1.1 1.28 1.59 2.14 2.22 5.2 3.55 8.78 3.55v-.11h22.92c26.35 0 44.88-18.54 44.88-44.9 0-15.01-6.96-28.73-18.53-36.55Zm-27.96 60.88h-9.64v-47.38h8.46c14.46 0 23.89 9.01 23.89 23.37 0 10.57-4.86 18.51-12.78 22.02-2.48 1.1-5.24 1.76-8.26 1.93-.55.04-1.1.06-1.67.06Zm76.69-35.37v45.87a11.3 11.3 0 0 1-11.35 11.36c-2.2 0-4.25-.61-5.97-1.68a11.035 11.035 0 0 1-2.81-2.41c-.2-.24-.39-.49-.58-.75a11.286 11.286 0 0 1-1.99-6.4v-46.09c0-6.32 5.04-11.35 11.36-11.35s11.35 5.14 11.35 11.46Z" class="cls-3"/><path d="M380.55 179.35c0 6.75-5.57 12.33-12.22 12.33s-12.64-5.57-12.64-12.54 5.78-12.44 12.64-12.44 12.22 5.68 12.22 12.65Z" class="cls-1"/><path d="M417.97 265.27c-6.35 0-12.11-1.86-16.9-5.17 4.79 3.34 10.58 5.22 16.96 5.22 6.93 0 9.52-1.06 14.62-5.84v-.11c-5.14 4.83-7.72 5.9-14.68 5.9Z" class="cls-3"/><path d="M444.07 196.28c-2.25 0-5.78 2.47-9.64 6.54-5.78-5.36-8.89-6.75-15.96-6.75-17.29 0-30.53 14.5-31.23 33.63-.03.54-.04 1.08-.04 1.63 0 10.36 3.72 19.31 9.85 25.41.72.72 1.48 1.4 2.26 2.03.38.3.76.59 1.14.88.21.14.41.29.62.43 4.79 3.31 10.55 5.17 16.9 5.17 6.96 0 9.54-1.07 14.68-5.9v.11l.06-.06c0 5.15-.64 7.72-2.58 9.86-2.57 2.58-6.74 4.29-10.92 4.29-3.54 0-7.5-1.07-11.78-2.9-2.35-.96-3.75-1.6-4.07-1.71-1.29-.64-2.79-.85-4.18-.85-5.04 0-9.54 4.39-9.54 9.54 0 2.05.83 4.05 2.34 5.87.36.44.76.87 1.2 1.29.52.48 1.09.96 1.7 1.42 5.36 4.03 14.27 6.73 24.21 6.73 11.25 0 21.21-3.96 27.43-10.61 6.1-6.53 8.78-15.11 8.78-28.19v-46.41c0-6.43-5.03-11.47-11.24-11.47Zm-22.39 48.66c-2.5 0-4.72-.73-6.55-2.05-.48-.33-.93-.71-1.35-1.12-2.65-2.58-4.2-6.54-4.2-11.18 0-8.36 5.03-14.47 12.1-14.47 5.97 0 10.34 4.3 11.55 10.74.22 1.17.33 2.42.33 3.73 0 8.47-4.92 14.36-11.88 14.36Z" class="cls-3"/><path d="M476.09 166.7c-6.96 0-12.64 5.68-12.64 12.44s5.67 12.54 12.64 12.54 12.22-5.57 12.22-12.33-5.57-12.65-12.22-12.65Z" class="cls-1"/><path d="M487.34 207.65v45.87c0 6.32-5.03 11.36-11.35 11.36a11.36 11.36 0 0 1-8.04-3.29 11.206 11.206 0 0 1-3.31-7.96v-46.09c0-6.32 5.04-11.35 11.35-11.35s11.35 5.14 11.35 11.46Zm50.77-1.17c0 5.57-4.5 9.86-9.85 9.86h-3.75l.1 36.98c0 6.43-5.03 11.46-11.35 11.46-2.8 0-5.31-.98-7.25-2.65a9.67 9.67 0 0 1-1.45-1.48c-1.59-1.97-2.54-4.52-2.54-7.34v-37.09h-2.25c-5.67 0-10.28-4.29-10.28-9.86 0-5.15 4.61-9.54 10.28-9.54h2.36l-.11-8.69c-.11-6.32 5.03-11.35 11.35-11.35s11.35 5.03 11.35 11.46v8.58h3.54c5.46 0 9.85 4.5 9.85 9.65Zm46.44 51.28c-5.78 5.79-8.68 7.18-16.39 7.18-5.89 0-11.36-1.78-16.01-4.9 4.66 3.15 10.16 4.95 16.07 4.95 7.72 0 10.6-1.39 16.38-7.17a.265.265 0 0 0-.05-.06Z" class="cls-3"/><path d="M594.57 195.96c-2.35 0-5.78 2.36-9.75 6.54-5.89-5.25-9.11-6.64-16.06-6.64-17.25 0-30.77 14.96-31.26 34.06-.02.36-.02.72-.02 1.09 0 10.02 3.84 18.98 10.01 25.18 1.43 1.44 3 2.74 4.66 3.85 4.65 3.12 10.12 4.9 16.01 4.9 7.72 0 10.61-1.39 16.39-7.18.02.02.04.04.05.06.74.83 1.46 1.6 2.17 2.31.24.24.47.47.7.68.46.43.92.84 1.36 1.2.64.54 1.25 1 1.84 1.39 1.45.97 2.72 1.47 3.77 1.47 6.32 0 11.35-4.93 11.35-11.25v-46.3c0-6.32-5.03-11.36-11.24-11.36Zm-22.71 49.42c-2.48 0-4.71-.79-6.56-2.17-.15-.11-.3-.23-.45-.35-.26-.22-.52-.44-.76-.69-.15-.14-.29-.29-.43-.44-.16-.16-.31-.33-.44-.5-2.1-2.57-3.36-6.15-3.36-10.2 0-8.68 4.93-14.9 12-14.79 7.06 0 11.88 5.89 11.88 14.58 0 1.8-.23 3.51-.66 5.07-1.56 5.68-5.77 9.5-11.22 9.5Zm65.87-67.1v75.24c0 6.43-5.14 11.47-11.35 11.47-2.4 0-4.61-.72-6.43-1.97-.58-.39-1.12-.84-1.61-1.33-2.05-2.05-3.31-4.9-3.31-8.06v-75.45c0-6.32 5.03-11.25 11.45-11.25s11.25 5.03 11.25 11.35Z" class="cls-3"/><path d="m73.64 94.73 25.07-69.06c2.63-6.97 8.98-11.3 16.1-11.3 10.06 0 17.95 7.74 17.95 17.03 0 2.32-.62 4.96-1.39 7.28l-40.55 98.18c-3.87 9.14-8.82 12.7-17.02 12.7s-13.15-3.72-16.87-12.7L16.07 38.68c-.93-2.32-1.7-4.96-1.7-7.28 0-9.29 8.2-17.03 18.11-17.03 7.27 0 13.31 4.34 15.94 11.3l25.23 69.06ZM159.99 89h31.42c-1.7-10.22-6.96-15.95-15.32-15.95s-13.62 5.42-16.1 15.95Zm.31 18.59c1.39 3.1 2.79 5.42 4.02 6.97 3.4 4.18 10.68 6.97 18.11 6.97 6.04 0 11.45-.93 18.42-3.87 5.26-2.17 8.2-3.25 10.68-3.25 7.27 0 13.15 5.73 13.15 12.39 0 12.7-20.12 22.76-44.57 22.76-32.5 0-55.25-20.91-55.25-50.64s22.29-51.26 51.07-51.26c26.46 0 49.99 21.99 49.99 47.08 0 9.29-4.02 13.01-14.24 13.01H160.3v-.15Zm110.19-54.05c6.04-3.87 14.39-6.19 22.29-6.19 21.67 0 37.3 14.71 37.3 35.15v50.17c0 9.29-7.43 16.88-16.87 16.88s-17.02-7.43-17.02-16.72V89.16c0-7.74-6.19-14.09-13.77-14.09s-14.08 6.35-14.08 14.09v43.51c0 9.14-7.43 16.72-16.71 16.72s-16.71-7.43-16.71-16.88V64.53c0-9.29 7.43-17.03 16.71-17.03 3.25 0 8.36 3.87 13.93 10.07 2.32-1.7 4.02-3.1 4.95-4.03Zm269.55 35.47h31.42c-1.7-10.22-6.96-15.95-15.32-15.95s-13.77 5.42-16.1 15.95Zm.15 18.58c1.39 3.1 2.79 5.42 4.02 6.97 3.4 4.18 10.68 6.97 18.11 6.97 6.04 0 11.45-.93 18.42-3.87 5.26-2.17 8.2-3.25 10.68-3.25 7.27 0 13.15 5.73 13.15 12.39 0 12.7-20.12 22.76-44.57 22.76-32.5 0-55.25-20.91-55.25-50.64s22.29-51.26 51.07-51.26c26.46 0 49.99 21.99 49.99 47.08 0 9.29-4.02 13.01-14.24 13.01h-51.38v-.15Z" class="cls-1"/><path d="M466.47 156.61h-91.63c-9.39 0-17.39-6.4-19.46-15.56l-15.19-67.31c-1.34-5.95.07-12.1 3.88-16.86s9.49-7.49 15.58-7.49h.02l113.52.14 2.78-17.13a19.915 19.915 0 0 1 19.79-17.38h24.29c7.52 0 13.62 6.1 13.62 13.62s-6.1 13.62-13.62 13.62h-18.07l-3.45 21.31c-.04 1.23-.23 2.41-.57 3.54l-11.68 72.12a19.915 19.915 0 0 1-19.79 17.38Zm-85.8-27.25h79.59l8.52-52.59-100-.12 11.9 52.71Z" class="cls-1"/></g></svg>