<svg xmlns="http://www.w3.org/2000/svg" id="Layer_1" viewBox="0 0 797.75 813.01"><defs><style>.cls-1{fill:#ffb366}.cls-2{fill:#1e1b4b}.cls-3{fill:#d77e90}.cls-4{fill:#bd2846}</style></defs><path d="M647.92 393.24c1.17-.45 2.42-2.31 4.73-2.77 5.76-1.15 14.27.56 18.54 4.72 5.54 5.39 9.91 12.08 15.19 18.09 1.47 1.68 4.59 2.76 5.61 4.39 2.29 3.69 0 6.77 5.57 10.43 3.06 2.02 3.52 2.71 5.36 4.14.04 8.17 10.16 6.46 6 15.99l7-1.99c4.08 5.04 12.18 13.67 17 18-6.24 6.78.29 16.54 1 3.99 4.6-.79 3.98 6.46 10 5.01 6.65 7.23 17.25 25.03 23.28 29.71 6.73 5.22 6.88 6.05 12.67 11.84 4.11 4.1 9.27 7.05 12.88 12.12 5.24 7.35 6.01 12.74 3.94 21.61-.74 3.15-3.31 4.66-3.77 5.73l-45.87 10.64c-.23 1.24-.38 2.58-.13 3.82.91 4.53 21.66 20.79 25.57 26.51.8 1.17 1.2 1.41 1.43 3.03.5 3.56-.95 6.23-2.15 9.35-8.38 21.87-24.68 42.27-35.03 62.98-3.84 7.68-7.63 19.84-11.83 26.67-13.25-1.35-24.24 8.77-37 9l2.01-24.99c10.54 2.19 19.15 10.22 29.99 10.99.71-3.73-1.97-5.79-4.52-7.97-3.68-3.14-28.36-17.19-31.47-14.02-2.18 11.08-3.97 21-2.99 32.48.37 4.32.8 11.26 5.72 12.32s22.44-7.34 28.27-9.81c-.66 2.04-3.8 3.45-4.49 5.02-2.28 5.17-3.52 13.11-5.43 18.56-1 2.86-5.32 4.12-1.08 7.42-.12.16-.18 2.47-.78 3.67-3.78 7.57-7.13 19.09-15.4 21.64-13.01 4.02-39.4-1.07-53.82-2.32-2.41-6.64-17.63-35.03-23.55-36.01-13.69-2.28-18.54 21.49-20.45 31.01-15.89-3.06-31.91-5.46-48-7 .11-.14-.95-2.18-1-3.47-.56-14.54-1.6-25.23-3.76-39.27-1.24-8.03-.17-17.46-1.47-24.53-1.26-6.84-7.67-18.67-9.33-25.67-1.53-6.45.79-10.17-5.95-15.05-2.25-1.63-10.4-5.4-12.93-5.05-3.62.51-8.19 10.39-10.55 8.03-2.12-2.12 9.56-10.46 5.49-11-5.78-.77-10.66 12.7-13.98 12-5.31-1.12 4.73-9.44 5.3-11.71 1.24-4.98-4.18-2.04-6.26-2.24-3.1-.3-5.94-1.74-9.06-2.04-11.61-1.1-21.46-2.09-32.99-1.93-2.62.04-5.03-1.27-7.96-1.13-7.87.36-20.29 14.75-26.32 20.05-1.18 1.03-6.98 5.28-8.21 3.99l.5-3.99c5.49-5.74 14.11-10.24 19.5-15.49 1.07-1.05 2.34-1.74 1.98-3.51-1.02-.9-20.14 1.96-23.47 2.05-3.89.1-7.03-1.06-10.53-1.05-.48-3.25 1.34-1.79 3.2-1.71 2.01.09 6.3 1.84 7.81-1.03s2.41-13.3 3.29-17.47 3.33-7.55 2.7-11.8c-1-.05-2 .03-3 0 5.33-1.7 3.24-9.84 4-11 .09-.14 2.03.18 2.81-1.66 1.24-2.92 5.44-24.71 5.15-27.78-.15-1.59-1.75-3.37-1.7-4.07.08-.96 6.16-11.9 6.73-16.49.38-3.09 1.27-12.32-3-12 .95-.22 3.19-2.13 4.87-2.14-.42-7.57 5.6-17.49 10.61-22.88 3.14-3.38 17.71-12.31 18.3-15.6.2-1.09-.81-2.26-.78-3.37l2.01 3c.75-.95 3.83-1.85 3.99-2.01.4 1.68 1.05 2.28 2.27 3.34 3.17 2.76 17.14 13.32 20.41 13.4 4.39.12 8.01-6.61 9.36-10.21 3.62-9.67 5.32-22.37 7.96-32.54 1.42-.47 2.48-1.82 3-2 3.09-1.07 9.55-1.97 10-6 8.02-2.44 13.63-4.97 20-9 2.65-1.68 19.75-6.49 24-8 2.47.7 1.73 2.73 2.02 4.48.98 5.71 1.64 15.08 3.9 20.09.68 1.51 1.02 2.81 3.07 2.42l-2.99-29.99c5.53-1.83 11.39-3.41 17-5 3.9-1.1 8.48-1.35 13-3l-.58 6.04c8.55 4.08 9.19-6.33.58-6.04 1.46-.53 4.13-3.11 6.73-3.78 2.15-.55 4.62.17 6.27-.22 2.59 5.06 22.09 30.64 26.35 29.84 2.36-1.21 3.36-3.3 4.43-5.56 4.13-8.79 7.01-22.23 10.07-31.89.73-2.3.7-1.41 1.47-4.73.52-2.24 1.77-4.27 1.68-6.66Zm55.36 70.64c-2.8-4.8-8.51-16.72-12.33-20.17-1.7-1.54-2.78-2.11-5.04-1-3.33 1.64-9.98 27.46-10.07 32.03-.24 12.56 13.19 10.41 21.59 10.41 6.81 0 15.41 3.27 13.25-8.17-1.1-5.81-5.03-9.03-7.4-13.09Zm-139.36 53.36c-2.01 3.69-8.73 3.11-9 7.99 4.55-.43 6.07-3.99 11.32-2.99.26.05 1.9 3.71 3.67 1.99 2.01-1.95-3.25-3.37-1.99-4.98l18.99-6.53c.45-2.45-1.85-1.51-3.25-1.26-1.57.29-5.16 1.26-6.74 1.77 3.79-8.76-3.14-17.67-8.49-24.01-2.3-2.73-16.41-16.51-18.91-15.92-5.73 9.1-29.05 45.25-6 45.84 4.98.13 15.03-1.22 20.4-1.91Zm46.99-21c.87-.83-2.16-16.34-3-18.5-.46-1.18-.78-2.86-2.48-2.5-4.3.91 1.96 17.81 2.52 20.98l2.96.02Zm101.02 49c6.12-6.77 10.66-16.73 10.98-26l-6.48 10.01-4.5 15.99Zm-104.77-14.25c3.07 2.98 9.65.03 11.73-3.25-2.22-1.77-4.19-5.8-7.24-5.37-3.38.77-7.45 5.75-4.49 8.62Zm-98.25 24.24c.32-2.32-1.75-3.16-3.3-4.19-2.11-1.4-20.82-10.67-21.69-9.8-.35 1.91.31 2.71 1.43 4.06 2.08 2.52 21.43 11.7 23.56 9.93Zm202.51-8.99v1c.65-.33.65-.67 0-1Zm-51.84 7.09c-1.15.37-1.33 1.38-1.88 2.19-2.43 3.61-17.64 34.64-17.74 37.31-.2 5.3 4.55 6.93 8.76 8.1 7.21 2.01 26.8 5.98 33.86 6.22 9.1.31 10.51-6.72 9.28-14.36-1.11-6.9-12.89-23.6-17.91-29.09-2.61-2.85-10.57-11.61-14.36-10.38Zm-218 2.07c-1.67.58-1.88 2.22-2.39 3.61-2.82 7.82-2.39 21.44-1.27 29.72 1.51 11.13 5.95 14.83 15.47 7.48 6.08-4.69 26.72-23.85 17.49-31.45-4.23-3.48-24.32-11.08-29.31-9.37Zm147.34 16.83c.64.75 15.84-7.73 17.67-8.82 1.56-.93 7.68-3.9 7.32-5.66-1.58-2.21-1.83-1.27-3.69-.72-2.75.82-20.31 9.99-21.09 11.41-.59 1.06-.11 2.58-.21 3.79Zm-95.3-.86c-4.16 1.02-4.57 12.8 2.57 11.71 8-1.23 4.93-11.95-2.57-11.71Zm109.3 18.86c.12-8.27-9.79-1.04-9 4.5l2 1.03c1.79-2.73 3.2-5.76 6.99-5.53Zm-98.02 33.01c1-3.56 2.14-7.09 2.74-10.77.36-2.25 2.16-13.72-.24-14.22-1.89-.16-2.38 1.75-2.82 3.16-.84 2.71-2.03 15.42-1.7 18.37.17 1.49.21 3.09 2.02 3.46Zm68.77-8.83c-6.76 1.14-20.08 16.71-26.85 20.29-1.8 2.29 2.73 8.75 4.56 10.58 7.82 7.83 29.55 7.67 39.96 11.87 2.4-.58 1.65-6.15 1.33-8.17-.77-4.84-7.81-23-10.27-27.72-1.9-3.63-3.83-7.67-8.72-6.85Zm135.24 25.82c.38-2.04-.92-2.38-2.42-3.07-3.7-1.67-16-3.16-20.57-3.49-1.75-.13-2.59-1.08-4 1.07-.46 2.09 3.38 3 4.73 3.25 7.03 1.29 15.12.81 22.26 2.23Zm-81.99 27.51c-1.23 7.39.91 17.75 0 25.5h3c.45-9.95 3.06-20.17.99-30-1.47-1.47-3.93 4.11-3.99 4.5Zm-56 20.5c-6.74-.3-15.9-3.52-22.27-.78-1.39.6-2.03 1.16-1.73 2.76 1.38 1.9 19.27 1.05 22.53.04 1.42-.44 1.76.59 1.47-2.02Z" class="cls-4"/><path d="m214.92 369.24 1-1.5-5.98-5.25c.26-5.2-2.51-10.56-3.54-15.23-1.37-6.22-4.17-11.5 4.52-11.52-3-3.3-6.6 1.57-7.98-4.03-.7-2.84 4.08-.23 2.98-2.96-1-2.47-4-4.36-4.75-9.25-1.99-12.98-.62-39.67.96-52.53.31-2.52 2.5-5.46 1.92-8.65l2.89-.08-.88-5.88c3.47 0 4.73-2.06 3.87-5.45-.19-.75-1.93-.57-2.02-1.31-.87-6.6 4.32-14.11 6.57-20.33 3.34-9.26 6.23-19.04 12.09-28.91 2.6-4.38 6.13-4.78 6.38-5.13.36-.49-1.25-2.79-.87-4.29.28-1.1 1.9-1.84 2.28-2.78 1.26-3.12 1.24-6.53 5.06-8.03l4.51 2.11-3.98-4.49c4.31-2.88 8.09-11.35 11.27-14.24 4.61-4.19 8.48-8.81 13.23-13.22 6.45-6 12.81-13.78 20.12-18.88 3.82-2.67 8.8-3.09 11.03-7.25l8.34 2.07c-2.09-4.62-3.1-5.47 1.52-8.99l2.48 1.99c-.63-4.85 7.79-5.5 11.33-7.22 6.81-3.31 18.33-11.16 25.37-12.76 2.07-.47 4.72.48 6.62 0 .83-.21.85-2.15 3.16-3.04 3.25-1.25 7.74-.84 10.99-1.56 8.66-1.92 21.18-6 30.03-4.39 1.64.3 2.18 1.47 3.51 1.98l.56-3.08 38.89.12 13.55 2.95c0-1.38-.2-2.88.28-4.22 3.79-10.73 13.89-23.7 22.83-30.19 2.17-1.58 4.52-.44 5.96-3.99 1.9-4.69.19-8.87 1.41-13.64.26-1.03 4.07-9.27 4.52-9.55 1.76-1.1 4.92 1.84 6-.93 1.57-4.02-4.26-1.36-2.98-3.98 2.58-.92 3.37-3.76 4.93-5.05 6.18-5.1 20.78-13.03 28.87-14.28 3.48-.53 3.59 2.49 5.7-2.18 3.89-1.28 1.81 3 3.01 3.01 3.02.02.48-1.68.49-3 2.17.24 7.32-.84 8.56.92 1 1.43.87 6.1-1.08 7.06-2.88 1.42.24-5.33-3.48-3.99l-.59 5.11c-3.58 1.32-7.65 1.47-11.22 2.58-4.99 1.55-11.94 6.09-16.72 4.33 1.26 4.94-2.96 4.31-5.18 6.28-3.83 3.4-6.7 7.61-9.32 11.97-.41.68-1.73.72-1.81.92-.38.87.65 2.15.64 3.28-.03 1.84-2.13 5.21 1.26 5.14 4.38-.09 10.77-2.43 15.41-2.64 14.3-.67 30.69 6.97 38.19 19.36.97 1.6 2.8 13.3 2.35 15-.2.77-2.01.61-2.02 1.25-.02.94 1.1 2.07.81 3.67-.11.64-3.15 6.5-3.77 7.29-1.33 1.68-12.11 8.43-13.58 8.54-1.99.15-3.08-1.63-3.98-1.7s-2.89 1.61-4.99 1.71c-17.93.82-30.5-22.83-38.01-36.1-9.94 4.17-14.49 12.51-19.46 21.28-.48.85-2.1 1.12-2.81 2.41-1.15 2.09-1.27 4.99-1.2 7.33 4.37-1.77 6.25.61 9.94 1.56 8.03 2.07 8.1 3.95 13.03 5.83 1.95.74 7.62-.02 10.82 1.29 7.08 2.89 31.97 15.66 37.6 21.42 1.14 1.17 2.5 4.67 2.75 4.8 1.04.58 2.89-1.01 4.8-.4 2.98.95 4.29 4.39 6.16 5.89 5.13 4.11 8.1 6.26 13.01 10.99 2.23 2.14 8.59 6.01 8.88 9.63-1.21-.49-8.66-2.33-8.99-2l1.02 5 7.47-1c.88.03.56-1.31.51-2 7.78 3.11 9.78 10.32 14.14 16.36.96 1.34 2.92 1.9 3.41 2.67 1.08 1.68-.69 3.79-.56 3.97.21.29 4.11.34 5.09 1.66.89 1.2 2.72 6.65 3.91 8.85 6.12 11.4 11.61 19.78 16.51 32.49 1.99 5.18 6.65 9.26 3.5 15.98 7.65.06 4.14 7.58 5.05 12.47.59 3.19 4.3 8.37 4.87 13.12.51 4.3-1.24 9.46-.95 11.77.08.63 1.68.6 1.95 1.42 1.74 5.3 3.3 22.25.03 26.65l2.05 6.58h-3c-.38 2.02 1.84 2.63 2.01 4.52.08.87-.13 8.61-.21 9.98-.8 12.74-8.16 43.11-13.94 53.86-.87 1.62-3.37 2.91-3.73 4.35-.5 1.99 1.02 3.74.68 5.55s-3.27 4.12-4.25 5.84c-1.51 2.66-2.85 7.41-4.11 9.85-1.71 3.31-5.06 7.26-6.45 11.04-3.98 1.1-9.61 3.37-13.39 5.16-1.47.69-3.11.52-2.61 2.84-5.61 1.59-11.47 3.17-17 5-3.24 1.07-5.12 2.69-6 3-4.25 1.51-21.35 6.32-24 8-5.65-4.07-4.83-8.11-5.91-13.53-2.14-10.77-.61-5.64.74-14.22.78-4.97-.22-11.23 1.61-17.3.84-2.79 2.91-4.19 3.35-5.65 2.91-9.83 5.01-25.36 5.22-35.81.12-5.92-2.55-3.6-4.73-4.75-.74-.39-3.58-4.6-4.9-5.57-4.39-3.25-14.26-7.94-17.75-11.08-1.18-1.06-.4-2.79-.64-3.08-.14-.16-2.29.72-3.69.26-5.56-1.81-22.87-13.51-26.84-18.19-6.78-7.99-9.45-22.2-5.97-32.09 1.03-2.91 4.54-7.23 5.94-10.06 2.74-5.52 4.06-10.91 8.57-16.43 1.13-1.38 8.88-8.39 10.05-8.95 7.59-3.67 22.25-2.54 30.44-3.56 9.56-1.19 19.7-3.21 29.27-4.77 3.95-.64 3.18 2.51 7.24-3.73l-8.71-5.29c-12.28.33-25.47 2.09-36.58-4.44-4.09-2.41-10.62-12.81-11.48-17.5-1.38-7.53 3.13-22.99 6.94-29.6 3.3-5.72 15.49-18.85 21.3-22.7 2.37-1.57 6.48-1.61 8.52-4.46-1.79-4.11-5.35-4.89-7.91-7.12-1.74-1.51-5.83-6.07-7.4-7.05-1.68-1.05-6.73-1.87-7.42-2.61-.6-.65-.28-2.61-1.17-3.29-1.36-1.04-3.85-.06-5.37-.43-.98-.24-.98-2.01-1.75-2.43-7.67-4.19-22.44-10.94-30.37-13.67-6.91-2.38-15.13-3.16-22.04-5.92-2.27.59-1.81 12-1.48 14.44.66 4.89 5.18 11.57 5.78 15.33.32 1.99-.97 4.03-.84 4.2.16.23 3.29.65 5.03 2.5.69.73 7.9 11.36 8.01 12.08.6 4.03-2.49 6.41-6.32 5.27-3.08-.92-4.59-6.44-7.71-6.84l1.99-1.98c-.89-.07-2.29-.07-2.94-.55-4.34-3.23-11.95-23.43-12.06-29.09l2.02-1.87-.05-1.47c-.09-.11-1.75.29-1.99-.67-.84-3.34-.88-10.92.02-14.35-5.26.09-10.42-1.33-15.6-1.91-1.57-.17-3.08 1.04-4.66.72s-2.69-2.71-5.05-2.58c-13.74.78-30.34.84-44.06 2.81-.79.11-.52 1.99-2.5 2.53-5.3 1.45-10.2.12-14.47.37-.51.03-3.67 2.97-8.88 4.31-2.04.52-3.06 3.94-4.25-.25-2.2 2.87-8.03 5.66-11.48 6.56-2.49.65-5.35-.41-6.09-.07-1.12.51-1.72 2.97-3.01 3.93-2.51 1.89-8.11 2.35-10.44 5.56-3.2.64.98-4.65.52-4.98l-3-.02c1.77 8.76-7.55 5.66-9.05 12.47 3.25 3.37 6.71 3.18 10.6 4.48 2.1.7 4.31 2.46 6.16 2.84 2.76.56 14.47-.06 15.11.34.5.31.62 2.4 1.68 2.88h1.47c.09-1.27.4-2.25 1.68-2.81s23.83-4.97 25.99-5.1c2.75-.17 7.94.37 10.39 1.37s2.29 2.53 3.35 3.2c8.87 5.66 17.87 10.99 26.88 16.31 1.39.82 1.28 3.9 4.22 3.04l-.5-2c4.3 2.4 7.33-2.76 11.34-2.04.75.14.74 1.64 1.39 2.01 2.64 1.49 6.97 2.53 8.07 5.77.42 1.25-.16 3.46.37 4.1.46.56 4.57.52 6.12 4.46.67 1.71-.16 2.86.09 3.99.7 3.12 2.79 5.67 1.64 10-.26.98-2.07 1.02-2.43 1.74-6.34 12.68-11.58 18.57-24.35 25.73-6.84 3.83-15.45 8.95-23.17 12.79-2.33 1.16-5.96 1.42-7.41 2.34s-1.07 3.38-1.85 3.91c-.92.61-3.46-.21-4.38 1.11-.77 1.12-.34 4.35-.86 6.19s-2.1 1.74-2.51 2.65c-1.47 3.26-.94 8.43-3.18 11.62-1.78 2.53-6.43 3.2-6.82 3.75-.3.43.98 1.84.04 3.39-1.1 1.81-3.94 2.77-5.06 4.06-3.84 4.45-5.39 7.96-7.74 13.2-.55 1.22-1.97 1.01-2.25 1.95-1.31 4.37.25 7.88.27 12.06 2.38.81 2 3.51 3.67 5.73.51.68 7.73 7.95 8.24 8.25 3.46 2.01 14.03.58 12.78 9.24l2-4.01 30.01 8.5c3.33.94 11.81 1.15 13.73 3.84.58.82.11 2.5.27 2.67.23.24 3.29-1.16 5.19-.8 3.25.62 14.45 6.73 16.8 9.3 3.06 3.35 8.5 10.6 9.06 14.95.45 3.53.11 15.65-1.07 18.79-.46 1.23-2.31 1.03-2.8 2.4-5.62 15.62-10.37 20.92-21.14 33.89-1.79 2.16-3.47 6.22-4.57 7.45-1.28 1.42-4.12.15-3.45 3.02-9.22-9.14-29.94-22.1-40.96-27.53-2.22-1.1-6.28-1.07-7.04-1.47-3.36-1.77-11.79-7.88-15.96-9.44-1.23-.46-3.38.69-5.04.44-8.04-1.23-16.67-2.67-23.7-4.79-1.54-.47-6.23-.96-8.3-1.21l-1.99-5 2.99-1c-2.68 1.55-6.02-6.56-6.65-8.68-.78-2.62-.75-9.08-1.41-11.76-2.01-8.25-5.15-16.61-5.87-24.99l-2.94-.63c.85-4.83-1.36-4.38-2.83-6.29-.49-.64-.07-2.18-.43-2.48-.4-.34-6.7-2.23-8.86-4.71-2.32-2.65 1.17-4.03-5.04-2.89l-.97-4.58c-1.86-.95-4.6 2.26-4.98 2-.09-.06.26-1.33-.7-2-1.07-.75-3.07-.72-3.82-1.98-1.39-2.33-.89-11.1-4.99-4.01-1.5-2.35-5.26-2.72-6.92-4.09s-2.78-3.15-5.53-5.44c-4.71-3.91-9.49-7.34-12.57-12.46l-3.47 1.99-1.01-9c-5.08 1.92-4.91-4.21-6.01-5-.63-.45-1.86 2.29-3.46 2-2.98-.53.29-3.13.34-3.67l-1.41-2.31-3.45.97c-1.1-3.99 1.53-3.21 1.99-5.48l-2.99-3.02 1.99-1.49c-5.87 1.16-1.27-7.6-6.99-6.02 1.39 3.22-1.84 4.18-1.98 4.72-.41 1.57.16 3.61-.02 5.29 2.06-1.35 1.38-3.2 3.49-2.99l2.51 4.99-7 1c-.41-1.21.93-2.38 1-2.99-.28.18-1.39-.21-1.98 0l.05 6.87c3.86.24 11.13 8.72 5.95 11.11l-3.04-6-4.99 1.02c-.74 3.72 3.29.76 5.54 2.97 1.53 1.5 1.57 4.95 1.47 7.02l-7.92-.93c.17 2.81-3.1 8.62-3.13 10.41 0 .24 3.42.98 2.04 3.52l-3.47-2-1.52 4h4.99c-2.06 5 1.36 12.4-4.03 14.53l2.05 5.48c2.61.3 1.58-.04 2.01-1.46.98-3.17-.25-6.61 3.91-5.5l1.15 8.91 2.92.06.07 6.35c-.33 1.89-6.78 2.18-7.93-1.02-.54-1.5.76-4.44-1.15-4.33-1.83 5.74 1.25 12.8 0 18.35-.23 1.05-3.06.04-2.02 2.64 3.77-.24 4.35 1.54 4.01 5.01 3.37-1.17 3.83-3.26 5.49-5.98l3.99 3 2.01-3.01c2.61 1.01 3.25 3.76 3.51 4 .86.77 3.92.77 4.5 4 2.74-1.81 2.03-3.14 1.51-5.99 3.2-.93 2.64 1.31 3.71 1.95 2.03 1.22 4.22 1.46 4.31-1.46.03-.82-3.12.18-2.02-2.49l4.48 1.99c2.33-5.35 8.18-5.56 4.55.29-4.7 7.59-10.54 5.69-16.02 9.25-2.23 1.44-1.46 4.9-5.91 3.35-.05-1.5-1.04-3.19-1.11-4.53-.06-1.08 3.7-2.85 2.01-6.36-3.4-1.03-3.13 2.02-4.32 2.74-2.63 1.61-3.28-1.82-1.7 5.22l-3.98 1.04-1.02-4.99-1.03 2.93-3.96.07 2.65 3.9 6.35-.91c.07.99-.06 2 0 3 9.32-2.8 6.13 8.24.92 4.57-1.31-.93-.84-3.19-.92-4.57-11.18 3.36-.05 5.68.06 7.6s-1.52 2.86-1.75 4.07c-.33 1.76 1.84 4.1-1.31 5.84l3.58 2.48-1.58 4.01c-.67.33-4.48 3.05-6 4ZM495.91 22.25h-1.99v.98h1.99v-.98Zm10.14 28.85c-.83-.52-.27-4.05-2.12-3.86l.04 4.53c-3.75.77-7.76.15-9.91 4.1 1.56 8.28 10.3 13.67 8.86 22.37 7.61-2.65 6.27 3.17 9.02 5.47.64.54 9.4 3.38 10.6 3.49 5.84.51 11.96-1.7 15.23-6.61 10.2-15.32-10.6-29.19-24.52-29.97-1.97-.11-5.68 1.44-7.2.48Zm28.87 103.13c2.5-.16 9.54 2.49 7.99-2.49-.92-2.95-8.52-1.73-7.99 2.49Zm-281.01 17.99c-1.03-10.32-11 .29-6.98 3.02 2.28 1.54 4.42-3.94 6.98-3.02Zm-3.99 61.02c.28.84 2.3 7.82 3.99 6l1.02-4.99c-.32-.44-4.11-.7-5.01-1.01-.24-.72.19-2.09 0-3h-2.99c-.38 2.63 1.32 2.43 3 3Zm24.99 10.99-1.94-6.55-3.01-.41-2.05 4.96 7 2Zm-10 2.01c-3.7 1.33-5.68-4.24-9.99-2.99v3.99l1.98-1.99c-.82 4.35 10.2 3.96 8 .99Zm84.01 15c-2.77 0-7.14-.96-6.99 2.99 5.77-1.67 2.69 3.7 6.99 4v-6.99Zm209 26.01h-5c-.73 2.71 1.43 1.73 2.44 3.05.59.77.35 2.45.69 2.79.73.72 7.28-.25 7.86-.86 2.88-3.02-4.06-1.15-4.38-1.2-1.69-.31-2.63-2.31-1.62-3.77Z" class="cls-2"/><path d="M232.92 364.24c2.58 6.16.7 11.78 2.95 18.55.7 2.1 7.8 12.83 9.09 13.91 2.05 1.73 14.09 6.85 17.18 7.82 27.13 8.43 54.89 1.16 80.72-7.85l29.06-16.44c.76.4 4.82.37 7.04 1.47 11.02 5.43 31.74 18.39 40.96 27.53.69.68.73 2.73 1 3-8.85 4.53-18.24 7.74-27.02 12.48-26.96 14.57-63.66 48.21-71.26 78.74-3.16 12.67-.95 19.09 3.79 30.78.57.8 16.26 7.67 18.06 7.94 19.21 2.91 44.11-1.88 63.06-5.82 4.01-.83 4.72-1.32 7.13-2.05 2.02-.61 5.05-.45 7.25-1.07-.57 4.58-6.65 15.52-6.73 16.49-.06.71 1.55 2.49 1.7 4.07.29 3.07-3.91 24.86-5.15 27.78-.78 1.84-2.72 1.52-2.81 1.66-27.76-1.68-65.86 14-52 48-5.24.9-10.94 1.13-16.04 2.46-3.01.78-5.8 3.07-8.52 3.48-5.76.88-4.76-1.26-9.44 2.06-2.05 1.45-24.5 7.63-29 9-1.41-20.68 7.91-53.51-9.5-69-2.13-1.89-10.86-6.4-13.54-7.51-1.86-.77-19.33-.7-22.44-.48-42.35 3.02-111.35 41.43-148.81 63.19-19.41 11.28-45.12 26.72-61.65 40.35-1.64 1.35-9.29 7.44-10.57 7.34l-4.48-4.88c-.48-.77-.66-1.36-1-2 1.28-1.63-1.18-10.62-4-10-2.07-10.69-5.7-21.16-7-32-.29-2.43-1.18-7.66-1.09-9.51.21-4.14 8.52-8.78 11.96-11.12 31.31-21.21 67.73-38.17 101.11-53.89 44.97-21.17 91.14-40.31 135.44-62.56l.59 2.06 1.98.02c-.05-1.64-.21-3.16.98-4.53 1.62-1.84 16.24-9.09 19.95-12.05 19.07-15.17 9.27-26.93-11.45-29.42-23.35-2.81-45.27 1.15-68.06 3.9-7.75.94-15.83 2.46-23.42 1.08l-.58 3.06c-10.75 1.05-22.13 3.61-32.64 6.23-12.75 3.18-27.2 9.06-39.54 11.48-1.92.38-3.77 1.18-3.25-1.77 19.94-22.49 39.02-45.24 61.04-65.46 15.78-14.48 32.46-30.01 50.96-41.54 1.52-.95 5.33-3.67 6-4 4.17-2.07 7.67-.8 12-1Zm35 182 3.64 4.91c2.35.4 5.14-4.52 1.73-5.84l-5.37.93Zm-230.01 113c-6.4.95-6.22 4.55-1.48 7.99 2.77 1.14 1.04-6.9 1.48-7.99Z" class="cls-2"/><path d="M319.92 805.24c-.73 1.14-1.38 4.49-2 6-1.99-.34-2.81-.2-5-1 1.04-2.68 5.59-3.79 7-5Z" class="cls-3"/><path d="M390.92 626.24c3.5 0 6.64 1.15 10.53 1.05 3.32-.08 22.44-2.94 23.47-2.05.36 1.76-.91 2.46-1.98 3.51-5.39 5.25-14.02 9.76-19.5 15.49l-.5 3.99c1.23 1.29 7.04-2.96 8.21-3.99 6.03-5.3 18.45-19.69 26.32-20.05 2.93-.14 5.34 1.17 7.96 1.13 11.53-.16 21.38.83 32.99 1.93 3.12.3 5.96 1.74 9.06 2.04 2.08.2 7.51-2.74 6.26 2.24-.56 2.26-10.61 10.58-5.3 11.71 3.32.7 8.2-12.77 13.98-12 4.07.54-7.61 8.88-5.49 11 2.36 2.37 6.93-7.52 10.55-8.03 2.53-.36 10.68 3.42 12.93 5.05 6.74 4.88 4.42 8.6 5.95 15.05 1.66 6.99 8.07 18.83 9.33 25.67 1.3 7.07.23 16.5 1.47 24.53 2.16 14.04 3.19 24.73 3.76 39.27.05 1.29 1.11 3.32 1 3.47-.1.13-1.79-.15-2.82 1.64-3.08 5.35-3.37 17.14-11.18 19.36.56-.73 5.45-9.62 1.51-7.99-5.01 4.98-11.37 9.41-14.51 15.99-.59.13-1.39-.13-2 0l12.99-19.51c.22-.68-.8-.66-1.51-.51-3.41.72-14.58 13.19-16.55 16.49-1.12 1.87-1.24 2.71.06 4.53-.09.06.35 1.35-.72 1.98-1.63.96-27.78 8.76-30.28 9.02-.02-5.37 6.47-7.27 4.99-12.99-1.76-1.87-10.21 6.57-11.99 7.99.48-2.18 4.6-8.89 1.52-7.99-4.49 1.32-15.36 15.08-7.17 12.85 1.82-.5 2.33-3.24 3.7-4.32.67-.53 1.72-.36 1.95-.54-.65 2.93-2.2 4.37 2 5 .57 3.24-1.64 1.67-3.49 1.96-5.11.81-8.5.85-12.26 1.96-14.3 4.22-29.25 4.87-43.47 8.36-5.98 1.47-12.47 6.76-19.78 2.72 4.22-2.12 7.39-7.83 9.04-8.54 1.22-.53 2.85.66 2.95.55.17-.21-.32-1.84.3-2.66 1.47-1.95 6.85-5.87 7.71-7.86.53-1.23-.18-1.84-1.47-1.47-4.41 1.28-17.85 13.49-21.68 17.34-1.13 1.13-2.61.7-1.84 3.65-23.3 7.95-42.37 11.03-68 7l9.98-11.51c-.95-.33-3.1.61-3.89 1.1s-4.66 3.05-5.09 3.42c.12-.11.38-1.96 1.42-3.04.59-.62 9.93-8.11 3.3-5.75-4.09 1.46-11.23 8.66-14.71 11.79-3.84.55-5.85-.38-9-2 9.86-4.09 17.1-12.2 24-19.99-1.89-.31-2.93.12-4.53.96-7 3.67-13.73 11.93-21.47 15.03-.07-.12-1.75-.14-2.5-.95-4.3-4.58-8.73-12.88-11.36-18.69s-10.02-24.17-10.14-29.36c5.07.83 18.43-15.39 19.02-18.49.24-1.29-.19-2.06-1.5-1.5-.82.35-12.16 10.11-13.53 11.47-2.14 2.12-3.48 3.36-3.98 6.52-2.43-3.27-2-8.49-3-12 2.61-.47 4.6-2.32 6.52-3.98 6.58-5.66 16.32-15.3 22.23-21.73 3.58-3.89.21-3.71-3.09-2.13-8.9 4.25-19.5 15.9-26.66 22.84-.05-.15-1.74-.92-2.24-2.22-2.48-6.43.47-9.58-8.76-9.78l5.9-2.1c1.1-3.34-.79-7.04-.9-9.9-.28-7.16-.63-12.99 3.16-19.34 1.05-1.76 8.5-8.85 6.84-10.65-4.95.84-7.73 10.14-12.48 11.01-1.39.25-1.9-.04-1.49-1.49 1.22-4.28 10.55-14.42 13.52-19.49.77-1.31 2.01-1.97 1.46-4.03-1.79-.36-2.5.88-3.44 2.05-3.32 4.15-6.85 13.02-12.56 13.94.07-.32-.08-.69 0-1 .44-1.78 9.1-12.26 11.01-14.49.58-.67 11.93-10.22 4.52-8.49-4.02.94-11.99 12.16-16.04 14.98-7.41-3.56 2.68-7.88 1.52-12.99 4.95-3.45 6.37-3.31 12.26-5.24 1.92-.63 4.12-2.58 4.74-2.76 3.98-1.16 9.91-1.44 15-3 4.5-1.37 26.95-7.55 29-9 2.83-.31 2.47.62 1.02 2.52-1.38 1.8-18.89 19.81-7.56 18.52 4.69-.53 15.29-20.14 20.15-22.93 1.34-.77 8.82-2.48 7.38.38l-15.99 15.03 1.51 2.48c4.97 1.31 17.25-19.45 22.22-20.76 2-.53 4.05.15 5.6-.22 1.07-.26.57-1.96.66-2.01 1.23-.77 12.69-2.76 15-3 .76-.08 2.31 1 3.51.89 3.68-.35 8.75-3.88 14.49-3.89Zm38.99 6c-1.21-1.21-11.75 9.04-13 10.49-.97 1.13-2.4 1.64-1.99 3.5 4.03 1.37 16.42-12.56 14.99-13.99Zm5 5c-.87-.83-15.27 9.62-16.51 10.98s-1.85 1.95-1.48 4.01c1.85.27 2.95-.01 4.55-.95.75-.44 10.53-9.46 11.45-10.55s2.41-1.64 1.99-3.5Zm-81 3c-1.99-1.95-11.01 8.9-11.59 10.92-.94 3.29 1.87 4.12 4.47 1.45.98-1.01 7.84-11.66 7.12-12.37Zm105 24c-1.29-1.23-6.22 3.09-7.47 4.02-5.78 4.31-20.26 16.3-24.58 21.42-1.9 2.25-2.37 3.38-1.94 6.55 1.52.35 2.35-.34 3.56-.93 3.77-1.81 24.81-23.19 28.43-27.57.93-1.13 2.43-1.62 1.99-3.5Zm51 3c-2.57-2.22-23.72 17.73-24.62 20.97-.57 2.08.98 3.72 2.98 3.94l21.63-24.91Zm-1 12c-2.04-1.95-11.59 7.79-13 9.49-.93 1.13-2.43 1.61-1.99 3.5 2.29 2.12 11.52-7.71 13-9.49.93-1.13 2.43-1.62 1.99-3.5Zm-59.99 3.01c-2.45-2.23-15.94 12.57-17.99 14.5l4.98 2.97c-2.36 3.64-8.09 4.36-6.99 9.51 1.92 2.01 14.15-11.37 14.98-13.51 1.72-4.41-5.99 3.4-6.98 1.02 4.41-4.51 9.41-8.56 11.99-14.49Zm63.99 2.99c-1.82-1.83-15.1 12.59-12.99 14.99 2.32.06 4.05-2.46 5.51-3.98 1.23-1.28 8.56-9.93 7.48-11.01Zm-141 1c-.8-.8-5.26 2.43-6.33 3.16-3.11 2.14-22.14 17.09-21.66 19.32.25 1.17 2.18 1.64 3.44 1.52 2.5-.24 19.83-16.08 22.08-18.99 1.14-1.48 2.69-2.95 2.48-5.01Zm-13.99 25.99c3.37 3.37 17.01-14.71 18.97-17.5-1.6-.19-3.79 1.03-5.13 1.86-2.56 1.57-16.85 12.64-13.84 15.65Zm13.99-4.99-21.06 17.45c-2.01 2.19.77 5.53 3.6 3.61 2.43-1.65 12.42-11.97 14.44-14.59 1.46-1.89 3.3-3.86 3.02-6.47Zm130.01 18.01c-1.96-1.53-10.2 5.9-12.01 7.48-2.66 2.31-17.47 16.65-16.99 18.99l3.33 1.37 25.67-27.84Zm-1.49 11.01c-3.01 1.53-18.06 12.82-17.51 15.46.27 1.31 1.73 1.48 3.07 1.11 2.88-.8 14.22-12.55 14.44-16.57Zm-206.52 7.98c-1.1-1.1-8.5 4.06-6.99 6.99 2.93 1.51 8.09-5.89 6.99-6.99Zm145 0c-1.55-1.5-12.33 9.29-13.54 10.95-1 1.37-1.88 2.02-1.45 4.04 2.16 2.16 11.52-9.69 13-11.49.92-1.13 2.43-1.62 1.99-3.5Zm62 1c-1.5-1.54-12.18 11.09-7.48 11.99 2.75.53 7.98-11.47 7.48-11.99Zm-59 5c-1.2-1.24-12.78 8.14-10.99 11.99 2 2.09 12.28-10.66 10.99-11.99Zm-81.99 18c-.08.88-.6 3.87 1.49 2.99.73-2.14 15.31-11.26 13.51-12.99-6.21 1.3-9.6 6.64-14.99 9.99.64-7.14 12.89-10.25 16-16.99-6.3.91-22.92 12.81-25.52 17.97-3.29 6.52 8.42-.3 9.52-.98Zm16.99-6c-2.32 1.47-15.35 10.72-14.98 12.49.24 1.13 1.59 1.64 3 1.03 2.28-.99 13.73-11.32 11.99-13.52Zm52 26c-1.74-1.58-9.22 5.26-7.99 7.99 3.09 1.62 8.85-7.21 7.99-7.99Z" style="fill:#ff8000"/><path d="M319.92 805.24c.31-.48.6-.66 1-1-.34.32-.62.67-1 1Z" class="cls-3"/><path d="M278.92 651.24c-.62.18-2.82 2.13-4.74 2.76-5.89 1.93-7.31 1.79-12.26 5.24-1.13.79-2.49.36-4.02 2.47-4.1 5.64-1.17 13.8 3.02 18.53-.08.31.07.68 0 1-.17.76-1.05 8.06-1.01 8.49.23 2.52 3.27 3.23 3.85 5.24.66 2.3-.95 6.28-.75 9.64.08 1.33.38 5.41 2.91 4.63.11 2.86 2 6.56.9 9.9l-5.9 2.1c-5.83-.13-11.86 1.87-17.45 2.04-8.93.26-12.02-.89-21.55.96.44-3.32-1.19-1.66-3.01-1.52-2.25.18-4.57.97-6.99.51-1.23-1.18 11.6-24.85 13.17-28.32 6.88-15.22 17.68-39.72 17.86-56.22.1-9.4-6.85-11.74-8.04-19.46l-1.98.02c.37 3.72-3 1.1-5.52.98-34.79-1.65-95.8 43.81-118.47 69.53-4.53 5.14-14.55 21.43-17.94 24.06-2.29 1.78-4.21.85-6.09 2.41-9.26-4.16-33.97-15.03-41-20-1.71-1.21-8.15-6.7-6.88-8.88.32-.55 9.03-5.47 10.8-6.7 40.98-28.32 121.86-77.55 169.08-89.92 6.12-1.6 8.67-1.58 14.23-3.8 7.54-3.01 25.06-4.23 32.99-2.43 11.61 2.64 14.99 7.54 15.82 19.18 1.1 15.39-3.7 32.3-1.04 47.54Zm-88.06-44.93c-5.07-2.06-9.79 1.17-8.93 6.92 3.63-3.32 3.11-6.06 8.98-4l-.05-2.92Zm-98.95 94.92c.59-3.96-3.6-6.13-6.99-5.99.94 4.06 2.75 5.71 6.99 5.99Zm-5.99-204.99c20.4-6.86 40.84-13.63 61.79-18.71 20.18-4.89 42.37-9.88 62.76-12.24 10.91-1.26 22.03-.44 32.91-2.09 4.73.79.79 4.32 2.05 7.05l5.49-1.02-1-4.99c9.28.13 17.98-1.74 27.01 1.48l.85 4.4c-6.23 3.51-11.97 7.72-18.2 11.29-71.8 41.15-155.74 65.2-226.59 109.41-9.13 5.7-17.91 12.06-26.6 18.4-3.21 1.27.51-9.75-4.48-8.99-.12-.61.11-1.37 0-2l3.92-2.63c-4.35-6.32-.51-6.02 2.11-9.87.64-.94.67-2.05.96-2.5 3.28-5.01 13.46-18.7 18-21 46.66-16.94 94.95-29.8 141.52-46.98 5.36-1.98 25.64-9.21 28.51-12.49.77-.87 1.28-1.13.97-2.52-49.92 10.32-98.04 28.04-146.79 42.81l-4.21-.82v-1l1-2c2.24-3.43 6.12-6.47 8.98-9.52 9.38-9.99 19.7-22.71 29.02-33.48Z" class="cls-2"/><path d="M102.92 476.24c-.51 2.95 1.34 2.14 3.25 1.77 12.33-2.42 26.79-8.3 39.54-11.48 10.51-2.62 21.88-5.18 32.64-6.23l.58-3.06c7.59 1.38 15.67-.14 23.42-1.08 22.79-2.75 44.71-6.71 68.06-3.9 20.72 2.49 30.52 14.24 11.45 29.42-3.71 2.95-18.34 10.2-19.95 12.05-1.2 1.36-1.04 2.89-.98 4.53l-1.98-.02-.59-2.06c-44.3 22.24-90.47 41.38-135.44 62.56-33.39 15.72-69.8 32.68-101.11 53.89-3.45 2.34-11.76 6.98-11.96 11.12-.09 1.85.8 7.08 1.09 9.51-1.83-.66-2.08-2.37-2.53-3.97-2.72-9.51-4.65-19.41-6.47-29.03 4.99-.76 1.27 10.26 4.48 8.99 8.69-6.34 17.47-12.71 26.6-18.4 70.85-44.21 154.79-68.26 226.59-109.41 6.23-3.57 11.96-7.78 18.2-11.29l-.85-4.4c-9.03-3.22-17.73-1.35-27.01-1.48l1 4.99-5.49 1.02c-1.27-2.73 2.68-6.26-2.05-7.05-10.88 1.65-22.01.82-32.91 2.09-20.39 2.36-42.58 7.35-62.76 12.24-20.95 5.08-41.4 11.85-61.79 18.71 5.71-6.6 11.19-13.45 17-20Z" class="cls-1"/><path d="M102.92 721.24c-1.9-1.7-2.32-3.59-1.49-5.95s10.14-16.08 13.49-13.04c-.18-2.16-.16-3.61.95-5.56 3.66-6.44 29.87-26.68 37.17-31.83 3.26-2.3 16.58-11.93 19.35-11.64 1.89.2 2.52 2.4 4.54 2.02.36-1.43-1.08-3.3-.83-4.4.73-3.19 31.02-15.98 35.81-17.13 5.08-1.21 10.87-2.28 15.78-.23 5.35 4.6-3.71 29.67-6 36.01-7.22 19.97-17.04 39.54-27.75 57.75-9.34.47-17.68-.15-27 1-2.76-4.5 3.48-10.44 6.18-14.32 3.04-4.36 19.85-28.06 22.24-29.76 1.43-1.01 2.94-1.01 4.58-.93-2.19-4.74.2-7.74.85-12.29-1.24-2.83-4.12-3.45-6.84-2.19-2.99 1.39-15.03 18.26-17.83 22.17-5.75 8.04-16.87 29.08-22.67 34.33-6.23 5.62-8.63 1.11-14.04.94-2.65-.08-5.31 1.11-8.47 1.05-5.36-.09-24.4-2.76-28-6Zm10.95-537.97c1.48 8 1.89 17.07 4.76 24.75.63 1.67 6.03 13.32 6.54 13.93 1.82 2.19 8.77 5.69 11.28 8.26 1.39 1.41 1.49 3.91 2.45 4.55 1.2.81 13.56 4.64 15.82 5.18 3.15.76 18.09 2.29 18.77 3.23l-.7 7.94c-8.42-.6-15.86 2.97-23.61 4.89-1.78.44-9.53.72-10.13 1.38-.4.45.08 2.6-.63 3.84s-7.24 5.35-8.89 7.14c-2.51 2.73-5.15 9.1-6.88 10.61-1.17 1.02-3.62 1.14-3.73 1.3-.1.14 1.09 1.87.81 3.23-.59 2.84-3.12 6.59-3.74 9.32-1.37 6.08 1.65 18.7-7.07 17.44v-4.01l-4 1.99c.4-6.59-.53-13.7-2.48-20.02-.63-2.05-6.09-14.76-7.02-16-1.36-1.8-5.1.59-3.51-6.97-5.23 3.08-7.81-3.74-11.79-5.96-2.78-1.55-13.98-5.88-17.15-6.6-5.54-1.26-12.58.02-17.12-4.11.33-1.8.89-5.61 2.68-6.22 5.52-1.9 1.4 3.31 5.38 2.88l-.99-3.98c14.37.47 29.29-7.25 38.57-17.97 1.77-2.04 4.55-7.78 6.46-9.52 1.23-1.13 3.85-1.37 3.98-1.54s-1.09-2.24-.84-4.2c.42-3.28 3.33-5.83 3.79-8.32.67-3.59-.97-13.33.49-15.52l8.51-.9Z" class="cls-2"/><path d="M293.92 648.24c-5.09 1.56-11.02 1.84-15 3-2.66-15.24 2.14-32.15 1.04-47.54-.83-11.65-4.21-16.54-15.82-19.18-7.93-1.81-25.45-.59-32.99 2.43-5.56 2.22-8.11 2.2-14.23 3.8-47.23 12.37-128.1 61.59-169.08 89.92-1.77 1.23-10.48 6.15-10.8 6.7-1.27 2.18 5.17 7.68 6.88 8.88-2.3.41-3.29-.21-5.06-1.44-1.3-.91-12.89-10.97-13.63-11.87-1.45-1.77-1.49-4.37-2.32-5.69l4.48 4.88c1.28.1 8.92-5.99 10.57-7.34 16.54-13.63 42.24-29.07 61.65-40.35 37.47-21.76 106.46-60.16 148.81-63.19 3.11-.22 20.58-.28 22.44.48 2.68 1.1 11.42 5.62 13.54 7.51 17.42 15.49 8.1 48.32 9.5 69Z" class="cls-1"/><path d="M84.92 716.24c1.88-1.57 3.8-.64 6.09-2.41 3.39-2.63 13.41-18.92 17.94-24.06 22.67-25.72 83.68-71.18 118.47-69.53 2.52.12 5.89 2.74 5.52-.98l1.98-.02c1.19 7.73 8.14 10.06 8.04 19.46-.18 16.5-10.97 41-17.86 56.22-1.57 3.47-14.4 27.14-13.17 28.32 2.42.45 4.74-.33 6.99-.51 1.81-.15 3.45-1.8 3.01 1.52-9.38 1.82-18.23 2.51-28 3 10.71-18.21 20.53-37.78 27.75-57.75 2.29-6.34 11.35-31.41 6-36.01-4.92-2.05-10.71-.99-15.78.23-4.78 1.14-35.08 13.94-35.81 17.13-.25 1.1 1.2 2.97.83 4.4-2.02.38-2.65-1.83-4.54-2.02-2.76-.29-16.09 9.34-19.35 11.64-7.3 5.15-33.5 25.39-37.17 31.83-1.11 1.96-1.13 3.4-.95 5.56-3.35-3.03-12.61 10.58-13.49 13.04s-.4 4.25 1.49 5.95c-6.1.32-12.49-2.52-18-5Z" class="cls-1"/><path d="M715.74 291.42c.04 8.38 4.07 15.85 4.18 23.82 2.25-1.81 5.87 1.56 7.71 3.35.44.43.06 2.08.46 2.41.65.55 2.57.18 3.72.8 7.56 4.08 12 6.02 20.99 6.54l.12 7.9c-13.67.09-28.35 6.41-33.79 19.71-2.13 5.2-1.93 18.38-7.71 18.38-6.22 0-5.01-10.67-6.18-14.91-.96-3.46-3.93-8.94-6.29-11.71-8.38-9.81-15.98-9.62-28.05-11.95-4.87-8.98 6.48-8.53 12.78-10.26 3.64-1 8.19-4.4 11.62-3.14 1.75.64.91 3.06 2.61 2.88.49-3.25-.18-4.23-2.99-5.49 5.39-4.41 11.64-15.38 12.7-22.13.24-1.54-1.33-3.17-.25-5.36 1.45-2.94 5.95-2.23 8.38-.83Z" class="cls-2"/><path d="m46.92 542.24 4.21.82c48.75-14.77 96.87-32.49 146.79-42.81.32 1.39-.2 1.65-.97 2.52-2.87 3.28-23.15 10.51-28.51 12.49-46.57 17.18-94.86 30.04-141.52 46.98.11-5.47 8.55-5.63 8.94-6.06.22-.23-.19-3.39 1-5.51 1.5-2.66 6.95-4.22 8.07-7.97l1.99-.47Z" class="cls-1"/><path d="M714.92 705.24c-5.83 2.47-23.3 10.88-28.27 9.81s-5.35-8-5.72-12.32c-.98-11.49.81-21.4 2.99-32.48 3.12-3.17 27.79 10.89 31.47 14.02 2.55 2.18 5.23 4.24 4.52 7.97-10.83-.77-19.45-8.8-29.99-10.99l-2.01 24.99c12.76-.23 23.75-10.35 37-9-1.22 1.99-6.07 7.06-8 8-.43.21-1.52-.21-2 0Z" class="cls-3"/><path d="M130.92 727.24c3.16.06 5.82-1.14 8.47-1.05 5.41.17 7.81 4.69 14.04-.94 5.81-5.24 16.93-26.29 22.67-34.33 2.8-3.91 14.84-20.79 17.83-22.17 2.72-1.26 5.6-.64 6.84 2.19-.65 4.55-3.04 7.55-.85 12.29-1.64-.08-3.16-.08-4.58.93-2.39 1.7-19.2 25.4-22.24 29.76-2.71 3.88-8.94 9.81-6.18 14.32-1.74.21-6.22 2-7.5 2h-19c-.73 0-6.57-.95-7.84-1.2-.79-.15-1.36-1.07-1.66-1.8Z" class="cls-1"/><path d="M633.92 759.24c-3.99-.35-8.01-.66-12-1-.34-3.22-13.23-21.68-14.51-22-2.48-.62-8.17 14.06-8.47 16.53-.39 3.18 4.29.38 5.81 1.68.45.39.06 1.71.17 1.78-5.24.92-10.07-1.05-15-2 1.91-9.53 6.76-33.29 20.45-31.01 5.93.98 21.14 29.37 23.55 36.01Zm159-205c-.76 1.74-2.48 5.56-3 7l-27 9.52 15.5 17.46c1.49-1.34 1.45-3.18 2.5-4.98.71 5.37-1.59 12.85-7 15-.23-1.61-.63-1.85-1.43-3.03-3.91-5.73-24.65-21.99-25.57-26.51-.25-1.24-.1-2.58.13-3.82l45.87-10.64Z" class="cls-3"/><path d="m684.76 215.43.17 2.81 2.4-2.03c6.26 2.97 22.86 3.56 17.65 13.59-3.89 2.72-21.74-4.86-26.82-6.3-7.01-1.98-15.49-3.59-22.31-5.69-3.26-1.01-12.91-3.46-13.74-6.26-.57-1.94-.09-4.29-.2-6.31 2.92-2.95 36.86 9.37 42.85 10.19Zm-56.85-109.18c-.49 1.78 1.48 2.41 1.73 3.62.4 1.97-9.45 35.25-11.05 38.55-2.43 5-3.65 5.6-9.54 4.69l-.55-4.68c6.97-17.35 9.23-38.94 16.24-55.91 2.05-4.98 5-5.34 9.03-1.65 1.26 3.69-.23 16.12-5.87 15.37Z" class="cls-2"/><path d="M647.92 393.24c.09 2.39-1.16 4.42-1.68 6.66-.77 3.32-.75 2.43-1.47 4.73-3.06 9.66-5.94 23.09-10.07 31.89-1.06 2.26-2.06 4.36-4.43 5.56-4.26.8-23.76-24.78-26.35-29.84 1.15-.27 1.09-1.06 1-2 2.12-.3 6.39-2.16 9-3 0 2.64 13.69 24.97 14.99 24 3.8-11.22 9.68-22.04 11.01-34 2.76-1.28 3.42-2.24 8-4Z" class="cls-3"/><path d="m656.92 165.25 3 .99-.02 1.48c-2.5 2.5-11.22 8.19-14.37 7.56-.86-.17-.16-2.74-2.11-2.04-3.12 1.51 1.66 5.47-4.24 6.77-11.5 2.52-10.16-5.44-2.61-10.61 2.17-1.49 23.79-13.33 25.33-13.78 1.77-.52 3.72.61 3.9.5.24-.15.97-2.96 2.54-3.95 1.84-1.17 3.85-.65 5.54-1.46 1.23-.59 1.9-2.43 3.05-2.95 2.17-.99 5.57-.46 7.99-1.53l-1.01-1.98c7.89-1.27 9.05 5.51 3.36 9.85-1.25.95-21.12 11.39-22.34 11.7-3.25.83-4.97-.21-8.01-.54Zm-16.01 11h-1.99v.98h1.99v-.98Z" class="cls-2"/><path d="M639.92 397.24c-1.33 11.95-7.21 22.77-11.01 34-1.3.97-14.99-21.36-14.99-24 8.34-2.7 17.89-6.23 26-10Zm150 164c-.25.68-.99 4.31-1 5-4.57 1.86-3.16 6.88-4 10s-2.54 4.5-4 7c-1.05 1.8-1.01 3.64-2.5 4.98l-15.5-17.46 27-9.52Zm-168 197c-5.21-.44-12.39 1.1-17-2-.11-.08.28-1.39-.17-1.78-1.52-1.31-6.2 1.49-5.81-1.68.3-2.47 6-17.15 8.47-16.53 1.28.32 14.17 18.78 14.51 22Zm-350-25c7.17-6.93 17.76-18.58 26.66-22.84 3.31-1.58 6.68-1.76 3.09 2.13-5.92 6.42-15.66 16.06-22.23 21.73-1.93 1.66-3.92 3.51-6.52 3.98-.56-1.96-.68-3.98-1-5Z" class="cls-4"/><path d="M716.92 705.24c3.24 4.13-2.34 7.29-4.19 11.31-2.27 4.94-2.88 13.43-5.57 17.45-1.43 2.14-3.12 2.08-3.24 2.24-4.24-3.3.08-4.56 1.08-7.42 1.91-5.45 3.15-13.39 5.43-18.56.69-1.56 3.83-2.97 4.49-5.02.48-.21 1.57.21 2 0Z" class="cls-1"/><path d="M299.92 801.24c7.74-3.1 14.46-11.36 21.47-15.03 1.6-.84 2.65-1.27 4.53-.96-6.9 7.79-14.14 15.9-24 19.99-.3-.15-1.49.37-1.87-.12-.64-.81.19-3.31-.13-3.88Zm88 3c-.77-2.95.71-2.51 1.84-3.65 3.83-3.85 17.27-16.06 21.68-17.34 1.29-.37 2 .24 1.47 1.47-.85 1.99-6.23 5.91-7.71 7.86-.62.82-.13 2.45-.3 2.66-.1.12-1.73-1.08-2.95-.55-1.65.71-4.82 6.42-9.04 8.54-.79.4-3.58.51-5 1Zm-112-54c.5-3.16 1.84-4.4 3.98-6.52 1.37-1.36 12.72-11.12 13.53-11.47 1.31-.56 1.75.22 1.5 1.5-.59 3.1-13.95 19.32-19.02 18.49-.01-.63-.09-1.41 0-2Zm232 27c-1.3-1.82-1.18-2.66-.06-4.53 1.97-3.3 13.14-15.77 16.55-16.49.7-.15 1.73-.17 1.51.51l-12.99 19.51c-.99.2-4.79.86-5 1Zm-38 6c-.23.19-1.28.01-1.95.54-1.36 1.08-1.87 3.83-3.7 4.32-8.19 2.23 2.68-11.53 7.17-12.85 3.08-.91-1.04 5.81-1.52 7.99 1.79-1.43 10.23-9.86 11.99-7.99 1.48 5.72-5.01 7.63-4.99 12.99-1.33.14-3.73.19-5 0-4.2-.63-2.65-2.07-2-5Zm45-7c3.14-6.59 9.5-11.01 14.51-15.99 3.94-1.63-.95 7.26-1.51 7.99-3.51 4.54-7.6 6.77-13 8Z" class="cls-4"/><path d="M604.92 410.24c.09.94.15 1.73-1 2-1.65.39-4.12-.33-6.27.22-2.6.66-5.27 3.25-6.73 3.78 8.61-.28 7.97 10.13-.58 6.04l.58-6.04c-4.52 1.65-9.1 1.9-13 3-.5-2.32 1.14-2.15 2.61-2.84 3.78-1.79 9.41-4.06 13.39-5.16 4.76-1.31 7.73-.53 11-1Zm111 36-7 1.99c4.16-9.53-5.97-7.82-6-15.99 9.56 7.41 6.4 5.83 13 14Z" class="cls-1"/><path d="M319.92 811.24c-.63-.1-1.37.11-2 0 .62-1.51 1.27-4.86 2-6 .38-.33.66-.68 1-1 .43-.36 4.31-2.94 5.09-3.42s2.94-1.42 3.89-1.1l-9.98 11.51Zm-9-4c3.49-3.12 10.62-10.33 14.71-11.79 6.64-2.36-2.7 5.13-3.3 5.75-1.04 1.08-1.3 2.92-1.42 3.04-.4.34-.69.52-1 1-1.41 1.21-5.96 2.32-7 5-.39-.14-1.34.4-1.84-.19l-.16-2.81Z" class="cls-4"/><path d="M743.92 473.24c-6.01 1.45-5.4-5.8-10-5.01-.72 12.55-7.24 2.79-1-3.99 3.56 3.19 6.55 4.16 11 9Zm-735 110c-.29.45-.32 1.57-.96 2.5-2.63 3.85-6.47 3.55-2.11 9.87l-3.92 2.63c-.03-.18-1.61-1.3-1.86-2.69-.63-3.4 4.51-12.6 8.86-12.31Zm776-7c.84-3.12-.57-8.14 4-10-.05 3.34 3.49 9.91-4 10Zm-767 89c2.82-.62 5.28 8.37 4 10-2.98-5.56-2.43-1.87-4-10Zm29-124c-.11-.99.61-1.41 1-2l-1 2Z" class="cls-1"/><path d="m453.92 447.24-1.6 4.9c-16.94 8-33.74 16.35-50.72 24.28-9.91 4.63-22.03 8.57-31.35 13.65-5.51 3-8.85 7.79.15 7.21 5.77-.37 19.03-6.58 24.88-9.17 20.41-9.06 40.31-21.02 60.64-30.44l6 .58c.92 1.13 3.47 4.48 4 5 2.41 4.77-.46 6.87-2 11-.45-.17-1.37.11-2 0-.23-.04-.93-1.68-2.04-.59-1 .81-.71 2.26-.96 2.59-.65.86-.92 1.92-1 2-.16.16-3.24 1.06-3.99 2.01l-2.01-3c-.03 1.12.97 2.28.78 3.37-.59 3.29-15.17 12.22-18.3 15.6-5.01 5.4-11.03 15.32-10.61 22.88-1.68 0-3.92 1.92-4.87 2.14-16.77 3.9-55.15 10.54-70.8 6.3-22.51-6.1-8.95-30.03-.43-43.02 18.98-28.95 49.01-53.19 82.23-63.27 8.79 9.02 15.59 15.69 24 26Z" class="cls-2"/><path d="M429.92 421.24c-33.21 10.08-63.25 34.33-82.23 63.27-8.52 13-22.08 36.92.43 43.02 15.65 4.24 54.03-2.39 70.8-6.3 4.27-.32 3.38 8.91 3 12-2.2.62-5.24.46-7.25 1.07-2.41.73-3.12 1.21-7.13 2.05-18.95 3.94-43.84 8.73-63.06 5.82-1.8-.27-17.48-7.14-18.06-7.94-4.73-11.69-6.95-18.1-3.79-30.78 7.61-30.52 44.3-64.17 71.26-78.74 8.78-4.74 18.17-7.95 27.02-12.48 3.09 3 5.99 5.91 9 9Z" class="cls-1"/><path d="M659.58 553.33c3.8-1.23 11.76 7.53 14.36 10.38 5.01 5.49 16.8 22.18 17.91 29.09 1.23 7.64-.18 14.67-9.28 14.36-7.07-.24-26.66-4.21-33.86-6.22-4.2-1.17-8.96-2.8-8.76-8.1.1-2.67 15.31-33.71 17.74-37.31.55-.81.73-1.82 1.88-2.19ZM653 590.16c.72 1.02 21.86 5.02 24.47 5.11 1.35.05 4.16-.02 4.44-1.56.79-4.27-14.8-23.6-18.51-27.46-2-.4-1.22.45-1.7 1.27-1.72 2.93-10 20.78-8.7 22.64Zm-76.08-76.92c-4.75 1.54-6.46 3.15-13 4-5.38.69-15.42 2.04-20.4 1.91-23.05-.6.27-36.74 6-45.84 2.5-.59 16.61 13.19 18.91 15.92 5.35 6.35 12.28 15.25 8.49 24.01Zm-10-7.01c1.15-1.57-7.75-13.23-9.49-15-1.44-1.47-3.13-4.09-5.54-2.54-1.56 1-7.6 17.18-6.55 18.6 6.79 2.21 14.81.95 21.58-1.06Z" class="cls-3"/><path d="M404.92 594.24c1 .03 2.01-.05 3 0 .62 4.25-1.87 7.84-2.7 11.8-.87 4.16-1.76 14.55-3.29 17.47s-5.79 1.12-7.81 1.03c-1.86-.08-3.69-1.54-3.2 1.71-5.75 0-10.81 3.54-14.49 3.89-1.19.11-2.74-.97-3.51-.89-10.99-10.57-3.66-24.69 8.31-30.2 6.85-3.15 16.12-5.06 23.69-4.8Z" class="cls-2"/><path d="M408.92 583.24c-.76 1.16 1.33 9.3-4 11-7.57-.25-16.84 1.65-23.69 4.8-11.97 5.51-19.3 19.62-8.31 30.2-2.31.24-13.77 2.23-15 3 .19-.61-.57-1.07-1-1-13.86-34 24.24-49.68 52-48Z" class="cls-1"/><path d="M573.67 614.41c4.9-.82 6.83 3.22 8.72 6.85 2.46 4.72 9.5 22.88 10.27 27.72.32 2.01 1.07 7.59-1.33 8.17-10.4-4.2-32.14-4.04-39.96-11.87-1.83-1.83-6.36-8.29-4.56-10.58 6.77-3.58 20.09-19.15 26.85-20.29Zm7.24 32.82c.83-.78-6.16-19.18-8.65-20.91-2.32-.68-17.47 9.28-18.34 11.43-.79 1.95 1.23 1.39 2.2 1.75 3.11 1.13 23.84 8.63 24.79 7.74Zm122.37-183.35c2.37 4.06 6.3 7.28 7.4 13.09 2.17 11.44-6.44 8.17-13.25 8.17-8.4 0-21.84 2.16-21.59-10.41.09-4.56 6.74-30.38 10.07-32.03 2.26-1.11 3.33-.54 5.04 1 3.82 3.46 9.53 15.37 12.33 20.17Zm-16.22 11.21c2.24 1.41 13.36 2.18 13.86-.38l-10.5-19.45c-1.42-.06-4.52 17.83-3.36 19.84ZM441.58 555.4c4.98-1.72 25.08 5.89 29.31 9.37 9.23 7.59-11.42 26.76-17.49 31.45-9.52 7.34-13.96 3.65-15.47-7.48-1.12-8.28-1.56-21.9 1.27-29.72.5-1.39.72-3.03 2.39-3.61Zm19.61 20.62c-.9-2.31 3.24-4.03.74-6.27-1.52-1.36-14.17-6.43-15.01-5.51l-2 28c7.22-.05 10.1-8.54 13.12-13.93l4.87.93c1.16-2.75-1.65-3.01-1.72-3.21Zm36.73-123.78c-2.65 10.16-4.35 22.87-7.96 32.54-1.35 3.6-4.97 10.33-9.36 10.21-3.27-.09-17.24-10.64-20.41-13.4-1.22-1.06-1.87-1.66-2.27-3.34.08-.08.35-1.14 1-2 1.46-.01 2.57-.57 3-2 .63.11 1.55-.17 2 0 4.01 1.55 13.02 10.27 17.05 7.55.96-.65 7.72-19.02 8.48-21.53.61-2 .59-3.97.47-6.02 4.3-1.92 5.32-1.12 8-2Zm63-28 2.99 29.99c-2.04.38-2.38-.92-3.07-2.42-2.27-5.01-2.93-14.38-3.9-20.09-.3-1.75.44-3.77-2.02-4.48.88-.31 2.76-1.93 6-3Zm66 243.5c.06-.39 2.52-5.97 3.99-4.5 2.07 9.83-.54 20.06-.99 30.01h-3c.91-7.76-1.23-18.12 0-25.51ZM508.91 555.23c-2.14 1.78-21.49-7.41-23.56-9.93-1.12-1.35-1.77-2.15-1.43-4.06.87-.87 19.58 8.4 21.69 9.8 1.55 1.03 3.62 1.87 3.3 4.19Zm80.01 17c.11-1.21-.37-2.73.21-3.79.78-1.42 18.34-10.59 21.09-11.41 1.85-.55 2.11-1.49 3.69.72.36 1.76-5.76 4.73-7.32 5.66-1.83 1.09-17.02 9.57-17.67 8.82Z" class="cls-3"/><path d="M576.92 513.24c1.58-.51 5.16-1.48 6.74-1.77 1.4-.26 3.7-1.19 3.25 1.26l-18.99 6.53c-1.25 1.61 4 3.03 1.99 4.98-1.77 1.72-3.4-1.94-3.67-1.99-5.26-1.01-6.77 2.56-11.32 2.99.27-4.88 6.99-4.3 9-7.99 6.54-.85 8.25-2.46 13-4Z" class="cls-1"/><path d="M493.62 571.37c7.5-.25 10.57 10.47 2.57 11.71-7.14 1.1-6.73-10.68-2.57-11.71Z" class="cls-2"/><path d="M708.91 640.23c-7.13-1.42-15.22-.94-22.26-2.23-1.35-.25-5.19-1.16-4.73-3.25 1.4-2.15 2.24-1.2 4-1.07 4.57.33 16.87 1.81 20.57 3.49 1.51.68 2.8 1.02 2.42 3.07ZM504.9 623.24c-1.82-.37-1.86-1.97-2.02-3.46-.33-2.95.86-15.66 1.7-18.37.44-1.4.93-3.32 2.82-3.16 2.41.51.6 11.97.24 14.22-.6 3.68-1.74 7.21-2.74 10.77Zm66.02 65c.29 2.61-.04 1.58-1.47 2.02-3.26 1.01-21.16 1.86-22.53-.04-.3-1.6.34-2.16 1.73-2.76 6.37-2.74 15.53.48 22.27.78Zm141.01-143 4.5-15.99 6.48-10.01c-.32 9.27-4.86 19.23-10.98 26Z" class="cls-3"/><path d="M607.16 530.99c-2.96-2.87 1.11-7.85 4.49-8.62 3.05-.43 5.02 3.61 7.24 5.37-2.08 3.28-8.66 6.23-11.73 3.25Z" class="cls-1"/><path d="m610.91 496.24-2.96-.02c-.56-3.17-6.82-20.07-2.52-20.98 1.7-.36 2.02 1.32 2.48 2.5.84 2.16 3.86 17.67 3 18.5Z" class="cls-3"/><path d="M602.92 590.23c-3.79-.24-5.2 2.8-6.99 5.53l-2-1.03c-.79-5.54 9.12-12.77 9-4.5Zm-92-145.99c-.45 4.03-6.91 4.93-10 6-.35-6.15 5.6-4.66 10-6Z" class="cls-1"/><path d="M711.42 546.24c.65.33.65.67 0 1v-1Z" class="cls-3"/><path d="M245.92 365.24c16.73-3.38 31.37-3.17 47.54-2.04 8.09.56 17.47 1.1 25.46 2.04 2.06.24 6.76.74 8.3 1.21 7.03 2.12 15.67 3.56 23.7 4.79l2.9 4.9c-25.21 13.19-62.42 24.6-90.44 15.14-10.38-3.5-22.99-14.29-17.46-26.04Z" class="cls-2"/><path d="M232.92 364.24c4.2-.2 8.45.61 12.43-1.04l.57 2.04c-5.53 11.75 7.08 22.53 17.46 26.04 28.02 9.46 65.23-1.95 90.44-15.14l-2.9-4.9c1.66.25 3.81-.9 5.04-.44 4.17 1.56 12.6 7.67 15.96 9.44l-29.06 16.44c-25.83 9.01-53.59 16.28-80.72 7.85-3.1-.96-15.14-6.08-17.18-7.82-1.28-1.09-8.39-11.81-9.09-13.91-2.24-6.77-.37-12.39-2.95-18.55Z" class="cls-1"/><path d="M357.92 632.24c-.09.06.41 1.76-.66 2.01-1.56.38-3.6-.3-5.6.22-4.97 1.31-17.25 22.07-22.22 20.76l-1.51-2.48 15.99-15.03c1.43-2.85-6.04-1.15-7.38-.38-4.86 2.79-15.46 22.4-20.15 22.93-11.34 1.29 6.17-16.73 7.56-18.52 1.46-1.89 1.82-2.83-1.02-2.52 4.68-3.32 3.69-1.18 9.44-2.06 2.72-.42 5.51-2.7 8.52-3.48 5.11-1.33 10.8-1.56 16.04-2.46.43-.07 1.19.39 1 1Zm-320.01 27c-.44 1.09 1.29 9.12-1.48 7.99-4.74-3.43-4.92-7.04 1.48-7.99Zm230.01-113 5.37-.93c3.41 1.33.62 6.25-1.73 5.84l-3.64-4.91Zm190.99 118c.43 1.88-1.06 2.37-1.99 3.5-3.62 4.37-24.66 25.75-28.43 27.57-1.21.58-2.04 1.28-3.56.93-.44-3.17.03-4.3 1.94-6.55 4.33-5.11 18.8-17.11 24.58-21.42 1.25-.93 6.18-5.25 7.47-4.02Zm-197.99 17c5.71-.92 9.24-9.79 12.56-13.94.94-1.17 1.65-2.41 3.44-2.05.55 2.06-.69 2.72-1.46 4.03-2.97 5.07-12.29 15.21-13.52 19.49-.41 1.44.1 1.74 1.49 1.49 4.75-.87 7.53-10.17 12.48-11.01 1.66 1.81-5.79 8.9-6.84 10.65-3.79 6.35-3.44 12.18-3.16 19.34-2.53.78-2.83-3.31-2.91-4.63-.2-3.36 1.41-7.34.75-9.64-.58-2-3.62-2.71-3.85-5.24-.04-.43.83-7.73 1.01-8.49Zm241 44.01-25.67 27.84-3.33-1.37c-.48-2.34 14.33-16.69 16.99-18.99 1.82-1.58 10.05-9 12.01-7.48Zm-240-66.01c1.16 5.12-8.93 9.43-1.52 12.99 4.05-2.82 12.02-14.04 16.04-14.98 7.42-1.73-3.94 7.82-4.52 8.49-1.91 2.23-10.57 12.72-11.01 14.49-4.19-4.73-7.12-12.89-3.02-18.53 1.53-2.11 2.9-1.69 4.02-2.47Zm109.99 27c.21 2.06-1.33 3.53-2.48 5.01-2.25 2.91-19.58 18.75-22.08 18.99-1.26.12-3.18-.36-3.44-1.52-.48-2.23 18.55-17.18 21.66-19.32 1.07-.73 5.52-3.97 6.33-3.16Zm138-19-21.63 24.91c-2-.22-3.56-1.86-2.98-3.94.89-3.24 22.05-23.19 24.62-20.97Zm-60.99 15.01c-2.59 5.93-7.58 9.99-11.99 14.49.99 2.38 8.7-5.43 6.98-1.02-.83 2.14-13.06 15.52-14.98 13.51-1.11-5.15 4.63-5.86 6.99-9.51l-4.98-2.97c2.05-1.93 15.54-16.74 17.99-14.5Zm-89 85.99c-1.1.68-12.81 7.5-9.52.98 2.61-5.17 19.22-17.06 25.52-17.97-3.11 6.74-15.36 9.85-16 16.99 5.39-3.36 8.78-8.7 14.99-9.99 1.8 1.73-12.78 10.84-13.51 12.99-2.09.88-1.56-2.12-1.49-2.99Zm11.99-61c.28 2.61-1.56 4.58-3.02 6.47-2.02 2.62-12.01 12.94-14.44 14.59-2.84 1.92-5.61-1.42-3.6-3.61l21.06-17.45Zm-13.99 4.99c-3.01-3.01 11.28-14.08 13.84-15.65 1.34-.82 3.54-2.05 5.13-1.86-1.97 2.8-15.6 20.88-18.97 17.5Zm142.51 24.03c-.22 4.02-11.56 15.77-14.44 16.57-1.34.37-2.79.2-3.07-1.11-.55-2.65 14.49-13.93 17.51-15.46Zm-65.52-99.02c.42 1.86-1.03 2.37-1.99 3.5s-10.7 10.11-11.45 10.55c-1.59.93-2.69 1.22-4.55.95-.37-2.06.23-2.64 1.48-4.01s15.64-11.82 16.51-10.98Zm-81 3c.72.7-6.14 11.36-7.12 12.37-2.6 2.67-5.41 1.85-4.47-1.45.58-2.02 9.6-12.87 11.59-10.92Zm85 104c.44 1.88-1.07 2.37-1.99 3.5-1.48 1.8-10.83 13.65-13 11.49-.43-2.02.45-2.67 1.45-4.04 1.21-1.66 11.99-12.45 13.54-10.95Zm70-65c.43 1.88-1.06 2.37-1.99 3.5-1.47 1.78-10.71 11.61-13 9.49-.43-1.88 1.06-2.37 1.99-3.5 1.41-1.71 10.95-11.44 13-9.49Zm-132 83c1.74 2.19-9.71 12.53-11.99 13.52-1.4.61-2.76.1-3-1.03-.37-1.77 12.67-11.01 14.98-12.49Zm53-130c1.43 1.43-10.96 15.36-14.99 13.99-.41-1.86 1.02-2.37 1.99-3.5 1.25-1.45 11.79-11.7 13-10.49Zm83 53c1.08 1.08-6.25 9.73-7.48 11.01-1.46 1.52-3.19 4.04-5.51 3.98-2.11-2.4 11.17-16.82 12.99-14.99Zm-71 65c1.29 1.33-8.99 14.08-10.99 11.99-1.79-3.85 9.79-13.23 10.99-11.99Zm59-5c.5.52-4.73 12.51-7.48 11.99-4.7-.9 5.98-13.53 7.48-11.99Zm-72 43c.86.78-4.9 9.61-7.99 7.99-1.23-2.73 6.25-9.57 7.99-7.99Zm-135-44c1.1 1.1-4.06 8.5-6.99 6.99-1.51-2.93 5.89-8.09 6.99-6.99ZM190.86 606.31l.05 2.92c-5.87-2.06-5.35.69-8.98 4-.85-5.76 3.87-8.98 8.93-6.92Zm-98.95 94.92c-4.24-.28-6.06-1.93-6.99-5.99 3.39-.14 7.58 2.03 6.99 5.99Z" class="cls-4"/><path d="m461.92 458.24-6-.58c-20.33 9.42-40.23 21.39-60.64 30.44-5.85 2.6-19.11 8.8-24.88 9.17-9.01.58-5.66-4.2-.15-7.21 9.32-5.08 21.44-9.02 31.35-13.65 16.98-7.93 33.78-16.27 50.72-24.28l1.6-4.9c3.03 3.72 5.19 7.52 8 11Z" class="cls-1"/><path d="M463.92 474.24c1.54-4.13 4.41-6.23 2-11 .11.11 1.1-.17 1.67.31.73.63.84 2.21 1.96 2.6 2.39.82 8.99-3.86 11.34-5.47 3.1-2.13 4.06-4.22 9.03-6.44.12 2.05.14 4.03-.47 6.02-.76 2.5-7.52 20.88-8.48 21.53-4.03 2.72-13.04-5.99-17.05-7.55Zm-2 0c-.43 1.43-1.54 1.99-3 2 .25-.33-.03-1.78.96-2.59 1.11-1.09 1.81.55 2.04.59ZM653 590.16c-1.3-1.86 6.98-19.72 8.7-22.64.48-.82-.29-1.67 1.7-1.27 3.71 3.86 19.3 23.19 18.51 27.46-.29 1.54-3.1 1.61-4.44 1.56-2.62-.1-23.76-4.09-24.47-5.11Zm-86.08-83.93c-6.77 2.01-14.79 3.27-21.58 1.06-1.05-1.43 4.99-17.6 6.55-18.6 2.41-1.55 4.1 1.07 5.54 2.54 1.74 1.77 10.64 13.43 9.49 15Zm13.99 141c-.95.9-21.68-6.6-24.79-7.74-.97-.35-2.99.21-2.2-1.75.87-2.15 16.01-12.11 18.34-11.43 2.49 1.73 9.48 20.13 8.65 20.91Zm106.15-172.14c-1.16-2.01 1.94-19.9 3.36-19.84l10.5 19.45c-.5 2.57-11.62 1.79-13.86.38ZM461.19 576.02c.08.2 2.89.46 1.72 3.21l-4.87-.93c-3.03 5.38-5.91 13.88-13.12 13.93l2-28c.84-.92 13.49 4.15 15.01 5.51 2.5 2.24-1.64 3.96-.74 6.27Z" class="cls-4"/><path d="M228.91 309.24v5.99l5-.99-2 6.99c-1.7.43-.6-1.5-1.1-1.89-.68-.54-2.57 1.32-3.89.48-.91-.58-1.08-2.98-2.66-3.45-1.32-.39-7.51.61-9.33.87l.97-4.57c3.56 1.23 7.9-1.91 8.52 1.57 1.74-.7 1.29-5.69 4.5-4.99Zm53-.01-8.99-2.01c1.1-2.5 2.53-3.34 4.99-1.99l-1.99-2.99 3.08-.61-.08-3.4c5.65.35 3.45 7.09 2.99 10.99Zm-50.99-4.98c.44-.67 14.86-3.53 14.98.49.1 3.26-12.13-2.15-13.48 3.48-1.27-.67-2.13-3.01-1.5-3.97Zm12.99-29.01-1.99 3.5 2 1.14c.81 7.55-5.36.41-6.98-2.15l6.98-2.49Zm20.95 75.94-7.94 2.05 4.53-6.99c1.81-.44 4.18 3.13 3.41 4.94Zm-29.94 5.06-7.03-.48-.97-3.52c4.16 1.16 4.92.84 7.98-2v6Zm19.93-58.06-5.47 1.77-2.47-3.71c4.03.76 5.17-2.17 7.99-4l-.05 5.94Zm-15.94-32.95.01 6.01h-5.01l.45-5.06 4.55-.95z" class="cls-2"/></svg>