<svg xmlns="http://www.w3.org/2000/svg" id="Layer_2" version="1.1" viewBox="0 0 1024 1024"><defs><style>.st0{fill:#ffb366}.st1{fill:#1e1b4b}.st2{fill:#d77e90}.st3{fill:#bd2846}.st4{fill:#ff8000}</style></defs><path d="M357 495.4c5.8-.7 2.2-1.5 8.8-.2s3.6-1.1 6.8 0 5.3 6.4 10.8 3.4c4.2 5.5 2.6 2.3 7 2.8s2.5.8 3.6 1.5c2.8 1.9-1.6.8-1 3l1.5 2.5c1.9.7 1.3-1.9 2.1-2 2.4-.5 10.3 3 12.3 4.6s2.1 3.4 3.1 4c1.6 1 4.2-1.5 5 1.4-.1.2-.4 3.1-.5 4 4.8-3 10.7 1.4 14.5 4.5 4.3 3.5.4 3.3 7 4.5s1.1 1 3 1c2.5 6.6 4.2 4.7 8 9s11.6 13 17 19.5.8 4.7 6.6 5.4l.4 7.1c-18.5 7.1-26.7 20-28 39.5-1.1 16.7 5.1 27.2 18.5 36.5 9.4 6.5 37.4 7 48.3 3.3s11.1-7.2 17.2-9.3 1.9-1.5 4-.5c6.7 3.1 9.9 17.7 13.6 23.4 1.7 2.5 7.7 6.8 8.3 8.8.9 3.1-1.8 3.6-1.9 6.3l7 2c2.5 4.4 2.9 3.6 5 6 3.8 4.2 4.4 12 6.3 17.2 2.8 7.8 6.7 5.8 8.8 9.2s.8 5.2 1.9 7 2 .5 2.1.6c1.4 1.7 7.2 10.4 8.2 12.3 1.6 3 2.6 12 3 12.5s1.7 0 1.8.2c4.9 4.7 4.7 8.7 3.9 15.4-1 8.5-9.3 23.8-14.5 30.5-1.6 2.1-7.5 9-9.4 9.6s-4 0-4.9.6-1.5 4-3.7 5.8c-3.3 2.7-8.9 4-12.4 6.6s-4.4 5.6-5.8 6.5c-3.7 2.5-28.3 14.7-32.6 16.2s-15.8.9-15.7 5.8c-4.3-1.4-4.1 2.7-6.9 3.6-4.9 1.5-5.7 1.7-10.4 3.6s-9.1 3.2-11.7-.2c3.3-5.9-1-15-2.6-20.9s-.4-9.3-2.4-10.6c-7.4-4.8-7.3 9-6.6 13.6s4.7 16.8 9.5 18.9c-1 1.4-.9 3.2-3.2 4.3s-7.1-.6-8.8 2.7h-2c-4.8-.4-13.3 2.2-19 3.5s-9.4 4.8-13.4 1.6c-1.6.3-2.2 3.4-2.8 3.7-1.7 1-5.9-1.1-5.8 3.2-14.8 2.4-9.4.7-11.3-10.2-3.1-18.4-18.4-35.4-38.2-34.8-15.5.5-33.2 12.1-42 24-3.5 4.7-6.8 23.7-6.4 29.6s2.3 2.4 1.9 4.4l-25.3.2-17.7 4.8c0-1.4.2-2.9-.2-4.3-1.6-5.5-7.3-25.1-11.4-27.6s-2.8-1.3-4.4-1.1c-5.7 11.9 6.8 23.2 3 35-21.7 0-43.6 3.3-65.5 3-4.4 0-5.9 1.2-11.5 0s-6.4-.9-7.5-4c-6.8 4.2-26.4.8-30.5-6.4s-.8-4.2-1.1-4.4-6.4-1.6-7.9-3.1c-4.7-7-10.4-14.6-14.2-22.3-8-16.6-7.2-37.4-10.8-55.7 1.6-2.9.4-7.1 2.9-9.6s3.7-1 4.8-1.7c1.7-1.2 7.9-6.6 9.3-8.2 3.4-3.9 4.3-6-1.3-8.3-5.1 0-12.5 12.5-15.7 3.8 1.9-8.3-3.6-14.1-5.4-21.1-2.8-11-3.6-30.5-2.6-41.9 3.3-.2 6.8.5 10-.5s20.8-13 21-14.2c.7-3.3-1.5-6.8-5.3-6.1s-13.9 8.7-19.7 9.4c-.6 2.2-3.9 3.2-4 3.5l-1-2c2.5-9.2-1.9-22.1 2.2-34.3s11.4-10.5 18.8-17.7c5.2 3.6 7.4 10.3 11.5 15 10.2 11.9 24.9 19.6 39.9 21.3 1.8.2 3.4 2.2 5.2 2.4s10.1-1.5 12.6-2c14.5-3 27.7-9.1 33.3-23.7s5.1-59.4-4.6-77.3-7.1-6.3-4.8-10.7h2c9.2-.8 10-5.7 17.3-9.2s7.2-1.8 7.5-2 4-6.6 5.2-7.8 1.5-.2 2.4-1c2-1.8 2.6-5.8 6.6-4.9 2 5.2 9.3 22.8 13 25.5s1.8 1.8 3.5 1.4c1.5-.8 1.4-2 1.6-3.5 1-8.2-7.9-21.7-11.1-29.5.7-.5 1.2-2.3 5-4s4.8-1 7.7-2.8 11.1-8.1 14-9 10.2 1.9 10.3-3.2l-3-2c2.7-1.2 8.9-3.9 10.9-5.6s1.6-3.9 3.1-4.9c3.6-2.4 9.6-.3 12-6.5 3.2-.7 5.3-1 6-5 1.3-.4 2.5-.5 4-1 6.6-2.1 8.5-2.7 15-3s1.4 0 2 0Zm-19 35c2.4 2.5 4.1 3 4 7s-1 4.2-1 6.5c0 5.9.2 26.1 7.6 27.5 3.1.6 11.7.8 14.7-.2 9.7-3.3 10.1-8.9 14.9-16.1s2.6-1.4 2.9-2.3c1.1-4.4-.4-18-3-21.8-14.3-20.9-48.9-16.2-54.8 8.3-6.6 27.4 4.5 54.6 35.2 56.3s16.5-.3 19.8-1.2 13.3-9.9 14.7-11.3c6.8-6.5 10.5-18.7 7.7-27.7-.5-1.6-3-8.3-5.2-4.8-1.9 10.9-1.3 19.8-11 27-4.1 3.1-21.9 9.3-26.5 8.6-8.5-1.3-20.3-8-23.8-16.3s-3.9-25.1-1.4-32 2.8-4.8 5.2-7.3Zm-58.3 88.1-3.8 3.4c-.2 2.6 2.6 5.6 2.9 8.2s-1 4.1-.7 5.5c1 4.3 10.2 7.2 11.7 2s-5.8-19.7-10.1-19.1Zm-22.8 15-4.9-1.1-.6 4 4 2c1.4-.4 2.1-3.9 1.4-4.9Zm170.8 15.6c.8-.8 1.4-3.2 1.3-4.3-.3-7.6-20.6-9.6-26.6-9.5s-13 1.1-13.4 2.7l1.6 5.4c5.2.4 9.8 3.2 14.9 3.9s6.5-.2 9.8.2 10.1 4 12.4 1.7Zm-100.4 81.6c7.4-2.7 10.1-1.8 15.6-9 2.5-3.3 4.8-6.1 7.5-9.5 14.6-18.2 5.1-45.5-18-49.8s-22.6-1.5-33.7 5.1c-20.2 12-33.3 32.1-15.7 53.4 10.7 13 25.9 16.4 42.2 12s1.9-2.1 2.2-2.2Zm48.6-49.2c-4.4-.7-7.1.1-5.5 4.9s6.5 1.9 9.6-.6l-3.9-1.6v-2.8Zm-172.1 13c-1.5-2.4-8.6-.6-5.5 4s7.6-.6 5.5-4Zm282.8 25.2c9 8.7-4.7 11.2-3.6 16s13.1 2.2 12.8-7.7-4.4-14.7-8.9-16.1c-11.2-3.5-21.5 6.9-22.9 17.3s-.3 11-.1 12.6c1.2 14.1 18.8 24.9 31.7 17.8s21.7-24 20.3-37.7c-.7-6.9-11.6-20.3-17.7-23.3-13.4-6.6-40.6-.8-50.3 10.3s-13.5 36.2-8.4 48.4 9.3 14.5 10 15c10 6.3 37.1 7.8 47.9 3.1s21.4-12.5 16.5-22l-14 10.5c-11.4 3.9-24 6.5-35.8 2.8-13.6-4.3-17.2-13.3-18.2-26.8-1.8-24.4 18.3-39 41.4-36.4 22.5 2.6 24.1 31 9 43.7s-26.3-6-23.3-22.3 8.5-10.1 13.6-5.2Zm73.3 9.8c-5.4-3.6-10.7 13.2-11.6 16.7-1.4 5.2-5.1 16.6 2.5 18.1 8.9 1.7 6.6-9.5 7.3-14.3s5.5-12.9 1.8-20.5Zm-362.1 28.7c9.4-10.5-12.6-19.6-20.4-20.7-11.8-1.7-4.2 8.3 1.1 11.9s13.4 7.5 15.6 8.4 2.6 1 3.8.4Zm194.9-15.7c-6.6 1.6.5 10.3 4.4 5.4s-1.5-6.1-4.4-5.4Zm17.1 31.7c3.5-5-2.5-8.7-6.4-11.8-5.3-4.3-11.2-6.3-16.2-10.8-6.7-2-6.7 5.5-2.8 8.8s2.9 1 4 2c5.9 5.1 12.7 12.9 21.4 11.9Zm-115.1 5.3c-5.3 1.4-26.2 37-8.4 31.7s8.2-16.3 10-21 2.1-2.3 2.5-3.5c.9-3-.3-8.2-4.1-7.2ZM135 842.4c.2 11.8 12.8 25.1 22.1 31.4 17.2 11.8 43.6 9.8 56.9-7s8.3-48-9.5-63.5c-23.7-20.6-67.5-6.7-73.5 24 0 .3-.9.8-1 1.6-.4 4.8 3.3 4.8 3.8 7.1s-3 6.7 1.1 6.3Zm177-29h-2v3h2v-3Zm2 4c-.1.1-.7-.1-1 0-.6.2-1.5-.2-2 0-.9.3-1.5.6-1.8 1.6v3.7c.4 1.4 3.4 2.2 4.8 2.6 7.4 2.1 9.3-7.8 2.3-9.8s-1.9 1.3-2.3 1.8Z" class="st1"/><path d="m375 491.4-34-111.6c-.5-2.9 7-7.9 10-5.4 1.9-2.2-9.1-11.2-11-13.5-4.2-5.1-7.9-10.9-11.7-16.4s-6.1-7.2-6.3-7.7c-.7-2.1 1.6-5.8.9-8.4-4.7 3.1-9-6.8-10.9-10.6-4.9-10.1-8.1-21.1-10.2-31.8-.9-4.4-2.1-8.8-2.9-13.2l3-3.4c-5.3-2.5-5.3-9.2-1-13.5l-3.1-1c1.2-8.2 0-16.6 1.2-24.8s7.7-34 12.1-44.9 3.1-5.3 7.8-3.2c-.3-3.9-5.7-1.3-5-4s3.6-5.1 4.7-7.3c4.1-8.2 11.1-25.6 18.4-30.6s2-.5 2.9-.6l-2-1.5c1.6-1.6 1.9-4.2 3.1-5.9s3.1-2.3 3.8-3.2c2.6-3.3 4.6-8.7 9.3-10.2 4.3-.1 4.4 2.3 6 3 8.5 3.8 11.3 5.3 18.8 10.1s6 .6 6 4.1-3.7 5.5-.5 5.5 2.8-3.8 1.5-6h2c1.5 3.6 8.4 4.3 8 10l4-1.6c6.6 5.7 14.8 11.1 21.1 17 16.7 15.8 35.2 40 44.2 60.8s2.3 8.7 4.6 12.4l-3.8 6.3 5-3c-.1 1.3.6 2.5.6 3.7s.3 6.5.8 7.3 3 1.2 3.3 2.5-.5 8.1-.8 8.5c-.5.6-6.7.4-5.9 4.1.6.6 4.7-2.5 6.5 0s2.1 16.6 2.1 18.7c0 6.6-.7 21.1-2 27.4s-2.6 1.9-2.6 2.5c0 5.4.2 4.6-.7 10.2-1.4 8.5-2.7 16.8-6.2 24.8l10-2.1c2.8 1.5 1.1 4 1.7 5.6 3.8 10.7 3.7 17.7 5.6 28.2s4.7 16.2 5.5 23.5c.3 2.5-1.4 6.1.2 9.3l-5 1.5 7 1.5 1.1 7.4-2.1 1.1c3.7 4.7 6 13.5 2 18.5 3.7.8 3.4 8.2 4.2 11.3 1.7 7 4.7 14.2 2.8 21.7 2.6.5 1.8-.5 2.4-2 1.9-4.4 6.3-11 7.3-13.7s-1.1-3.9-.5-5.6 2.1-2.1 2.6-3.5c4-12.2 9-23.8 12.8-35.2s3.8-15.1 5.8-16.8 2.5 0 2.7-.2-1.2-3.8-1-5.4c.4-3.3 5.1-12.9 6.5-16.6s.4-11 7.5-7.5l-3-2.2c.7-9.6 6.3-18.3 8.1-27.3h5l-5-1.5c1.4-3.1 3.6-4.5 5.4-6.5s-1.9-2.7 2.6-2c-.6-1.8-3.2-1.3-2.7-4.3.3-1.7 5.2-14.9 6.1-16.8 4.4-8.8 5.5-15.9 9.1-24.9 2.5-6.4 2.6-4.4 6.2-6.2s17.3-16.9 21.6-20.4l9.7-6.9 4 1.6c.3-1.7-.6-4.4.2-5.8s11.8-9.9 13.8-11.7c7.3-6.2 15.4-11.8 22.9-18.1s9.9-11.1 16.6-14.4l2.5 5c.9-2.7.3-7.4 2-9.5 6-7.3 18.9-14.1 25.5-21.5l16-11c6.4.7 6.1 17.5 7.1 22.6s3.2 14.3 4.4 21 0 3 0 4.5l-3-1v3h3.9l1.1 7.3-2.1 1.6 3.1.6c-1.6 7.9 2.4 14.8 3.7 22.2 4.3 25.1 8.6 50.4 12.8 75.2 1.4 8.1 4.8 19.8 2.2 27.3s-3.1 3.8-4.2 5.8-1.4 6.8-2.4 9.7-1.2 10.9-6.1 10.2l2 2.5c-3.1 4.8-2.7 12.1-8 15l2 2c-1.2 2.5-2.6 4.9-3.5 7.6-2.4 7.2-15.5 47.5-18.8 50.7s-3 .2-3.7 1.9c-.9 2.5 1.9 4.8 1.7 6.7-.3 3.4-4.1 8.5-5.3 11.7-4 11.4-8.3 22.7-12.2 33.8-.8 2.3-1.2 4.8-1.3 7.2l-4-3c2.2 4.4 2.3 5.5.7 10.2-3.2 9.6-6.7 20.1-11.9 28.9-.5.8-1.8.9-1.9 1.5-.4 2.2 1.5 4.3.9 6.6s-4.7 3.3-3.9 6.7c-2.6-.6-6.4-.3-10-1l17-49 2 1c1-4.6 2-9.5 3.5-14 11.7-33.5 24.9-66.9 37.1-100.9s2.9-11.2 4.8-16.2c1.3-3.3 3.7-10.7 7.5-10l-3-2.5c2.7-4.3 4.1-9.1 6.1-13.7.3-.8 1.6-.9 1.6-1 .2-.6-1.5-4.5.3-6.3-3.4-1.8-4.1 4.5-5.7 5.6-5.3 3.7-16.4 7-22.6 10.2s-5.6 3-8.4 4.5c-4.3 2.3-7.1 6.9-13.6 6.3-.9-.2-7.2-14.1-8.1-16.2-4-9.2-7-17.9-11.4-26.6-1.5-3.1.4-7.5-4.2-6.3l-22.4 65.1-3.6.9c1.8 3.5-.2 10.5-5 10l2 5.5-5 .5c-.9 3.1 3 1.6 3 4.4s-5.4 15.6-6.5 16.6-2.9 1-4.5 1l4 2v1.5c-.8.6-1.4 1.3-1.7 2.3-4.9 13.8-10.4 29.4-15.8 44.2-.9 2.4-4.4 8.2-4.5 8.7-.6 2.2-1 10.4-2.2 12.1s-3.2.6-3.6 1.4c-.7 1.1-1 9.4-1.6 11.8-2 7.1-7.5 18.2-10.2 25.8-3.6 10-6.3 20.3-10.3 30.2-1.2 1-1.9 2.6-2.8 3-1.6.7-6.4.6-7.2 1.1s.7 1.3.3 1.9c-.9 1.5-2.7 2.3-3.4 4h-1c1.2-11.4 7.5-22.4 11.5-33s3.7-8.9 5.6-13.3c1.4-3.2 2.2-14 5.1-16.4s2.2 0 2.8-.2-1.2-2.2-1.1-3.5c.2-2.1 2.6-2.8 2.9-4.2s-1-3.4-.7-5.6c.9-6 8.9-11.8 6.9-18.7l3 1c-1.7-5 1.8-9.4 3.3-14.2 1.2-3.9 2.6-11.3 4.2-14.8s3-2.3 3.2-3.6c.5-2.6-3.4-6.4 3.2-6.4.5-1.7-1.9-.5-2.1-1.6-.6-4.1 3.8-5 4.6-6.4s-.3-5.2.4-7.6 3.4-5.7 3.9-7.1.2-2.9.2-4.3l3 1c.5-2-1.8-2.5-1.8-4.3 0-4.5 4.4-7.3 4.8-8.5 1.5-4.1 2.5-13.4 4.5-17.2s2.7-2 4.5-2c-4.3-4.9-.5-4.4 0-5.7 2.9-7.7 4.5-16.5 7.3-24.5 3.3-9.3 7.3-16.8 10-26 1.1-3.7 3.1-8.7 4.7-12.3-2.5.5-4.8 2.9-7 4-7.9 3.9-16.1 7.8-24.8 12.2s-15.6 11-20.9 7.2-4.3-12.2-5.1-14.4c-.7-1.8-2.4-2.9-3.1-4.9-1.4-4.2-2.8-11.2-2-15.5l-4.8-.2-4.7-14.8-3.4 7.6-7.1.4 4 1-1.1 3.4 2.1 1.2c.7 4.5-4.5 5.8-5 6.5s1.1 2.1.9 3.3c-.5 3.5-6.6 19.5-8.3 22.3s-3.1 2.2-3.7 3.8c6.2 3.6-.3 6.6-1.3 8.7-4 8.4-6.5 22.4-10.3 31.7-1 2.4-2.6 4.4-5.4 4.1-.8 3.6 2.6 1.1 4 2.5-4 2-2.2 5.9-3.5 8.5s-3.2 1.5-3.9 3.2-.2 4.4-.7 6.2c-1.9 6.9-5.7 20-8.9 25.8s-2.4 1-2.8 2.3c-3.3 13-5.9 19.2-10.2 31.2s-8.8 23.6-9 27.8 2.9 18.6 3.4 21.4c.8 4.6 4.4 5.8.6 10.5 1.3.2 3.7 6.7 3.8 8.2 1.9 17.9 5.3 37 9.1 54.9.7 3.1 1.3 6.2 1.1 9.4-3.2 2.3-5.7 4.6-10 5-.7-3.9-1.3-8.5-1.7-12.3s2.4-3.2-1.3-4.2v-1.5h2v-1.9c-3.8-1.8-3.3-11.8-4-16.5s-1.7-2.5-1.8-3.3c-.2-1.3 1.8-2.3 1.7-3.6s-2.7-3.2-2.9-5.2 1.3-3.6.9-4.9-2.5-1.3-2.8-1.7.9-6.3.8-7.3-1.5-6.3-2.1-9-2.1-5.7-2.8-9.2.2-6.6-1.2-9.8l2.1-1.6c-4.8-.4-2.4-5.2-3-8.5-1-5.2-2.7-11.2-3.9-15.3s-3.3-21.5-3.1-22.6 3.2-.8 2-3.6l-3.9-1.7c1.3-3.9-.8-5.9-1.1-8.8s.9-2.6.8-3.9-2.4-3.8-2.6-5.3 3.2-3 2.8-4.7-4-3.3-3.1-6.5h-2.9c3.1-3 .4-3.3.4-4.8-.9-19-5.6-37.2-7.7-55.7l-4.7-16.7c-4.4.7-8.4 2.9-12.7 3.7-6.3 1.2-14.7.9-20.5 2.3s-3.3 3.3-4.7 3.5l2.5 3.5-1 3-2.1-3.1-4.4 2.1v-5c-5.6-.4-10.3 5.2-16 3l-1 4c4.5-.6 4.9 3.8 3.8 7.3s-7.8 3.2-8.8 7.2c0 1.1 6.9-.6 6 3.5l-12-3c-.4-2.6 2.2-3 4-3 .6-4.7-3.5-3.6-4-4s1.1-4.5 1.2-4.8c.7-1.1 6.1-2.5 7.8-2.2.4-4.8-8.6-3.2-10.5-.9s-.1 2.3-1.2 2.9c-1.6.9-5.3.8-7.3 1 .5 4.5-2.5 3.4-2.1 8.5s2.4 7.4 8.1 6.5l-5-2c1.7-1.5 2.4-5.5 5-5-1.3 4 3.7 6.7 7 5-1.4 7.7 2.5 5.9 6.9 9.6-.9 3.8-3.8 7.1-7.9 6.4l1.6-6-10.6-4c-.7 2.2 1.7 4.2 1.8 5.7s-1.6 3-1.6 3.8 2.1 1.8 2.6 3.2c.6 2.1-.2 4.6.2 6.8s2.1 2.9 2.1 5-5 11.7-4.1 12.5l10 1-2 9 3.5-5c6.3 3 0 12.3-3.5 15.5s-3.3 1.1-3 2.4c4.6.2.8 4.8 5 6-.6-5 3.2-8 6.6-10.9l6.3 4.4-11 4.5c-.7 2.7 3.4 2.9 3.9 4.6 1.6 5.3-7 4-9.2 4.4s-2.9 4.9-3.2 5c-2.5.5-8.8-3.2-7.5-5 3.2-1.4 12.5-.3 12.1-5.4s-1.5-.5-1.7-.8c-1.1-1.7 1.1-4.4-2.3-3.7.8 1.8 1.2 6.7-2 6l-1.5-15c.9-1.4 3-3.1 4.5-1.3s-.7 1.7 1 1.3l2-6-3-1.5 2-3.5c-3.3 1.9-5.8-4.9-8-3s2.2 3.4 2.7 4.6.4 7 .2 7.2-2.6.4-4 1.5c-2.5 2.1-3 6.4-4.9 8.2s-5.3-.2-4.1 6.4c-1.6.2-1.2-2.3-2.5-3-4.9-2.4-.4 5.2.7 5.8s4.1 0 5.8.2v6h4v7c4.1-2.2 10.6 2 11-3h1.5c1.8 4.6 10.3 1.2 9 6h-3.5l-1 7c-3.8-3.1-3.3-8.5-9.9-6.9-1.4 8.4 2.8 6.7 7.9 7.9-.4 1.3-.6 2.7-1 4-.7 1.9-1.3 5.4-4 5l2-5.5-5-1.5.8 2.7-2.8 2.2c-.6-.3-1.8-.4-3-1l3-2-1.2-4.8c-4.3-.3-6.8-1.6-5.8 3.9-.2 0-.9 1.2-3 .6s-4.4-6-5-.6l-4-3Zm-3.2-349.9-5.8-2.2-1 6c2.6-.6 4.4-1.6 7 0l-.2-3.8ZM354.5 178c1.8-3.5 8-13.4 3.4-16.1-7.5-4.5-4.6 5.6-6.5 7.6-5.7.2-7.3 5.8-5.5 10.9l-7 2.1c4 6.4-2.9 12.9-3 20 6.7-2.2 4.8 5.3 1.2 2.8s.5-2.7-2.2-1.8c-3.9 20.2-6 40.9-3 61.5l-3 .5c-.6 3.1 3 2.3 4.1 3.7 2.9 3.6 1.1 5.5 8.9 4.3 1-6.7-1.6-13-2-19.5-.5-7.1 1.8-22.4.8-27.9s-1.7-1.7-1.8-3.1 1.6-.4 2-1.3c4.5-11.5 4.1-26.1 10.1-36 1.3-2.1 2.3-5.3 3.5-7.7Zm308.4 55.4c-5.6 4.4-13-2.2-19-4-1.6 5.6-8.4 7.3-11.5 10-13.5 11.5-28.9 28.9-43.5 38.5-1.1.7-2.1 1.5-3.4 1.6l-1.6-3h-1.5c-.6 2.4-6.2 2.5-5.5 4.5 1.1 3.5 5.6-2.9 7-1.5 2.6 2.8-3.9 3.4-4 5h4c-1.7 5.7 1.6 5.5 2.8 7.7s1.4 6.1 2.5 8.6c1.1 2.7 4 5.8 4.7 9.3-6.1.3-1.5 5.7 2 3.5l-.9 2.9c5.5 1.4 5.1 8.8 6.4 13.1.6 2.1 3.2 2.9 1.6 5.9.8.8 14.2-8.4 16.1-9.4s4.3.2 3.9-2.6l3 2c0-5.5 3.9-3.7 7.3-5.3 4.9-2.2 11.1-6.9 15.5-9.8 5-3.3 8-5.1 14.2-3l-2 1.5c-1 3.3 2.6 2.5 3.6 4.5s.1 3.3.8 4.8 3.9 3.6 4.9 5.6c2.5 4.8 2.8 12.4 5.9 15.3l-1.1 3.4h2.9c.1 5.5 3.3 7.5 3.9 13.6 0 .8-.9 2.3-.8 2.4.6.6 6.2 0 4 5 6.8 1.5 19-10.5 23.5-10.1s-.2 2.5 1.5 2.1c-1.1-4.7 1-5.7 5.5-6.5s3.1.9 3.5.5v-2.9c6.8.8 8.1-7.8 16-6.1l-6.9-47.9 2.9-1-4-1.7c.7-7-2.4-13.8-3.7-20.1s1.1-10.4-3.7-14.3l-1.9 1.9-29.6-12.4 2-2.5c-6.8.7-10.5.5-17-1.5s-10.6-3-10.1-7.5Zm-291.3 70.7c.6-1.9.3-3.8.3-5.7-1.7 0-.5 1.9-2.9 2.6s-4.7.4-7.1.4c.3 4 3.8 4.8 6.9 3.1l1.1 1.9c-.5-1.4 1.6-2 1.7-2.3Zm17.4 54.3c4.3 1.5 8.4-7.1 4.5-8s-4.8 5.9-4.5 8Zm-15.6 27.5c-.7-.8-1.3-1.7-2-2.5l-1.5 1.5c.7 2.4 3.9 3.5 4 4.2.4 1.5-2.5 8.5.4 7.3l3.5-3.5c-2.8-2-2.4-4.3-4.5-7Zm9.6 20.5c7.6-1.5-1-16-.9-4.4 0 1.6.7 2.9.9 4.4Zm7.5 20.6c3.7-6.5-4.6-5.4-5.6-3.1s2 1.5 2.6 2.5-1.6 3.7.9 5l.5-3.4c0-.6 1.4-.6 1.6-.9Zm319 9.4v1c.6-.3.6-.7 0-1Z" class="st1"/><path d="M577 565.4c2 4.2 3.5 2.4 2.4 8 10 18.3 16 38.9 25.8 57.3 1 1.9 4.3 6.6 6.3 6.8s14-6.6 16.8-8.2c28.4-16.5 54.8-34.3 84.4-49.6 1.6-.8 3.6-.9 5.2-1.8l-1-3.5c24.2 3.1 48.3 10.6 71.8 16.7s6.9 4.7 10.1 5.9c6.7 2.3 13.3-.6 15 9.5-8.3-.2-8-3.2-15.6-6.9s-16.8-6.2-24.4-9.1c.7.7.9 2.9 1 3s4.1-.1 2 2-1.8-1.9-2-2-4.6-.9-5.3-.8c-1 .2-3.2 2-4.2 2.8-26.5 20.5-52.6 44.8-78 66.9-14 12.1-30.1 24.3-42.5 37.5-.8.9-2.6 1.3-2.8 1.7-2 3.4 3.4 8.1 5 11.1 5.2 10.2 10 21.2 16 31 2.1 3.4 6.8 6.3 6.8 10.7 1.8 1.7 19.7-13.7 22.1-15.4 21.3-15.5 47.1-31.4 66.9-48.1 12.9-10.8 26.9-31.5 39.5-44.5 8.9-9.2 15.5-14.8 23.6-24.9.1-.1 1.7.7 3.2-.2s7-6 5.7-7.9c-3.5.7-6-3.5-7-4 2.5-2.3 8.3 2.4 10.3 4s10.5 9.7 13.2 13c3.1 3.9 4.6 8.9 7 12s8.2 3.7 6.5 11c-2-1.7-2.3-7.6-6.5-8-3 0-9.8 7.4-12.6 9.4-15.2 11.1-33.5 22.3-47.8 34.2-8.2 6.8-12 14.5-18.4 22.1-2 2.3-8.9 4.6-1.6 7.4l-.6 2.1c-5.3-.6-12.4-1-17.4 0s-9.3 1.1-8 5c0 0-.7.8-1.5.8-1.5 0-2.6-1.2-4.5-.4s-7.8 8.7-8.4 9.6c-3.1 5-4.4 15-4.6 20.9s0 4.7 0 7c-6.4 2.2-5.8 13-7.3 18.2s-2.5 6-3.7 7.8-2.4 1.6-3.4 3.1c-2.2 3.2-11.2 15.9-11.6 18.5-.8 5.7 5.4 9.7 7 13.4 3.2 7.4-.4 17.6-2 25-.4-.1-1.3.3-1.8-.2-1.1-3.7-3.3-7.9-5.4-11.1s-6.8-10.4-9.2-9.6c-4 1.3-29.7 48.3-35.8 54.2-2.1 2.8.2 4.9 3 5.5 6.9 1.5 20.7-.3 26.6 1.3s.6 1.9.7 2c-15.7.9-31.2-2.2-46.7-3.6s-8.7 0-12.9-.4-4 1.1-3.5-2c6 0 9.6.3 14-4.5l44.9-70.2c.6-4-3.3-4.9-5.1-7.5-4-5.8-6.1-13.5-12.4-17.7-7.9 4.9-15.7 10.1-23.3 15.5-22 15.8-43.7 32.8-66.1 47.9s-19 10.2-26.2 15.5-4.1 5.2-6.7 6.5c0 .7 4 2.1 5 2.5-13.7 2.8-26.5-5.7-40.6-6.9-2.3-.2-4.3 1.2-7.6.7s-7.2-4.8-12.3-5.7c-11-1.9-17.3 1.5-27.4.9 1.7-3.4 5.7-1.4 8.8-2.7s2.2-2.9 3.2-4.3 1.8-.7 2-1c2.6 3.4 8.4 1.6 11.7.2s5.5-2.1 10.4-3.6 2.6-5 6.9-3.6c0 .6 1.3 1.3.5 3-1.5 3.1-8.7 7.2-7.5 13 2.5.4 5 2.1 7.5 2.2s1.5-2 1.9-2.1c3-.7 2.4 2 3.1 2.1 5.6.3 23.1-11.8 28.7-15.3 22.4-13.7 45-29.3 67.6-43.4l50.1-35.9c.8-.9 1-1.8.9-3-.2-3.2-10-17-12.2-20.9s-10.5-22.1-14.5-23.5c-5.6-2-5.8 2-8.4 4.2-8.1 7-16.5 14-22.9 22.6-.1-.1-1.4.3-1.8-.2s-1.4-9.6-3-12.5-6.8-10.6-8.2-12.3l3.6-5.9 24.9-24.1c2.1-2.7-7.2-19.7-8.4-20.5s-1.6-.6-2.5-.5c-11.5 6.2-23.3 15.6-36.6 17-2.1-2.4-2.5-1.6-5-6s-1.6-3.3-3-5.5-1.6-.7 0-2l34.8-21.7c2.4-3.6.8-6.9-.6-10.4-3.3-8.5-8.9-17.5-12.6-26.4-2.6-6.2-9.9-32.1-15.2-33.8s-4.7-.4-6.3-.2c.7-1.7 2.5-2.5 3.4-4s-.4-1.9-.3-1.9c.8-.5 5.6-.4 7.2-1.1s1.6-2 2.8-3c2.3-1.8 4.7-4.7 7-6Zm116 55c-10.2.2-17.9 7.6-26.3 12.2-12.4 6.7-28.5 18.2-39.7 23.3s-6.2-.3-6.7 4.2 5.4 9.6 6.2 14.4c1.3 1.5 3.6 1.3 5.1 0 13.1-12.9 27.5-24.7 41.5-36.5s9-6.7 13.4-10.6 4.7-4.4 6.5-7Zm33 116-15.2 9c-4.2 6.3-26.7 17.5-29.2 23-2.8 6.2 3 10 5.9 14s1.6 8.4 6 5l32.5-51Z" class="st2"/><path d="M861 649.4c.4.3 1.9.2 3 1.4 4.2 4.4.9 21.4.9 28.1 0 4.7 2.1 8.6.6 13.5-3 9.8-4.2 20.5-6.5 30.9-5-.6-4.4 6.3-8 9-.5-.2-2.1.4-2.9 0l-.2-3.9c-10.4-1.6-19.5-10.6-30.9-8.9-.2 5.3-3.4 10.4-4 15.5-2.2 18.2 1.8 43.1 18 53.8 1.2.8 2.4 1.7 3.9 1.6.2-12 16.9-44.5 30-44s1.6.9 2 1c-10.2 10.5-20.7 19-24.5 34-3.3 13.2-2 15.2 10.5 19.5 17 5.8 30.9 3.1 48-.5.6 1.3 1.4 2.6 2 4-3.6 1.7-6.8 2.9-10.8 3.7-8 1.7-23.5 2.6-31.5 1.1s-13.5-6.7-20.7-6.8c1.8 3.1 0 6.1.2 8.5.2 3.9 5 29.1 7.4 29.6s2.4-.1 3.4-.6c10.1-8.9 19.9-16 32.8-20.2 3.8-1.3 21.4-7 23.3-2.7s.2 2.1-1.2 2.7c-2.9 1.3-8.8 1.4-12.5 2.5-10.5 2.9-21.4 7.4-30.1 13.9s-8.8 7.3-9.1 7.9l17 14c4.6 5.6 8.6 11.5 12.2 17.8 3 5.1 4.8 13.4 9.5 16.5s7.3 1.1 6.3 5.2c-4.6.5-7.9 0-13 1-1-6.4-7.9-8.6-12-12.5-6.9-6.5-13.3-14.5-18.8-22.2-2.1-2.9-6.2-12.9-9.5-12.2s-9.5 12.6-10.4 14.5c-4.8 10.1-6.3 24.2-6.2 35.3-.9 0-3.1.8-5 1-2.2-17.2 3.5-35.7 13.6-49.9 1-1.4 5.3-4.9 5.4-5.6.4-1.8-4.4-3.5-5.5-3.5h-23c-3.4 4.5-.4 11-.4 16.5-.1 11-3.4 22.2-7.9 32.1s-4.8 11.5-12.2 11.3c-1.2-4.1 2-4.1 3-5.7 6.7-10.5 12.7-29.4 12-41.8-.7-12.2-2-11.6-13.2-9.2-26.5 5.9-54 20.8-64.8 46.7-1.5-.4-14.7-3-15.5-3h-19c-.6 0-10.1-2.7-10.5-3s.4-1.7-.7-2c-5.8-1.6-19.7.2-26.6-1.3-2.8-.6-5.1-2.7-3-5.5 6.1-5.9 31.8-52.9 35.8-54.2s7.9 7.5 9.2 9.6c2.1 3.2 4.3 7.5 5.4 11.1.5.5 1.4 0 1.8.2.8.2 1.2.8 2.3.7 6.1-.5 24.4-9.9 30.7-13.2s30-16.4 30-20c-.7-1.1-1.8-1.5-3-2-5.6-2.5-31.3-1.2-38.4-.4s-13.1 3-14.9 4.1-1.7 5-4.7 5.8c-1.6-3.7-7.8-7.7-7-13.4.4-2.6 9.4-15.3 11.6-18.5s3-2.4 3.4-3.1c2.6-.1 4.6 1 7.2.8 6.5-.5 22.7-4.6 29.1-7s21.8-11.8 22.6-14.5c.8-2.8-.8-4.3-3.2-5.5-9-4.5-35.1-3.1-44.7.2v-7c10.5-1 20.9-3.9 31.5-3s11.9 4 18.5 5c.7-6.7-4.4-12.3-8.5-17s-15.3-15-22.5-16c-1.3-3.9 4.8-4.4 8-5 2.6 4.6 7.9 5.4 12 8.5 6.8 5.2 17.1 19 18.8 27.2s-.3 6.3.7 9.3 3.3 3.6 4.4 5.6c8 14.4 5.5 24.2-1.6 38-1.4 2.7-4.5 4.1-3.1 8.2 13 2.9 17.4 17 25.6 25.9l29.3.2c-5.1-13.1-7.3-27.2-7-41.3-3-2.3-6.6-4.2-9.5-6.7-16.2-14.1-20.4-35.7-18.6-56.5.4-5 5.4-15.3 3.6-18.5s-8.5-3.9-10-3.9c-3.6 0-9.4 3.8-13 3.9s-12.1-3.1-13.5-2.1c-7.3-2.7-.3-5.1 1.6-7.4 6.5-7.6 10.2-15.3 18.4-22.1 14.3-11.8 32.6-23 47.8-34.2s9.6-9.5 12.6-9.4c4.2.4 4.5 6.3 6.5 8Zm-145 159c13.2-1.5 28.2-4.9 41.5-4 6.4.4 17 4.8 22.5 2.5s9.2-12.7 9.8-16.2c.8-4.5 0-25-7.1-23.2-11.3 13.3-27.7 20.2-44.7 23.4-3.8.7-15.3 1.1-17 2-3.3 1.6-5.8 12-5 15.5Zm87.9 33c3.6-9.1-16.9-27.6-24.3-25.8s-5 4.7-7 6.1c-19.8 13.5-42.4 26-65.7 31.8 1.7 3.6-.4 6.7 0 10.4s2.7 11.4 3.2 12.9 6.1 6.5 6.9 7.1c2.7 2.1 5.9 3.9 9.3 4.4 17.7-25.6 46.2-44.1 77.6-46.8Zm75 41c-.5-10.1-10.7-20.1-18-26.5s-7.3-6.2-8-5.5c.2 3.1 2.9 6.3 4.6 8.9 4.6 7.1 11.4 15.7 17.9 21.1 1.1.9 1.6 2.4 3.5 2Zm-64.9-276c1.4 0 8.8 2.4 10 3s3.5 4.8 7 4c1.4 1.9-4 7-5.7 7.9s-3.1 0-3.2.2c-8.1 10-14.8 15.6-23.6 24.9-12.6 13.1-26.5 33.7-39.5 44.5-19.9 16.6-45.6 32.6-66.9 48.1s-20.3 17.2-22.1 15.4c0-4.4-4.8-7.3-6.8-10.7-6-9.8-10.8-20.8-16-31-1.5-3-7-7.8-5-11.1s1.9-.8 2.8-1.7c12.4-13.3 28.5-25.4 42.5-37.5 25.4-22.1 51.5-46.4 78-66.9 1-.8 3.2-2.6 4.2-2.8s5.1.6 5.3.8-.1 4.1 2 2-1.8-1.9-2-2-.3-2.2-1-3c7.6 3 16.9 5.6 24.4 9.1s7.3 6.6 15.6 6.9Zm-191 275c-5.8 0-10.8-1.2-16.4-2.1s-10.4-1.3-16.1-1.9c-13.3-1.3-31.6-2.8-43.5-8s-5-1.8-5-2.5c2.6-1.3 5-5.2 6.7-6.5 7.2-5.3 18.4-10.3 26.2-15.5 22.4-15.1 44.1-32.1 66.1-47.9 7.5-5.4 15.4-10.6 23.3-15.5 6.3 4.2 8.4 11.9 12.4 17.7s5.8 3.6 5.1 7.5l-44.9 70.2c-4.4 4.8-8 4.5-14 4.5Zm32-319c3.6.7 7.4.4 10 1s2.8 2.4 4.7 2.8c3.6.8 6.3-.6 9.3-.4s6.8 3.1 9.7 3.4 5.1-1 7.7-.9c4.3.2 8.5 1.6 12.9 1.2l1.7 3.7c2.2-.6 4.6 1 5.9 1.1l1 3.5c-1.6.8-3.6.9-5.2 1.8-29.6 15.2-56 33-84.4 49.6s-14.7 8.4-16.8 8.2-5.3-4.9-6.3-6.8c-9.8-18.4-15.8-39-25.8-57.3 1.1-5.6-.4-3.8-2.4-8 .7-.4 1.3-.7 2-1 6-3.2 16.5-5.2 23.5-5.1 6.8.2 13.8 4.6 21.5 1.1s3.1-2.8 5.5-2.9c3.9-.1 20.1 3.9 25.5 4.9Z" class="st3"/><path d="M824 902.4c-5.9.6-8.2-1.3-12.4-1s-10.9 3.9-16.1 4c-12.6.1-35.9-2.1-48.3-4.6s-11.1-6-16.1-7.4c10.8-25.9 38.3-40.8 64.8-46.7s12.6-3.1 13.2 9.2c.7 12.4-5.3 31.3-12 41.8s-4.2 1.6-3 5.7c7.4.1 9.6-5.6 12.2-11.3 4.5-9.9 7.8-21.2 7.9-32.1 0-5.5-2.9-12 .4-16.5h23c1.1 0 5.9 1.6 5.5 3.5s-4.4 4.1-5.4 5.6c-10 14.2-15.8 32.7-13.6 49.9Zm79-98c1.9 4 8.3 11.8 8.8 13.7 1 4.6-.1 11.5.3 16.7 1.4 15.1 7.5 21.1 4.6 38.9s-4.3 13.4-8.7 18.2-4.4 5.1-9 5.5c1-4-3.6-3.4-6.3-5.2-4.6-3.1-6.5-11.4-9.5-16.5-3.6-6.3-7.6-12.2-12.2-17.8l-17-14c.2-.6 7.8-7 9.1-7.9 8.7-6.5 19.7-10.9 30.1-13.9s9.6-1.2 12.5-2.5 2-1 1.2-2.7c-1.8-4.3-19.5 1.5-23.3 2.7-12.9 4.3-22.7 11.4-32.8 20.2-1 .5-2.3.8-3.4.6-2.4-.5-7.2-25.7-7.4-29.6s1.6-5.4-.2-8.5c7.2 0 13.5 5.4 20.7 6.8s23.5.6 31.5-1.1c4-.8 7.2-2.1 10.8-3.7Z" class="st4"/><path d="M233.9 377.5v2.9l3.1-2c-.2 15.5 8.1 34.5 21.7 42.8 3.3 2.1 9.1 2.1 8.8 6.1 2.5-2 4.8.4 7.3.8s13.3.3 14.8 3.2c3.3 11.1-12.4 2-17 10-1.2.5.8-5-2-4-4.1 1.5 1.6 1.8.5 4-12.1 3-27.8 17.2-31.3 29.2s.3 12.7-8.7 9.8v5l3.5-3c7-.9 2.4 11-4.6 7.5s-1.6-11-2.5-14.5-6.3-11.9-8-16.1.6-2.8.5-2.9c-.5-.5-4.6 0-5.6-4s2.4-2.5 2.6-4c-2-.5-3.6 2.2-5.3 1.8s-9.3-6.4-12.3-7.7-4.4-.9-6.4-1.6c-3.3-1.2 3.2-1.8 1-3.5s-7.8 3.6-14.2.7c-6.2-2.7-5.1-8.4 1.8-9.7s11.6-.2 15.7-1.1 12.2-8.1 13.7-9.4 12.3-12.9 12.7-13.8c1.7-4.2 2.5-12.6 3.5-17s2.6-6.2 2.8-9.7h3.8ZM213 579.4c.7-.3 3.7-1.2 4-1 1.9 8 6.8 14.9 8.6 22.9s2.8 41.7-.3 51.9c-7.6 25.2-38.4 30.6-59.6 20s-27.8-19.4-28.8-28.3 4.2-7.7 8.1-5.1 3 6.5 4.5 8.4c3.3 4.2 7.9 4.2 8.4 9.1 3.2-2.1 6.1 0 9.4 0 26.4.5 51.9-25.3 42.3-52.3-2.4-6.8-9.8-10.4-6.8-16.7 1.9-1.4 4.5-3 6.1-4.5s-.4-2.8 3.9-4.5Z" class="st1"/><path d="M222 573.4c-2.3 4.4 2.8 6.8 4.8 10.7 9.7 17.9 11.9 58.2 4.6 77.3s-18.8 20.7-33.3 23.7-10.8 2.2-12.6 2-3.4-2.2-5.2-2.4c-14.9-1.7-29.7-9.4-39.9-21.3s-6.3-11.4-11.5-15c.2-.2-.6-1.8.6-2s3.7.3 5.4 0c-.9-4.3 1.8-9.9 5.5-12.1s4.2 0 9.5-4.9c1.8 1.4.7 4.3 1.2 6.3 1.4 5.1 6.2 7.8 8.8 12.2l1.5.5c22.3 3.8 49.8-15.5 41.3-40.3-3.2-9.3-7.2-16.8-16.9-8.1 0 2.7 2.3 4.7 2.9 7.1 2.4 11.1-8.5 22.3-19.8 20.3v-7c10.4 4.7 15.5-8.3 11-16 .5-.3 3.3-5.7 6-7.5 4.8-3.1 11.5-4.5 17-8.5-3 6.4 4.4 9.9 6.8 16.7 9.5 27-15.9 52.8-42.3 52.3-3.3 0-6.2-2.2-9.4 0-.5-4.9-5.1-4.9-8.4-9.1s-4.1-8.2-4.5-8.4c-3.9-2.6-8.7-.6-8.1 5.1.9 8.9 20.8 24.4 28.8 28.3 21.3 10.5 52 5.2 59.6-20 3.1-10.2 2.6-41.2.3-51.9s-6.6-15-8.6-22.9c-.3-.2-3.3.7-4 1v-2c6 1.7 4.6-3.3 9-4Z" class="st0"/><path d="M558 170.4c1.7.4 2-.7 3-1.5 4.4-3.4 16.7-21.8 22.1-15.1 6 7.5-15.6 18-17.1 24.6h25.5c2 0 5.6 6.9 1.8 9-8.7 1.9-17.5-.4-26.2 1-.5 1.7.7 2 1.5 3 3.2 4.2 16.8 14 15.4 19.3l-1.9 2.2c-2.8 1.7-6-.7-8.5-2.5-5.7-4-9-9.6-14-14-1.5.9-1.4 1.9-1.5 3.4-.7 6.6.3 15-.1 21.8-.8 3.1-5.4 3.3-7.9 2.3-1.3-.9-1.6-21.6-1.9-25.1-.1-1.5.8-2.9-1.5-2.5-.8.3-1 2.2-1.9 3.1-4.5 3.9-10.2 10.6-14.6 13.4-5.7 3.6-8.7-1.4-6.4-6.4s8.1-9.4 10.5-7c-1.1-7.3 7-5.1 7-11.5l-19.6.4-5.9-2.9c-2.8 6.4-6.2-5.2-.8-6.7s23.7 1.1 25.3-.2c.5-1.7-.7-2-1.5-3-2.4-3.2-14.5-12.8-15-14-1-2.1-.5-5.5-.3-7.9l5.9-1.1-1 4c6.5-1.4 6 1.8 9.1 4.4s7.3 6.4 10.9 9.6c-.8-4.5 1.5-9.2 1.1-13.5s-1.8-4-1.8-5.8 2-5.4 1.7-8l6.3-1.6c.8.3 2.7 2.9 2.7 3.4v25.5Zm-14 10v-3h-2v3h2v5c.5.6 7.4-2.3 7-4.5l-1.6-2.5c-2.4.8-1.9 3.1-5.5 2Z" class="st1"/><path d="M901 800.4c-17 3.5-31 6.3-48 .5-12.5-4.3-13.9-6.3-10.5-19.5 3.8-15 14.3-23.5 24.5-34 6.8 2.2 4.3 3.4 7.6 6.9 12 12.9 19.2 30.1 26.4 46.1Z" class="st4"/><path d="M416 870.4c3.2-.5 5.1-1.5 8-2-7.7 6.7-19.3 4.6-29 6 .6-5.5 2.9-10.7 2-16-3.5-19.4-23.1-29.8-41.2-23.9s-7.8 3.4-10.3 4.9c-6 3.4-14.8 11.5-17 18s-1.6 16.8-.5 25h18c-.4-10.2-2.5-14.4 6-21.5s19.8-8.3 30.4-3.4c2.3 1.1 3.9 3.1 5.6 3.9 1.5 4.5 4 7.8 3 13h4c-3.8.5-8.2 1.3-12 2 6.1-15.4-11.9-19.6-22.7-13.2-6.4 3.8-8 9-7.3 16.2s1.1 2 1 3c-13.8 1.6-30.1 5.3-43.5 5-16.8-.3-29.9 3-46.5 3 3.8-11.8-8.6-23.1-3-35 1.6-.2 3 .3 4.4 1.1 4.1 2.5 9.8 22.1 11.4 27.6s.2 2.9.2 4.3l17.7-4.8 25.3-.2c.4-2-1.8-2.5-1.9-4.4-.3-5.9 2.9-24.8 6.4-29.6 8.8-11.9 26.5-23.5 42-24 19.8-.7 35.1 16.4 38.2 34.8 1.9 10.9-3.5 12.6 11.3 10.2Z" class="st0"/><path d="M865 746.4c-13.1-.5-29.9 32-30 44-1.6.1-2.7-.8-3.9-1.6-16.2-10.8-20.2-35.6-18-53.8.6-5.1 3.7-10.2 4-15.5 11.4-1.6 20.4 7.3 30.9 8.9l.2 3.9c.8.5 2.4-.2 2.9 0s4.1 2.4 5 3 7.1 5.7 7.4 6.1c1.2 1.5 1.6 3.1 1.6 4.9Zm-36 155c-.1-11.1 1.4-25.2 6.2-35.3s9.3-14.3 10.4-14.5c3.4-.7 7.4 9.2 9.5 12.2 5.6 7.7 11.9 15.7 18.8 22.2s11 6 12 12.5c-16 3.3-23.8 2.7-39.5 3s-11.7-.3-17.5 0Z" class="st4"/><path d="M150 629.4c3.4-3.2 13.8-10.7 15.7-13.3 6.9-9.5 5.5-6 14.3-11.7 4.5 7.7-.6 20.7-11 16v7c11.3 2 22.2-9.2 19.8-20.3s-2.9-4.4-2.9-7.1c9.6-8.7 13.7-1.2 16.9 8.1 8.5 24.7-19 44-41.3 40.3l-1.5-.5c-2.6-4.4-7.4-7.1-8.8-12.2s.6-4.9-1.2-6.3Zm647-151-1.1 8.9c-5.5.4-12 1.3-15.8 5.7-5.9 6.7-.4 18.6-13 16.4-.4-6.6-2.8-15-8.5-19s-5.3-1.7-6.1-3 1.4-3.7-.9-5l-3.2 4.9-4.4-1.6c-1-11 5.5-6.9 12.1-9.8s7.7-6.5 9-10 .7-9.9 5.5-10.6 4.8 5.2 5.9 9.1c2.6 9 12.1 13 20.5 14Zm-414 398c-2 .4-4.3.6-6 1-4.5.8-5.2-1.7-5.9-5.4-2.7-4-5.4 5.5-6.1 7.4h-12c-.7-7.2.9-12.4 7.3-16.2 10.9-6.4 28.8-2.2 22.7 13.2Z" class="st1"/><path d="M270 542.4c3.2 7.8 12 21.3 11.1 29.5s-.1 2.6-1.6 3.5c-1.7.4-2.4-.6-3.5-1.4-3.6-2.8-10.9-20.4-13-25.5-4-.8-4.6 3.1-6.6 4.9s-2.3.9-2.4 1c-.1-.9-1.3-1.1-2-1 0-2.4 4.1-5.8 6-6.5 4.7-1.6 7.4-1.4 12-4.5Zm-161 160c.2-.2 3.4-1.3 4-3.5 5.8-.7 14.9-8.5 19.7-9.4s6 2.8 5.3 6.1-19.3 13.7-21 14.2c-3.3 1-6.7.3-10 .5.2-2.2.8-6.2 2-8h-2c-.4-1.3 1-1.8 1-2l1 2Zm266-211 4 3c.6-5.4 3.3.2 5 .6s2.9-.7 3-.6c.3 0 2 2.1 4 3s2.4.7 3 1c4.5 2.2 9.1 5.8 14 7v1c0 .6-.3 1.3.1 1.8 1.1.8 2.7.7 3.9 1.2 1.6.7 3.1 2.9 6 2l1.1 4.4c-.2 1-2 .5-2.1.6-.8-3-3.4-.4-5-1.4s-1.5-2.9-3.1-4-9.9-5-12.3-4.6-.2 2.7-2.1 2l-1.5-2.5c-.6-2.1 3.8-1 1-3s-2.3-1.4-3.6-1.5c-4.5-.4-2.8 2.7-7-2.8-5.5 3-8.1-2.5-10.8-3.4s-4.9.3-6.8 0c-6.6-1.3-3-.5-8.8.2-.2-7.6 13.4-1.7 18-4Zm-260 282c3.2 8.7 10.6-3.8 15.7-3.8 5.6 2.3 4.8 4.4 1.3 8.3s-7.6 7-9.3 8.2-3 0-4.8 1.7c-2.6 2.4-1.3 6.6-2.9 9.6-1.4-7-.9-5.6-.9-12.5s-1.7-7.6-1.1-11.5h2Zm221-274c-.7 4-2.8 4.3-6 5-2.4 6.2-8.4 4.1-12 6.5s-1.4 3.5-3.1 4.9-8.2 4.4-10.9 5.6l3 2c-.2 5.1-6.8 2.2-10.3 3.2s-10.9 7-14 9-5.5 1.8-7.7 2.8c1-1.8 2.5-3.2 4.1-4.4 8.8-6.8 19.5-10.4 27.9-17.1s10.5-9.8 23-12.5c1-2.5-.4-3.7 4-5s1.4.2 2 0Z" class="st0"/><path d="M140 875.4c1.5 1.5 7.6 2.8 7.9 3.1s.1 2.8 1.1 4.4c4.2 7.2 23.8 10.6 30.5 6.4 1.1 3.2 4.5 3.4 7.5 4-5.2 4.7-13 .8-18.6.1s-10.4 1.2-17.3-3.7-7.5-9-11.1-14.4Z" class="st3"/><path d="M457 858.4c.6 2.6-1.4 1.9-2.9 2.5-11.3 4.7-18.4 5.5-30.1 7.5s-4.8 1.5-8 2c-.2-4.3 4.1-2.3 5.8-3.2s1.2-3.5 2.8-3.7c4 3.2 8.6-.4 13.4-1.6s14.2-3.9 19-3.5Z" class="st2"/><path d="M252 553.4c.7-.1 1.9 0 2 1-1.2 1.2-4.8 7.5-5.2 7.8s-5.5 1.1-7.5 2c-7.4 3.4-8.1 8.3-17.3 9.2 3-5.4 9.7-7 14.3-10.2s9.7-9.1 13.7-9.8Z" class="st3"/><path d="M355 495.4c-6.5.3-8.4.9-15 3v-4c5.7-1.9 12.8-10 15 1Zm10 384c.6-1.9 3.4-11.4 6.1-7.4.7 3.7 1.5 6.2 5.9 5.4-2.4.5-8.7 3.1-12 4 .1-.6-.2-1.5 0-2Z" class="st0"/><path d="M859 723.4c-.9 4-1.5 8.2-3 12-.9-.6-4.7-2.9-5-3 3.6-2.7 3-9.6 8-9Z" class="st2"/><path d="M365 879.4c-.2.5.1 1.4 0 2-4.7 1.3-6.8.5-11 1 0-1-.9-2.3-1-3h12Z" class="st3"/><path d="M340 494.4v4c-1.5.5-2.7.6-4 1s-1.4-.2-2 0c.5-5.9 3-4 6-5Z" class="st0"/><path d="M597 746.4c6.4-8.6 14.8-15.6 22.9-22.6s2.8-6.2 8.4-4.2c4 1.4 12 19.2 14.5 23.5s12 17.7 12.2 20.9-.1 2.1-.9 3L604 802.9c-22.6 14-45.3 29.7-67.6 43.4-5.6 3.4-23.1 15.6-28.7 15.3s0-2.8-3.1-2.1 0 2.1-1.9 2.1-5.1-1.7-7.5-2.2c-1.2-5.8 6-9.8 7.5-13s-.5-2.4-.5-3c-.1-4.8 11.3-4.3 15.7-5.8s28.9-13.7 32.6-16.2 3.3-4.7 5.8-6.5c3.5-2.6 9.2-3.8 12.4-6.6s3.4-5.7 3.7-5.8c.8-.5 3.3 0 4.9-.6s7.8-7.5 9.4-9.6c5.2-6.7 13.4-22 14.5-30.5.8-6.6 1-10.7-3.9-15.4Zm-40-165c1.6-.2 4.8-.2 6.3.2 5.3 1.6 12.7 27.6 15.2 33.8 3.7 8.9 9.3 17.9 12.6 26.4s3 6.8.6 10.4l-34.8 21.7c-1.6 1.3-.6 1 0 2 1.4 2.2 1.9 3.6 3 5.5l-7-2c0-2.7 2.7-3.1 1.9-6.3s-6.6-6.3-8.3-8.8c-3.8-5.7-7-20.3-13.6-23.4s-2.5 0-4 .5v-6.3c-.1-.7-2.4-1.6-3-1.7 1.5-2.4-1-9.3-2.5-11s-4.4-1.5-5.5-2.5c-2.2-1.9 1.2-5.8-5-4.5 3.6-5.7.1-2.2-1-8s0-.7 0-1c4.3-.4 6.8-2.7 10-5 12.3-9 11.2-6.8 24.3-12.2 3.4-1.4 8.6-7.4 9.7-7.8s.7 0 1 0Z" class="st3"/><path d="M135 842.4c0-2.6 1.5-12.3 2.5-15 4.4-11.4 17.8-15.8 28.5-19 21.9-2.1 44.1 13.5 32.5 37-12.3 24.9-42.3 9.4-32.7-13.7 3.6-8.8 14.2-12.2 21.2-4.8 5.3 5.6 2.8 16.3-4.3 14.4s-3.6-2.9-3.7-3.4c-.5-2.3 8.2-3.1 3.5-7.5-9.8-9.3-17.3 16.5-6.1 18.1 10.8 1.5 16.9-3.1 18.4-13.8s-1.8-8.4-4.4-11.2c-9.2-10.2-29.3-9.6-39.8-1.9-11.1 8.2-10.8 21.9-2.2 31.8s12.7 13.4 14.5 14.5 14.8 5.4 16.5 5.5c19.5 1.8 34.3-17 33.5-35.6-1-25-21.2-38.7-45-36.5s-24.7 11.7-32 20.5-1.3 5.5-5 5.5c6-30.7 49.8-44.7 73.5-24 17.7 15.5 24.8 44.2 9.5 63.5s-39.7 18.8-56.9 7c-9.3-6.4-21.9-19.6-22.1-31.4Zm351.6-122.7c-5.1-4.9-12.5-.7-13.6 5.2-3 16.3 4.8 37.8 23.3 22.3s13.6-41.2-9-43.7c-23.1-2.6-43.1 12-41.4 36.4 1 13.5 4.6 22.6 18.2 26.8 11.8 3.7 24.4 1.1 35.8-2.8l14-10.5c4.9 9.5-9 18.8-16.5 22-10.9 4.7-37.9 3.2-47.9-3.1s-9.5-13.7-10-15c-5.1-12.2-.5-38.3 8.4-48.4s36.9-16.9 50.3-10.3 17 16.4 17.7 23.3c1.4 13.7-8.4 31.2-20.3 37.7s-30.5-3.7-31.7-17.8c-.1-1.6 0-11.1.1-12.6 1.4-10.4 11.7-20.9 22.9-17.3 4.5 1.4 8.7 11.7 8.9 16.1.3 9.9-11.3 13.7-12.8 7.7s12.6-7.3 3.6-16ZM338 530.4c-2.4 2.5-3.9 3.5-5.2 7.3-2.5 6.9-1.5 25.3 1.4 32s15.2 15 23.8 16.3 22.4-5.5 26.5-8.6c9.7-7.2 9.1-16.2 11-27 2.2-3.5 4.7 3.2 5.2 4.8 2.8 9-.9 21.2-7.7 27.7s-13.8 11-14.7 11.3c-3.4.9-15.9 1.5-19.8 1.2-30.7-1.7-41.8-28.9-35.2-56.3 5.9-24.4 40.4-29.1 54.8-8.3 2.6 3.8 4.1 17.4 3 21.8s-2.1 1.2-2.9 2.3c-4.8 7.2-5.3 12.8-14.9 16.1s-11.6.8-14.7.2c-7.4-1.4-7.6-21.6-7.6-27.5s1-4.3 1-6.5c3.7-3 5.9-5.6 11-6s4.8.4 5 .5c8.6 2.1 12.2 13.9 3.9 19-3.9 2.4-5.3.8-8.9.6-2.9-5.5 0-10 6-10l.5 4 1.6-3.4c-3.2-2.6-6.6-5-11.1-3.1-3.4 4.4-2.2 10.7-1 15.5 5.6 21.9 28.1-2.9 24.1-17.4-5.2-.2-2.8-5.2-5.1-7.1s-3-.6-5-2.5c0-.5-.5-.9-1-1-2.3-.3-4.7-.7-7-1s-.6-.9-1.5-1-8.5.9-9.8 1.2c-3.2.7-3.9 2.9-5.7 4.8Zm-10.7 200.3c-.3.1-.5 1.8-2.2 2.2-16.2 4.4-31.4.9-42.2-12-17.6-21.2-4.4-41.4 15.7-53.4 11.1-6.6 21-7.5 33.7-5.1 23.1 4.3 32.6 31.7 18 49.8-2.7 3.4-5 6.2-7.5 9.5-5.5 7.1-8.1 6.3-15.6 9Zm-12.3-5.3c.2 0 1.3 1.3 3.4 1s7.3-3.1 10.6-3c-.5-5.8-8.3 1.8-11-1l-14-6.5c-5.4-8.9-8-12-5.8-22.7s8.6-21.5 23.3-18.8c12.9 2.4 18.1 15.4 13 27-5.9 13.3-19.4 10.8-18.5-4.5s2.1-11.7 8-10.5c-3.6 5.4-4 11.8-1.9 17.9h2.4c15-10.2 4.4-30.4-13.5-24.5s-8.5 14.4-7.9 19 4.5 9.5 5 10.1c4.7 5.3 18.5 7.6 25 5 13.7-5.5 21.5-18 13.2-32.2s-7.5-8.7-9.5-9.5-9.7-2.6-11.2-2.8c-25.1-3.6-56.3 25.8-35.1 48.1 7.4 7.8 14.4 7.9 24.5 8Zm171-149c-5.2-2.4-10 .3-14.5 3-15.7 9.1-22.2 23.1-18 41.1s3 7.3 7 12c3.3 3.7 2.5 4.7 8.5 7.5 14 6.7 30.2 4.8 44.3-.8 3.9-1.5 9.3-6 12.7-5.8s2.9 1 3 1.7v6.3c-6.2 2.1-11.2 7.2-17.3 9.3-10.9 3.7-38.9 3.2-48.3-3.3-13.4-9.3-19.6-19.8-18.5-36.5 1.3-19.5 9.5-32.4 28-39.5 1-.4 4.7-2 5-2 2.8-.2 6.9 4.6 8 7Z" class="st0"/><path d="M584 721.4c0-.1-1.5.3-2.1-.6-1.1-1.7-.5-4.8-1.9-7-2.1-3.4-6-1.4-8.8-9.2-1.9-5.2-2.5-13-6.3-17.2 13.2-1.5 25.1-10.8 36.6-17 .9-.1 1.7 0 2.5.5 1.2.9 10.5 17.8 8.4 20.5l-24.9 24.1-3.6 5.9Z" class="st3"/><path d="M427.7 649.1c-2.3 2.4-9-1.2-12.4-1.7s-6.5.2-9.8-.2c-5.1-.7-9.7-3.5-14.9-3.9l-1.6-5.4c.4-1.6 11.1-2.6 13.4-2.7 6 0 26.2 1.9 26.6 9.5s-.5 3.5-1.3 4.3Zm132.2 80.4c3.7 7.6-.8 13.9-1.8 20.5s1.6 16-7.3 14.3c-7.6-1.4-3.9-12.9-2.5-18.1s6.2-20.3 11.6-16.7Zm-265.2 50c3.8-1 5 4.2 4.1 7.2s-2 2-2.5 3.5c-1.8 4.7-5.2 19.6-10 21-17.7 5.3 3.1-30.3 8.4-31.7Zm-96.9-21.3c-1.2.7-2.6.1-3.8-.4-2.2-.9-13.6-7.1-15.6-8.4-5.3-3.6-12.9-13.6-1.1-11.9s29.8 10.2 20.4 20.7Zm212 16c-8.6 1.1-15.5-6.8-21.4-11.9s-3-1.1-4-2c-3.9-3.3-3.9-10.9 2.8-8.8 5 4.6 10.9 6.6 16.2 10.8 3.8 3.1 9.9 6.8 6.4 11.8Zm63.2 76.2c-.2.3-1.7.6-2 1-4.8-2.1-8.7-13.9-9.5-18.9s-.8-18.4 6.6-13.6 1.8 8.1 2.4 10.6c1.5 6 5.8 15.1 2.6 20.9Z" class="st0"/><path d="m168 801.4-9 5.5 7 1.5c-10.7 3.2-24.1 7.6-28.5 19s-2.6 12.4-2.5 15c-4.2.4-.7-4.3-1.1-6.3s-4.3-2.3-3.8-7.1.9-1.4 1-1.6c3.7 0 3.5-3.6 5-5.5 7.3-8.8 20.2-19.4 32-20.5Z" class="st3"/><path d="M279.7 618.5c4.3-.6 11.2 15.3 10.1 19.1s-10.7 2.3-11.7-2 .9-3.4.7-5.5-3.1-5.6-2.9-8.2l3.8-3.4Z" class="st0"/><path d="M450 539.4c1.3 1 5 1.4 5.8 2.2s-.6 1.5.1 2.3c2.3 2.7 9.6 10.3 12.1 12s5.9 1.9 6.7 2.8 2.2 8.6 3.2 10.8c-.3 0-4 1.6-5 2l-.4-7.1c-5.8-.7-4.4-2.8-6.6-5.4-5.5-6.5-11.9-13.7-17-19.5h1Z" class="st2"/><path d="M355 525.4v1.3c-2.4 1-2.3 2.2-2 4.7-5.1.4-7.3 3-11 6 0-4-1.6-4.5-4-7 1.8-1.9 2.6-4.1 5.7-4.8s8.7-1.3 9.8-1.2 1.4 1 1.5 1Z" class="st1"/><path d="M375.9 681.5v2.8c.1 0 4.1 1.6 4.1 1.6-3.1 2.5-7.8 5.9-9.6.6s1.1-5.6 5.5-4.9Z" class="st3"/><path d="M441 530.4c.9 0 2.9-2 5-.6l4 9.6h-1c-3.8-4.3-5.5-2.4-8-9-1.9 0-2.4-.9-3-1v-2c.6.7 1.5-.9 3 3Z" class="st0"/><path d="M314 817.4c.4-.4-1.2-2.8 2.3-1.8 7 2 5.1 11.8-2.3 9.8 2.5-2.5 2.4-5.4 0-8Z" class="st2"/><path d="M313 817.4c.3-.1.9.1 1 0 2.4 2.6 2.5 5.5 0 8-1.4-.4-4.4-1.3-4.9-2.6v-3.7c.3-1 1-1.3 1.9-1.6l1.5 1 .5-1Zm79.7-74.9c2.8-.7 7 2.2 4.4 5.4-3.9 4.8-10.9-3.8-4.4-5.4Z" class="st3"/><path d="M203.8 694.5c2.1 3.4-3.2 7.1-5.5 4-3.2-4.5 3.9-6.4 5.5-4Z" class="st2"/><path d="M256.9 633.5c.7 1 0 4.5-1.4 4.9l-4-2 .6-4 4.9 1.1Z" class="st0"/><path d="M310 813.4h2v3h-2z" class="st3"/><path d="m313 817.4-.5 1-1.5-1c.5-.2 1.4.2 2 0Zm105-306c.3.3 3.5 3 3.7 3 3 .7 5-1 8.5 2s5.6 8.5 7.8 11v2c-6.5-1.2-2.7-1-7-4.5-3.8-3.1-9.7-7.5-14.5-4.5.1-.8.4-3.8.5-4s1.9.4 2.1-.6l-1.1-4.4c-2.9.9-4.4-1.3-6-2 3.8-5 5 1.1 6 2Z" class="st2"/><path d="M774 714.4c1.4-1 10.7 2.2 13.5 2.1s9.4-3.9 13-3.9 9.3 2.7 10 3.9c1.9 3.1-3.1 13.5-3.6 18.5-1.8 20.8 2.4 42.4 18.6 56.5s6.5 4.4 9.5 6.7c-.3 14.1 1.9 28.2 7 41.3l-29.3-.2c-8.2-8.9-12.5-23-25.6-25.9-1.4-4.1 1.7-5.5 3.1-8.2 7.1-13.9 9.7-23.6 1.6-38-1.1-2-3.7-3.3-4.4-5.6s0-6.3-.7-9.3c-1.7-8.2-11.9-22-18.8-27.2s-9.4-3.9-12-8.5c5-.9 12-.5 17.4 0l.6-2.1Zm-66 131c1.6-7.4 5.2-17.6 2-25 2.9-.8 2.4-4.5 4.7-5.8s12.5-3.8 14.9-4.1c7.1-.8 32.8-2.1 38.4.4s2.2.9 3 2c0 3.7-25.5 17.7-30 20-6.4 3.3-24.6 12.7-30.7 13.2s-1.5-.4-2.3-.7Z" class="st4"/><path d="M718 785.4c1.2-1.7 3.2-5.8 3.7-7.8 1.5-5.2.9-16 7.3-18.2 9.6-3.3 35.7-4.7 44.7-.2 2.3 1.2 3.9 2.7 3.2 5.5-.8 2.7-19.1 13.1-22.6 14.5-6.3 2.4-22.5 6.5-29.1 7s-4.6-.9-7.2-.8Zm30-64c7.2 1 17.8 10.5 22.5 16s9.2 10.3 8.5 17c-6.5-1.1-11.6-4.5-18.5-5-10.6-.9-21 2-31.5 3 .2-6 1.5-15.9 4.6-20.9.6-1 7.8-9.4 8.4-9.6 1.9-.8 3 .4 4.5.4s1.4-.8 1.5-.8Z" class="st4"/><path d="M693 620.4c-1.8 2.5-4.2 4.9-6.5 7-4.4 3.8-9.1 7-13.4 10.6-14 11.8-28.3 23.6-41.5 36.5-1.5 1.3-3.7 1.5-5.1 0-.8-4.7-6.7-9.9-6.2-14.4s4.1-3 6.7-4.2c11.2-5.1 27.3-16.6 39.7-23.3 8.4-4.5 16.2-12 26.3-12.2Zm33 116-32.5 51c-4.4 3.5-4.2-2.5-6-5-2.9-4-8.8-7.8-5.9-14 2.5-5.5 25-16.8 29.2-23l15.2-9Z" class="st3"/><path d="M803.9 841.4c-31.4 2.7-60 21.2-77.6 46.8-3.4-.5-6.6-2.3-9.3-4.4s-6.7-6.7-6.9-7.1c-.5-1.5-3-11.5-3.2-12.9-.5-3.7 1.6-6.8 0-10.4 23.4-5.8 45.9-18.3 65.7-31.8 2-1.3 5.8-5.8 7-6.1 7.3-1.7 27.9 16.7 24.3 25.8Zm-87.9-33c-.8-3.5 1.7-13.9 5-15.5s13.2-1.2 17-2c17-3.2 33.4-10.1 44.7-23.4 7.1-1.9 7.8 18.6 7.1 23.2-.6 3.5-6.6 14.9-9.8 16.2-5.5 2.3-16.1-2-22.5-2.5-13.3-.9-28.2 2.5-41.5 4Zm162.9 74c-1.9.4-2.4-1.1-3.5-2-6.5-5.3-13.4-14-17.9-21.1s-4.4-5.8-4.6-8.9c.7-.7 7.1 4.7 8 5.5 7.3 6.4 17.5 16.4 18 26.5Z" class="st4"/><path d="M624 560.4c-7.7 3.6-14.7-.9-21.5-1.1-7-.2-17.5 1.9-23.5 5.1 8.7-12.6 27.4-7.4 40.5-6 1.8.2 3.7-.3 4.5 2Z" class="st2"/><path d="M397 858.4c-3.3 3.6-3.7 5.3-9 3s-3.3-2.8-5.6-3.9c-10.6-5-21.3-4.3-30.4 3.4s-6.4 11.3-6 21.5h-18c-1.1-8.1-2.1-17.1.5-25s10.9-14.6 17-18c2.5-1.5 8.2-4.2 10.3-4.9 18.1-5.9 37.7 4.5 41.2 23.9Z" class="st1"/><path d="M395 874.4h-4c1-5.2-1.5-8.5-3-13 5.3 2.3 5.7.6 9-3 .9 5.3-1.4 10.5-2 16Z" class="st3"/><path d="M408 506.4v-1c.2-1.8 1.2-3.2 1-6s.1-1.4 0-2l4.5-3c.6 4 .6 12.4-5.5 12Zm78 70c.4 1 .9 1.9 1 3-.1 0 0 1.8-1 2.5-3.4 2.4-13.4 2.3-15.6 9.5-3.9 12.6 5.4 29.6 19 31s13.3-.3 15.9-1.2 1.2-2.6 2.3-2.9 3 .5 4.1-.2.6-2 1.2-2.8c6.2-1.3 2.8 2.6 5 4.5s3.9.6 5.5 2.5 4.1 8.5 2.5 11c-3.4-.2-8.9 4.2-12.7 5.8-14.1 5.6-30.3 7.5-44.3.8-5.9-2.8-5.2-3.8-8.5-7.5-4-4.6-5.3-4.8-7-12-4.2-18 2.3-32 18-41.1s9.4-5.4 14.5-3Z" class="st1"/><path d="M487 579.4c1.9-1.3 6.9 2.9 8.1 4.4s1.1 4.7 1.9 6.6l-5-1c-25.7-5.1-16.8 24.7-.5 25.1s10.5-2.4 15.5-5.1 2.2-1.5 3-2 1.4.1 2 0c1.1 5.8 4.6 2.3 1 8s-1 2.7-1.2 2.8c-1.1.7-2.9-.1-4.1.2s-.9 2.4-2.3 2.9c-2.6.9-12.9 1.5-15.9 1.2-13.6-1.5-22.9-18.4-19-31s12.1-7.1 15.6-9.5.9-2.4 1-2.5Z" class="st0"/><path d="M168 801.4c23.9-2.3 44 11.5 45 36.5.8 18.6-14 37.4-33.5 35.6-1.6-.2-15.2-4.8-16.5-5.5s-12.5-12-14.5-14.5c-8.6-9.9-8.9-23.7 2.2-31.8 10.5-7.7 30.6-8.3 39.8 1.9 2.5 2.8 4.9 7.3 4.4 11.2-1.5 10.7-7.5 15.3-18.4 13.8-11.2-1.6-3.7-27.4 6.1-18.1s-4 5.2-3.5 7.5 3 3.2 3.7 3.4c7.1 2 9.6-8.8 4.3-14.4-7-7.3-17.6-4-21.2 4.8-9.6 23.2 20.5 38.6 32.7 13.7 11.6-23.5-10.7-39.2-32.5-37l-7-1.5 9-5.5Zm194-275c.3.4.7.7 1 1 2 1.9 3.9 1.6 5 2.5 2.3 1.9-.1 6.9 5.1 7.1 4 14.6-18.5 39.3-24.1 17.4 1.5-2.8.6-3.2 4-3s5.1 1.8 8.9-.6c8.4-5.1 4.7-16.8-3.9-19s-4.8-.5-5-.5c-.3-2.5-.4-3.6 2-4.7v-1.3c2.3.3 4.7.7 7 1Z" class="st1"/><path d="M349 554.4c-1.2-4.8-2.4-11.1 1-15.5 4.4-1.9 7.8.5 11.1 3.1l-1.6 3.4-.5-4c-6 0-8.9 4.5-6 10-3.4-.2-2.5.2-4 3Z" class="st1"/><path d="M363 527.4c-.3-.3-.7-.6-1-1 .5 0 .9.5 1 1Z" class="st3"/><path d="M315 725.4c-10.1-.1-17.1-.2-24.5-8-21.3-22.3 10-51.6 35.1-48.1 1.5.2 10.1 2.4 11.2 2.8 1.9.8 8.3 7.5 9.5 9.5 8.3 14.2.5 26.7-13.2 32.2-6.5 2.6-20.3.4-25-5s-4.9-9.5-5-10.1c-.6-4.6 2.9-17.3 7.9-19 17.9-5.9 28.5 14.3 13.5 24.6h-2.4c-2.1-6.2-1.7-12.6 1.9-18-5.9-1.2-7.8 6-8 10.5-.9 15.3 12.6 17.7 18.5 4.5 5.1-11.6 0-24.7-13-27-14.7-2.7-20.5 5.4-23.3 18.8s.4 13.8 5.8 22.7l14 6.5c.4 2-1.7 2-3 3Z" class="st1"/><path d="M318 722.4c2.7 2.8 10.5-4.8 11 1-3.4 0-7.9 2.7-10.6 3s-3.2-1-3.4-1c1.3-1 3.4-1 3-3Z" class="st2"/><path d="M411 408.4c.9 4.4-6.1-.9-7 3 5-.5 9.5.3 12 5h-6c.5 3.2 9.1 1.6 10 3 1.4 2.2-1.7 4.6-4 4l2 4.5-3.4 1.6c-1.6-5.2-6.7-7.5-7.6-12-2.9 3-6.2.8-10 2-.1-2.5 1.5-5 1.1-7.5s-2.9-1.6-3.1-3.5h16Zm15.9 81c.5 4-2.4 5.2-6 5l1 10h-8c3.6-4.5 2.6-7.1 1-12l12-3Z" class="st1"/><path d="M504 599.4v1c-5.7 1.2-13.5 3.1-14-5 .2 0 .7-1 1.5-1 2.3 0 6.2 5.6 6.5-2 .8 1.5 4.5 6.9 6 7Z" class="st0"/><path d="m421 432.4-1 7.6-9 .4v-3c6.5 1.4 3.5-6.5 10-5Z" class="st1"/><path d="M497 590.4c.3.7.7 1.3 1 2-.3 7.7-4.2 2.1-6.5 2s-1.3 1-1.5 1c-2 .1-4.8.9-4-2 .8-.8 6.8-.8 6-4l5 1Z" class="st3"/><path d="M436.9 423.4c-.3 4.7 4 5.4 5 9-3.1.4-6-1.3-7.9-3.7-.5-1.7.8-7 2.9-5.3Z" class="st1"/><path d="M504 599.4c.2 0 1.1-1.4 2-1-.5 4.5 5.4 4 4 9-.8.5-1.4 1.2-3 2 1.4-4.8-4.3-4.1-3-9v-1Z" class="st2"/><path d="M390.9 463.4v4l-9-1c0-7.8 4.9-.7 9-3Zm44.1 22-.5 3c-1.6 2.3-7.8-.7-9.5-2.5l10-.5Zm57 104c.8 3.2-5.2 3.2-6 4-.8 2.9 2 2.1 4 2 .5 8.1 8.3 6.2 14 5-1.3 4.9 4.4 4.2 3 9-5 2.7-9.3 5.2-15.5 5.1-16.3-.4-25.2-30.2.5-25.1Z" class="st1"/></svg>