<svg xmlns="http://www.w3.org/2000/svg" xml:space="preserve" id="Layer_1" x="0" y="0" version="1.1" viewBox="0 0 138.6 32.7"><style>.st0{fill:#fff}</style><path d="M15.3 22.7c-.7 0-1.2.5-1.2 1.2s.5 1.2 1.2 1.2 1.2-.5 1.2-1.2c.1-.7-.5-1.2-1.2-1.2z" class="st0"/><circle cx="23.5" cy="19.2" r="1.2" class="st0"/><circle cx="23.5" cy="9.8" r="1.2" class="st0"/><path d="M7.2 8.6c-.7 0-1.2.6-1.2 1.2S6.5 11 7.2 11s1.2-.5 1.2-1.2-.5-1.2-1.2-1.2zm0 9.4c-.7 0-1.2.5-1.2 1.2s.5 1.2 1.2 1.2 1.2-.5 1.2-1.2S7.9 18 7.2 18zm-2.7-4.7c-.7 0-1.2.5-1.2 1.2s.5 1.2 1.2 1.2 1.2-.5 1.2-1.2c0-.6-.5-1.2-1.2-1.2zm16.3-9.4c-.7 0-1.2.5-1.2 1.2s.5 1.2 1.2 1.2S22 5.8 22 5.1s-.6-1.2-1.2-1.2zm5.4 9.4c-.7 0-1.2.5-1.2 1.2s.5 1.2 1.2 1.2 1.2-.5 1.2-1.2c0-.6-.5-1.2-1.2-1.2zM9.9 3.9c-.7 0-1.2.5-1.2 1.2s.5 1.2 1.2 1.2 1.2-.5 1.2-1.2-.5-1.2-1.2-1.2zm10.9 18.8c-.7 0-1.2.5-1.2 1.2s.5 1.2 1.2 1.2 1.2-.5 1.2-1.2-.6-1.2-1.2-1.2zm-10.9 0c-.7 0-1.2.5-1.2 1.2s.5 1.2 1.2 1.2 1.2-.5 1.2-1.2-.5-1.2-1.2-1.2z" class="st0"/><circle cx="26.2" cy="5.1" r="1.2" class="st0"/><circle cx="28.9" cy="9.8" r="1.2" class="st0"/><circle cx="28.9" cy="19.2" r="1.2" class="st0"/><circle cx="12.6" cy="28.6" r="1.2" class="st0"/><circle cx="18.1" cy="28.6" r="1.2" class="st0"/><path d="M26.2 22.7c-.7 0-1.2.5-1.2 1.2s.5 1.2 1.2 1.2 1.2-.5 1.2-1.2-.5-1.2-1.2-1.2z" class="st0"/><circle cx="1.8" cy="9.8" r="1.2" class="st0"/><path d="M4.5 3.9c-.7 0-1.2.5-1.2 1.2s.5 1.2 1.2 1.2 1.2-.5 1.2-1.2-.5-1.2-1.2-1.2zm0 18.8c-.7 0-1.2.5-1.2 1.2s.5 1.2 1.2 1.2 1.2-.5 1.2-1.2-.5-1.2-1.2-1.2z" class="st0"/><circle cx="1.8" cy="19.2" r="1.2" class="st0"/><path d="M43.2 16.6C42.5 18.1 41 19 39 19c-2.1 0-3.7-1.2-4.2-2.8v-3.5c.5-1.6 2.1-2.7 4.2-2.7 2 0 3.6 1.2 4.1 2.7v2.4h-6.4v.7c.2.7 1.1 1.5 2.4 1.5 1.3 0 2.1-.7 2.4-1.4l1.7.7zm-6.5-3.4v.5h4.6v-.5c-.2-.8-1.1-1.5-2.3-1.5-1.2 0-2.1.7-2.3 1.5zm15.7-.9v6.5h-1.7v-.9c-.6.7-1.5 1.1-2.6 1.1-1.6 0-2.8-.7-3.2-1.6v-1.9c.5-1 1.8-1.5 3.3-1.7 1.5-.2 2.2-.3 2.4-.6v-.5c-.3-.5-.9-1-2-1s-1.9.6-2.2 1.4l-1.7-.7c.6-1.3 2.1-2.3 3.9-2.3 1.9-.1 3.4.9 3.8 2.2zm-1.8 2.3c-.3.2-1 .5-2.1.6-1.1.2-1.6.4-1.8.8v.7c.3.4.8.7 1.8.7.9 0 1.7-.4 2.1-1v-1.8zm12-2.3v6.4h-1.9v-5.9c-.2-.6-.9-1.1-2-1.1s-1.8.6-2 1.1v5.9h-1.9v-8.5h1.8v.9c.6-.7 1.5-1.1 2.6-1.1 1.7 0 3 1.1 3.4 2.3zm3.8-2.2v1c-.2.4-.7.8-1.2.8-.6 0-1.1-.3-1.2-.8v-1c.2-.4.7-.8 1.2-.8.6.1 1.1.4 1.2.8zm-.2.1c-.1-.3-.5-.6-1-.6s-.9.2-1 .6v.9c.1.3.5.6 1 .6s.9-.2 1-.6v-.9zm-.7.5.3.5h-.3l-.3-.5h-.3v.5h-.3V9.9h.6c.2 0 .4.1.5.3v.3c0 .1-.1.2-.2.2zm-.6-.1h.3c.1 0 .2 0 .2-.1v-.2c0-.1-.1-.1-.2-.1h-.3v.4zM15.3 22.7c-.7 0-1.2.5-1.2 1.2s.5 1.2 1.2 1.2 1.2-.5 1.2-1.2c.1-.7-.5-1.2-1.2-1.2z" class="st0"/><circle cx="23.5" cy="19.2" r="1.2" class="st0"/><circle cx="23.5" cy="9.8" r="1.2" class="st0"/><path d="M7.2 8.6c-.7 0-1.2.6-1.2 1.2S6.5 11 7.2 11s1.2-.5 1.2-1.2-.5-1.2-1.2-1.2zm0 9.4c-.7 0-1.2.5-1.2 1.2s.5 1.2 1.2 1.2 1.2-.5 1.2-1.2S7.9 18 7.2 18zm-2.7-4.7c-.7 0-1.2.5-1.2 1.2s.5 1.2 1.2 1.2 1.2-.5 1.2-1.2c0-.6-.5-1.2-1.2-1.2zm16.3-9.4c-.7 0-1.2.5-1.2 1.2s.5 1.2 1.2 1.2S22 5.8 22 5.1s-.6-1.2-1.2-1.2zm5.4 9.4c-.7 0-1.2.5-1.2 1.2s.5 1.2 1.2 1.2 1.2-.5 1.2-1.2c0-.6-.5-1.2-1.2-1.2zM9.9 3.9c-.7 0-1.2.5-1.2 1.2s.5 1.2 1.2 1.2 1.2-.5 1.2-1.2-.5-1.2-1.2-1.2zm10.9 18.8c-.7 0-1.2.5-1.2 1.2s.5 1.2 1.2 1.2 1.2-.5 1.2-1.2-.6-1.2-1.2-1.2zm-10.9 0c-.7 0-1.2.5-1.2 1.2s.5 1.2 1.2 1.2 1.2-.5 1.2-1.2-.5-1.2-1.2-1.2z" class="st0"/><circle cx="26.2" cy="5.1" r="1.2" class="st0"/><circle cx="28.9" cy="9.8" r="1.2" class="st0"/><circle cx="28.9" cy="19.2" r="1.2" class="st0"/><circle cx="12.6" cy="28.6" r="1.2" class="st0"/><circle cx="18.1" cy="28.6" r="1.2" class="st0"/><path d="M26.2 22.7c-.7 0-1.2.5-1.2 1.2s.5 1.2 1.2 1.2 1.2-.5 1.2-1.2-.5-1.2-1.2-1.2z" class="st0"/><circle cx="1.8" cy="9.8" r="1.2" class="st0"/><path d="M4.5 3.9c-.7 0-1.2.5-1.2 1.2s.5 1.2 1.2 1.2 1.2-.5 1.2-1.2-.5-1.2-1.2-1.2zm0 18.8c-.7 0-1.2.5-1.2 1.2s.5 1.2 1.2 1.2 1.2-.5 1.2-1.2-.5-1.2-1.2-1.2z" class="st0"/><circle cx="1.8" cy="19.2" r="1.2" class="st0"/><path d="M37.2 22.5v2.6h-.3v-.3c-.2.2-.5.4-.9.4-.5 0-.9-.3-1.1-.7v-2h.3v1.9c.1.3.4.5.8.5s.7-.2.8-.5v-1.9h.4zm3.1.6v2.1H40v-1.9c-.1-.3-.4-.5-.8-.5s-.7.2-.8.5v1.9h-.3v-2.6h.3v.3c.2-.2.5-.4.9-.4.5 0 .9.2 1 .6zm.8-1.3v-.2c0-.1.1-.1.3-.1.1 0 .2.1.3.1v.2c0 .1-.1.1-.3.1-.1.1-.2 0-.3-.1zm.1.7h.3v2.6h-.3v-2.6zm3.4 0-1 2.6h-.4l-1-2.5v-.1h.3l.9 2.3.9-2.3h.3zm2.9 2c-.2.5-.7.8-1.2.8-.6 0-1.1-.4-1.3-.9v-1c.1-.5.6-.9 1.2-.9s1.1.4 1.2.9v.6h-2.1v.4c.1.4.5.7.9.7.5 0 .8-.2.9-.6h.4zm-2.2-1.1v.2h1.8v-.2c-.1-.4-.5-.7-.9-.7-.4.1-.8.4-.9.7zm4.2-.9v.3h-.2c-.5 0-.7.3-.8.5v1.8h-.3v-2.6h.3v.4c.1-.2.4-.4.7-.4h.3zm.3 2.1.3-.1c.1.3.4.4.8.4.3 0 .6-.1.7-.3v-.3c-.1-.1-.2-.2-.4-.3-.3-.1-.4-.1-.7-.2-.3-.1-.5-.3-.6-.5V23c.1-.3.5-.6 1-.6s.9.3 1 .6l-.3.1c-.1-.3-.4-.4-.7-.4-.3 0-.6.1-.6.3v.2c.1.1.2.2.4.3.3.1.4.1.7.2.3.1.5.3.6.5v.4c-.1.3-.5.6-1 .6-.6 0-1-.2-1.2-.6zm2.7-2.8v-.2c0-.1.1-.1.3-.1.1 0 .2.1.3.1v.2c0 .1-.1.1-.3.1-.1.1-.2 0-.3-.1zm.1.7h.4v2.6h-.3v-2.6zm3.6-1v3.7h-.3v-.3c-.2.3-.5.4-.9.4-.6 0-1.1-.4-1.2-.9v-1c.1-.5.6-.9 1.2-.9.4 0 .7.2.9.4v-1.4h.3zm-.3 1.8c-.2-.3-.5-.5-.9-.5-.5 0-.8.3-.9.7v.9c.1.4.5.7.9.7s.8-.2.9-.5v-1.3zm3.3-.2v2h-.3v-.3c-.2.2-.5.4-.9.4-.5 0-.9-.2-1-.5v-.6c.1-.3.6-.5 1-.5.5-.1.8-.1.8-.2v-.2c-.1-.2-.4-.5-.8-.5s-.7.2-.9.6l-.1-.1c.2-.4.6-.7 1.2-.7.5 0 .9.3 1 .6zm-.3.6c-.1.1-.3.1-.8.2-.4.1-.7.2-.8.4v.3c.1.2.3.3.7.3.4 0 .7-.2.8-.4v-.8zm3.6-2.2v3.7h-.3v-.3c-.2.3-.5.4-.9.4-.6 0-1.1-.4-1.2-.9v-1c.1-.5.6-.9 1.2-.9.4 0 .7.2.9.4v-1.4h.3zm-.4 1.8c-.2-.3-.5-.5-.9-.5-.5 0-.8.3-.9.7v.9c.1.4.5.7.9.7s.8-.2.9-.5v-1.3zm27.8-12.9-.7-1.7H87l-.7 1.7h-.6l2.1-5.5h.5l2.1 5.5h-.5zM89 8.1l-.6-1.7c-.1-.2-.2-.5-.3-.8-.1.2-.1.5-.2.8l-.6 1.7H89zm3.8 2.3c-.6 0-1-.2-1.4-.5-.3-.4-.4-.9-.4-1.6 0-.7.2-1.2.5-1.6.3-.4.8-.6 1.4-.6.2 0 .4 0 .6.1.2 0 .3.1.5.1l-.2.5c-.1-.1-.3-.1-.4-.1-.2 0-.3-.1-.4-.1-.8 0-1.2.5-1.2 1.6 0 .5.1.9.3 1.2.2.3.5.4.9.4.3 0 .7-.1 1-.2v.5c-.4.3-.7.3-1.2.3zm3.9-4.2h.5l-.1.6c-.2 0-.3-.1-.4-.1-.3 0-.6.1-.8.4-.2.3-.4.6-.4 1v2.2h-.6v-4h.5V7c.2-.3.3-.5.5-.6.3-.1.5-.2.8-.2zm3 4.2c-.6 0-1.1-.2-1.4-.5-.3-.4-.5-.9-.5-1.5 0-.7.2-1.2.5-1.6.3-.4.8-.6 1.3-.6s.9.2 1.2.5c.3.3.4.8.4 1.3v.4h-2.8c0 .5.1.8.4 1.1.2.2.6.4 1 .4s.9-.1 1.3-.3v.5c-.2.1-.4.2-.6.2-.3.1-.6.1-.8.1zm-.2-3.7c-.3 0-.6.1-.8.3-.2.2-.3.5-.3.9h2.1c0-.4-.1-.7-.3-.9-.1-.2-.4-.3-.7-.3zm5.5 3.1c-.3.4-.7.6-1.3.6-.5 0-.9-.2-1.2-.5-.4-.4-.5-.9-.5-1.6s.1-1.2.4-1.6c.3-.4.7-.6 1.2-.6.6 0 1 .2 1.3.6V4.6h.6v5.8h-.5v-.6zm-1.3.1c.4 0 .7-.1.9-.3.2-.2.3-.6.3-1.1v-.2c0-.6-.1-1-.3-1.2-.2-.2-.5-.4-.9-.4s-.6.1-.8.4c-.2.3-.3.7-.3 1.2s.1.9.3 1.2.5.4.8.4zm3.1-4.7c0-.1 0-.2.1-.3.1-.1.2-.1.3-.1.1 0 .2 0 .3.1.1.1.1.2.1.3s0 .2-.1.3c-.1.1-.2.1-.3.1-.1 0-.2 0-.3-.1 0-.1-.1-.2-.1-.3zm.7 5.2h-.6V6.3h.6v4.1zm2.6-.5h.3c.1 0 .2 0 .2-.1v.5c-.1 0-.2.1-.3.1h-.4c-.8 0-1.2-.4-1.2-1.2V6.8h-.6v-.3l.6-.3.3-.9h.4v.9h1.2v.5h-1.2v2.4c0 .2.1.4.2.6.1.2.3.2.5.2zm3.9.5-.1-.6c-.2.3-.4.4-.6.5-.2.1-.5.1-.8.1-.4 0-.7-.1-.9-.3-.2-.2-.3-.5-.3-.9 0-.8.7-1.3 2-1.3h.7v-.2c0-.3-.1-.6-.2-.7-.1-.2-.4-.2-.7-.2-.3 0-.7.1-1.2.3l-.2-.5c.2-.1.4-.2.7-.3.2-.1.5-.1.7-.1.5 0 .8.1 1.1.3.2.2.4.6.4 1v2.8h-.6zm-1.4-.5c.4 0 .7-.1.9-.3.2-.2.3-.5.3-.9v-.3h-.6c-.5 0-.8.1-1.1.2-.2.1-.3.3-.3.6 0 .2.1.4.2.5.2.2.3.2.6.2zm5.9-.1c-.3.4-.7.6-1.3.6-.5 0-.9-.2-1.2-.5-.3-.4-.4-.9-.4-1.6s.1-1.2.4-1.6c.3-.4.7-.6 1.2-.6.6 0 1 .2 1.3.6V4.6h.6v5.8h-.5l-.1-.6zm-1.3.1c.4 0 .7-.1.9-.3.2-.2.3-.6.3-1.1v-.2c0-.6-.1-1-.3-1.2-.2-.2-.5-.4-.9-.4s-.6.1-.8.4c-.2.3-.3.7-.3 1.2s.1.9.3 1.2.5.4.8.4zm5.7.5-.1-.6c-.2.3-.4.4-.6.5-.2.1-.5.1-.8.1-.4 0-.7-.1-.9-.3-.2-.2-.3-.5-.3-.9 0-.8.7-1.3 2-1.3h.7v-.2c0-.3-.1-.6-.2-.7-.1-.2-.4-.2-.7-.2-.3 0-.7.1-1.2.3l-.2-.5c.2-.1.4-.2.7-.3.2-.1.5-.1.7-.1.5 0 .8.1 1.1.3.2.2.4.6.4 1v2.8h-.6zm-1.4-.5c.4 0 .7-.1.9-.3.2-.2.3-.5.3-.9v-.3h-.6c-.5 0-.8.1-1.1.2-.2.1-.3.3-.3.6 0 .2.1.4.2.5.2.2.3.2.6.2zm-33.4 8.6c-.6 0-1.1-.2-1.4-.5-.3-.4-.5-.9-.5-1.5 0-.7.2-1.2.5-1.6.3-.4.8-.6 1.3-.6s.9.2 1.2.5c.3.3.4.8.4 1.3v.4h-2.8c0 .5.1.8.4 1.1.2.2.6.4 1 .4s.9-.1 1.3-.3v.5c-.2.1-.4.2-.6.2-.3.1-.5.1-.8.1zm-.2-3.7c-.3 0-.6.1-.8.3-.2.2-.3.5-.3.9H89c0-.4-.1-.7-.3-.9s-.4-.3-.8-.3zm5.6 3.7v-2.6c0-.3-.1-.6-.2-.7-.2-.2-.4-.2-.7-.2-.4 0-.7.1-.9.3s-.3.6-.3 1.1v2.1h-.6v-4.1h.5l.1.6c.1-.2.3-.4.5-.5.2-.1.5-.2.8-.2.5 0 .9.1 1.1.4.2.2.4.6.4 1.1v2.7h-.7zm7.3 0-.7-1.7H98l-.7 1.7h-.6l2.1-5.5h.5l2.1 5.5h-.6zm-.9-2.3-.6-1.7c-.1-.2-.2-.5-.3-.8-.1.2-.1.5-.2.8l-.6 1.7h1.7zm2.8 2.3h-.6v-5.8h.6v5.8zm2.7-.5h.3c.1 0 .2 0 .2-.1v.5c-.1 0-.2.1-.3.1h-.4c-.8 0-1.2-.4-1.2-1.2v-2.4h-.6v-.3l.6-.3.3-.9h.4v.9h1.2v.5h-1.2v2.4c0 .2.1.4.2.6.1.2.3.2.5.2zm3.8.5-.1-.6c-.2.3-.4.4-.6.5-.2.1-.5.1-.8.1-.4 0-.7-.1-.9-.3-.2-.2-.3-.5-.3-.9 0-.8.7-1.3 2-1.3h.7v-.3c0-.3-.1-.6-.2-.7-.1-.2-.4-.2-.7-.2-.3 0-.7.1-1.2.3l-.2-.5c.2-.1.4-.2.7-.3.2-.1.5-.1.7-.1.5 0 .8.1 1.1.3.2.2.4.6.4 1v2.8h-.6zm-1.4-.5c.4 0 .7-.1.9-.3.2-.2.3-.5.3-.9v-.4h-.6c-.5 0-.8.1-1.1.2-.2.1-.3.3-.3.6 0 .2.1.4.2.5.2.3.4.3.6.3zm7.6-4.5c-.6 0-1.1.2-1.4.6-.3.4-.5.9-.5 1.6 0 .7.2 1.3.5 1.6.3.4.8.6 1.4.6.4 0 .8-.1 1.3-.2v.6c-.4.1-.8.2-1.4.2-.8 0-1.4-.2-1.9-.7-.4-.5-.7-1.2-.7-2.1 0-.6.1-1.1.3-1.5.2-.4.5-.7.9-1 .4-.2.9-.3 1.4-.3.6 0 1.1.1 1.5.3l-.3.5c-.3-.1-.7-.2-1.1-.2zm4.8 5-.1-.6c-.2.3-.4.4-.6.5-.2.1-.5.1-.8.1-.4 0-.7-.1-.9-.3-.2-.2-.3-.5-.3-.9 0-.8.7-1.3 2-1.3h.7v-.3c0-.3-.1-.6-.2-.7-.1-.2-.4-.2-.7-.2-.3 0-.7.1-1.2.3l-.2-.5c.2-.1.4-.2.7-.3.2-.1.5-.1.7-.1.5 0 .8.1 1.1.3.2.2.4.6.4 1v2.8h-.6zm-1.3-.5c.4 0 .7-.1.9-.3.2-.2.3-.5.3-.9v-.4h-.6c-.5 0-.8.1-1.1.2-.2.1-.3.3-.3.6 0 .2.1.4.2.5.1.3.3.3.6.3zm3.7.5h-.6v-5.8h.6v5.8zm1.2-5.2c0-.1 0-.2.1-.3.1-.1.2-.1.3-.1.1 0 .2 0 .3.1.1.1.1.2.1.3s0 .2-.1.3c-.1.1-.2.1-.3.1-.1 0-.2 0-.3-.1 0-.1-.1-.2-.1-.3zm.7 5.2h-.6v-4.1h.6v4.1zm4.1-.6c-.3.4-.7.6-1.3.6-.5 0-.9-.2-1.2-.5-.3-.4-.4-.9-.4-1.6 0-.7.1-1.2.4-1.6.3-.4.7-.6 1.2-.6.6 0 1 .2 1.3.6v-2.3h.6v5.8h-.5l-.1-.4zm-1.2.1c.4 0 .7-.1.9-.3.2-.2.3-.6.3-1.1v-.1c0-.6-.1-1-.3-1.2-.2-.2-.5-.4-.9-.4s-.6.1-.8.4c-.2.3-.3.7-.3 1.2s.1.9.3 1.2c.1.2.4.3.8.3zm5.6.5-.1-.6c-.2.3-.4.4-.6.5-.2.1-.5.1-.8.1-.4 0-.7-.1-.9-.3-.2-.2-.3-.5-.3-.9 0-.8.7-1.3 2-1.3h.7v-.3c0-.3-.1-.6-.2-.7-.1-.2-.4-.2-.7-.2-.3 0-.7.1-1.2.3l-.2-.5c.2-.1.4-.2.7-.3.2-.1.5-.1.7-.1.5 0 .8.1 1.1.3.2.2.4.6.4 1v2.8h-.6zm-1.4-.5c.4 0 .7-.1.9-.3.2-.2.3-.5.3-.9v-.4h-.6c-.5 0-.8.1-1.1.2-.2.1-.3.3-.3.6 0 .2.1.4.2.5.2.3.4.3.6.3zm5.9-.1c-.3.4-.7.6-1.3.6-.5 0-.9-.2-1.2-.5-.3-.4-.4-.9-.4-1.6 0-.7.1-1.2.4-1.6s.7-.6 1.2-.6c.6 0 1 .2 1.3.6v-2.3h.6v5.8h-.5l-.1-.4zm-1.2.1c.4 0 .7-.1.9-.3.2-.2.3-.6.3-1.1v-.1c0-.6-.1-1-.3-1.2-.2-.2-.5-.4-.9-.4s-.6.1-.8.4c-.2.3-.3.7-.3 1.2s.1.9.3 1.2c.1.2.4.3.8.3zM76.8.6h.5V32h-.5zm10 22.7v.9h-.3V22h.6c.3 0 .5.1.6.2.1.1.2.3.2.5 0 .3-.1.5-.4.6l.6 1h-.3l-.5-.9h-.5zm0-.3h.3c.2 0 .3 0 .4-.1.1-.1.1-.2.1-.3 0-.1 0-.2-.1-.3-.1-.1-.2-.1-.4-.1h-.3v.8zm2.2 1.2c-.2 0-.4-.1-.6-.2s-.2-.3-.2-.6.1-.5.2-.6c.1-.2.3-.2.5-.2s.4.1.5.2.2.3.2.5v.2h-1.1c0 .2.1.3.1.4.1.1.2.1.4.1s.3 0 .5-.1v.2c-.1 0-.2.1-.2.1H89zm-.1-1.5c-.1 0-.2 0-.3.1-.1.1-.1.2-.1.4h.8c0-.2 0-.3-.1-.4-.1 0-.2-.1-.3-.1zm2.1 1c0 .2-.1.3-.2.3-.1.1-.3.1-.5.1s-.4 0-.5-.1v-.2c.1 0 .2.1.2.1h.3c.1 0 .2 0 .3-.1.1 0 .1-.1.1-.2s0-.1-.1-.2c-.1 0-.2-.1-.3-.2-.2-.1-.3-.1-.3-.1-.1 0-.1-.1-.1-.1v-.2c0-.1.1-.2.2-.3.1-.1.3-.1.4-.1.2 0 .3 0 .5.1l-.1.2c-.2-.1-.3-.1-.4-.1-.1 0-.2 0-.3.1-.1 0-.1.1-.1.2v.1l.1.1s.1.1.3.1c.2.1.3.1.4.2 0 .1.1.2.1.3zm.2.3v-.1l.1-.1c.1 0 .1 0 .1.1v.2l-.1.1h-.1c.1-.1 0-.1 0-.2zm2.6.2v-1c0-.1 0-.2-.1-.3-.1-.1-.2-.1-.3-.1-.2 0-.3 0-.4.1s0 .2 0 .4v.8h-.2v-1.6h.2v.2l.2-.2c.1 0 .2-.1.3-.1.2 0 .3 0 .4.1.1.1.1.2.1.4V24h-.2zm.6-1.8c0-.1 0-.2.1-.3.1-.1.2-.1.3-.1.1 0 .2 0 .3.1.1.1.1.2.1.3 0 .1 0 .2-.1.2 0 .1-.1.1-.2.2-.1 0-.1.1-.2.1s-.2 0-.3-.1c.1-.1 0-.2 0-.4zm.2 0c0 .1 0 .1.1.2s.1.1.2.1.1 0 .2-.1.1-.1.1-.2 0-.2-.1-.2c-.1-.1-.1-.1-.2-.1s-.2 0-.2.1c-.1.1-.1.2-.1.2zm1.1 1.6v-.1l.1-.1c.1 0 .1 0 .1.1v.2l-.1.1h-.1V24zm2.7-.9c0 .4-.1.6-.2.8-.1.2-.3.3-.5.3s-.4-.1-.5-.3c-.1-.2-.2-.5-.2-.8 0-.4.1-.7.2-.8.1-.2.3-.3.5-.3s.4.1.5.3.2.4.2.8zm-1.1 0c0 .3 0 .5.1.7.1.1.2.2.4.2s.3-.1.4-.2c.1-.1.1-.4.1-.7 0-.3 0-.5-.1-.7-.1-.1-.2-.2-.4-.2s-.3.1-.4.2c-.1.1-.1.4-.1.7zm2.8 1.1h-1.4V24l.6-.6c.2-.2.3-.3.3-.4.1-.1.1-.1.1-.2v-.2c0-.1 0-.2-.1-.3-.1-.1-.2-.1-.3-.1H99c-.1 0-.2.1-.3.2l-.1-.2c.2-.2.4-.2.6-.2.2 0 .4.1.5.2.1.1.2.2.2.4 0 .1 0 .3-.1.4-.1.1-.2.3-.4.5l-.4.4h1.1v.3zm1.6-1.7c0 .1 0 .2-.1.3-.1.1-.2.1-.3.2.2 0 .3.1.4.2.1.1.1.2.1.3 0 .2-.1.4-.2.5-.1.1-.3.2-.6.2h-.3c-.1 0-.2 0-.3-.1v-.2c.1 0 .2.1.3.1h.3c.4 0 .6-.1.6-.4 0-.3-.2-.4-.6-.4h-.2V23h.2c.2 0 .3 0 .4-.1.1-.1.1-.2.1-.3 0-.1 0-.2-.1-.2-.1-.1-.2-.1-.3-.1h-.3c-.1 0-.2.1-.3.1l-.1-.2c.1-.1.2-.1.3-.2.1 0 .2-.1.4-.1s.4 0 .5.1c0 .2.1.3.1.5zm.3.7c0-.4.1-.7.2-.9.2-.2.4-.3.7-.3h.3v.2h-.3c-.2 0-.4.1-.5.2-.1.1-.2.4-.2.7.1-.2.3-.3.5-.3s.3.1.5.2c.1.1.2.3.2.5s-.1.4-.2.5c-.1.1-.3.2-.5.2s-.4-.1-.5-.3-.2-.4-.2-.7zm.7.8c.1 0 .2 0 .3-.1.1-.1.1-.2.1-.4 0-.1 0-.3-.1-.3-.1-.1-.2-.1-.3-.1-.1 0-.2 0-.2.1-.1 0-.1.1-.2.2 0 .1-.1.1-.1.2s0 .2.1.3c0 .1.1.2.2.2 0-.1.1-.1.2-.1zm1.6-1.2c.2 0 .4.1.5.2s.2.3.2.5-.1.4-.2.5c-.1.1-.3.2-.6.2-.2 0-.4 0-.6-.1v-.2c.1 0 .2.1.3.1h.3c.2 0 .3 0 .4-.1.1-.1.1-.2.1-.4 0-.3-.2-.5-.6-.5h-.4l-.1-.1.1-1h1.1v.2h-.8l-.1.6c.2.2.3.1.4.1zm2.5.9h-.3v.5h-.2v-.5h-1v-.2l1-1.5h.3v1.4h.3v.3zm-.6-.3v-1.2c0 .1-.1.2-.1.2l-.7 1h.8zm2.6.5c-.1.2-.3.2-.5.2s-.4-.1-.5-.2c-.1-.1-.2-.3-.2-.6s.1-.5.2-.6c.1-.1.3-.2.5-.2s.4.1.5.2v-.9h.2v2.3h-.2v-.2zm-.5.1c.2 0 .3 0 .4-.1.1-.1.1-.2.1-.4v-.1c0-.2 0-.4-.1-.5-.1-.1-.2-.1-.4-.1-.1 0-.3.1-.3.2-.1.1-.1.3-.1.5s0 .4.1.5c.1-.1.2 0 .3 0zm1.9.2c-.2 0-.4-.1-.6-.2-.1-.1-.2-.3-.2-.6s.1-.5.2-.6c.1-.2.3-.2.5-.2s.4.1.5.2c.1.1.2.3.2.5v.2h-1.1c0 .2.1.3.1.4.1.1.2.1.4.1s.3 0 .5-.1v.2c-.1 0-.2.1-.2.1h-.3zm-.1-1.5c-.1 0-.2 0-.3.1-.1.1-.1.2-.1.4h.8c0-.2 0-.3-.1-.4-.1 0-.2-.1-.3-.1zm1.3 1.5h-.2v-2.3h.2v2.3zm2.1 0-.7-1.9v1.9h-.2V22h.4l.7 1.8.7-1.8h.4v2.2h-.2v-1.9l-.7 1.9h-.4zm1.6-2.1V22h.2v.2h-.2c.1 0 0 0 0-.1zm.3 2.1h-.2v-1.6h.2v1.6zm1.5 0v-1c0-.1 0-.2-.1-.3-.1-.1-.2-.1-.3-.1-.2 0-.3 0-.4.1s-.1.2-.1.5v.8h-.2v-1.6h.2v.2l.2-.2c.1 0 .2-.1.3-.1.2 0 .3 0 .4.1.1.1.1.2.1.4v1.1h-.1zm1.4 0c-.2 0-.4-.1-.6-.2-.1-.1-.2-.3-.2-.6s.1-.5.2-.6c.1-.2.3-.2.5-.2s.4.1.5.2c.1.1.2.3.2.5v.2h-1.1c0 .2.1.3.1.4.1.1.2.1.4.1s.3 0 .5-.1v.2c-.1 0-.2.1-.2.1h-.3zm-.1-1.5c-.1 0-.2 0-.3.1-.1.1-.1.2-.1.4h.8c0-.2 0-.3-.1-.4 0 0-.1-.1-.3-.1zm2.1 1.2c-.1.2-.3.2-.5.2s-.4-.1-.5-.2c-.1-.1-.2-.3-.2-.6s.1-.5.2-.6c.1-.1.3-.2.5-.2s.4.1.5.2v-.9h.2v2.3h-.2v-.2zm-.5.1c.2 0 .3 0 .4-.1.1-.1.1-.2.1-.4v-.1c0-.2 0-.4-.1-.5-.1-.1-.2-.1-.4-.1-.1 0-.3.1-.3.2-.1.1-.1.3-.1.5s0 .4.1.5c.1-.1.2 0 .3 0zm1.4-1.5v1c0 .1 0 .2.1.3.1.1.2.1.3.1.2 0 .3 0 .4-.1.1-.1.1-.2.1-.5v-.8h.2v1.6h-.2v-.2l-.2.2c-.1 0-.2.1-.3.1-.2 0-.3 0-.4-.1-.1-.1-.1-.2-.1-.4v-1.1h.1zm2.2 1.7c-.2 0-.4-.1-.5-.2-.1-.1-.2-.3-.2-.6s.1-.5.2-.6c.1-.1.3-.2.6-.2h.2c.1 0 .1 0 .2.1l-.1.2c-.1 0-.1 0-.2-.1h-.2c-.3 0-.5.2-.5.6 0 .2 0 .4.1.5.1.1.2.2.4.2.1 0 .3 0 .4-.1v.2h-.4zm1.7 0V24l-.2.2c-.1 0-.2.1-.3.1-.2 0-.3 0-.4-.1-.1-.1-.1-.2-.1-.4 0-.3.3-.5.8-.5h.3v-.1c0-.1 0-.2-.1-.3-.1-.1-.1-.1-.3-.1-.1 0-.3 0-.5.1l-.1-.2c.1 0 .2-.1.3-.1h.3c.2 0 .3 0 .4.1.1.1.1.2.1.4v1.1h-.2zm-.5-.2c.2 0 .3 0 .4-.1.1-.1.1-.2.1-.4v-.1h-.2c-.2 0-.3 0-.4.1-.1.1-.1.1-.1.2s0 .2.1.2c-.1.1 0 .1.1.1zm1.8.2c-.2 0-.4-.1-.5-.2-.1-.1-.2-.3-.2-.6s.1-.5.2-.6c.1-.1.3-.2.6-.2h.2c.1 0 .1 0 .2.1l-.1.2c-.1 0-.1 0-.2-.1h-.2c-.3 0-.5.2-.5.6 0 .2 0 .4.1.5.1.1.2.2.4.2.1 0 .3 0 .4-.1v.2h-.4zm.7-2.1V22h.2v.2h-.2v-.1zm.2 2.1h-.2v-1.6h.2v1.6zm1.9-.8c0 .3-.1.5-.2.6-.1.1-.3.2-.5.2-.1 0-.3 0-.4-.1l-.3-.3c-.1-.1-.1-.3-.1-.4 0-.3.1-.5.2-.6.1-.1.3-.2.5-.2s.4.1.5.2c.2.1.3.3.3.6zm-1.2 0c0 .2 0 .4.1.5.1.1.2.2.4.2s.3-.1.4-.2c.1-.1.1-.3.1-.5s0-.4-.1-.5c-.1-.1-.2-.2-.4-.2s-.3.1-.4.2c-.1.1-.1.2-.1.5zm.2-1.1c0-.1.1-.1.2-.2s.1-.2.1-.2h.3c0 .1-.1.1-.2.2l-.2.2h-.2zm2.4 1.9v-1c0-.1 0-.2-.1-.3-.1-.1-.2-.1-.3-.1-.2 0-.3 0-.4.1-.1.1-.1.2-.1.5v.8h-.2v-1.6h.2v.2l.2-.2c.1 0 .2-.1.3-.1.2 0 .3 0 .4.1.1.1.1.2.1.4v1.1h-.1zm.7-.2v-.1l.1-.1c.1 0 .1 0 .1.1v.2l-.1.1h-.1V24zm-44 3.8h-.2v-1.9l-.1.1s-.1.1-.4.3l-.1-.2.6-.4h.2v2.1zm2.2-1.1c0 .4-.1.6-.2.8-.1.2-.3.3-.5.3s-.4-.1-.5-.3c-.1-.2-.2-.5-.2-.8 0-.4.1-.7.2-.8.1-.2.3-.3.5-.3s.4.1.5.3c.1.2.2.4.2.8zm-1.2 0c0 .3 0 .5.1.7.1.1.2.2.4.2s.3-.1.4-.2c.1-.1.1-.4.1-.7 0-.3 0-.5-.1-.7-.1-.1-.2-.2-.4-.2s-.3.1-.4.2c-.1.2-.1.4-.1.7zm2.3-1.1-.8 2.2h-.2l.8-2.2h.2zm1 2.2h-.2v-1.9l-.1.1s-.1.1-.4.3l-.1-.2.6-.4h.2v2.1zm2.2 0h-1.4v-.2l.6-.6c.2-.2.3-.3.3-.4.1-.1.1-.1.1-.2v-.2c0-.1 0-.2-.1-.3s-.2-.1-.3-.1h-.3c-.1 0-.2.1-.3.2l-.1-.2c.2-.2.4-.2.6-.2.2 0 .4.1.5.2s.2.2.2.4c0 .1 0 .3-.1.4-.1.1-.2.3-.4.5l-.5.5h1.1v.2zm1.2-2.2-.8 2.2H94l.8-2.2h.2zm1.5 2.2h-1.4v-.2l.6-.6c.2-.2.3-.3.3-.4.1-.1.1-.1.1-.2v-.2c0-.1 0-.2-.1-.3-.1-.1-.2-.1-.3-.1h-.3c-.1 0-.2.1-.3.2l-.1-.2c.2-.2.4-.2.6-.2.2 0 .4.1.5.2.1.1.2.2.2.4 0 .1 0 .3-.1.4-.1.1-.2.3-.4.5l-.5.5h1.1v.2zm1.1 0h-.2v-1.9l-.1.1s-.1.1-.4.3l-.1-.2.6-.4h.2v2.1zm1.9 0-.6-1.6h.3l.3 1c.1.2.1.4.1.4 0-.1 0-.2.1-.3.1-.2.2-.5.4-1.1h.3l-.6 1.6h-.3zm1.1-2.1v-.1h.2v.2h-.2v-.1zm.3 2.1h-.2v-1.6h.2v1.6zm1.7-1.6v.2h-.3l.1.1v.2c0 .2-.1.3-.2.4-.1.1-.3.1-.4.1h-.1c-.1.1-.2.1-.2.2 0 0 0 .1.1.1h.5c.2 0 .3 0 .4.1.1.1.1.2.1.3 0 .2-.1.3-.2.4-.1.1-.4.1-.6.1-.2 0-.4 0-.5-.1-.1-.1-.2-.2-.2-.3 0-.1 0-.2.1-.3.1-.1.2-.1.3-.1 0 0-.1 0-.1-.1v-.3l.1-.1c-.1 0-.2-.1-.2-.2-.1-.1-.1-.2-.1-.3 0-.2.1-.3.2-.4.1-.1.3-.1.5-.1h.7zm-1.3 1.8c0 .1 0 .2.1.2s.2.1.3.1c.2 0 .4 0 .5-.1.1-.1.1-.1.1-.2s0-.1-.1-.2c-.1 0-.2-.1-.3-.1h-.3c-.1 0-.2 0-.3.1.1.1 0 .1 0 .2zm.2-1.3c0 .1 0 .2.1.3.1.1.2.1.3.1.2 0 .4-.1.4-.3 0-.2-.1-.4-.4-.4-.1 0-.2 0-.3.1-.1 0-.1.1-.1.2zm2.1 1.1c-.2 0-.4-.1-.6-.2s-.2-.3-.2-.6.1-.5.2-.6c.1-.2.3-.2.5-.2s.4.1.5.2c.1.1.2.3.2.5v.1H103c0 .2.1.3.1.4.1.1.2.1.4.1s.3 0 .5-.1v.2c-.1 0-.2.1-.2.1 0 .1-.1.1-.2.1zm-.1-1.5c-.1 0-.2 0-.3.1-.1.1-.1.2-.1.4h.8c0-.2 0-.3-.1-.4-.1 0-.2-.1-.3-.1zm2.1 1.5v-1c0-.1 0-.2-.1-.3-.1-.1-.2-.1-.3-.1-.2 0-.3 0-.4.1-.1.1-.1.2-.1.5v.8h-.2v-1.6h.2v.2l.2-.2c.1 0 .2-.1.3-.1.2 0 .3 0 .4.1.1.1.1.2.1.4v1.1h-.1zm1.3 0c-.2 0-.4-.1-.5-.2-.1-.1-.2-.3-.2-.6s.1-.5.2-.6c.1-.1.3-.2.6-.2h.2c.1 0 .1 0 .2.1l-.1.2c-.1 0-.1 0-.2-.1h-.2c-.3 0-.5.2-.5.6 0 .2 0 .4.1.5.1.1.2.2.4.2.1 0 .3 0 .4-.1v.2h-.4zm.7-2.1v-.1h.2v.2h-.2v-.1zm.3 2.1h-.2v-1.6h.2v1.6zm1.4 0v-.2l-.2.2c-.1 0-.2.1-.3.1-.2 0-.3 0-.4-.1-.1-.1-.1-.2-.1-.4 0-.3.3-.5.8-.5h.3v-.1c0-.1 0-.2-.1-.3-.1-.1-.1-.1-.3-.1-.1 0-.3 0-.5.1l-.1-.2c.1 0 .2-.1.3-.1h.3c.2 0 .3 0 .4.1.1.1.1.2.1.4v1.1h-.2zm-.6-.2c.2 0 .3 0 .4-.1.1-.1.1-.2.1-.4V27h-.2c-.2 0-.3 0-.4.1-.1.1-.1.1-.1.2s0 .2.1.2c0 .1 0 .1.1.1zm2.7.2h-.2v-1.9l-.1.1s-.1.1-.4.3l-.1-.2.6-.4h.2v2.1zm2.2-1.1c0 .4-.1.6-.2.8-.1.2-.3.3-.5.3s-.4-.1-.5-.3c-.1-.2-.2-.5-.2-.8 0-.4.1-.7.2-.8.1-.2.3-.3.5-.3s.4.1.5.3c.1.2.2.4.2.8zm-1.2 0c0 .3 0 .5.1.7.1.1.2.2.4.2s.3-.1.4-.2c.1-.1.1-.4.1-.7 0-.3 0-.5-.1-.7-.1-.1-.2-.2-.4-.2s-.3.1-.4.2c-.1.2-.1.4-.1.7zm2.3-1.1-.8 2.2h-.2l.8-2.2h.2zm1 2.2h-.2v-1.9l-.1.1s-.1.1-.4.3l-.1-.2.6-.4h.2v2.1zm2.2 0h-1.4v-.2l.5-.6c.2-.2.3-.3.3-.4.1-.1.1-.1.1-.2v-.2c0-.1 0-.2-.1-.3s-.2-.1-.3-.1h-.3c-.1 0-.2.1-.3.2l-.1-.2c.2-.2.4-.2.6-.2.2 0 .4.1.5.2.1.1.2.2.2.4 0 .1 0 .3-.1.4-.1.1-.2.3-.4.5l-.5.5h1.1v.2zm1.2-2.2-.8 2.2h-.3l.8-2.2h.3zm1.5 2.2h-1.4v-.2l.6-.6c.2-.2.3-.3.3-.4.1-.1.1-.1.1-.2v-.2c0-.1 0-.2-.1-.3-.1-.1-.2-.1-.3-.1h-.3c-.1 0-.2.1-.3.2l-.1-.2c.2-.2.4-.2.6-.2.2 0 .4.1.5.2s.2.2.2.4c0 .1 0 .3-.1.4-.1.1-.2.3-.4.5l-.5.5h1.1v.2zm.5 0 .9-1.9h-1.2v-.2h1.4v.2l-.9 2h-.2z" class="st0"/></svg>