<svg xmlns="http://www.w3.org/2000/svg" id="Layer_2" version="1.1" viewBox="0 0 1024 1024"><defs><style>.st1{fill:#708ba1}.st2{fill:#e6c683}.st4{fill:#96aaba}.st6{fill:#f9ccae}.st7{fill:#f8c2a0}.st8{fill:#65829a}.st9{fill:#f5a16d}.st11{fill:#f6ac7d}.st13{fill:#f49f69}.st14{fill:#fad6bf}.st15{fill:#facfb4}.st16{fill:#f8bf9a}.st19{fill:#f8bd99}.st20{fill:#1e1b4b}.st21{fill:#f9c9ab}.st25{fill:#fad4bb}.st29{fill:#f9c6a5}.st31{fill:#f8bc97}.st32{fill:#f4a06b}.st33{fill:#f6aa79}.st34{fill:#f8c3a2}.st36{fill:#e5c580}.st39{fill:#fad5bd}.st40{fill:#f5a572}.st43{fill:#f5a776}.st44{fill:#faceb2}.st45{fill:#f9c5a4}.st46{fill:#849bae}.st47{fill:#ff8000}.st48{fill:#f49a62}.st51{fill:#6a869d}.st52{fill:#f8c09c}.st54{fill:#e5c681}.st55{fill:#fad1b8}.st56{fill:#f39558}</style></defs><path d="M320.7 428.5c43.2 4.4 81 32.7 94.3 73.8s77.9 66 134 67.9 122.3 43.4 112.6 122.9S517 869 441.6 883.5s-225.4-155-228.1-288.2c-3.3-156.7 107.3-166.8 107.3-166.8Z" class="st47"/><path d="M360.7 774.5c-74.2 29.6-23.4-117.2 16.7-40.2 6.2 17.9-.9 31.6-16.7 40.2ZM239.1 541.8c82.9-34.5 27.9 129.8-7.8 34.6-1.9-12.8-.3-24.6 7.8-34.6Zm73.4-88.1c54-3.7 22.8 78.5-17.3 49.8-18-17.5-3-43.1 17.3-49.8Zm39.2 145.8c70.8 13.1-6.2 98.9-22 26 2-6.9 6.2-.6 7 4 48.7 46.5 33.8-47.2 7-10 3.4 26.5-22.9-22.6 8-20Zm-57 76c-3.8 31.6-47.2 20.9-37-6-5.5-26.2 39.9-15.4 37 6Zm131-23c4.6-3.3 5.9 3 5.2 7.4 1.1 5.1 17.7-2.2.5-9.2-.4-2.7-4.3-3.3-.6-6.2 14.6-6 29 17.1 11.9 26.4-14.5 8.4-30.2-7.9-16.9-18.4Zm60 61c-8.4 3.5-7.2-5.9-8 0 2.3 2.7-1.8.4-2.9 2.1-20.8-3.8-12.7 21.5-17.1 30.9-13.6 33.4-11.5-75.4 28-33Z" class="st20"/><path d="M331.7 609.5c3.8 2.4 9 14.6 5 20-6.3-7-11.1-8.1-5-20Zm11-8c-.8 2-5.6 7.7-6 6-7.3 4.3.7-7.1 6-6Z" class="st20"/><path d="M336.7 607.5c0 1.7.1 4.5-2 4-4.4 10.6-4.7-9.2 2-4Z" class="st20"/><path d="M257.7 672.5c-2-6.2 6.9.2 9 0-15.5-18.5 32.8-6.7 15 10.5-10.1 10.4-18.3-3.5-24-10.5Zm-16-120c13.7-24.7 42.2 7.3 30.7 26.2-2.4 12.4-23.7 26.5-25.2 6.8-11.4-10.7 1.6-26.5-5.5-33Zm75-90c12.2-.3 20.6 14.9 13.4 24.9-25.9 38.1-55-25.6-13.4-24.9Zm26.8 260.2c46-4.8 16.8 71.3-10.4 38-2.1-12.1-1.7-32.4 10.4-38Z" class="st47"/><path d="M392.7 874.5c-5.5-5-15.9-4-19-9 13.3-1.4-2-24.4-8.7-7.4-35.2-9.6 35.1-40.4 27.7 16.4Z" class="st20"/><path d="M570.1 524.4s101.5-88 144.6-81c43.2 7 71.2 100 71.2 100S819.2 671 821 699.2s-12.2 89-80.7 82.1-246.6-60.4-247.6-137.9 43.3-76.1 77.4-119Z" style="fill:#bd2846"/><path d="M543.8 703.4s45.8-44.1 131.9-52 46.6 192.6 30.6 205.5-144.5 76.6-214.3 41.4-86.1-108.3-71.3-124.9 104.1-58 123.1-69.9ZM422.7 518.5c-22.3 12.8-6 47.2 18.2 25.7 2.8-6.5 22.9 3.9 6.8 9.3-63.4 41.8-50.1-59.8-25-35Z" class="st20"/><path d="M817.5 676.7c-.8-4-1.7-8.3-2.6-12.9-1.2 1.2-2.5 2.3-3.7 3.4-1.9-.6-3.9-1.1-5.8-1.7-12.5-3.5-25.2-6.6-37.9-9.2-16.4-3.4-33-6.2-49.7-8.3 0-.3 0-.6-.1-.9-.8-6.5-1.3-13.1-1.8-19.6 7.5-12.6 15.9-24.6 23.8-36.6 4.7-7.1 9.4-14.3 14.1-21.4 1.9-.9 3.8-1.8 5.7-2.8 3.1 1.1 6.2 2.3 9.2 3.5 9.1 3.6 18.1 7.4 26.9 11.4-.7-2.8-1.4-5.6-2.1-8.2-4.6-2-9.3-4-14-6-4-1.7-8.1-3.3-12.2-4.8 7-3.7 13.8-7.6 20.4-11.8-1.2-4.7-1.9-7.4-1.9-7.4s0-.2-.2-.5c-7.5 4.9-15.2 9.4-23.1 13.7l-.6.3c2.1-3.1 4.1-6.3 6.2-9.4 4.2-6.3 8.3-12.7 12.5-19-.8-2.3-1.8-4.7-2.8-7.3-.3.5-.6 1-.9 1.4-4.7 7.3-9.5 14.5-14.2 21.8-2.9 4.5-5.8 8.9-8.7 13.4-9.7-3.4-19.4-6.5-29.3-9.4-2.4-.7-4.9-1.4-7.4-2.1 1.1-10.1 2.6-20.2 4.4-30.2 3.3-2.4 6.6-4.7 10-7 10.1-7 20.4-13.6 30.9-20.1-1.4-2.5-2.8-4.9-4.3-7.3-8.4 5.3-16.6 10.8-24.6 16.2-3.3 2.2-6.5 4.4-9.7 6.7 3.6-16.7 8.4-32.8 13.5-49-1.9-1.7-3.8-3.3-5.8-4.7-6.3 17.1-10.9 35-14.6 52.6-.5 2.3-1 4.6-1.4 7-12.1 8.7-23.9 17.7-35.4 27.1-21.2-4.2-42.6-7.2-64.1-8.9 5.8-14.6 12.4-28.9 19.9-42.7 3.3-6.1 6.7-12 10.3-17.9-4.3 2.6-8.5 5.3-12.7 8.1-9.4 16.7-17.6 34.1-24.5 52-13.8-.9-27.6-1.3-41.5-1-1.7 2.1-3.4 4.1-5.1 6 14.8 0 29.5.4 44.2 1.3-10.1 27.5-17.2 56-21.3 84.8-4.4 1.1-8.8 2.1-13.1 3.2-13.8 3.3-27.8 6.2-41.7 9-8.4-12.3-15.8-25.4-22.3-38.8-1.3 1.9-2.5 3.8-3.7 5.8 5.4 12 11.6 23.5 18.7 34.4-9.8 1.9-19.6 3.7-29.5 5.3-.7.1-1.1.4-1.4.8v2.7c.5.9 1.5 1.6 2.8 1.4 10.5-1.6 20.9-3.4 31.4-5.3 3.2 4.7 6.6 9.3 10.1 13.8-13.9 2.3-27.7 5.1-41.3 8.4.7 2 1.5 3.9 2.4 5.9 14.4-3.3 29-6.1 43.6-8.5 3.7 4.5 7.6 9 11.6 13.3-7.3 9.8-15.1 19.9-20.7 30.7-1.5 2.9 2.4 6.4 4.7 3.6 7.2-8.6 13.2-18.2 19.9-27.2.4-.6.8-1.1 1.3-1.7 12.3 12.6 25.9 24.1 40.7 33.3 4.1 2.5 7.4-3.6 3.7-6.3-14.1-10.3-27.4-21.1-39.7-33.1 4.4-5.8 8.9-11.5 13.5-17.2 2-.2 3.9-.4 5.9-.6v1.4c-.5 10.1-1.2 20.6-.1 30.7.3 3.1 4.6 3.2 4.9 0 .7-8.5.3-17.1.8-25.6.1-2.3.3-4.7.4-7 5.8-.5 11.6-.9 17.5-1.2 30.5-1.6 61.1-.9 91.4 2.1-2.5 6.6-4.4 13.4-5.7 20.4-.6 3 4 4.4 4.7 1.3 1.5-7.3 3.8-14.3 6.6-21.2 2.9.3 5.7.6 8.6 1 2.3 18 5.7 35.8 10.2 53.3 1.2 4.9 2.6 9.7 4 14.5-8.2 3.4-16.5 6.5-24.9 9.3-3 1-1.8 5.7 1.3 4.8 8.5-2.6 16.9-5.5 25.2-8.8 5.5 17.9 12.4 35.4 21 52.1 1.3 2.4 5.6.7 4.5-1.9-6.9-17.5-13.2-35.2-18.6-53.1 28.4-12.3 54.6-29 77.9-49.4 1.9.6 3.8 1.1 5.6 1.7Zm-259.8-11.9c-2.7-2.8-5.3-5.6-7.9-8.5 5.3-.8 10.7-1.5 16-2.1-2.8 3.5-5.5 7.1-8.2 10.7Zm26.3-33c-1.8 2.2-3.7 4.4-5.5 6.6-2.3 2.8-4.7 5.7-6.9 8.5-8.9 1-17.8 2.2-26.7 3.5-.1-.2-.3-.3-.4-.5-3.6-4.4-7-8.9-10.3-13.5 16.9-3.3 33.8-6.9 50.6-11-.3 2.1-.5 4.2-.8 6.4Zm99.9-86.7c8.7 1.8 17.3 3.8 25.9 6.1-.7 6.7-1.2 13.4-1.6 20.1-.2 3.4-.3 6.9-.4 10.4-1.2.5-2.3.9-3.5 1.4-30.2 11.8-61.4 21.5-92.9 29.8 4.4-4.7 8.9-9.5 13.5-14.1 18.7-18.9 38.4-36.8 59-53.7Zm-84.7 37c4-16 8.9-31.7 14.7-47 20.1 1.6 40.1 4.2 59.9 8-27.2 22.6-52.7 47.1-76.3 73.4-1.8.5-3.7.9-5.5 1.4 1.8-12 4.2-23.9 7.2-35.7Zm100.7 64c-2.3-.2-4.7-.5-7-.7-34.6-3-69.5-3-104.1-.2.2-2.7.5-5.4.8-8.1 4.8-5.6 9.7-11.1 14.7-16.6 10.5-2.7 20.9-5.6 31.3-8.6 24.1-7 48.4-14.4 72.1-23.1-.2 13.2.2 26.4 1.1 39.6-3.2 5.8-6.2 11.6-8.8 17.7Zm5.7.6c1.2-2.7 2.5-5.3 3.9-7.9.3 2.8.6 5.6.9 8.5-1.6-.2-3.2-.4-4.8-.5Zm4.9-102.2c-6.6-1.7-13.3-3.3-20-4.8 7.6-6.1 15.4-12 23.2-17.8-1.3 7.5-2.3 15-3.2 22.5Zm4.3 41.7c9.6-3.7 19.1-7.6 28.4-11.7-3.1 4.8-6.2 9.5-9.3 14.3-6.2 9.5-12.6 19-18.6 28.7-.5-10.4-.6-20.8-.4-31.3Zm17.6 132.9c-6-20.9-10.8-42.2-13.7-63.9 12.7 1.7 25.4 3.8 38 6.2 13.7 2.7 27.2 5.9 40.7 9.5l7.5 2.1c-21.8 18.7-46.2 34.2-72.4 46.1Z" class="st20"/><g id="Layer_1-2"><path d="M372.7 151.5c.2 0 1.6-2.9 3-3.4 1-.4 2.6.5 4 0 9.4-3.7 7.9-4.3 18.6-5.9.9-.1 1-2.1 2.2-2.7 5.1-2.6 14.3-3.7 19.1-5.5 15.7-5.9 41.8-20.6 58.4-19.1 9.2.8 17.1 8 20.1 16.7 2.8 7.9 4.8 16.3 7.8 24.2 4 10.4 7.6 19.4 11.7 30.3 1.2 3.3 7.5 18 7.1 19.8-.2 1-2.4.3-2 1.1 7.2 5.2 7.2 14 10.1 21.7 3.3 8.8 8.9 18.8 10.4 28.7.2 1.3-.6 2.8-.4 4.1 5.2-3 4.2 6.1 5.5 10 4.3 13.1 9.1 24.6 13.8 37.2 1 2.6 4 6.7 4.5 8.6s-.9 4.5.2 6.4c5.6 10.2 9.3 22.4 13.6 33.7.3.9 1.8 1.6 2.3 2.8 1.6 4.5-1.4 2.7-2.5 3.5-2.3 1.6-2.4 5.7 2.2 1.8 2 1.8 2 4.6 3.1 6.9.5 1 2.4 2.2 2.4 2.6s-2 1.6-2.5 2.5c-2 3.8.6 2.5 2.4 3.5 5.5 3-.6 20.1-4 23.9-1.6 1.8-11.3 7.8-13.8 8.3-3.2.7-6-1-6.2-.8-.8.9.8 5.3-5 4l1-4c-3.8.4-9.1-3.7-8 2 3.2-2.5 7.7.5 5.6 3-.8 1-9.5 3.4-11.4 3.7-1.6.3-2.9-.6-3.7-.5-1.6.1-.2 3-2.5 4.2-4.2 2.2-18.1 2.8-19.5 7.5-.5 1.7 0 4-.7 6.3-1 3-6.6 8.9-9.3 10.8-2.8 2-12.8 5.4-13.4 7.7-.4 1.5.6 2.9.5 3.8-.2 1.4-4 2.8-1.4 5.2 1 .9 3.3.8 3.6 1.4.5.8-.1 4.3.4 6.1 2.1 8.2.6 7.5 1.2 13.2.1 1.1 1.8 2 1.7 4 0 .9-1.7.3-2 .5-1 .6 2.2 1.5 2.9 2.6 1.2 1.7 2.8 8.7 1.6 10.5-.7 1-2.8.4-2.5 2 6.3-.5 3.1.6 3.5 3.5.8 5.8 2 11.9 2.7 17.7 1.1 7.6 5.5 26.6 4.8 32.8 1.6 2 1.6 2.1-1 2-2-.5-6.8-.9-9-1l-2.4-1.8c-2.6-25.9-6.8-51.7-12.4-77.4-1.8-7.6-2.3-14.9-1.3-21.9-6.5 1.5-12.7 1.6-18.6.2-12 2-8.8-12.6 1.9-12.5 10.9-1 26.3-3 34.9-10.4 4.4-3.8 4-11-2.4-12.1l-45.9 16c-8.5 1.4-12.3-9.3-5-13.6 13.1-3.1 26.8-6.7 37.7-14.9 4.6-1.5 13.3-9.5 14.2-14.9 3.2-17.8-15.6-12.6-25.6-7.4-11.8 5.9-23.8 11.2-36.1 15.7-13.1 5.6-24.2-2-11-12.7 10.4-1.6 20.3-5.7 29.7-9.9l1.5.6c1.4-3.8 4-5.4 8.1-5 2.6-3 14.9-18 12.5-21.5-.3-.4-7.2-5.1-8.3-5.3-4.9-1-12.8 1-15.3 5.2-14.6 6-28.9 12.7-43 20l-1.9-.4c-6.3 7.5-17.2-3-9.7-9.9 4.6-1.3 8.9-6.3 3.4-8.6.2-3.5-.5-5.5-2-5.9-.9-4.5-2.9-9-5.9-13.5l-9.1-20.5c-5.3-11.9-16.7-29.1-31.5-24.6-2.3-1.5-3.1-.6-2.6 2.7-4.2 6.6-5 19-.7 25.5.6 4.7 1.4 10.1 3.3 14.1 4.3 16.2 7.4 33.1 9.6 49.9l2.6 2.7c3.6 17.9 7.6 35.7 12.1 53.5 1.2 5.6 2.6 11.4 4.2 17.4l-1.9 1.3c-3.8-5.6-9.7-15-15-19l-5.8-25.7 1.8-3.3-3.1-.6-11-47.9 4-1.5c-8 1.4-4.2-9.1-4-14l-1 3c-3.1 3.6-5-15.1-5.2-16.3-1.4-6.3-7.1-23.1-5-28.5.6-1.5 2.2-2.6 3.2-3.8-6.4 1.1-1.5-2.4-.5-5.4s1.1-6.8 3.6-10.5c1.4-1.9 4.9-2.6 4.9-5.1 0-2-2.9-3.9-3.5-5.6-8.3-24.2-17.2-48.9-25.5-73.5-1-2.8-3.2-5.8-4.1-9-2.4-8.6-1.1-25 10.1-25.5l-2-1.5 3.1-2.9 37.7-14.4c1.6-.3 3.1.8 3.2.8q1.3 2.1 0 0Zm-2 49c.2.3 3 7.2 3 7.6.3 3.6-5.5 6-1 11 1.6 1.7 3.6.5 2.8 3.7-1 4.4-5.9 12.4-7.3 4.8l-6.5 3.5c9.2 2.7 2 5.6 1.9 6.1 0 4.1 3.6 3.7 4.9 4.6.3.2-1 2.1.7 2.7l2.5.6c-3.1 5.6-6.1-1.1-8.4-.5-1.1.3-1.2 2.6-1.7 2.9-.8.5-3.2-1.4-3.9-.9-.3.2-2.3 6.7-2 7 .3.3 4.9-.2 4 3-3.3-.4-4.1-.2-5 3 3-.3 5.3 2.8 5.1 5.5 0 .6-1.7.5-1.9.7-.7 1 4.2 8.2 6.8 6.9-6.2-3.6-.4-7.8 1.6-2 1.3 3.8-1.1 2.8-1.3 3.3-.4 1-.8 7.2-.3 7.7 5.8-2.4 13.2 5.8 18 6.6 2.9.5 3.7-3.2 6.5-.6 2.6 2.4-.6 4.1-.4 5.4.1.9 9.6 10.1 11.5 13.6 5.3 9.7 8.4 22.1 12.8 31.3 2.3 4.8 3.3 7.9 5.8 13 1 2 3 8.8 3.8 9.3 3.3 2.3 27.3-13.8 29.9-11.5.4.3 0 3.2 1.6 3.9 4.5-3.6-2-3.8 0-6 .8-.9 10.8-4.9 12.7-5.3 9.2-1.9 19.5.8 24.3 9.4s-2 8-2.4 9.4c-1.4 4.2 4.2 1.4 4.8 3.9.3 1.6-1.8 8.5-2.7 10.5 20.8-3.5 32.2 17.2 22.2 34.7-1.4 2.5-4.2 3.7-4.2 6.3 3.3.2 7.5 2.5 8 6 9.5-2.5 20.3-8.9 29.5-11 2.9-.7-1 3.6 2.5 4 .2-1.4-.5-3.9.1-4.9.8-1.2 22.2-6.8 26.3-10.2 2.5-2.1 4.9-8.1 4.5-11.4-.8-7.6-7.1-19.5-9.7-27.4-1-2.9-1.5-7.7-2.5-10.5-1.6-4.6-9.9-15.7.2-14.2l-3.5-4.5c-4.9 7.8-3.4 2.1-4.8-2.2-4.2-13-9.7-27.6-14-39-9.9-26.1-19.6-52.1-29-78-1.4-3.9-2-7-2.9-11-.5-2.4-4.2-2.8 1.2-5.3-4.5-2-5.7-3.9-7.9-8.1l6.9-4.4c-1.6-.8-7.5 1.5-8 1-.4-.4.7-2.7.6-3.5-.1-1-3.3-3.7-4-6.7-.5-2.1.5-3.8.2-5.1-.4-1.7-3.5-3.2-4.4-5.7-1.1-3.3-1.3-7.4-2.8-11.2-1.4-3.5-8.6-22.2-10-23.5-.8-.8-6.3-3.6-7.6-3.9-6.3-1.5-13.6 3.7-19.5 5.7-22.5 7.4-45.4 15-67.8 23.2-4 1.5-10.4 7.7-12.3 1.7-3.4 6.9-5.7 4.7-10.8 6.2-1.5.4-2.6 2.7-4.4 3.6-2 1-4.9.3-5.8 1.1-2.5 2.1-.4 4.4-.9 5.2-.3.5-7.6 2.8-5.6 4.9 1.5 1.5 2.7-2.4 3.3-2.7 4.5-2.5 9-2.8 8.7 3.7l3-1c.2 5.7 9.4 15-2 14l1 5c-1.4-.8-6.7-.8-7-1-.6-.6 1.1-4.2-1-4-.2 3.3.5 6.9-.4 10.1-.7 2.4-2.5 1.8-2.6 1.9-.3.5 5.2 4.3 5.5 6 1.6-3.8 5.1-3.7 4.5 1-1 0-2.5 1-4 0l1 4c1.3-.3 2.9-2.9 3-4 1.1 0 2 .8 3 1-.4-3 .2-4.7 2-7l-9.9.9v-6.9c3.9-.3 9.5-.7 11.9 2.9Zm29-54h-3v2h3v-2Zm-55 37.9c-.9-1.7-8.9-5.8-10-5 1.7 5.8 5.1 4 10 5Zm16.9 1c.7-.8.2-4.4-1.5-4.8-.6-.2-6.3.9-7.1 1.2-.3.1-.4 1.3-1 1.7-1 .7-3.2.9-3.3 1-.2.3 1.3 5.7 1 7 7.1-2.2.7-4.6 2-6 4.4-2.5 6.1 2.1 6.5 2 .9-.2.2-1.3.8-1.7.8-.6 2.4-.2 2.6-.4Zm-14.9 22.1c-1.4-.5-6.3 1.4-5 2 1.4.5 6.3-1.4 5-2Zm23 8.9c-.6-1-2.4-6.2-3-5v5h3Zm-22 2-3.5-6c-4.6 2.8-.3 4.8 3.5 6Zm24 6c.8-.7-5.8-5.2-3 1l3-1Zm-15 14.1-4-8c-.1.9-1.3 6.8-1 7 .3.2 3.9-.1 5 1Zm-6 2h-2c-.3 1.5.4 2.1 1.5 3l.5-3Zm99 115c-1.8-.3-3.5 0-4 2 1.3.4 5-1.5 4-2Zm-29 11-5 3h5v-3Zm66.1 11c.4 3.8 4.1 4.9 6 1.5l-6-1.5Zm16.9 3h-3v2c1.4.3 2.7-.5 3-2Zm-21 1c-1.2-1-6.2 3.2-2.5 5-.6-1.5 3.6-4 2.5-5Zm105 10c1-1-2-4-3-3s2 4 3 3Zm-7 10h-4l1 5 1-4 2-1Zm-312.3-82.7c6.7 8.7 10.1 9.1 18.8 14.8 2.4 1.6.4 3.6 6 2.8 1.5-.2 2.8-1.4 4.1-1.5.4 0 8.2 1.3 8.4 1.7.5.8.3 5.1 0 6.2-1.2 3.9-10.4 3.1-14 4-5.6 1.4-11.2 5.8-16.8 2.7 1.6 6.3-4.2 8.5-7.5 13-.3.1-2-4.9-4.5-3-.4.3 3.1 3.6 2.6 6-.6 3.6-5.5 7.2-5.6 7.7-.9 4.5 0 27.2-10 18.8-3.2-2.7-.7-5-1.1-7.8-.3-2-3.5-16.9-4.1-17.6-.3-.3-2 .2-2.5-.3-.6-.5-.5-2.4-1.2-3.3-6.7-7.6-17.5-15.7-27.6-17.4-2.2-.4-10.9.4-11.4-.1-.6-.6-1-6.4.2-7.7 2.1-2.2 17.2-4.1 22.3-6.2 9.5-4 20.8-17.8 23.4-27.6 1.1-4 .3-9.2 1.3-12.7.9-3.1 6.5-3.8 8.3-1.7.7.8 3 15.9 4.5 19.5s4.3 6.8 6.6 9.8Zm-13.7 1.7c.8-1.3-1.3-3.5-3-3v3c1-1.1 2.9.1 3 0Zm2 5-5 .5c1.6 2.2 4 2.2 5-.5Zm-26 19c-1.2-.6-6.9 2.3-6 3 2.6.4 5-.4 6-3Zm2 4h-3v2h3v-2Zm28.1 6c1.2 1.2 4-2 3-4-1.3.2-3.8 3.1-3 4Zm-6.1-3c-1-.9-2.1-.2-2 1.5.2 2.1 2.1 1.3 2 2 0 1.9-2.5 2.4-2 4.5l8 1c.4-3.6-2.7-4.1-4.6-5.9-1-1-1.3-2.9-1.4-3.1Zm477.8-201.8c1.9 1.9 1.9 10.6 2.9 13.9 4 13.4 13.2 23 26.4 27.4 4.9 1.7 16.5.2 16.7 6.8.1 5.9-7.3 4.5-11.7 4.7-.6-1.2 4.3-1.2 2-3-1-.8-6.4 2.4-7.7 3.3-3.8 2.6-7.5 5.1-11.8 7.7-2.3 1.4-4.6 5.8-6.5 4-1.5 6.8-6.8 12.9-8.8 19.8-.7 2.5 1.9 7.2-3.2 6.2l3 2.5c-7.9 9.3-11.9-1.7-9.9-9.5 1.2-.8 8.6 2.8 8-2-2.5-1.9-8.6 1.3-9 1-.2-.2-.8-4.1-1.3-5.2-6.1-12.6-7.7-13.5-19.1-19.9-5.6-3.2-4.7-2-10.8-3.9-.8-.3-.8-1.9-1.4-1.9-3.1-.3-11.2 3.2-11.1-4.3 0-3.2 9.4-7.2 10.2-2.7 10.7-4.4 17.9-8.3 26.7-16 1.2-1 3.7-4.7 4-4.8.6-.2 4.9 2.4 2.5-1.9-.2-.3-1.7 0-1.7-1.7 0-3.1 2.2-5.6 2.7-8.2s-.3-6.8.6-9.6c1.1-3.4 6-5.1 8.5-2.5Zm-5.8 15.8h-2v3h2v-3Zm40 28-3 .5c.9 1.1 1.5 1.8 3 1.5v-2Zm-18 2-5-1c0 4.6 5.4 7.2 5 1Zm-35 9c-.2-.2-3.8-1.2-4-1v2h4c0-.3.1-.8 0-1Zm15 6h-3v2h3v-2Zm-65 247c.2-1.3-4-11-5-12.3-3.3-4.4-16.5-12-21.8-13.5-4-1.1-14.8.3-14.3-5.7.5-5.6 7-3.9 10.3-4.8 17.5-4.7 30-15.3 33.3-33.7.3-1.9-.9-3.6-.4-5.3.9-3.7 7.4-6 9.4-.8 1.5 4 3.5 14.8.5 18 4-2.6 5.2 4 7.6 6.9 1.4 1.7 3.7 4.2 5.4 5.6 2.7 2.2 12.2 6.6 12.9 7.6.2.3-1.2 2.8-.9 3.9 1.6.3 1-1.9 2-2.5 3-2 8.4.9 11.1 2 2 .8 7.3.2 4 5.1-2.8 4.1-6.6 2.2-10.7 3.3-10.6 2.8-18.7 6.2-24.4 16.2-.4 2.6-6.5 5.6-9.3 6.9-2.5 1.2-7.9 3.6-9.7 3.1Zm8-50c-.2-.2-2.2.1-3 0 1.9 5.7.5 3-1.1 4.1-2.1 1.4-1.8 2.5-5.9 2.4 3.1 4.8 12.8-3.7 10-6.5Zm-27 13h-2c-.3 1.5.4 2.1 1.5 3l.5-3Zm31 11.9c-.8-2.5-3.8-2-6-2v1l6 1ZM567 209.6c.7-.5 2.5 0 2.8-.2.2-.2-2.6-4.6-1.6-6l13.7-45.3c1.7-3.2 8.5-2.9 8.9.9.3 2.6-2.6 6.2-1.3 9.7-6.3 14-8.1 34.6-14.1 48-2.5 5.7-10.1 5.9-10.3-.7 0-1.1 1.1-5.9 1.8-6.3Zm41 29.1c-.5.3-.8 2.2-2.2 3.2-1.1.8-11.8 6.2-12.4 6.1-3.2-.3-6.7-2.1-6-5.7.5-2.6 11.7-8.7 14.6-10.3 8.9-4.9 19.4-10.7 28.6-15.6 4-2.1 15.1-8.5 17.8-2 2.3 5.6-5.7 6.8-8.6 8.4-8 4.7-17.9 11.2-26.2 14.8-1.9.8-4.5.4-5.5 1Zm12.7 41.8c-3-.6-1.8 2.4-4.5 3.6-3.2 1.4-17.2-2.1-18.4-6.4-3.5-13 24.4.3 28.6 1.4 1 .3 2.3-.4 3.3-.1 5.3 2.6 30.5 7.5 32.8 11.1 2.6 4.2-.9 7.6-5.3 7.4-9-3.5-19.2-4.8-28.3-7.8-4.9-1.6-11.6-2.8-8.2-9.3Z" class="st20"/><path d="M653.7 855.5c0-3.3 6.5-.4 4.2.6 2.6-1.7 6.7-.5 2.8 2.4 5.4 8.7-13.4 21.1 3 26-28.2 21.1-14.6-10.7-10-29Z" class="st19"/><path d="M616.7 851.5c10.6 5.3 5.2 33.1 22 43-15.5 14.7-31.8-54-22-43Z" class="st25"/><path d="M362.7 858.5c5.5-24.8 32 11.6 11 7-3.8-1.3-7.5-5-11-7Z" class="st47"/><path d="M816.7 688.5c11.6 7.2 5.8 59.1-12 68 10.1-15.4 25.8-55.4 7-66-1.6-1.8 3.3-5.8 5-2Z" class="st40"/><path d="M625.7 897.5c-8.3 3.1-71.4 17.5-59 4 7.8 2.1 9.4.7 17-1-9.9 7.6 6.3 0 8.5.2 1.1 4.2 12.1-1.5 13-4.2 11 9.2 14.8-6.8 20.5 1Z" style="fill:#728ca2"/><path d="M555.7 874.5c6.2 10.6-8.6 33.5 11 25 .5 1.4-2.9 6.6-4 6-26.6 7.3-13.8-16.7-7-31Z" class="st16"/><path d="M711.7 444.5c.4 4-2.6.3-5 2-3.9 4.6-10.9.3-16 1-.5 5.6-6.7 7.9-11.9 7.3-1.3 3.7-2.8 7.9-6.1 3.1-7.8.1-19.3 20.7-26 14.6 10.4-17.7 43-31.2 65-28Z" class="st11"/><path d="M814.7 662.5c-1.7 1.7-4.8 1.6-4.9-3-6.1-1.7-.5-4.7-1.9-8.1-3.1-3.8-8.5-19-5.2-25 6.4 4.2 13 27.3 12 36Z" class="st31"/><path d="M701.7 856.5c-4.1 9.8-17.7 25.3-27 22 9.5-7.5 16.9-14.3 27-22Z" class="st8"/><path d="M598.7 504.5c-4.7 6.4 3 4.5-1 8.5-4.8-8.4-5.8 3.6-13.5 6.6-7.7 5.2-3.2 5 2.5 6.9-1.9 3.1-10.6 3.1-12-1-5.6-.3 22.7-25 24-21Z" class="st13"/><path d="M561.7 534.5c7.2-4-11.5 12.5-11 12.4-1.6 8.1-4.5 5.6-11 8.5 5.6-5.7 11.6-18.3 22-21Z" class="st43"/><path d="m713.7 841.5 7-31c3.3 7.1.6 4.7 0 10.6.2 7.7.5 16.4-7.1 20.4Z" style="fill:#94a8b9"/><path d="M761.7 484.5c8.9 4.8 19.7 41.4 3.3 19.5 8.5-8.1-15.9-13.9-3.3-19.5Z" class="st21"/><path d="M732.7 449.5c.7 10.6-7.6 3.9-11-1.2-4.6-.8-18.2 10.2-14.2-.5 3.7-8.1 19-3 25.3 1.7Z" class="st43"/><path d="M443.7 882.5c-4.2 4-46.8 2.6-19.7-1.7 5.8-1.7 5 1 7.4 1.6 1.5.4 9.3-1.3 12.3.2Zm22-3c11.6-.8-20.1 9.5-22 3 1.5-2.4 15-2.6 22-3Z" class="st19"/><path d="M795.7 588.5c.4 7.9 7.7 18.3 3 25-4.5-4.2-8.8-28.2-3-25Z" class="st16"/><path d="M606.7 498.5c-5.5 4.8-13.1 9.1-19 13 .4-6.6 19.9-17.8 19-13Z" class="st1"/><path d="M789.7 562.5c-.2 4.4 7.6 18.2 2 19-5.6-2.8-14-23.2-4.4-18.5 0 .2-3.4.9.4-.5.4-2.8 1-2.5 2 0Z" class="st40"/><path d="M634.7 477.5c4-.6 4.9 8 0 6-1.7-2.5-4.2 1.4-5.1 5.1-15.2-2.7-.9-7.6 5-11.1Z" class="st47"/><path d="M227.7 659.5c-1.7-9.2-6.8-14.7-7-24 5.7 6.1 7.6 15.8 7 24Z" class="st45"/><path d="M678.7 879.5c-7.2 3.7-7.3 6.2-16 6.5 2.8-4 8.8-8.3 16-6.5Z" style="fill:#90a5b6"/><path d="M795.7 588.5c-4.5 3-15.9-5.4-9-7 3.6-5.2 9.2 0 9 7Z" style="fill:#53748e"/><path d="M789.7 562.5c-5.2.6-7.8-9.1-7-13 5-5.7 4.8 8.6 7 13Z" class="st21"/><path d="M816.7 667.5c3.4.3 5.9 25.5 0 21-6 1-3.4-9.1 0-7-1.1-4.1-2.7-11.1 0-14Z" style="fill:#638199"/><path d="M816.7 665.5c.6 2.3.4 13.6 0 16-8 3-5.7-27.2 0-16Z" class="st6"/><path d="M581.7 905.5c-3.9 6.9-7.5 2.5-12 2 2.7-3.6 8.6-4 12-2Z" class="st4"/><path d="M768.7 506.5c4.4-.8 10.4 12.2 5 15-3.3-2.5-.9-7.8-4-11-2.6 5-7.1-3.9-1-4Z" class="st13"/><path d="M527.7 561.5c-1.5 5.7-7.6.2-10.4 1-6.8 5-6.7-6.2 10.4-1Z" class="st7"/><path d="M752.7 469.5c2.6 1.2 11.4 11.7 5 12-3.8-2.8-12.9-14.5-5-12Z" style="fill:#f9caad"/><path d="M804.7 757.5c-1.8 4.5-3.2 7.9-9 8 .8-3.4 5.3-8.1 9-8Z" class="st21"/><path d="M819.7 681.5c-3.2-6.5-1.3-9.4-3-16 4.3 1.6 4.8 12.3 3 16Z" style="fill:#7891a6"/><path d="M539.7 554.5c-.8 4.6-4.3 5-8 6 1.3-5.4 6.2-4.8 8-6Z" class="st2"/><path d="M320.7 428.5c-2.7.2-6.9 1.4-10 2 2.1-4 6.6-5.2 10-2Z" class="st20"/><path d="M800.7 610.5c5.4 11.5-6.7 13.1-2 3 0-2.4-.7-3.5 2-3Z" class="st55"/><path d="M614.7 490.5c-2.1 1.3-8.3 10.8-8 6 2.6-1.9 3-7.4 8-6Z" class="st51"/><path d="M257.7 722.5c-2.9-4.2-2.9-5.2-5-9 3.5 1.8 4.9 5.2 5 9Z" style="fill:#eae288"/><path d="M515.7 903.5c-2.3-.2-5.1 2.9-7-2 2.5 0 5-2.8 7 2Z" class="st46"/><path d="M622.7 486.5c-1.3 0-3.8 2.7-6 2 3.1-2.6 8.5-7.3 6-2Z" class="st8"/><path d="M220.7 633.5c-2.6-2.1-1.5-4.8-2-7 6.1 3.3 2.3 5.1 2 7Z" class="st34"/><path d="M809.7 754.5c-.6-3.5.8-5 4-6-1.3 3.2-.7 3.7-4 6Z" class="st2"/><path d="M568.7 907.5c-1.4-.6-8.2-.5-6-2 2.2.2 5.1-.8 6 2Z" class="st4"/><path d="M821.7 691.5c-.4 5.4-4.1-3.4-2-5 .2.8 1.5 3 2 5Z" style="fill:#768fa5"/><path d="M748.7 462.5c-3.2.7-1.5-2.1-3-4 1.1.8 3.8 0 3 4Z" class="st46"/><path d="M821.7 695.5c-1-1.3-1-2.7 0-4 .9 3.7 0 2.9 0 4Z" style="fill:#8299ad"/><path d="m751.7 464.5-4-2c2 .2 2.7-.1 4 2Zm52 162c-.8.2-2.7-.4-1-1-.3-5.7 1.7-3.2 1 1Z" class="st1"/><path d="M486.7 824.5c18.4 8.3-14.4 38.7-18.8 51.8 2 9.7-10.2-8.7-13.6-8.8-4.6-5 3.9-11.5 4.9-4.5 2.1 1.3 2.4-1.2 1.4-2.7l7.8-11.9c-4.3-2.4 2.1-9.8 5.1-5.5 5.5-8.3 6.4-14.8 13.3-18.3Z" class="st48"/><path d="M530.7 710.5c2.1 7-3 57.3-10 44-5-11.8 5.2-30.4-4-36 3.3-2.1 17-13 14-8Z" class="st13"/><path d="M430.7 648.5c7 .5 17.1 14 3.6 15-10.9-1.1-.7-9.4-8.6-11 .7-2.7 2-5 5-4Z" class="st47"/><path d="M444.7 823.5c.6 8.7-4.3 15.9-1 25-1.8-4.8-16.5-23.1-5-26 1.5-1.7 5.8-5.5 6 1Z" class="st33"/><path d="M495.7 561.5c-10.7 3.5-25.2-7.2-34-3-.7-3.1 5.8-2.9-2-6 3.7-5.4 25.7 9.6 36 9Z" class="st52"/><path d="M438.7 822.5c-3.8 13.9-15-4.7-13-11 5.9 1.2.4 8.8 7 11 .3-14.1 8.1-13.5 6 0Zm17-71c4.8 4.6-7.4 25.2-10 16 5.6-10.6-.5-22.4 10-16Z" class="st36"/><path d="M463.7 661.5c9.3 3.2-15.5 13.3-10.8 2.2 5.3-3 6.5 1.4 10.8-2.2Z" class="st7"/><path d="M521.7 576.5c-2.3 4.6-9.7 15.3-14 15 4.6-4.1 8-18.7 14-15Z" style="fill:#f7ba93"/><path d="M516.7 718.5c4.2-1.8 5.5 12.3 3.7 6.5 1.5 11.5-16.1-3-3.7-6.5Z" class="st16"/><path d="M523.7 571.5c.4 6.7-11.9 9.1-9 2.5 3.6 0 6 .3 9-2.5Z" class="st52"/><path d="M418.7 801.5c7.2 5.2 6.6 10.9 9 19-3.8-5.5-6.6-12.8-9-19Z" class="st15"/><path d="M459.7 550.5c.1 5.5-3.7-4.4-9.7 2.8-6.8-.4 7-8.6 9.7-2.8Z" class="st16"/><path d="M289.7 465.5c1.6 4.8-10.2 9.2-10 5.5 0-1.2 8.4-4.5 10-5.5Z" class="st7"/><path d="M463.7 666.5c.6-3.5-.2-7.7 2.5-10 5 4.9.7 6.8-2.5 10Zm-193-182c-1.6 2.7-5.6 9.3-8 4.5 0-.3 11.2-11.6 8-4.5Zm191 184c0 7.5-2.7.7-7 1 1.6-4.9 3.7-4.2 7-1Z" class="st52"/><path d="M358.7 601.5c-3.1 4.6-6.3 3.4-7-2 2.4.5 4.6 1.4 7 2Z" class="st7"/><path d="M430.7 644.5c0 2.1.6 7.9-4 5 1.7-3.1 0-3.4 4-5Z" class="st45"/><path d="M269.7 482.5c.8-.8 4.5-6.4 6-5-1.4 1.9-4.8 9.5-6 5Z" class="st34"/><path d="M446.7 755.5c.3 2.5-.4 5.1-3 6-1.7-3.4 0-5 3-6Z" class="st36"/><path d="M388.8 510.5c-.4-.4-1-5.3 2.5-4 3.9 1.4-.8 5.6-2.5 4Z" class="st47"/><path d="M474.7 650.5c1.9 1.9-3.2 6.2-4 2.5-.5-2.1 3.3-3.2 4-2.5Z" style="fill:#f0ebac"/><path d="M468.7 691.5c-1.1 1.1-5.2-1.4-4-3 1.8-2.3 5.7 1.2 4 3Z" style="fill:#e5db6e"/><path d="M454.8 570.5c-.4-.4 1.8-5.5 3.5-5 3.7 1.2-2.7 4.6-3.5 5Z" class="st47"/><path d="M437.7 730.5c.4 2.2-.6 4.4-3 4 0-2.6-.4-4.8 3-4Z" style="fill:#cdd347"/><path d="M321.8 566.5v-4c4 0 3.9 4 0 4Z" class="st47"/><path d="M395.7 476.5c-.6-.6-4 0-3-3.5 1.3-1 3.7.8 3 3.5Z" class="st7"/><path d="M306.8 515.5v-4c4 0 3.9 4 0 4Z" class="st52"/><path d="M251.7 502.5c.2.2.2 4.7-1.5 4-3.4-1.4.1-5.2 1.5-4Z" style="fill:#f8c19e"/><path d="M294.7 675.5c.2.5 5.4 3.3-1 3 0-.2-1.4-1.9 1-3Z" style="fill:#f2eeb9"/><path d="M296.7 695.5c-.4.3-3.7.6-3-1.5 1.1-3.1 4 .5 3 1.5Z" style="fill:#e1d658"/><path d="m426.7 737.5 2.5-1c3.1 2.2-1.2 4.7-2.5 1Z" class="st47"/><path d="M320.8 571.5c-.6-.6.8-3 1.5-3 2.8 0 0 4.5-1.5 3Z" style="fill:#f4f0c3"/><path d="M275.7 600.5c.2.1 1.9 4-.5 3-2.7-1.1-1.4-4.5.5-3Z" class="st16"/><path d="M412.7 706.5c-.6.6-3-.8-3-1.5 0-2.8 4.5 0 3 1.5Z" style="fill:#d3d85b"/><path d="M456.7 669.5c.4 0 2.5-1.5 3-1 1.5 1.9-2.1 3-3 1Z" class="st7"/><path d="m507.7 575.5-3 3c-.3-1.8 1.1-3.3 3-3Z" class="st52"/><path d="M499.7 591.5c.6 2.5-1.3 2-3 2 .3-1.5 1.6-2.3 3-2Z" class="st19"/><path d="M384.7 689.5c-2.8.6-2.4-1.7-.5-3l.5 3Z" class="st52"/><path d="M607.7 756.5c9.1 19.3 4.8 45.3 11.3 67.2.1 8.9 20.3 61 3.7 44.8-12.2-42.8-24.3-77.8-23-121 2.9-30.8 8.4-4.4 8 9Z" style="fill:#f39357"/><path d="M636.7 708.5c1.8 12.8-20.8 52.6-14 20 .4-1.6 5.7 3.4 1 0-3.7-1.1 0-6.4 3-5-.8-5.7 1.5-21.6 10-15Z" class="st7"/><path d="M638.7 892.5c-9.1 9.6-22.8-34-10-21-2.8-20.5 9.2 16.2 10 21Z" class="st48"/><path d="M687.7 727.5c2.1.6-2.5 6.4-4 9-8.2 4.5-2-34 6-28.9-.4 2.4 1.2 17.7-2 19.8Z" class="st2"/><path d="M674.7 791.5c3.3 9.6-17.1 25.8-6-7 5.5-8.8 14.8.2 6 7Z" class="st21"/><path d="M678.7 775.5c-23 4.2 15-48.5.4-10.3 1.6 4.1 1.4 7.5-.4 10.3Z" class="st54"/><path d="M655.7 656.5c.3 7.8-14.2 23-12.3 9.8 3.7-4.7.8-6.1-8.6-4.2-.4-9.9 15-7.3 21-5.6Z" class="st29"/><path d="M617.7 746.5c11.6-4.2 3.2 24-1 20-3.2-4.4-5.2-22.7 1-20Z" class="st21"/><path d="M671.7 803.5c2.3 4.3.2 14.9-4 15-8.3 3.9-4-8.7-3-14 .2-3.7 11-6 7-1Z" class="st16"/><path d="M668.7 818.5c3.5 6.7-6.9 34.4-11 19 .8-7.6 2.6-18.6 11-19Z" class="st6"/><path d="M640.7 683.5c3.2 3.1-6.6 18.8 0 15 2.7 4.3-4.3 15.9-6 5-8.8 1.7-.4-27.6 6-20Z" class="st25"/><path d="M657.7 837.5c-.5 4.8 10.9.9 4 6 2.6 22.7-13.4 14-4-6Z" class="st15"/><path d="M641.7 683.5c11.1-5.3-3.2 8.1 3 10-1.1 5.6-4.7 4.2-5 8-7.2 4.4.7-19.7 2-18Z" class="st6"/><path d="M663.7 810.5c-1.8 12.2 8.7.2.5 17-3.8 2.7 2.2-5.8-2.5-4l-3 7c1.4-6.5 2.3-14 5-20Z" class="st29"/><path d="M621.7 740.5c10.5-1.7 3.3 15.4-4 6-3.2-5.2 3.7-19.5 4-6Z" class="st44"/><path d="M647.7 669.5c2.9.8 2.1 17.3-5 12-7.1-.6.7-11.7 5-12Z" class="st21"/><path d="M644.7 693.5c-12.1-.5 7.3-12.2-3-10-1.9-1.9-1.6-2.4 1-2 8.6-2.8 2.1 6.4 2 12Z" class="st25"/><path d="M671.7 774.5c3.1-7.3 3.4-1.4 6 1 2.8-.3 2.8-.1 1 2 3.7 6.9-13 5.3-7-3Z" class="st44"/><path d="M617.7 769.5c-1.3 3.8-1 9.7-5 13-1.7-2.8 1.3-20 5-13Z" class="st45"/><path d="M675.7 781.5c-6.3 6.3-9.1-1.1-4.5-2 2.8-2.7 4.8-1.5 4.5 2Z" class="st54"/><path d="M628.7 736.5c.3 5.1-12 14.5-7 4 7.3-.9 3-3 7-4Z" class="st21"/><path d="M652.7 665.5c-.4 2.8-3.5 12.5-5 7-.2-3.7 0-8.4 5-7Zm33 42c.3 2.9.1 7.3-3 5 .7-2.5 0-5.7 3-5Zm-66 59c-1.5 4.3-3.5 1.2-6 4-5.6-4.8 2.3-5.4 6-4Z" class="st39"/><path d="M555.7 731.5c-8.2 12.2-21.8 49.1-36 34-5.8-1.5 2.7-7.1 2.9-2.7-3.2-1.5-9.4-10.5-1.9-8.3 4.2 2.8 3.5-1.9 5-5 8.7 16 10.9-19.1 16-11 7-2.6 10.8-26.9 14-7Z" class="st33"/><path d="M518.7 832.5c13.8-8.9 7.5 32.3 9 40.5-1.6 7.4 7.8 28.9-2 29.5-4.9-18.3-9.6-47.9-7-70Z" class="st32"/><path d="M579.7 681.5c4.7 1.8 24.4-11.3 17.2 1.8 7.9 11.5-7.8 21.2-2.2 32.2 3.2-.8 3.1 5.7 2 8 3.7 3.3 8 8 2 11-15.6 18.2 1.7-74.8-19-43-1.5.3-1.5-.3 0-2-16.5 1.2 8.8-37.4 0-8Z" class="st54"/><path d="M526.7 785.5c1.9 8.6-3.4 38.3-8 25-4.6-.4 3.8-11.3-5-7-5.2 9.1-7.5-3.5-3.1-8.3 3.8-1.5 18.1-18.8 16.1-9.7Z" class="st9"/><path d="M599.7 747.5c-.9 8.2 7.3 36.3-3 34 .5-13.5-1.3-31.5-3-45 3.3 1.9 4 1.4 5-2 3 2 2 9.4 1 13Z" class="st25"/><path d="M575.7 688.5c6.1 9.7-18.9 36.5-13 12 5.6.7 7.8-15.1 13-12Z" class="st31"/><path d="M572.7 841.5c-.2 1.8.2 2.2 1 1 3.6-4.7 6.4 6.5.9 8.3-3.3 3.9 4.6 8.5-3.9 9.7-12.7 6.1.5-27.3 2-19Z" class="st15"/><path d="M562.7 708.5c2.6-1.9 1.9 0 2 2 5.5-2.2-3.5 11.7-5 16-4.5-2.3-13.3-6.9-4.9-10.6 0-3.8 4.3-9.3 7.9-7.4Z" class="st6"/><path d="M520.7 813.5c3.2 6.8-.3 20 3 2 4.9-8.3 2.5 16.8 3 21-1.7-1.2-5.5-6.6-8-4-4.1-3.1-4-27.2 2-19Z" style="fill:#f7b991"/><path d="M594.7 799.5c1.8 2.4-2.9 17.2-6 16-10.2-3 7.1-36 6-16Z" class="st39"/><path d="M584.7 811.5c3.6-.2 3.1 6.4 0 7 2.7.5 2.2 4 0 5 3.1.6 3.2 3.5 0 4-16.6 18.4-5-15.3 0-16Z" class="st54"/><path d="M570.7 860.5c7.2-2.6-1 17-9.3 10.5 6.9-.9 4.7 14.4-.7 5.5-10.8-6.7 4.6-17.3 10-16Z" class="st16"/><path d="M560.7 876.5c8.8 9.1-2.2 13.1-7 8.5 0-5.6 4-22.6 7-8.5Z" class="st21"/><path d="M537.7 762.5c-7.1 13.6-17.1 33.4-10 6-2.7-1 5.6-2.5 5.9-3.2.8-.8-1.5-3.9 4.1-2.8Z" class="st31"/><path d="M526.7 804.5c2.2 5.1-4.5 18.9-6 9 5.1-5.5-6.3-18.8 6-9Z" class="st56"/><path d="M584.7 827.5c-2.2 38.2-20.2-1.9-3 3 .6-.5-1.8-6.4 3-3Z" class="st7"/><path d="M552.7 721.5c4-1.2 4.1-5.3 3.9 1.5.3 1.2 4.4-.8 3.1 3.5-3.6 11.5-12.7-6.4-7-5Z" class="st32"/><path d="M569.7 861.5c-5.2.5-1.9 6.6-9 2 2.4-7.9 5.5-10.9 9-2Z" class="st14"/><path d="M597.7 790.5c.6 1.8-.9 5.3-2 7 2.5 1.7 1.8 3-1 2-7.5-6.9 8.4-28.9 3-9Z" class="st21"/><path d="M577.7 843.5c-.3 1.3-2.8-1.1-4-1-1.2 1.4-1.6.7-1-1-4.2-8.3 7.7-10.9 5 2Z" class="st14"/><path d="M593.7 737.5c-.9 3.2 2.7 1.3 3.1 2.5.6 13.6-4.3 11.1-3.1-2.5Z" class="st2"/><path d="M579.7 689.5c-2 3.8-1.7 9-7 8 3.2-2.7 2-12.5 7-8Z" class="st55"/><path d="M579.7 691.5c-.4.6-.6 1.4-1 2-4.6-.9 2-6.2 1-2Z" class="st19"/><path d="M583.7 620.5c2.5 7-13.9 7.6-10 4-12.5 1 9.8-3.4 10-4Zm-44 16c-2.7-3.2-2.4-3.6-4-6 5.6-.5 5.1 1.5 4 6Z" class="st2"/><path d="m563.7 542.5-5 4c-.2-2.7 2.6-4.4 5-4Z" class="st32"/><path d="M671.7 803.5c21.5-48.7 3.4 90.9-14 81 2.3-29.3 6.7-47.7 14-81Z" class="st56"/><path d="M698.7 657.5c8.8 10.6-4.9 52.9-3 66-15.7 15-5.7-26.9-5-38 6.1-2.8-8.3-32 8-28Z" class="st11"/><path d="M687.7 773.5c-1.2 8.1-1.5 43.3-8.8 30.4-.7-3.2 5.3-9.3-1.2-10.4 1.3 3.8-3.6 7.9-6 10-1.1-9.6 10.8-18.3 6-28 2.8-2.5 6.9-4 10-2Z" class="st32"/><path d="M686.7 729.5c3.4-.4 3.7 2.6 1 8.9 3.8-5 6.9-3 6.6 2.1-2.5 7.2-2.1 33.6-7.6 21 .3-5.7-2.3-14.5-.4-2.6-11 42.9-7.9-20.8.5-29.4Z" class="st7"/><path d="M690.7 725.5c13.2-1.4-7.2 18.5.9 17.1-4.4 18.8-9.5-14.8-.9-17.1Z" class="st40"/><path d="M689.7 766.5c-.4 7.5-2.7 7.2-8 7 3.1-2.1 5.6-18 8-7Z" class="st6"/><path d="M695.7 723.5c-1.6 8.8 1 7.1-5 2 1.5-.8 2.5-2.6 5-2Z" class="st36"/><path d="M771.4 720.5c5.1-1.7 7 5.4 2.7 6.8-5.2 1.8-5.7-5.8-2.7-6.8Z" class="st14"/><path d="M517.7 788.5c1.3 5.7-5 5.6-6.7 9.8-1.3 3-1.5 10.9 2.7 5.2 2.9.7-1 3.9-3 3 .5 2.7-1.3 8.6-5 6.1-.7-8.6-.2 1.8-4 .9-3.2 5.3-11.7-6.5-4.7-7.4-.5-5.4 9.5 1.7 6.7-4.6-5-.6 5.6-16.6 6-11 2.3-.6 5.6-5.9 8-2Z" class="st47"/><path d="M492.7 816.5c4.8-8.4 4.6 10 7 10-3 4.7-5.8 9.3-9 14 2.2-11.9-11.7-18.4 2-24Z" class="st33"/><path d="M496.7 812.5c14-.5 7.8 7.2 1 13-5.9-3.8-.9-7.8-2-9-11.2 4.8-5.3-10.1 1-4Z" class="st21"/><path d="M507.7 813.5c-4.1 10.2-8.7-6.7-2.5-6 3.4.6 2.5 3.7 2.5 6Z" class="st43"/><path d="M502.7 821.5c-1.5 1.7-2.4 6.9-5 4 .7-3.5 3.9-10.4 5-4Z" class="st32"/><path d="M473.7 865.5c3.6-6.7 4-5.9 8-11-1 4.1-4.6 8.5-8 11Z" class="st11"/><path d="M580.7 853.5c17.8 7.3-39.6 85.5-23 33 9.3-5.5.9-1.5 3-10 8.8 3.3-1.1-5.7 3-6 4.9 1.2 4.8-2.5 4-6 1.6-.6.4 3.8 2.5 1 1.7-4.2 5.2-25 10.5-12Z" class="st32"/><path d="M593.7 811.5c7.5 7 3.1 19.9-2 27.8-4.7-3.8-6.1-3.8-4.2-.2 12.3 4.3-15.3 12.4-7.8 4.4-1.2-4.1 14.3-45.7 14-32Z" class="st40"/><path d="M602.7 779.5c5.4 1.3-2.4 11.4-2 13 6.8.3 8.8 10.4 8 16-17.2 27.6-20.2 1.4-9.2-5.1-7.9-6.5-1.9-18.3 3.2-23.9Z" class="st13"/><path d="M592.7 838.5c-1.9 4.5-6.4 19.9-12 15-6.7-4.7-4.7-.7-6 3-7.9-2.2 2.1-8.2 2-13 8.6 3.6 3-.8 12 0-7.1-7.1-2.8-13.7 4-5Z" class="st33"/><path d="M608.7 808.5c1.3 4.9 8.3 35.5 1 31-4.4-4.5-1.7-26.8-9-22 1.2-3.2 2.6-12.8 8-9Z" class="st39"/><path d="M616.7 851.5c-6-.7-5.2-7-7-12 4-16.5 6.9 5.2 7 12Z" class="st29"/><path d="M588.7 848.5c-2 5-3.4 11-6 16 1.7-8.8-3.3-11.8 6-16Z" class="st19"/><path d="M634.7 483.5c2.2 1.6 1.4 3-1 4-5.4 4.6-1.6 2.2-7 0 3.5.7 1-2.8 3-4.5 1.2-1 6.7-4.3 5 .5Z" class="st48"/><path d="M660.7 863.5c1.5 4.8 6 10.1-2 10-.3 3.9 4.7 5.6 0 8-11.4 5.2.3-14.4 2-18Z" class="st32"/><path d="M661.7 843.5c3.4-.2 5.1 6.6 3.9 8-.1.2-5.3-.2-2.9 2 10.6 1.5-9.7 12.8-1-10Z" class="st33"/><path d="M697.7 446.5c-1.3 2.6-5.6 4.6-7 1 2.4-.8 4.5-1 7-1Z" class="st32"/><path d="M780.7 528.5c3.1 7.6-4.1 4.7-5.5 8-7.4-2.7-.4-17.5 5.5-8Zm0 16c.4-2.4-1.1-7.7 1-9 .9 2.6 2.2 8.1-1 9Z" class="st11"/><path d="M769.7 510.5c3-1.3 2.8 4.4.1 2.8-.5-.6 0-2.5-.1-2.8Zm-347 8c4.6 6.9 16.3 18 23 23-5.4 9.2-23.2 16.2-31.6 7-6.5-7.1-5.2-31.7 8.6-30Zm54 196c5.6 3.9 12.6 24.7-1 26-6.2.8-11.9 13.3-17 7-5.7-10.8-.6-41.8 18-33Z" class="st47"/><path d="M456.7 779.5c-21.3 95.6-22.8-2.4-10.4 23.2 1-.3 2.9-12.5 3.1-14.4-10.2-3.4 1.3-15.1 7.3-8.7Z" class="st6"/><path d="M458.7 747.5c17.7 23.2-25.3 48.8-7.8 20.3 2.7-7.2 3.3-16.2 7.8-20.3Z" class="st11"/><path d="M517.7 738.5c5.2 12.3 3.1 27-5 34 1.1-8.3-3.6-40.3 5-34Z" class="st2"/><path d="M507.7 790.5c-.2 12.2-3.3 4.4-4 11 3.2 6.1-10.7.9-7 11-19.5 10.1 6-27.4 11-22Z" class="st39"/><path d="M519.7 765.5c3 7.3-2.6 22.3-10 25-1.5-5.1 5.4-39 10-25Z" class="st19"/><path d="M460.7 863.5c-7.7-5.1 4.8-13.9 7-20 5.9 5.5-3.2 13.8-7 20Z" class="st6"/><path d="M478.7 836.5c-9 18-.8 7.6-11 7 2.5-3.2 6.5-15.9 11-7Z" class="st6"/><path d="M465.7 746.5c2 3.3-1.1 7.2-2 10-9.8-1.8-5.7-10.7 2-10Z" class="st9"/><path d="M487.7 821.5c-.7 5.1-8.3 13.6-9 5 1.3-2.8 8.7-14.9 9-5Z" class="st6"/><path d="M482.7 830.5c-1 1.6-2.8 3.8-4 6-10.8.6 2-16.3 4-6Z" class="st16"/><path d="M489.7 813.5c4.6 3.4 1.6 6.9-2 8-6-1.2-1.8-10.6 2-8Z" class="st21"/><path d="M475.7 740.5c-1.3 4.3-4.8 5.4-9 5 1.8-4.3 4.8-5.7 9-5Zm-15 123c-1.7 2.1-2.5 4.7-5 1.5 2.1-1.8 2.9-3.4 0-4.5 2.2-3.6 5.5-.4 5 3Z" class="st7"/><path d="M476.3 807.5c1.9-.5 3.4 1.2 4.5 2.5-4.4 6.4-8.4-1.5-4.5-2.5Z" class="st31"/><path d="M479.7 713.5c-.3 2.6.3 3.5 1 6-5.1-.8-3.5-10.6-1-6Z" class="st39"/><path d="m244.7 555.5-5 2c-1.1-5.4 3.8-5.9 5-2Z" class="st7"/><path d="M316.7 462.5c2.3-4.7 5.4.3 1 0h-1Z" class="st51"/><path d="M343.7 619.5c5.6-35.5 51.2 20.9 13.2 24.8-15.3 5.2-28.5-32.3-19.2-28.8-.2 7.4 9.2 19.9 6 4Z" class="st47"/><path d="M337.7 615.5c-4.7.2-3.5-7.4 0-8-.3.8-.1 6.6 0 8Z" class="st7"/><path d="M450.7 765.5c3.3 2.9-.6 3.9-.9 4.8-5.9 8.1 4.5 23.7-6.1 27.2-4.8 3.2-1.1 6.7-.9 11.3-7.4 2.5-.5 8-3.1 13.7-7.2-13.8-.6-47.5 11-57Z" class="st39"/><path d="M479.7 713.5c-7.5.9-1.5-7.7 1-3.5.4 1.4-.9 2.7-1 3.5Z" class="st33"/><path d="M533.7 741.5c12.2 1.8-7.1 21.9-8 8 4.2-4.9 3.4 2.6 8-8Z" class="st14"/><path d="M520.7 729.5c3.5 3.7.4 2.9-.5 5-2.7 5.3 4.1 13.9.5 19-.7-4.9-10-27.5 0-24Z" class="st33"/><path d="M513.7 724.5c2.9 6.8 3.1-.8 7 4 .5 1.7-1.4.6-2 1-1.9 19.8-5.3 2.4-5-5Z" class="st55"/><path d="M519.7 719.5c3.4 2.2.8 2.2 1 3-6.5 2.8-6.9-1.2-1-3Z" class="st25"/><path d="M521.7 726.5c1.5 1.5 1.3 2.3-2 2-.2-2.2 0-6.6 2-2Z" class="st33"/><path d="M433.8 167.5c2.8-1.8 3.7 2.8 4.4 2.9.4 0 4.1-2.8 6.5-1 .5-.4-2.6-5.7 0-7.5 3.6-2.5 17.7-.7 21.9 1.2 34.2 14.7 13.5 70-24.9 53.9-6.6-2.8-13.8-10.3-15.6-17.4-.4-1.7-1.6-10.1-1.4-11.5.2-1.7 1.6-2.9 1.8-4.3s-.7-2.8-.4-4.3c.6-2.4 4.8-6.5 6.4-8.6.7-.9 1-3.1 1.2-3.2Zm28.8 3.1c-.3-.2-1.5.7-2.3.6-9.3-1.3-12.2-1.4-19.5 4.8-2 1.7-2.6 5-6 5.5 0 10.6-.5 20.3 10.5 25.8s14.4 2.9 22.9-3.9c1.1-.9 3-.7 3.4-1.1.4-.3 1.3-7.7 2.1-9.4 1.7-3.7 3.5-2 4-2.4 3.6-2.9-3.2-1-3.4-1.1-2.6-.8-1.3-8.8-2.8-10.7-.5-.7-2.4-.6-3.5-1.5-1.4-1.2-5-6.3-5.4-6.5Zm-91.9 90.9c-4.5.8-3.3-2.9-8-1.4-4.9-13.3 7.2-7.1 8 1.4Zm0-61c-.3-.9 2-9 5.5-8 3.7 1.1-1 9.9-3 9.8-.1 0-2.5-1.7-2.5-1.8Zm7-30c.2.2.4 2.3 1 3.3.5.7 2 .6 2.1 1.2 1 7.1-7.5.2-9-3 .9-.7 5.5-1.8 5.9-1.5Zm10.1 98c4.9-.5 6.7 5.4 2.5 8-2.8-2.3-4-4.5-2.5-8Zm-12.1-33-1.5 5-4.4-3.5 5.9-1.5zm14-49.1c2.1-10.7 8.9-.2 3.4.8-1.1.2-2.2-.9-3.4-.8Zm-19.5 76.4c7.2 0-.7 9.2-3.5 2.2.8-.9 2.3-2.1 3.5-2.2Zm9.5-97.3-2-.5 1 3.5c-7.8.9-1.2-11.1 1-3Zm23.9 103.9c-4.6 2.9-2.9-5.9-.4-5.9 2.1 0 1.3 5.4.4 5.9Zm-22.9-43.9c.9 1.2.5 1.9-1 2-2.2 4.3-3.6-.6-3-4 2.7-.9 3.1 1.4 4 2Zm-14-54.9c.1.2 1.1 5.7-1.4 4.9-4.6-2.8-1.1-8.1 1.4-4.9Zm17.1 84.9c-.9-.9 1.3-5.4 3.5-5 3.4 1.9-1.8 6.5-3.5 5Z" class="st20"/><path d="M380.7 225.5c1.8 1.3 3.8.1 3 5-.9.9-3.6-2.1-4-3-.3-.6 0-2.1 1-2Zm4.4-40.4c.2.4 1.7.3 1.7.8-2.2 6.2-6.8-1.4-2-3.5 0 .9-.1 1.8.4 2.7Zm-7.4 58.4c-2.5 4.3-6.1 4.6-5-1l5 1Zm65-80c1.3 1.3-3.6 5.4-5 4-1.3-1.3 3.6-5.4 5-4Zm-59 50c.1 0 0 2 1 2.5-1.2 1.9-2.9 1.6-5 1.5-.8-1.5 2.8-4.9 4-4Zm-5.1-33.9c.3.3 1.1 4.6-1.3 3.8l-2.5-5c.9.8 3.6.8 3.8 1.2Zm11.1-5.1c-3.1 2.2-3.7-6.3-.5-5 1.9.8 1.1 4.5.5 5Zm8-19c-3.4 6.7-6.9-.4-3.4-1 .9-.2 2.3 1.3 3.4 1Zm-22 33c-1.9 1.9-6.2-3.2-2.5-4 2.1-.5 3.2 3.3 2.5 4Zm26.1 39c3.7-.8 3.6 5 1.5 5-1.4 0-1.8-3.6-1.5-5Zm-35-64c.3-.5 6.3 3.1 2.5 4-1.9.4-3.3-2.9-2.5-4Zm15.9 79v4c-4 0-3.9-4 0-4Z" class="st20"/><path d="M604.7 717.5c8.5 8.6 2.3 59.3.9 23.6-4.4-14.4-1.8 2.3-5.9 6.4-.2-8.7-1.2-17.8-3-24 .3-12.9 4.3-33.3 8-6Z" class="st13"/><path d="M609.7 753.5c13.2 4.8 4.2 13.4 3 22 1.5-4.8-1.9-5-3-6.7-3.3-2.8-2.3-22.4 0-15.3Z" class="st47"/><path d="M602.7 779.5c-4 6.8-5.3 17.1-5 2 6.6-2.5 1-3.1 1-3.6 1.9-9.7 3.6-4.4 4 1.6Z" class="st16"/><path d="M612.7 828.5c-3.3-5.5-3.4-12.8-4-19 7.4 5 1 12 4 19Z" class="st32"/><path d="M688.7 706.5c.6-1.4-6.7-10.1 0-13.7 2.4-16.3 3.8 7.3 0 13.7Z" class="st2"/><path d="M634.7 703.5c6.9-2.9 2.9.4 2 5-3.3 2.4-3.5-2.7-2-5Z" class="st6"/><path d="M623.7 728.5c8.1-.6 3.6 4.7 1 3-.1 0-1-2.8-1-3Z" class="st40"/><path d="M674.7 791.5c2.9-5 .2-9.2 4-14 4.7 1.7 0 13.2-4 14Z" class="st21"/><path d="M562.7 700.5c2.8 8.5-6.9 13.7-10 21-1.7 2.6-2.3 11.5-6 10-10.7 3.6 10.9-31.2 16-31Z" class="st14"/><path d="M519.7 765.5c9.7 4.9 6.4 1.5 2.4 13.4 5.1 14-11.4 7.3-2.4-13.4Z" class="st32"/><path d="M548.7 730.5c.9 7.4-.5 4.7-2.7 6.2-2 1.4.4 6.2-4.3 1.8-1.1-4.7 4.7-4.8 7-8Z" class="st31"/><path d="M532.7 753.5c-4.7 2-2.4 5-3.5 5-5-2-2.1-11.6 3.5-5Z" class="st55"/><path d="M520.7 760.5c4.4-1.5 5 5.8 1.5 5-2-.7-1.3-3.6-1.5-5Z" class="st48"/><path d="M604.7 672.5c-5.5 10.2 7 63.1-5.5 32-1.5 2.6 4.3 7.7-.5 9-11.9-2.4 3.5-23.2-3.8-30.3 5.4-8.6-4.4-1.1-9.1-2.7 2-3.4 14.2-4.7 19-8Z" class="st43"/><path d="M595.7 702.5c-1.3 3.5 6.9 18.6-1 13-5 0-5.1-15.4 1-13Z" class="st39"/><path d="M574.7 685.5c.4 5.4-2.5 7.7-6 10-3.2-1.3-.2-4.5-1-7-4-4.4 6.5-6.6 7-3Z" class="st15"/><path d="M598.7 714.5c-.6 11-1.5 9.2-4 1l4-1Z" class="st21"/><path d="M585.7 679.5c1.3 3.6-4.7 5.8-6 2 2.1-.5 4-1.4 6-2Z" class="st9"/><path d="M527.7 768.5c3.3 36.5-27.5 12.4-6 16 1.6-4-2.8-4.8-3-5.5 6.6-5.2-1.7-11.9 9-10.5Z" class="st56"/><path d="M513.7 803.5c3.4-7.8 6.6-3.2 5 3-2.9-7.7-5 4.3-5-3Z" class="st55"/><path d="M568.7 695.5c-5.3 7.7-14.1 9.2-4.2-.7 1.1-3.3-1.4-2-1.8-2.3.5-3.8 10.1-6.3 6 3Z" class="st2"/><path d="M568.7 695.5c-.6 4-.7 5.8-5 5 .6-3.4 3.1-3.6 5-5Z" class="st25"/><path d="M573.7 842.5c.5 3.3-2.8 3-2-.5.9-.8 1.3-.1 2 .5Z" class="st6"/><path d="M523.7 815.5c5 5.5-3.5 19.1-4.1 8.5.8-3.9-.4-11.2 4.1-8.5Z" class="st9"/><path d="M593.7 811.5c-3.9-4.7-.1-8.5 2-14 11.5 4.6 2.2 8.2-2 14Z" class="st47"/><path d="M584.7 823.5c-1.6-4.6 1.6-4.1 4-7-.1 3.4.5 6.5-4 7Z" class="st39"/><path d="M563.7 870.5c.6 3.3-4.4 3-3-1 1.2-.4 2.4 1 3 1Z" class="st15"/><path d="M695.7 721.5c-8.9 5.7-6.7-23.1 2-20-2 4.6-2.9 14.9-2 20Z" class="st40"/><path d="M681.7 772.5c-3.3-3.8 2.7-5.9 2.9-7.6-1.6-2.7-2.1-4.2-.1-7 .3-2.7-4.2-6.5 2.2-7.4 2.6 5.9 3.6 22.5-5 22Z" class="st32"/><path d="M516.7 783.5c0 2.3-2.5 3.3 1 5-3.4-1.3-3.2 2.5-4.6 3-3.2-1.4-.3-9.3 3.6-8Zm-15 21c1.2-2.6 3.2-3.4 6-2.5-1.5.9-4.4 6.8-6 2.5Z" class="st40"/><path d="M715.7 451.5c1.8 2.1-2.2 5.3-5 3-1-2.5 4.8-3.2 5-3Zm23 15c3.8-1.9 7 1.7 0 3-1.8 0-1-1.9 0-3Z" class="st48"/><path d="M738.7 469.5c-3.1.6-2.6-1.7 0-3v3Z" class="st44"/><path d="M749.7 531.5c-6.3-11.8-5.8-9.7-2-22 2.2-2.3 4.6 2.2 1 5 4.3-.3 3.7 1.9 5 4-4.9.1.8 8.4-4 13Zm4-13c4.8-.1 6.1 1.6 4 6-2.1-.8-3-4.4-4-6Z" class="st56"/><path d="M751.7 526.5c3.7 2.6-1.6 1.9-1 6-3.2-1.2.4-5.9 1-6Z" class="st33"/><path d="M751.8 496.5c-.3-.4-.6-3.7 1.5-3 3.1 1.1-.5 4-1.5 3Z" class="st21"/><path d="M447.7 787.5c7-10 3.3 21.1-4 17-1.3-6.4 3-10.9 4-17Z" class="st13"/><path d="M362.7 750.4h-3c-.8-3 2.4-2.3 3 0Z" class="st7"/><path d="M705.7 589.5c-1.2.5-2.5 1.4-4 2-.5-4.1.7-5.1 4-2Z" class="st21"/><path d="M723.7 678.5c-2-.9-.5-3.4-1-5 3.2 2.1 1.2 3.6 1 5Zm-100-13c-1.9 5.4-13.6 5.1-19 8 6.3-5.7 10.2-4.7 19-8Z" class="st6"/><path d="M567.7 688.5c-1.2 2.9-.9 3.4-5 3 .3-2 3.2-3.4 5-3Z" class="st15"/><path d="M681.7 548.5c-.9-.2-5.2-.9-6-1 2-1.4 5-1.7 6 1Z" class="st54"/><path d="M785.7 684.5c.6.6-.8 3-1.5 3-2.8 0 0-4.5 1.5-3Z" class="st55"/><path d="M456.7 201.5c-.2.2 2.8 2.8-2.6 2.9-9.3.2-19.5-13.6-4.4-13.9-1.1-2.5-4.4-2-6.1-4.4-4.3-6.3 12.8-12.2 19.6-6.6 5.2 4.3 5.6 13.7 1.9 18.9-2.5 3.6-4.2 4.8-8.4 3.1Z" class="st20"/></g></svg>