<svg xmlns="http://www.w3.org/2000/svg" id="Layer_2" data-name="Layer 2" viewBox="0 0 512.74 110.85"><defs><style>.cls-1{fill:#fff;stroke-width:0}</style></defs><g id="Capa_1" data-name="Capa 1"><path d="M151.5 53.11h-12.44V32.25h12.32v3.18h-8.39v5.67h7.46v3.15h-7.46v5.67h8.51v3.18zm7.61-.01h-3.71V31.22h3.71V53.1zm19.9-12.91h-3.13V53.1h-3.71V40.2h-2.29v-2.78h2.29v-.93c0-1.75.48-3.13 1.45-4.12.97-.99 2.31-1.49 4.02-1.49.78 0 1.47.09 2.04.28v3.13c-.54-.21-1.05-.31-1.55-.31-1.51 0-2.26.85-2.26 2.54v.9H179v2.78zm15.94 12.9h-3.75v-2.57c-.82 1.82-2.43 2.72-4.83 2.73-1.59 0-2.83-.45-3.71-1.36-.89-.91-1.33-2.2-1.33-3.87V37.4h3.71v9.75c0 .99.25 1.74.73 2.26.48.52 1.15.77 2 .77 1.07 0 1.91-.36 2.52-1.08.61-.72.91-1.82.91-3.28V37.4h3.74v15.69zm12.69-.38c-.72.35-1.65.53-2.79.53-3.38 0-5.08-1.71-5.08-5.13v-7.92h-2.35V37.4h2.35v-3.78h3.71v3.78h3.9v2.79h-3.9v7.99c0 .66.18 1.16.53 1.5.35.34.84.51 1.46.51.78 0 1.51-.22 2.17-.65v3.19zm16.53.37h-3.75v-2.57c-.82 1.82-2.43 2.72-4.83 2.73-1.59 0-2.83-.45-3.71-1.36-.89-.91-1.33-2.2-1.33-3.87V37.39h3.71v9.75c0 .99.25 1.74.73 2.26.48.52 1.15.77 2 .77 1.07 0 1.91-.36 2.52-1.08.61-.72.91-1.82.91-3.28v-8.42h3.74v15.69zm7.74-.01h-3.74l.02-15.69h3.71v2.78c.72-1.94 2.04-2.91 3.96-2.91.43 0 .78.03 1.05.09v3.59c-.47-.21-1-.31-1.58-.31-1.01 0-1.84.41-2.48 1.24-.64.83-.96 1.86-.96 3.09v8.11zm21.51-7.9c0 2.37-.66 4.32-1.99 5.85s-3.19 2.29-5.59 2.29c-2.37 0-4.23-.74-5.56-2.23-1.33-1.49-2-3.38-2-5.69 0-2.39.69-4.37 2.07-5.93 1.38-1.56 3.21-2.34 5.48-2.34 2.41 0 4.28.76 5.6 2.27 1.32 1.52 1.98 3.44 1.98 5.77zm-11.24.1c0 1.44.32 2.65.96 3.62s1.55 1.45 2.72 1.45c1.22 0 2.14-.48 2.75-1.43.62-.95.93-2.16.93-3.62 0-1.51-.3-2.74-.9-3.7-.6-.96-1.54-1.44-2.82-1.44-1.18 0-2.08.48-2.71 1.46-.63.97-.94 2.19-.94 3.65zm36.46 7.78h-3.71v-2.44c-1.07 1.78-2.66 2.66-4.77 2.66-2.06 0-3.7-.78-4.91-2.35s-1.81-3.47-1.81-5.69c0-2.48.63-4.44 1.9-5.9s2.89-2.18 4.87-2.19c2.04 0 3.61.88 4.71 2.63v-8.6h3.71v21.88zm-11.39-7.76c0 1.42.36 2.58 1.08 3.47.72.89 1.62 1.33 2.69 1.33 1.11 0 2.04-.43 2.79-1.29s1.11-2.1 1.11-3.73c0-1.59-.39-2.78-1.18-3.57-.78-.79-1.68-1.19-2.69-1.19-1.07 0-1.98.44-2.71 1.32-.73.88-1.1 2.1-1.1 3.67zm19.65-12.64c0 .64-.22 1.18-.65 1.61-.43.43-.96.65-1.58.65-.62 0-1.15-.22-1.58-.65s-.65-.97-.65-1.61.22-1.15.65-1.58c.43-.43.96-.65 1.58-.65s1.15.22 1.58.65c.43.43.65.96.65 1.58zm-.37 20.4h-3.71V37.36h3.71v15.69zm18.02-1.43c0 2.48-.71 4.34-2.15 5.59-1.43 1.25-3.25 1.87-5.46 1.87-2.06 0-3.87-.37-5.42-1.11v-3.78c1.4.99 3.08 1.49 5.05 1.48 2.85 0 4.27-1.36 4.27-4.09v-1.36c-.95 1.55-2.43 2.32-4.46 2.32-1.75 0-3.26-.64-4.5-1.93-1.25-1.29-1.87-3.16-1.87-5.62 0-2.27.59-4.14 1.78-5.62 1.18-1.47 2.75-2.21 4.69-2.22 1.96 0 3.41.81 4.36 2.44v-2.26h3.71V51.6zM293.87 45c0 1.47.32 2.58.96 3.36.64.77 1.46 1.16 2.45 1.16 1.01 0 1.86-.4 2.54-1.19.68-.79 1.02-1.83 1.02-3.11 0-1.67-.33-2.9-.99-3.68-.66-.78-1.5-1.17-2.51-1.17-1.07 0-1.92.42-2.54 1.25-.62.84-.93 1.97-.93 3.39zm18.75-12.36c0 .64-.22 1.18-.65 1.61-.43.43-.96.65-1.58.65s-1.15-.22-1.58-.65-.65-.97-.65-1.61.22-1.15.65-1.58.96-.65 1.58-.65 1.15.22 1.58.65c.43.43.65.96.65 1.58zm-.37 20.4h-3.71V37.35h3.71v15.69zm12.85-.38c-.72.35-1.65.53-2.79.53-3.38 0-5.08-1.71-5.08-5.14v-7.92h-2.35v-2.79h2.35v-3.78h3.71v3.78h3.9v2.79h-3.9v7.99c0 .66.18 1.16.53 1.5.35.34.84.51 1.46.51.78 0 1.51-.22 2.17-.65v3.19zm11.24-1.52c-.72 1.34-2.08 2.01-4.09 2.01-1.49 0-2.67-.43-3.54-1.3-.88-.87-1.32-1.96-1.32-3.28 0-1.49.56-2.65 1.67-3.5 1.11-.85 2.72-1.27 4.83-1.27h2.29v-.96c0-.87-.23-1.53-.68-1.98s-1.23-.68-2.32-.68c-1.67 0-3.21.47-4.61 1.4v-3.44c1.18-.72 2.87-1.09 5.07-1.09 4.25 0 6.38 1.98 6.38 5.94v10.03h-3.68v-1.89zm-2.79-.74c.82 0 1.47-.24 1.93-.73s.7-1.12.7-1.9v-1.49h-1.92c-.97 0-1.71.2-2.23.6-.52.4-.77.91-.77 1.53 0 1.32.76 1.98 2.29 1.98zm14.17 2.62h-3.71V31.14h3.71v21.88zM150.89 79.37c-1.09.68-2.67 1.02-4.74 1.02-2.5 0-4.47-.74-5.91-2.23-1.45-1.49-2.17-3.4-2.17-5.76 0-2.5.68-4.46 2.04-5.88 1.36-1.42 3.06-2.14 5.11-2.14s3.66.62 4.86 1.85c1.2 1.24 1.8 3.04 1.8 5.42 0 .58-.07 1.32-.22 2.23h-9.84c.27 1.14.83 2.01 1.69 2.6s1.92.9 3.2.89c1.65 0 3.04-.41 4.18-1.24v3.22zm-5.58-12.07c-.89 0-1.66.33-2.31.98-.65.65-1.07 1.59-1.25 2.83h6.59v-.47c-.04-1.01-.32-1.82-.82-2.43-.51-.61-1.24-.91-2.21-.91zm20.22 8.41c0 1.46-.53 2.61-1.58 3.44-1.05.83-2.46 1.24-4.21 1.24-1.94 0-3.51-.32-4.7-.96v-3.41c1.38.93 2.88 1.39 4.49 1.39.68 0 1.21-.13 1.59-.39.38-.26.57-.61.57-1.07 0-.27-.06-.51-.19-.73-.12-.22-.36-.43-.71-.64-.35-.21-.62-.36-.82-.45-.2-.09-.58-.26-1.16-.51a.645.645 0 0 1-.14-.06.645.645 0 0 0-.14-.06c-.06-.02-.11-.04-.15-.06-2.29-1.03-3.44-2.51-3.44-4.46 0-1.44.55-2.58 1.64-3.41 1.09-.83 2.46-1.24 4.12-1.24 1.59 0 2.91.23 3.96.68v3.28c-1.03-.62-2.32-.93-3.87-.93-.64 0-1.14.14-1.5.42s-.54.63-.54 1.07c0 .17.03.32.08.46s.14.28.28.42c.13.13.26.25.39.36.12.1.3.21.53.32.23.11.42.21.59.29.17.08.39.19.68.31.29.12.52.23.68.31 1.09.54 1.96 1.13 2.6 1.79.64.66.96 1.52.96 2.57zm25.01 4.51h-3.71v-2.44c-1.07 1.78-2.66 2.66-4.77 2.66-2.06 0-3.7-.78-4.91-2.35s-1.81-3.47-1.81-5.7c0-2.48.63-4.44 1.9-5.9s2.89-2.18 4.87-2.18c2.04 0 3.61.88 4.7 2.63v-8.6h3.71v21.88zm-11.4-7.77c0 1.42.36 2.58 1.08 3.47.72.89 1.62 1.33 2.69 1.33s2.04-.43 2.78-1.29c.74-.86 1.11-2.1 1.11-3.73 0-1.59-.39-2.78-1.18-3.57-.78-.79-1.68-1.19-2.69-1.19-1.07 0-1.98.44-2.71 1.32-.73.88-1.1 2.1-1.1 3.67zm27.4 6.89c-1.09.68-2.67 1.02-4.74 1.02-2.5 0-4.47-.74-5.91-2.23-1.45-1.49-2.17-3.4-2.17-5.76 0-2.5.68-4.46 2.04-5.88s3.06-2.14 5.11-2.14c2.04 0 3.66.62 4.86 1.86 1.2 1.24 1.8 3.04 1.8 5.42 0 .58-.07 1.32-.22 2.23h-9.84c.27 1.14.83 2.01 1.69 2.6s1.92.9 3.2.9c1.65 0 3.04-.41 4.18-1.24v3.22zm-5.58-12.07c-.89 0-1.66.33-2.31.98-.65.65-1.07 1.59-1.25 2.83h6.59v-.47c-.04-1.01-.32-1.82-.82-2.43-.51-.61-1.24-.91-2.21-.91zm26.31 12.56c-.72.35-1.65.53-2.79.53-3.38 0-5.08-1.71-5.08-5.13v-7.92h-2.35v-2.79h2.35v-3.78h3.71v3.78h3.9v2.79h-3.9v7.98c0 .66.18 1.16.53 1.5.35.34.84.51 1.46.51.78 0 1.51-.22 2.17-.65v3.19zm17.36-7.53c0 2.37-.66 4.32-1.99 5.85-1.33 1.53-3.19 2.29-5.59 2.29-2.37 0-4.22-.74-5.56-2.23-1.33-1.49-2-3.38-2-5.69 0-2.39.69-4.37 2.07-5.93 1.38-1.56 3.21-2.34 5.48-2.34 2.41 0 4.28.76 5.6 2.27 1.32 1.52 1.98 3.44 1.98 5.77zm-11.23.1c0 1.44.32 2.65.96 3.62.64.97 1.55 1.45 2.72 1.45 1.22 0 2.13-.47 2.75-1.42.62-.95.93-2.16.93-3.62 0-1.51-.3-2.74-.9-3.7s-1.54-1.44-2.82-1.44c-1.18 0-2.08.49-2.71 1.46-.63.97-.94 2.19-.94 3.65zm28.79 7.78h-3.71v-2.44c-1.07 1.78-2.66 2.66-4.76 2.66-2.06 0-3.7-.78-4.91-2.35S247 74.58 247 72.36c0-2.48.63-4.44 1.9-5.9s2.89-2.18 4.87-2.19c2.04 0 3.61.88 4.71 2.63v-8.6h3.71v21.88zm-11.4-7.76c0 1.42.36 2.58 1.08 3.47.72.89 1.62 1.33 2.69 1.33 1.11 0 2.04-.43 2.79-1.29.74-.86 1.11-2.1 1.11-3.73s-.39-2.78-1.18-3.57c-.78-.79-1.68-1.19-2.69-1.19-1.07 0-1.98.44-2.71 1.32-.73.88-1.1 2.1-1.1 3.67zm29.72-.14c0 2.37-.66 4.32-1.99 5.85-1.33 1.53-3.19 2.29-5.59 2.29-2.37 0-4.23-.74-5.56-2.23-1.33-1.49-2-3.38-2-5.69 0-2.39.69-4.37 2.07-5.93 1.38-1.56 3.21-2.34 5.48-2.34 2.41 0 4.28.76 5.6 2.27 1.32 1.52 1.98 3.44 1.98 5.77zm-11.24.1c0 1.44.32 2.65.96 3.62s1.55 1.45 2.72 1.45c1.22 0 2.14-.48 2.75-1.43.62-.95.93-2.16.93-3.62s-.3-2.74-.9-3.7c-.6-.96-1.54-1.44-2.82-1.44-1.18 0-2.08.48-2.71 1.45-.63.97-.94 2.19-.94 3.65zm24.67 3.27c0 1.47-.52 2.61-1.58 3.44-1.05.83-2.46 1.24-4.21 1.24-1.94 0-3.51-.32-4.7-.96v-3.4c1.38.93 2.88 1.39 4.49 1.39.68 0 1.21-.13 1.59-.39.38-.26.57-.62.57-1.07 0-.27-.06-.51-.18-.73-.12-.22-.36-.43-.71-.63-.35-.21-.62-.36-.82-.45-.2-.09-.58-.26-1.16-.51-.06-.02-.11-.04-.14-.06s-.08-.04-.14-.06c-.06-.02-.11-.04-.16-.06-2.29-1.03-3.44-2.52-3.44-4.46 0-1.44.55-2.58 1.64-3.41 1.09-.82 2.47-1.24 4.12-1.24 1.59 0 2.91.23 3.96.68v3.28c-1.03-.62-2.32-.93-3.87-.93-.64 0-1.14.14-1.5.42-.36.28-.54.63-.54 1.07 0 .17.02.32.08.46.05.14.14.28.28.42.13.13.26.25.39.36.12.1.3.21.53.33.23.11.42.21.59.29.16.08.39.19.68.31.29.12.52.23.68.31 1.09.54 1.96 1.14 2.6 1.8.64.66.96 1.52.96 2.57z" class="cls-1"/><path d="M377.19 110.85H108.6c-.69 0-1.25-.56-1.25-1.25V1.25c0-.69.56-1.25 1.25-1.25h268.59c.69 0 1.25.56 1.25 1.25V109.6c0 .69-.56 1.25-1.25 1.25zm-267.34-2.5h266.09V2.5H109.85v105.85z" class="cls-1"/><path d="M511.48 110.85H377.19c-.69 0-1.25-.56-1.25-1.25V1.25c0-.69.56-1.25 1.25-1.25h134.29c.33 0 .65.13.88.37s.37.55.37.88V109.6c0 .69-.57 1.25-1.26 1.25zm-133.04-2.5h131.79V2.5H378.44v105.85zm-269.84 2.5H1.25c-.33 0-.65-.13-.88-.37s-.37-.55-.37-.88V1.25C0 .56.57 0 1.26 0h107.35c.69 0 1.25.56 1.25 1.25V109.6c0 .69-.56 1.25-1.25 1.25zm-106.1-2.5h104.85V2.5H2.51v105.85z" class="cls-1"/><path d="M420.74 64.97h-2.65V54.66l.19-4.91h-.03l-5.43 15.22h-2.4l-5.43-15.22h-.03l.21 4.91v10.31h-2.67V47.15h4.29l3.59 10.31 1.24 4.24h.05l1.27-4.24 3.56-10.31h4.21v17.82zm4.56-16.24c-.34-.32-.51-.76-.51-1.34s.17-1.02.51-1.32c.34-.3.82-.46 1.43-.46s1.08.15 1.42.46c.33.31.5.75.5 1.32s-.17 1.02-.5 1.34-.8.47-1.42.47-1.09-.16-1.43-.47zm2.86 16.24h-2.89v-13.5h2.89v13.5zm15.08-12.47c.94.86 1.42 2.11 1.42 3.72v8.75h-2.89v-7.83c0-2.38-.96-3.56-2.89-3.56-1.01 0-1.87.35-2.59 1.04-.72.69-1.08 1.76-1.08 3.2v7.15h-2.89v-13.5h2.56l.14 2.24c.45-.85 1.07-1.48 1.86-1.89.79-.41 1.69-.62 2.7-.62 1.49 0 2.71.43 3.66 1.3zm16.58-2.86h-6.1v15.33h-2.89V49.64h-6.1v-2.48h15.09v2.48zm5.99 15.33h-2.89V47.15h2.89v17.82zm16.94-1.03c-1.31.86-2.84 1.29-4.6 1.29s-3.19-.37-4.45-1.11c-1.26-.74-2.23-1.8-2.92-3.19-.68-1.38-1.02-3.01-1.02-4.89s.34-3.5 1.02-4.89c.69-1.39 1.66-2.45 2.92-3.19 1.26-.74 2.74-1.11 4.43-1.11 1.78 0 3.28.37 4.49 1.11 1.22.74 2.09 1.83 2.63 3.27l-2.73 1.22c-.36-1.06-.88-1.84-1.57-2.34-.69-.49-1.58-.74-2.67-.74-1.67 0-3.01.59-4.01 1.77-1 1.18-1.5 2.81-1.5 4.9s.48 3.74 1.43 4.91 2.28 1.75 3.97 1.75c1.15 0 2.12-.29 2.9-.86.78-.57 1.34-1.42 1.69-2.54l2.75.92c-.54 1.6-1.46 2.83-2.77 3.7zM68.99 42.05c.31-.02.61-.07.68-.43-.05-.01-.08-.01-.12-.01-.54.43-.92-.28-1.02-.74q.1 0 1.08.37c-.05-.49-.22-.71-.62-.97-.41-.04-.58-.08-.77.34 0 .72.14 1.07.77 1.45zm.14-1.24s-.05.02-.06.05c-.17-.07-.34-.14-.5-.2.06-.44.5-.14.56.16zm-1.69.49s.04.08.06.13c.2-.01.41-.02.61-.02-.07-.16-.24-.18-.24-.37v-1.08c-.02-.32-.04-.65-.05-.96-.19 0-.38 0-.58.01 0 .04 0 .07.01.12.06.02.12.05.19.07a8.7 8.7 0 0 0-.02.52c-.76-.37-1.18.23-1.01 1 .31.47.43.64 1.02.59zm.01-1.25c0 .32 0 .66.01 1-.06.02-.11.05-.16.08-.85-.32-.54-1.94.14-1.08zm21.36 2.25c-1.33.82-2.66 1.63-4 2.46 0 .31.13.62.19.92 1.33-1.01 2.68-2.02 4.02-3.02.02-.16-.04-.36-.22-.36zm-28.13-1.93c-.19.44-.2.34-.6.56q-.01.17.04.28c.38-.05.46-.16.65-.52.19-.58.38-1.15.59-1.73.02-.01.06-.02.1-.04 0-.04.01-.07.02-.1q-.08-.02-.49.11v.11s.07.02.12.04c-.05.17-.13.66-.28.73q-.26-.5-.26-.6s.06-.04.1-.05v-.13c-.22.06-.43.12-.64.18v.11s.08.01.13.02c.17.34.35.67.53 1.02zm3.06.54c.31-.06.53-.12.8-.32 1.03-1.31-.53-2.76-1.79-1.69-.44.9-.07 1.92.98 2.02zm-.58-1.93c.67-.59 1.06-.16 1.22.55 0 .71-.1 1.08-.83 1.15-.58-.36-.67-1.09-.4-1.7z" class="cls-1"/><path d="M65.94 40.91c-.44-.14-.4-.91-.18-1.24.17 0 .2.05.42.1.02-.05.06-.08.1-.12-.01-.07-.02-.14-.04-.22-.23-.13-.32-.07-.54.04-.02-.06-.05-.12-.07-.17-.2.04-.41.07-.6.11 0 .04 0 .07.01.12.06.01.12.02.18.05.02.06.05.12.07.19-.01.3-.02.6-.02.9v.1h-.22s-.02.08-.04.13q.2.06.94.13s-.01-.08-.01-.12z" class="cls-1"/><path d="M90.95 40.91q-.72.23-6.13 2.22c-.04.18-.06.36-.08.55-.31.49-.74.94-1.32 1.14 0-1.67-.17-3.35-.3-5.01.68.01 1.13.05 1.73-.25 1.14-1.04 2.05-2.3 3-3.52.17-.13.23-.24.34-.29.43.04.73.04 1.13-.08 1.3-1.1-.44-2.3-1.42-2.82-.13-1.56-2.6-2.57-3.8-3.14q-.1-.38-.25-.71c-3.4-3.2-7.17-5.77-11.16-8.17-1.68-.94-3.36-1.87-5.04-2.8-.88-.35-1.58-.54-2.52-.7-2.29-.06-5.23.13-7.26 1.27q-.04.11-.36.5c-.71 1.43-.56 2.34.18 3.68.2.28 1.98 2.18.9 2.47-.17-.23-.34-.44-.49-.66-.94-.68-1.81-.56-2.9-.48-.17-.12-.28-.29-.4-.46.17-1.19.02-1.42-.92-2.1-.4-1.1-1.3-.65-2.17-.4 0-.12.05-.17.13-.58 0-.31.01-.62.02-.92-.36-1.6-1.49-2.06-2.92-2.53-5.43-1.04-10.83 2.39-15.24 5.06-2.34 1.57-4.64 3.24-6.92 4.92-.76.71-1.38 1.57-2.09 2.33-1.27.96-2.72 1.26-3.41 2.74-.67.78-1.81 1.25-1.81 2.39.28 1.2 1.5.77 2.27.42 1.33 1.56 2.66 3.13 4.01 4.7.5.23 1.07.18 1.62.18-.1 1.13-.19 2.27-.28 3.41-.02.53-.04 1.06-.05 1.58-.26-.16-.52-.31-.77-.46-.43-.38-.47-.85-.73-1.33-2.12-.78-4.24-1.55-6.35-2.32-.08.12-.22.22-.22.37 1.49 1.73 2.95 3.49 4.56 5.1.46.14 1.15.07 1.63.07.01.05.02.1.05.14-.11 1.18-.22 2.36-.31 3.55v8.52c.25 2.34.58 4.68.92 7.01.73 3.29 1.66 6.12 3.24 9.08q.77 1.24 1.55 2.39t1.02 1.32c.97.97 1.97 1.93 3.11 2.71 2.23 1.33 4.25 2.04 6.89 2.1 1.74-.17 3.24-.52 4.89-1.12.44-.2.9-.41 1.36-.6 1.32-.68 2.58-1.43 2.9-1.57q0 .07-.72 1.87-.96 2.1-1.67 3.49c-.67 1.2-1.45 2.39-1.49 2.51.29.06.59.13.89.2h1.68c.23.02.47.05.71.08-.18.61-.42 1.22-.52 1.86.11 1.08 1.84.97 2.62.97l-.18 1.19c.36 1.26 1.8 1.33 2.89 1.42h.84q.71-.07 1.42-.23c1.19-.53.82-1.14.64-2.3.91-.02 1.99-.04 2.5-.91 0-.71-.31-1.43-.5-2.11q1.13-.06 3.38-.08-.73-1.15-1.5-2.5c-.78-1.68-1.52-3.38-2.22-5.1.01-.04.02-.06.05-.08 1.3.77 2.62 1.4 4.01 1.98.65.19 1.31.38 1.97.59 2.12.44 4.06.5 6.23.16l.77-.23c6.3-2.26 9.59-8.24 11.54-14.26.86-3.18 1.14-6.37 1.46-9.66 0-2.89 0-5.78.01-8.67-.11-1.25-.2-2.5-.3-3.73.08-.04 1.46-.04 1.58-.07q1.4-1.51 3.72-4.1c.41-.53.54-.59.37-1.2zm-5.54-2.48c-.68.68-.83.89-1.69 1-.28-.02-.55-.04-.83-.05q2.39-1.98 4.57-3.72c-.06-.2-.13-.28-.13-.38q.71-.32.91-.37-1.01 1.21-2.83 3.53zm-5.18 3.9q-1.85 2.05-2.74 2.96c-.04-.62-.07-1.25-.11-1.87 1.62-1.21 3.25-2.42 4.88-3.64 0-.14-.12-.25-.2-.35-.24.13-5.49 4.07-8.51 6.27q-.05.08-1.07.8c-.01-.06-.02-.12-.04-.17.04-.06.07-.12.12-.17 3.24-2.51 6.48-5 9.72-7.5.28-.42.42-.9.56-1.38.7-.92 2.94-1.44 3.9-1.8h.14c-1.42.96-2.82 1.92-4.22 2.89-.04.38-.07.78-.11 1.18h.1c.11 1.28.22 2.58.32 3.88.04 0 .04 1.73 0 1.73-1.86 1.25-3.72 2.5-5.57 3.74-.01-.48.07-1.8.08-3.07.46-.18.74-.9 1.2-1.15.25-.29 1.86-1.87 1.86-2.16-.08-.08-.2-.24-.34-.2zm-6.4 8.04c.04-.34.07-.66.12-.98h2.72q-.04.07-1.4.98h-1.44zm.74.45c-.32.22-.65.43-.96.65q.11-.58.17-.67c.26 0 .53.01.79.02zm-.62-1.9q.53-.46 1.25-.98c.61 0 1.22 0 1.84.01-.01.32-.01.7-.12.98-1-.01-1.98-.01-2.96-.01zm3.08-3.86q.02.23-.02.72c-.12.08-.23.17-.34.26-.91-.01-1.82-.01-2.72-.01.1-.31 1.01-.79 1.28-.98.6 0 1.2 0 1.8.01zm-1.19-.5q1.02-.76 1.13-.79c0 .28.01.55.02.84-.38 0-.77.01-1.14.02-.01-.02-.01-.05-.01-.07zm.31 1.97c-.37.31-.83.77-1.26.98-.31-.01-.61-.02-.91-.02-.01-.34-.02-.66-.04-.98q2.22 0 2.21.02zm-1.75 1.4q-.1.13-.43.37v-.37h.43zm1.28-.41c.19-.4.97-.98 1.4-1.03-.01.34-.02.67-.02 1.02-.47 0-.92 0-1.38.01zm-2.99 1.43q-.08-.48-.17-1.75c0-.31.7-.74 1-.7 0 .65.01 1.31.02 1.97-.07.47-.44.46-.85.48zm.8.42c-.11.79-.23 1.6-.38 2.38-.17.01-.34.04-.49.06.01-.65.02-1.28.05-1.92.28-.22.48-.47.83-.52zm4.53 1.43c.05.34-.01.67-.04 1.01q-2.68-.01-2.64-.04 1.33-.94 1.45-.97h1.22zm-.51-.43c0-.16.43-.44.59-.4-.01.13-.01.26-.01.4h-.58zm.45 1.89c-.44.32-.89.65-1.33.98h-2.16c0-.3 0-.59.01-.88.04-.05.08-.08.13-.12 1.12 0 2.23 0 3.35.01zm-.49.99s-.01-.05-.01-.06c.14-.12.3-.23.46-.34.01.12.02.24.04.37-.17 0-.32.01-.48.02zm.43.43c-.01.34-.02.67-.04 1.01h-.08q-2.95.01-2.95-.02s.05-.01.07-.01c.62-.32 1.26-.65 1.9-.97h1.1zm-2.05.01c-.37.32-1.03.49-1.49.67.02-.23.05-.46.08-.68.47 0 .94 0 1.4.01zm1.93 1.43q.04.16-.04.97c-1.16.01-2.33.02-3.48.04.01-.34.02-.67.04-1 1.15-.01 2.32-.01 3.48-.01zm-.12 1.44c.06.32-.04.68-.07 1.01h-3.44s.02-.85.07-1.01h3.44zm-.09 1.43c-.04.32-.07.66-.1 1-1.18-.01-2.34-.01-3.5-.01q.07-.79.12-.97c1.15-.01 2.32-.01 3.48-.01zm-10.18 19.7c-.3-.22-.6-.42-.9-.62 0-.18.11-.24.22-.36q3.72-.04 3.72 0-.7.94-.77.98h-2.27zm1.92.48c-.13.19-.25.35-.44.46-.26-.17-.53-.32-.78-.48.06-.01.12-.02.18-.02h1l.05.05zm-8.99-1.95q-.58-.6-.67-.66c.04-.37.07-.74.11-1.1-.37-.13-.76-.22-1.14-.31-.38.24-.88.8-1.08.1.65-.06 1.3-.43 1.9-.7.59.44 1.18.89 1.78 1.33.2.41.41.83.62 1.25q.58-.19.65-.17c-.62.59-1.36 1.49-2.09 1.92-.29-.48.06-1.12-.07-1.66zM58.76 89q.06.02-1.85.04s-.04 0-.13-.79c-.04-.56-.07-1.12-.11-1.67h.65c.11.71.19 1.38.59 1.98q.26.18.85.44zm-.48-.68c0-.26 1-.34 1.15-.36.04.14.08.3.13.46-.32.01-.64.02-.95.05-.12-.05-.23-.1-.34-.14zm-1.62-2.16q-.16-1.91-.16-2.45c.12 0 .25 0 .38.01.11.8.23 1.62.35 2.44h-.58zm-2.61.4c.72 0 1.44.01 2.17.02.02.32.05.65.08.97v.06c-.79-.02-1.58-.05-2.38-.06.01-.29-.04-.76.12-1zm1.98-2.85c.02.32.05.66.08 1-.66-.01-1.32-.02-1.98-.02q.02-.59.08-.97h1.81zm-1.8-.43q.02-.89.07-1.01c.59 0 1.07.04 1.64 0 .01.32.04.65.06.97-.6.01-1.19.02-1.78.04zm1.92 1.84c.01.34.02.68.04 1.03-.72-.01-1.44-.01-2.16-.01.02-.34.05-.67.08-1 .67-.01 1.36-.02 2.04-.02zm.21 2.9c.02.32.05.65.07.98-.86.01-1.73.02-2.59.04.01-.34.04-.67.06-1.01.82-.01 1.63-.01 2.46-.01zm.02-6.36q.14-.11.25-.13c.06.56.13 1.14.2 1.72-.13.01-.26.02-.38.04q-.07-.95-.07-1.62zm.07 7.82c.02.32.06.66.1 1-.97-.01-1.93-.02-2.89-.04.04-.32.07-.65.11-.96h2.69zm-1.26-7.6c-1.85-1.25-3.55-2.63-5.27-4.04 0-.77.9-.58 1.37-.8.19-.55.38-.94.73-1.42q.1-.04 1.09-.07c.22-.2.43-.41.65-.6 1.14-.13 2.28-.26 3.42-.4.17.19.34.4.5.6.31 0 .7-.37.95-.54.2.04.41.08.61.13.05.29-.01.66-.05.95.22.23.44.46.67.68.07.5-.26 1.45.19 1.75v.1c-1.58 1.3-3.13 2.59-4.87 3.66zm-14.45-4.21c-.24-.32-.47-.64-.7-.95l3.67-.02c.07.08.14.17.23.26-.14.29-.6.52-.85.71h-2.35zm1.62.5q-.56.34-.84.46-.1-.06-.41-.46s.08-.04.13-.05q1.13.01 1.12.05zM39 75.29s-.02-.02 3.64-.05c.3.23.54.67.74.98a.3.3 0 0 0-.1.04v.05h-3.6v-.06c-.23-.32-.46-.65-.68-.96zm-3.28-5.79s0-.04 3.64-.04v.06c.16.32.31.65.48.97v.05H36.2v-.05q-.35-.66-.48-1zm-2-5.74h3.5c.16.16.23.74.28.97-1.2.01-2.39.04-3.58.06v-.06c-.18-.84-.23-.89-.2-.97zM32.88 58h3.49c.04.32.07.65.11.98v.05h-3.52v-.06c-.04-.32-.06-.65-.08-.97zm-.24-2.88h3.48c.02.32.05.65.08.98v.05h-3.53v-.05c-.01-.34-.02-.66-.04-.98zm-.22-4.32c.42 0 .84 0 1.27.01.46.31.91.64 1.38.96q.07.02-2.64.04-.05-.59-.01-1.01zm-.06-.43c0-.14 0-.29.01-.43.19.12.38.25.59.38-.2.01-.41.02-.6.05zm1.44 2.88c-.46-.31-.9-.64-1.32-1 1.09-.01 2.2-.01 3.3-.01.04.01.08.04.13.06.02.3.05.61.08.92-.73 0-1.46.01-2.2.02zm2.26 1.11h-.1c-.47-.23-.94-.46-1.4-.67.48-.01.96-.01 1.44-.01.01.23.04.46.06.68zm-3.52-1.5c.13.11.28.22.42.34-.16.01-.31.02-.47.05-.01-.13-.02-.25-.04-.37.02-.01.05-.01.08-.01zm0 .82c.38 0 .77 0 1.15.01q.78.46 1.8.96.1.02-2.86.04c-.11 0-.1-.84-.1-1.01zm3.7 2.88c.02.34.05.67.08 1.01h-3.48q-.07-.53-.08-1.01h3.48zm1.68-4.75h-.58c-.17-.8-.32-1.61-.38-2.42h.92s0 .07.01.11v1.36c0 .31.01.64.02.96zm-.04-2.88h-.94c-.02-.24-.04-.48-.05-.72v-.92c0-.26.01-.52.02-.77.48 0 .7.28 1.08.55q-.06 1.45-.12 1.86zm-4.44-3.88h1.8c.3.07.95.56 1.02.79.06.02.13.05.2.07.01.05.02.1.05.16-1.06-.01-2.1-.01-3.14-.01q.04-1.01.07-1.01zm-.02-.44c.02-.3.05-.59.08-.88.37.29.76.58 1.14.86-.37.01-.74.02-1.1.04-.05-.01-.08-.02-.12-.02zm3.06 1.89v1.01c-1.02-.01-2.04-.02-3.06-.02q-.05-.29-.06-.96v-.06q3.12 0 3.12.04zm-3.04 1.44c1-.01 1.99-.01 3-.01.01.31.07.68 0 1H33.5q-.07-.59-.06-.98zm3.07 1.44c.02.32.05.65.08.98h-1.4q-.86-.56-1.39-.96-.08-.04 2.71-.02zm.17 1.42c.05.22.11.42.07.65-.3-.22-.59-.43-.88-.64.26-.01.53-.01.8-.01zm-8.25-11.36h-.08c-.08.11-.2.2-.17.35 1.62 1.2 3.24 2.4 4.87 3.61-.04.86-.07 1.74-.11 2.62v1c.01.35.23 1.64.06 1.9-1.76-1.18-3.8-2.4-5.51-3.73 0-1.88.17-3.73.36-5.6a.25.25 0 0 1 .1-.02c-.07-.38-.14-.76-.2-1.13-1.2-.83-2.4-1.66-3.6-2.48.07 0 .14 0 .23.01 1.03.41 2.08.83 3.12 1.25.28.46.16.95.54 1.39q1.12.95 3.38 2.76c2.16 1.64 4.36 3.38 6.6 4.92.01.08.02.17.05.26-3.37-2.44-3.41-2.51-9.63-7.09zm1.96-6.64c.68.5 1.36.96 2.23 1.06 1.03-.2 2.02-.64 3.07-.64 1.09.4 2.41 1.81 2.64 2.95-.89-.41-1.3-.59-2.26-.61q-.6.11-1.13.25c-1.74.65-2.23.79-2.28.84-.35.04-.7.07-1.03.12-.98-.19-1.4-.5-2.15-1.13q-1.04-1.2-1.12-1.33c.73.04 1.46.08 2.2.13q-.19-1.39-.18-1.64zm11.33-3.19c-.17.02-.32.05-.48.08-.42-.23-.44-.34-.49-.78.13-.8.79-1.7 1.61-1.86-.28.47-.55.95-.82 1.43-.01.2-.01.42-.01.64q.2.41.19.49zm-.41 1.29q.41-.14 1.4-.38c.37-.24.36-.17.78-.17.13-.08.26-.17.4-.24.49.14.79.18 1.19-.17.08 1.19 1.31 1.9 2.28 2.38.28 0 .5-.01.76-.12.18.26.29.47.58.62-.14.96-.41 2.71.59 3.34q-.61 1.32-.74 1.7c-.46-.11-.91-.22-1.37-.31-2.69-.35-4.92.37-7.53 1.04q-.74.13-1.33.18s0-.1.01-.14c.6-1.06.77-1.8.34-2.94-.71-1.34-1.79-2.81-3.42-2.9-1.13.19-2.17.86-3.31.49-.24-.13-.47-.26-.7-.38 1.16-.13 1.9-.3 2.82-1.06.82.14 1.34.06 2.08-.32.38-.28.77-.54 1.16-.8.29-.06.58-.11.88-.16.36-.23 1.38-1.04 1.78-1.04.35.89.32 1.39 1.38 1.39zm2.09-1.52c-.17.04-.32.07-.48.11-1.12-.42-.32-2.48.55-2.7-.18.61-.4 1.18-.43 1.81.12.25.24.52.36.78zm2.81-2.34c-.47.47-.62 1.12-1.19 1.46-.41-.41.28-1.28.56-1.57.06-.04 1.46-.89 1.46-.44-.29.18-.56.36-.84.55zm.68 1.25c0 .61-.3 1.12-.53 1.67q-.06.32-.11.4c-.89-.44-.1-1.88.64-2.06zm-.02-3.42c-.61.53-1.22 1.2-1.97 1.52-.19-.14-.04-.5.01-.68.53-.67 1.19-.8 1.99-.95-.01.04-.02.07-.04.11zm-.4-3.44c-.6.23-1.21.5-1.86.59-.43-.79 1.49-1 1.87-.77-.01.06-.01.12-.01.18zm-1.46 1.13c.4 0 .72.06 1.07.23 0 .2-.07.34-.2.47-.71.12-1.34.22-1.98.54-.59-.71.52-1.1 1.12-1.24zm.62 1.76s.01.06.02.1c-.58.3-1.24.78-1.86.96-.19-.1-.29-.24-.25-.46.42-.56 1.42-.82 2.09-.6zm12.3 15.21v.07c-.4.25-.79.5-1.18.77l-.18-1.61c.44.25.9.5 1.36.77zm-.95-1.18c.04-.28.22-.5.5-.5q1.16 1.24 1.2 1.33c-.08.04-.17.07-.25.12-.49-.32-.97-.64-1.45-.95zm2.11.84c.2 0 .29.14.42.28.01-.18-.04-.38-.01-.47.32-.04.68-.24.97-.37.66-.22 1.32-.43 1.98-.64.88-.11 1.68-.22 2.57-.19q1.19.19 1.97.37s2.16.6 2.21.65c.64.12 1.27.25 1.91.38 1.27.11 2.45.14 3.65-.29.25-.19.5-.38.77-.58 0 1.8-1.07 3.98-2.86 4.61-1.44.16-3.02-.23-4.44-.42-.82-.25-2.42-.86-2.87-.98q-.58-.1-1.64-.17h-1q-1.56.14-2.29.25c-.16.07-.95.26-1 .31q-1.46.46-1.63.48c-.55-.3-1.09-.59-1.63-.88-.01-.05-.01-.08-.01-.12.83-.9 1.87-1.63 2.94-2.23zm22.08-4.78c-.79 1.13-1.73 2.21-3.16 2.45-.24.01-.48.02-.71.04-1.25-.26-2.51-.65-3.66-1.19-.98 0-1.56.13-2.41.66.36-1.33 1.63-3.23 3.19-3.12l2.47.52c1.28-.06 1.6-.55 2.4-1.48.08.72-.01 1.43-.17 2.12h2.04zm-1.53-.4c.01-.1.02-.19.05-.28.17-.05.83.17.83.25-.3 0-.59.01-.88.02zM64.97 71.7c.02.25.05.52.08.78-.3-.01-.6-.02-.9-.02-.91.49-1.81 1-2.71 1.5-.01.02-.02.05-.02.08.26.18.54.36.82.55.06.29.12.59.18.89-.12.08-.22.11-.36.12-.19-.35-.37-.68-.55-1.02q-1.88-1.42-2.08-1.51c-.65.28-1.3.65-1.99.77-1.45.04-2.9.08-4.36.13-.8-.49-.83-.55-1.86-1.18-1.3-.28-2.58-.55-3.86-.82-.61-.42-1.22-.83-1.82-1.24-.71-1.03-1.42-2.05-2.12-3.07.01-.02.02-.05.05-.06 8.46.01 16.92.02 25.37.04-.72 1.48-1.58 2.76-2.53 4.1-.44.04-.89 0-1.33-.05zm.92.51q-.25.35-.41.47c-.01-.18-.02-.35-.04-.52.14.01.29.02.44.05zm-24.15-.28c-.22-.01-.43-.01-.64-.01q-.71-1.3-1.25-2.39s-.01-.02 2.22-.02q.77 1.21.84 1.38c-.36.38-.74.73-1.18 1.04zm1.46-.69q.47.58.5.68c-.38 0-.76 0-1.13.01-.02-.04.54-.65.62-.7zm-3.54-2.18c-.16-.34-1.12-2.12-1.02-2.42.68 0 1.38 0 2.08.01.35.79.71 1.6 1.07 2.4-.71 0-1.42 0-2.12.01zm-4.68-30.35c1.36.58 2.86.48 4.31.37.83-.14.88-.19 1.79-.38 3.5-1.16 6.68-1.27 9.78.86.46.85.47 1.99 1.18 2.7.83.38.43-1.09.36-1.5q.12.01.25.12c-.17.53.24 1.01.49 1.43-.28.08-.55.18-.82.28-1.4-.47-2.63-.86-4.09-1.07-.79-.02-1.58-.05-2.36-.06-.55.05-1.09.11-1.63.17-2.18.54-4.3 1.39-6.57 1.52-2.18-.43-3.38-2.84-3.38-4.92.23.16.47.31.71.48zm-.55-.94c0-.17 1.84-1.56 2.08-1.76.72 0 1.4.42 2.02.78 0 .68-.43 1.36-.77 1.93-.12.01-.24.02-.35.05-1.18-.07-2.05-.2-2.98-1zm14.39-8.34c.17.28.28.55.29.88h.05v1.08h-.05c-.02.34-.11.67-.29.96-.55-.28-.24-2.62 0-2.92zm-.38-.21s-.07 0-.11.01c-.35-.52.19-1.84.34-2.32q.32-.65.36-.65c.28.97-.17 2.09-.59 2.95zm.79 3.56c.55.79.44 1.93.35 2.86-.04.04-.07.08-.11.13-.59-.7-.55-2.17-.24-2.99zm1.01-1.61c-.65-.65-.95-1.82-.85-2.7.01-.01.04-.02.06-.02.64.84.83 1.69.79 2.72zm-.54-5.97s.02-.01.05-.01c.48.88.48 1.8.29 2.76-.02 0-.05.01-.06.02-.34-.82-.65-1.91-.28-2.77zm4.92 11.45c-.36-.85-.44-2.09-.06-2.95.24.62.7 2.4.06 2.95zm.41.05c.42.84.37 2.21-.22 2.95-.23-1.06-.24-1.94.22-2.95zm.74 5.11q.08.01 1.58.86s-.02.02-.04.05c-1.31-.01-2.62-.02-3.92-.04q.04-.07.37-.23c.08-.01 1.87-.44 2-.65zm-.09-3.85c.38.12.59 1.36.64 1.72-.01.35-.02.7-.02 1.06h-.11c-.35-.84-.77-1.86-.5-2.77zm6.14 3.95c.28-.22 3.1-.18 3.3.02.65.16 1.26.38 1.88.62-.01.02-.01.05-.01.08-1.01.38-1.82.64-2.87.79-.5.01-1 .04-1.49.06-.35-.02-.7-.05-1.03-.07-.94-.13-2.24-.3-3.06-.78.79-.24 1.55-.52 2.36-.65.26.26.49.52.9.52.17-.17.11-.4.01-.6zm-1.6 1.73c1.78.29 3.44.31 5.23-.01.48-.17.97-.32 1.46-.48 0-.04 2.56-.04 2.56 0 .78.08 1.57.18 2.36.28.01.28.04.55.06.83-4.88.01-9.75.02-14.63.04 0-.23.25-.53.37-.72-.24-.01-1.08.11-1.31.08-.11-.17-.2-.32-.3-.48l2.48-.02c.56.16 1.13.32 1.7.49zm-16.63-.5q.66.24 1.99.61c1.58.17 3.16.22 4.73-.1.61-.18 1.22-.36 1.85-.53h.91c.13.1.38 1.03.2 1.15-4.89-.01-9.79-.01-14.67-.01q.06-.67.12-.82c.6-.11 1.2-.22 1.8-.32 1.02 0 2.04 0 3.07.01zm-1.46-.46c.2-.06.26-.1.47 0-.12.01-.24.02-.36.05-.04-.02-.07-.04-.11-.05zm4.52.76c-.06 0-.11.01-.16.02-1.25-.2-2.28-.55-3.46-1.02v-.08c1.44-.42 2.88-.52 4.38-.48-.22.53-.48 1.06-.77 1.56zm1.12.02c-.16.01-.31.02-.46.04v-.28c.17.04.36.1.46.24zm.74-.22c.25 0 .4-.02.47.25h-.42c-.02-.08-.04-.17-.05-.25zm1.26-.32q.25.3.25.37c-.13.02-.25.06-.37.1-.31-.22-.23-.47.12-.47zm.68.27c.06-.28.13-.54.2-.8.44.11.73.08.67.56-.49.13-.54.18-.88.24zm5.38 5.82s-.01-.07-.01-.1c.91-1.34.89-3.26 0-4.6q.1-.01.3.06c1.92 1.25 1.81 3.66-.29 4.63zm.71-4.88q.19-.06.3-.04-.08.12-.17.16s-.1-.08-.13-.12zm10.47 2.77c1.1.43 1.64 1.55 1.2 2.66-.05.02-.1.05-.14.08-.38-1.37-1.55-1.94-2.83-2 0-.88 1.2-.84 1.78-.74zm1.02.11c-.52-.37-1-.52-1.61-.64-.11-.82 2.22-.6 1.61.64zm-2.77 1.69q-.52-.37-.55-.46c1.69-.56 3.07.78 3.07 2.47-.22.94-.58 1.49-1.52 1.69.34-1.43-.08-2.6-1-3.71zm-8.75 3.38c-.16 0-.3.01-.44.02-.01-.11-.01-.22-.01-.32.46-.18.96-.48 1.32-.82.26-.01.54-.02.82-.02q-.01.52-.05.61c-.78-.12-1.08-.02-1.63.53zm.19 1.56c-.2 0-.41.01-.61.02q-.04-.43 0-1.14h.28c.06.43.08.61.36.92q.01.11-.02.19zm-1.15.45q-.26-.2-.38-.36c.1-1.37.28-2.6-.19-3.91 0-.04.01-.07.02-.1.23.48.41.95.58 1.45h.38c.35-1.06.95-2.15 2.09-2.52-.47 1.45-.92 2.28-2.39 2.82-.16.83.04 1.76-.11 2.62zm-2.35-1.2c-.02-.12-.04-.23-.05-.34v-.05c.55.01 1.12.02 1.68.05q.01.3-.08 1.09h-.65c-.19-.52-.41-.56-.9-.76zm.4.62c0 .25-.55.29-.74.3 0-.59.29-.5.74-.3zm1.2-1.55c-1.34-.26-2.09-1.25-2.5-2.48.62 0 1.48.89 1.87 1.32.26.37.53.74.79 1.12a.48.48 0 0 0-.17.05zm-5.58.31c.31 0 .62 0 .95.01-.28.2-.65.19-.97.2-.17-.07-.34-.13-.49-.19a.423.423 0 0 0-.04-.12c.22-.04.34.02.55.1zm-.3-.89v-.12c.47-.2.97-.26 1.45-.01 0 .04.01.08.02.13-.25.1-.48.17-.74.22-.26-.04-.5-.08-.73-.22zm.77 1.9c-.06.01-.11.04-.16.06q-.25-.01-.43-.1c.14-.04.49-.06.59.04zm.76.36q.01.3.07.48a2.2 2.2 0 0 0-.37.05c-.18-.07-.36-.14-.54-.2a.15.15 0 0 0-.04-.08c.28-.22.53-.23.88-.24zm-.09-2.9c-.6-.1-1.37-.19-1.81.3-.14.37-.1.72-.3 1.09 0 .2.01.41.02.61.16.2.16.35.11.6-.62-.31-.9-2.44-.48-2.94.28-.94 1.06-1.58 2.05-1.34.88.49 1.08 1.08 1.31 2.04-.01.01-.02.04-.04.06-.31-.11-.58-.24-.86-.42zm.8.95q-.13.1-.35.16c.01-.13.04-.25.06-.37.13.05.25.08.29.22zm.21.79s.05.08.07.13c-.28.13-.53.17-.83.22-.1-.26.56-.36.76-.35zm-1.18-3.78c-1.69-.42-2.52.7-2.87 2.23 0 1.34.12 2.12 1.13 3.07.22.1.44.2.67.31-.08.01-.17.02-.25.05-2.11-.48-2.63-2.51-2.12-4.38.68-1.21 1.26-1.69 2.65-1.76 1.38.28 1.97 1.19 2.33 2.46 0 .29.11.83-.01 1.08-.05-1.31-.35-2.38-1.52-3.06zm-6.07 3.67s-.08.02-.12.04c-.47-.17-.74-.35-1.07-.72-1.01-1.93.6-4.1 2.75-3.44-.01.02-.02.05-.02.08-1.36.76-1.94 2.58-1.54 4.04zm1.02-4.92v.19c-1.25.06-1.82.42-2.56 1.38q-.29.6-.35.62c-.36-.58-.26-1.2 0-1.82.65-1.03 2.12-1.46 2.9-.37zm-2.75-1.23c.42-.42 1.38-.58 1.56.16-.64.05-1.13.29-1.66.64-.06-.36-.05-.46.1-.79zm3.17 1.21v-.06c-.28-.56-.55-.68-1.12-.96-.01-.05-.01-.1-.01-.14h7.67c.02.36.05.73.07 1.1-2.21.01-4.42.04-6.61.06zm2.93.42q-.61.25-.82.28c-.48-.06-.96-.14-1.44-.02-.16-.08-.3-.17-.44-.25q.1-.04 2.7 0zm-1.95.61h.68v.08c-1.08 1.32-1.42 2.59-.84 4.28.22.37.44.73.72 1.07q-.04.06-.11.07c-1.21-.36-2.23-.88-2.59-2.17 0-1.6.55-2.81 2.14-3.34zm4.86.46c-.52-.49-.96-.84-1.64-1.07q.17-.04 2.57 0c.24.43.49.72.83 1.08l-.84.04c-.16-.04-.31-.07-.46-.1-.06.12-.34.05-.46.05zm3.4-2.87s.06-.05.1-.06c.23.17.48.35.76.41.18.56-.01.78-.58.89-.12-.08-.23-.17-.34-.24 0-.31.19-.72.06-1zm.87 2.28c-.14-.17-.29-.38-.32-.6.23-.1.43-.23.62-.38 0 .24-.1.85-.3.98zm.64 1.08c-.18.31-.36.62-.54.94-.11-.26-.22-.53-.32-.78.3-.08.56-.13.86-.16zm-1.6-1c-.1.02-.18.06-.26.1-.22-.35-.37-.73-.42-1.14.12-.04.24-.07.36-.1.32.41.9.56.32 1.14zm.06 2.11h-.3c-.37-.43-.79-.78-1.24-1.13.38 0 .76-.01 1.12.12q.31.67.42 1.01zm-.8-3.6c0-.3 0-.6.01-.9q.23.04.38.11c.13.42 0 .66-.4.79zm-.17 1.28c.28.55.4.71.41.83-1.73-.65-2.15-2.58-1.1-4 .18-.18.78-.79 1.09-.7-.74 1.3-.79 2.42-.4 3.86zm.95.64c.2-.05.35-.32.54-.32l.16.16q-.04.1-.46.46-.14-.13-.24-.29zm3.89.57q-.26.66-.38 1.08c-.17.01-.34.02-.5.04.17-.38.34-.76.52-1.13.12 0 .24 0 .37.01zm-.17-.45q0-.18.26-1.09c.49-.16 1.31-.02 1.84-.02-.64.25-1.13.53-1.58 1.07-.18.01-.35.02-.52.05zm.11 3.69c-.37 0-.67.02-1.04.1q-.48.32-.58.35c-.56-1.28 1.34-1.66 1.62-.44zm.19.54c.67.52.6 1.22-.28 1.51-.13.01-.26.02-.4.05-1.72-.32-.89-2.12.67-1.56zM60.76 49c.84 0 1.38.54 1.66 1.31-.98-.84-2.03-.4-2.69.56-.26.66-.3 1.01-.34 1.78a.15.15 0 0 0-.08.04c-.34-1.44-.29-3.29 1.45-3.68zm-.49 5.45c-.22-.04-.37-.16-.56-.28-.02-.3-.08-.64-.22-.91 1.12-1.68 2.72.89.78 1.19zm.25-2.2c-.24.02-.48.05-.71.07.14-1.31.88-2.62 2.28-1.73.8 1.07.54 2.22-.46 3.1-.05-.82-.35-1.16-1.12-1.44zm.91 2c1.08-.56 1.37-1.27 1.63-2.42.02-1.33-.32-2.56-1.6-3.17-1.69-.37-2.38.84-2.77 2.26-.02.17-.05.34-.07.52-.1-.94.31-1.86.92-2.53 2.03-1.43 3.67-.35 4.27 1.87 0 .3.01.61.02.92-.3 1.16-.64 1.8-1.66 2.47-.25.06-.5.12-.76.19v-.11zm.45-6.4c.9-.01 1.8-.01 2.7-.01-.14.08-.28.17-.41.26-.54-.12-1.12-.05-1.66.02q-.26-.14-.64-.28zm1.87 5.41c.83-1.76.62-3.29-.66-4.75.74-.37 1.68.32 2.16.8.59 1.01 1.01 2.02.47 3.14-.59.89-1.45 1.27-2.46 1.51q.08-.17.49-.71zm2.18-6.83c-.64.17-.78.42-1.1.96-2.33 0-4.64 0-6.96.01.01-.38.04-.77.06-1.14 2.68.01 5.35.02 8.03.05-.01.04-.02.07-.02.12zm-7.38 1.43q-1.01.54-1.24.71c0-.23.28-.54.4-.73q.13-.02.84.02zm-2.59-1.97c-.1.02-.19.05-.29.07-.12-.06-.24-.11-.36-.16-.06-.42.14-.74-.05-1.19-.24-.28-.34-.34-.35-.41a.25.25 0 0 1 .1-.02c.53.41.95 1.01.95 1.7zm-.77-2.36c-.11-.13-.2-.25-.3-.37.26 0 .53 0 .79.01q-.34.28-.49.36zm-.86 2.13c-.07-.04-.14-.07-.2-.1 0-.37.24-.68.42-.98.7.29.47 1.01-.22 1.08zm-.02-2.13c-.23 0-.95-.31-.95-.36-.07 0-.08-.04 1.2-.02-.08.12-.17.25-.25.38zm-1.6 1.16s.02.06.04.1c-.24.31-.4.67-.55 1.04-2.68 0-5.34 0-8 .01-.6-.52-1.44-.55-2.04 0-1.21-.01-2.42-.01-3.64-.01.01-.37.04-.74.06-1.12 4.7-.01 9.42-.02 14.13-.02zm-10.92 1.56c.08.41.02.74.2 1.14-1.19 0-2.38 0-3.56.01.01-.38.02-.76.05-1.13 1.1-.01 2.21-.02 3.31-.02zm-.05 1.59q-.1.35-.19 1.12c-1.07 0-2.14 0-3.19.01.01-.37.02-.74.05-1.12 1.1-.01 2.22-.01 3.34-.01zm-.1 1.59c.1.32.3.49.53.7-.02.13-.04.26-.05.4h-3.76c-.01-.38-.01-.76-.01-1.13q3.19 0 3.29.04zm.51 1.53c.14.38.3.77.52 1.13-1.44 0-2.87.01-4.3.02q-.05-.79-.02-1.15h3.8zm1.01 1.57c.41.19.8.26 1.25.35l.73.76c-2.24 0-4.49 0-6.72.01-.02-.37-.05-.73-.06-1.09 1.6-.01 3.19-.02 4.8-.02zm2.79 1.56c.55.17 1.03.31 1.63.26.73.29 1.06.42 1.8.42.55.1 1.09.14 1.64.02.19.19.38.29.64.4-4.38 0-8.76 0-13.13.01-.11-.35-.08-.73-.11-1.09 2.51-.01 5.02-.02 7.52-.02zm5.62-.34q-.52-.13-.6-.19c.53-.17.91-.48 1.43-.13-.01.04-.01.07-.01.12-.28.11-.53.17-.82.2zm.72-.84c-.13-.04-.25-.07-.37-.1-.02-.13-.04-.26-.05-.38.34 0 .54.06.84.19v.12c-.14.05-.29.11-.42.17zm.36-.8a7.87 7.87 0 0 0-.47-.1q-.04-.1.01-1.06c.44 0 .55.28.84.6.24.17.48.34.73.52-.37.01-.74.02-1.12.04zm.8 2.36c.19-.07.41-.19.53-.35.3-.01.6-.02.91-.02q.92.72 1.04.77c.02-.26.05-.53.07-.78.23 0 .47.01.71.02.43 1.16 1.62 1.26 2.59.64.25-.34.38 0 .74.07.55-.02 1.1-.04 1.66-.05.05-.05.54-.19.98-.41q.49.01 1.18-.07c.36-.12.41-.17.53-.18h7.63c0 .36-.02.74-.12 1.09-6.39-.01-12.78-.01-19.16-.01.41-.2.52-.32.71-.72zm11.74-.84c.29-.23.53-.49.77-.78.43-.04.85-.13 1.24-.32 1.64 0 3.3.01 4.96.02-.04.36-.06.72-.08 1.09-2.29-.01-4.58-.01-6.87-.01zm2.54-1.52s-.02-.04-.04-.05c.2-.36.35-.71.48-1.1h4.01q0 .76-.04 1.13c-1.48 0-2.95.01-4.42.02zm.46-1.56s.01-.1.02-.14c0-.4.37-.64.54-.98 1.14-.01 2.29-.02 3.44-.02v1.13c-1.34 0-2.68.01-4.01.02zm.64-1.59c-.07-.61-.18-.98-.18-1.14q3.41.01 3.48.05c.01.36.04.72.06 1.09h-3.36zm-.44-1.56q-.01-.08.17-.55 0-.3-.05-.58h3.52c.02.37.05.74.08 1.12-1.25 0-2.48 0-3.72.01zm-.2-1.57c-.53-.44-.94-.41-1.58-.29-.14.1-.28.19-.41.29 0 .04-8.36.04-8.36 0q-.1-.28-.56-1.12c4.87-.01 9.74-.02 14.61-.02q.05.06.11 1.15c-1.27-.01-2.54-.01-3.8-.01zm-14.08-12.2s-.06.01-.08.02c-.24-.76-.42-1.51-.53-2.29.05-.22.1-.43.14-.64.52.85.71 1.92.47 2.9zm-.34 8.34q-.29.18-.41.2c-.22-.28-.37-.56-.5-.89.26 0 .83.44.91.68zm-.5-11.34s-.06.04-.08.06c-.49-.56-1.2-2.05-.91-2.78.71.42 1.06 1.98 1 2.72zm-.18 9.7h-.18c-.66-.46-1.52-1.48-1.63-2.3.67.44 1.73 1.46 1.81 2.3zM50.31 35c.46.4 1.28 1.44 1.28 2.09-.54-.56-1.04-1.34-1.28-2.09zm.41 3.81c-.56-.76-.77-1.66-.66-2.59.32.56.5 1.15.66 1.76v.83zm.54.44c.61.86 1.13 1.66 1.13 2.75-.02 0-.05 0-.07.01-.55-.68-1.28-1.82-1.06-2.76zm.61-11.08s-.07.01-.1.02c-.78-.52-1.15-1.81-1.26-2.7.6.3 1.42 2.03 1.36 2.68zm-1.04 5.53c-.01.18-.02.36-.04.55-.44-.52-1.48-1.96-1.18-2.66.46.23 1.09 1.67 1.21 2.11zM36.87 61.88h-1.56c-.46-.31-.91-.62-1.36-.94v-.08c.91-.01 1.82-.01 2.74-.01.14.29.14.71.18 1.03zm-.32-6.76c.52 0 1.03.22 1.52.35.06.7.13 1.39.2 2.1h-1.48c-.23-.7-.19-1.7-.25-2.45zm.41 7.2c.05.19.06.29.04.49q-.72-.38-.84-.5s.04-.02.8.01zm-.15-4.33c.53 0 1.06 0 1.58.01.16.82.31 1.63.48 2.45h-1.76c-.11-.83-.2-1.64-.3-2.46zm.39 2.89c.6 0 1.21 0 1.82.01q.59 2.34.58 2.44h-1.36c-.23-.1-.46-.19-.67-.28-.1-.48-.49-1.69-.37-2.17zm2.67 3.27q.64 1.9.65 2.05c-.7-.01-1.39-.02-2.09-.02-.26-.82-.52-1.63-.72-2.46.73.05 1.43.32 2.16.43zm-1.33-8.35c-.01-.06-.02-.12-.02-.18 11.12.01 22.26.02 33.39.05-.35 3.92-1.48 7.86-2.88 11.52-4.34-.01-8.69-.02-13.02-.02.23-.31.46-.62.7-.94 0-.4-.11-.79-.18-1.19.07.05.8.14.86.18.52 1.31 1.33 1.52 2.7 1.28.26-.19.74-.5.82-.8-.46-.43-.9-.85-1.34-1.27-.1-1.46-.29-2.93-.5-4.38-.28-1.5-.5-4.01-2.39-4.32-.23-.06-.5-.07-.73 0-1.67.19-3.28 1.2-4.63 2.14-.1.71-.18 1.42-.26 2.12.06.05.7.08.82.14q0 .11-.89 3.23c.07.02.16.06.24.1.61.49 1.39.76 2.14 1q-.38 1.52-.38 1.69c.23.34.47.67.71 1.02-4.09.01-8.18.04-12.27.06v-.06c-1.44-3.66-2.36-7.46-2.86-11.36zm15.61 7.36h.48c.01.06.02.12.04.19-.08 1.28-.16 2.57-.23 3.85h-.2c-.28-.38-.54-.77-.8-1.14.16-.98.46-1.96.72-2.9zm-.76.85c-.53-.26-1.14-.36-1.64-.68q.89-.1 1.93-.13c-.07.26-.14.53-.2.79-.04 0-.06.01-.08.02zm.57-1.29q-1.99.14-2.4.14c.26-.96.53-1.91.79-2.86 1.18-.71 2.35-1.45 3.64-1.96.8 0 1.03.55 1.42 1.18q.1.02.4-.07c-.29-.97-.94-1.57-1.94-1.5-1.32.54-2.53 1.25-3.74 2-.2-.02-.41-.05-.6-.07.06-.5.13-1.01.2-1.51.92-.64 1.92-1.15 2.96-1.58 1.03-.32 1.79-.65 2.74.01 1.06 1.37 1.16 3.18 1.43 4.85q.16 1.32.32 3.31c.2.19 1 .78 1.15 1.1-.6.52-1.43.54-2.1.11-.41-.74-.64-1.43-.84-2.27-.7-.7-1.5-.77-2.46-.89h-.96zm3.25 2.01h-.18q-.22-.07-.64-.12c-.1-.42-.18-.84-.26-1.25.32.12.66.23.89.52.06.28.12.56.19.85zm-1.99-1.13v-.43c.13.01.26.02.4.05.06.07.28 1.1.32 1.15.11.54.23 1.08.35 1.62-.28.38-.55.78-.83 1.18h-.22c-.01-.31-.01-.62-.01-.94-.01-.44-.02-.89-.04-1.32 0-.44.01-.88.02-1.31zm11.96 7.67s.07-.01.11-.01c.2.22.41.43.61.66-.4 0-.78.01-1.16.02q-.01-.06.44-.67zm.41-.58c.26-.4.53-.79.8-1.19.73-.01 1.46-.02 2.2-.02-.01.01-.01.02-.01.05 0 .07-.65 1.32-1.26 2.4-.24-.01-.48-.02-.72-.02-.35-.23-1.14-.79-1.01-1.21zm1.04-1.63q.61-1.28 1.07-2.41c.7-.02 1.39-.04 2.09-.05.1.31-.82 2.06-.97 2.42-.73.01-1.46.02-2.18.04zm1.28-2.86q-.01-.08.66-2.08c.72-.07 1.42-.37 2.14-.37-.07.79-.46 1.66-.68 2.42-.71 0-1.42.01-2.11.02zm2.32-2.9c-.47 0-.94.01-1.4.02.2-.8.41-1.61.61-2.41.42-.2 1.33-.05 1.81-.05-.13.72-.25 1.45-.37 2.18-.22.08-.43.17-.65.25zm-.64-2.85c-.14-.14.37-2.16.43-2.46h1.61q-.16 1.39-.32 2.46h-1.72zm1.95 1.83q.72.01.78.05c-.32.16-.64.31-.95.48.02-.19.04-.4.17-.53zm.01-.37v-.05c.05-.34.1-.66.16-.98q2.64-.02 2.81.01c-.46.32-.91.65-1.37.97v.05h-1.6zm.12-4.34h-1.52q-.01-.22.22-2.04c.18-.18 1.22-.47 1.52-.4-.07.8-.14 1.62-.22 2.44zm-1.39-14.15c1.43-.22 2.1-1 2.87-2.2.44-.96 1.1-2.41.74-3.49-.22-.31-.88-1.04-.88-1.04 1.01.35 1.98.65 3.06.59.26-.07.54-.14.82-.22 1.33-.62 2.16-1.72 3-2.9.13.01.77.34 1.56.62.38.07.74.12 1.14.12.24-.11.46-.28.73-.28.36.17.72.34 1.09.52-.01.01-.02.04-.02.06-1.3.48-2.68.86-3.78 1.72-.25.47-.37 1-.62 1.46q-4.98 3.82-9.54 7.39c-.06-.79-.12-1.57-.17-2.35zm1.13-7.29c.68.5 1.34 1.01 1.98 1.58 0 .54-1.16.96-1.58 1.08q-.89.08-1.57.1c-.43-.64-.84-1.14-1.06-1.86.64-.64 1.34-.95 2.23-.9zm-17.2 1.3c-.66-.56-1.04-1.88-.9-2.74.56.79 1.03 1.7 1.03 2.69-.05.01-.1.02-.13.05zm-.31-3.36s-.05 0-.07.01c-.5-.58-1.31-1.69-1.31-2.47.37 0 1.19 1.72 1.38 2.12v.34zm-1.07-3.05c-.47-.56-1.54-1.56-1.58-2.36.68.26 1.34 1.42 1.73 2.04 0 .1 0 .19.01.3-.06 0-.11.01-.16.02zm-.96-2.76c-.07 0-.14 0-.22.01-.84-.52-1.28-1.22-1.76-2.06.46 0 2.08 1.42 1.98 2.05zm-1.74-2.58c-.64-.31-2.04-.9-2.18-1.62.92 0 1.79.86 2.42 1.46 0 .02.01.06.02.1-.1.01-.18.04-.26.06zm-3.16-1.73c-.05.11-.1.23-.13.35-.1-.19-.19-.38-.29-.58 0-.82 1.84-1.43 1.9-.38-.28.37-1.03.4-1.48.61zm.12.83c.13-.26.08-.61.38-.76.07.79-.64 2.27-1.36 2.63-.02-.01-.05-.02-.06-.04 0-.64.47-1.37.74-1.93q.17.1.29.1zm-19.07 9.21c-.38-.02-1.58 0-1.87-.19.58-.3 1.16-.59 1.75-.88.06.34.13.68.2 1.03a.15.15 0 0 0-.08.04zm2.49 3.11c1.06-.3 2.2-.91 3.26-1.02-.59.47-1.69 1.07-1.92 1.82 0 2.44 1.1 5.03 3.64 5.64.25 0 .5.01.76.02-.06.73-.12 1.46-.18 2.21-3.35-2.47-6.78-4.93-9.91-7.68-.07-.48-.1-.94-.46-1.27-1.62-.66-3.24-1.32-4.86-1.97l-.08-.08c.42-.13.84-.26 1.27-.4.22.05.58.22.88.29.62 0 1.14-.1 1.75-.24.76-.29 1-.65 1.3.05 1.27 1.57 2.39 2.96 4.56 2.63zM38 54.69h-1.08c-.14-.05-.29-.1-.42-.14-.05-.64-.08-1.27-.12-1.9.53.34 1.06.68 1.58 1.03q.06.82.04 1.01zm-4.94 4.75h3.46c.04.26.2.76.12 1.01h-3.16c-.31-.29-.53-.55-.42-1.01zm1.38 2.44c-.36-.01-.72-.02-1.08-.04q-.1-.48-.13-1c.26.14 1.1.82 1.21 1.03zm.84.46c.59.3 1.18.61 1.76.92 0 .01.01.02.02.05-1.15 0-2.29 0-3.43.01q-.07-.17-.2-1.01c.61 0 1.22.01 1.85.02zm2.34 2.86q.08.13.34 1.01h-3.55c-.18-.18-.31-.74-.32-1.04 1.18.01 2.35.02 3.54.04zm-3.07 1.41c1.2.01 2.4.02 3.61.05.12.31.24.64.36.96-1.2 0-2.4.01-3.6.02-.07-.17-.44-.82-.37-1.03zm4.17 1.42v.07c.13.31.26.62.4.94h-3.61q-.26-.55-.41-.95s-.01-.02 3.62-.06zm1.36 2.91q.31.55.5.98c-1.22-.01-2.45-.02-3.67-.04q-.4-.73-.47-.95s3.64-.04 3.64 0zm.75 1.42s.05 0 .05.08c-1.22.34-2.23.47-3.49.31-.07-.13-.13-.25-.19-.37 1.21-.01 2.42-.02 3.64-.02zm.3.45q.23.36.3.55c-1.22 0-2.45 0-3.66.01-.02-.04-.05-.07-.07-.11 1.25 0 2.24-.1 3.43-.46zm.59 1.01c.2.32.42.65.64.98-1.24-.01-2.46-.01-3.68-.01-.2-.32-.41-.64-.61-.95l3.66-.02zm1.51 1.42h.2q2.58.01 2.52.05c-.35.35-1.28 1.39-1.7 1.39q-.9-1.22-1.02-1.44zm-.32-.45c-.23-.35-1.36-1.79-1.36-2.22.12-.07.24-.14.36-.22h2.16c.7.8 1.39 1.61 2.1 2.42-1.09 0-2.18 0-3.26.01zm-1.3-7.15h1.24c.78 1.12 1.56 2.24 2.34 3.37.68.46 1.37.92 2.05 1.39 2.83.55 2.88.6 3.95.83.56.37 1.13.76 1.7 1.14h1.76q-.13.06-1.04.17c-.24.19-.47.38-.7.58-.35 0-.7.01-1.04.02-.22.28-.43.55-.64.83-.1.23-.18.47-.26.71-.35.07-.68.16-1.02.24-.12.17-.24.35-.35.53-.04-.01-.07-.01-.11-.01-3.06-2.88-6.06-5.95-7.88-9.79zm20.65 6.45s-.01-.06-.01-.08c.66-.37 1.32-.74 1.98-1.1.35 0 .71.01 1.07.02-.77.89-1.58 1.78-2.4 2.62-.11-.41-.2-.82-.3-1.22-.12-.08-.23-.16-.34-.23zm4.09-1.71q2.2-.04 2.2 0c.12.08.24.17.37.25-.46.7-.9 1.4-1.34 2.11-1.1.01-2.21.02-3.31.05.7-.8 1.39-1.61 2.09-2.41zm.88 2.85q0 .07-.04.07c-.2.28-.84 1.32-1.12 1.4q-1.55-1.34-1.61-1.44c.91-.01 1.84-.02 2.76-.04zm0 1.08v-.05q-.06.01-.17-.06c.23-.31.46-.62.7-.94q3.71 0 3.7.02c-.23.31-.44.64-.66.96v.06h-3.56zm.85-1.53c.2-.32.42-.65.64-.96l3.67-.02s-.01.02-.01.05c-.19.3-.38.61-.58.92-1.25 0-2.48 0-3.72.01zm1.05-1.4s-.08-.01-.12-.01q.12-.26.34-.56c1.02.42 2.22.56 3.32.44v.12c-1.19 0-2.36 0-3.54.01zm.45-.95s0-.04.01-.05q3.67 0 3.66.02c-.08.12-.16.24-.23.36-1.21.14-2.29.1-3.44-.34zm.26-.53c.17-.32.34-.65.5-.96 0-.04 3.68-.04 3.68 0-.18.32-.36.65-.53.98-1.22-.01-2.45-.02-3.66-.02zm.91-1.35v-.05q-.07.01-.14-.04c.14-.32.3-.65.46-.96q3.67 0 3.66.02c-.16.32-.31.65-.46.97v.05h-3.52zm.57-1.5c.1-.26.24-.86.47-1.01 1.19 0 2.38.01 3.56.02-.13.32-.26.65-.4.97-1.21 0-2.42 0-3.64.01zm.61-1.44c.12-.32.24-.65.37-.97 1.2 0 2.4 0 3.61.01-.12.32-.24.65-.36.97-1.21-.01-2.42-.01-3.62-.01zm.58-1.41c0-.36.17-.73.35-1.04 1.15.01 2.32.02 3.48.04l.05.05c-.06.25-.18.79-.35.96h-3.53zm.44-1.44q-.01-.1.24-1.01c1.16-.01 2.34-.02 3.52-.04.07.24-.13.79-.19 1.04h-3.56zm.48-1.47c.58-.32 1.15-.64 1.74-.95.59-.02 1.18-.05 1.78-.06.07.31-.06.71-.12 1.02q-3.44.01-3.4-.01zm2.53-1.39s.01-.05.02-.07c.41-.32.82-.64 1.22-.95q.01.19-.1.98c-.38.01-.77.02-1.15.04zm1.03-1.45h-3.2q.02-.46.14-1.01c1.15-.01 2.32-.02 3.48-.04-.02.42-.08.76-.42 1.04zm-3.04-5.88c-.13.04-.26.07-.4.12h-1.08s-.04 0 .04-1.03q1.51-1 1.55-.97c-.04.62-.07 1.25-.11 1.88zm-15.9-32.82c-.35-.95-.12-2.08.8-2.6.44-.13.58-.13.62-.18 2.51-.41 5.18-1.26 7.59-.18 4.42 2.52 8.78 5.17 12.93 8.1.84.66 2.89 1.88 3.04 3.1-.04.16-.07.31-.1.47 1.14.38 2.56 1.07 3.48 1.87.05.1.11.19.17.29-.18.2-.3.18-.55.2-1.24-.52-2.33-1.43-3.55-1.99-.23-.01-.46-.01-.68-.01.04.08.08.17.13.25 1.03.74 2.09 1.52 3.23 2.12.48.14 3.2.42 3.44 1.14q-.43.11-1.3.44c-1.66-.79-3.3-1.62-4.91-2.48h-.11c0 .92 1.39 1.34 2.1 1.68-.08.05-.17.1-.24.16-.74-.19-1.45-.46-2.16-.74-.88 0-1.38-.2-2.2-.56-.05-.22-.06-.83-.02-.91.1 0 .74.36.92.42.28-.01.55-.01.83-.01-.01-.07-.02-.14-.02-.2-.3-.18-.6-.25-.94-.36-.44-.35-.88-.85-1.44-.9q.22.5.22.61c-.19.28-.38.55-.58.83-.46 0-.55-.1-.86.25-1.26.16-2.17-1.16-3.31-1.3q-.41.14-.67.18c-.96-.24-1.63-.6-1.98-1.52-.08.02-.13.11-.4.2-.98-.12-1.38-1.43-2.41-1.57-.25-1.08-.83-1.45-1.67-2.18-.31-.42-.42-.65-.36-1.16.62-.56 1.4 1.02 1.94.48 0-.44-.43-.53-.37-.94.05-.01.1-.02.16-.02 1.09.58 2.27 1.04 3.34 1.66.74.72 1.44 1.72 2.48 1.94.05-.04.1-.07.16-.1 0-.18 0-.36.01-.54 1.14 1.2 2.18 2.38 3.82 2.83.3 0 .61 0 .92.01.7-.7-.86-.85-1.15-.96v-.46c-.58-.77-1.92-.58-2.5-1.38-.05-.4.02-.5.42-.55 1.81.72 3.14 2.41 5.12 2.83.12-.01.24-.02.37-.04.14-.73-.46-1.1-1-1.42-1.26-.48-2.84-.77-3.73-1.85-.35-.88-.41-2.63-1.84-2.16-.01.1-.02.19-.02.29.11.12.22.25.32.38.24.17.98.53.86.9a.15.15 0 0 0-.08.04c-.68-.42-2.12-2.15-3.07-1.46 0 .78.92 1.08 1.14 1.73-.62-.07-1.14-.23-1.72-.44-.59-.79-2.12-3.3-3.52-2.69-.01.02-.02.06-.04.1.2.12 1.39.67 1.49 1.08-1.22-.23-2.48-.56-3.71-.83-.2-.17-.44-.31-.49-.58.17.01.34.02.5.04.47.16 1.31.62 1.79.35-.08-.44-.62-.77-.82-1.21.47-.07.98.37 1.4.17 0-.52-.62-.8-1.04-.97.12-.36.5-.11.76-.02 1.26.73 2.5 1.54 3.42 2.04.26.08.61.11.88.02.49-.86-2.23-1.69-2.57-1.82-.66-.4-3.13-2.34-3.88-1.22-.06.26-.11.54-.16.82-.44.94-2.28-.06-2.4-.92.26-.32.6-.3.55-.78-.86-.49-1.14-.07-1.64.58-.3.23-.97.23-1.12-.2.32-.08.86-.14.98-.53 0-1.48-2.14.49-2.56.58-.37-.08-1.66-.43-1.54.41.48.01 1.15-.08 1.56.22.16.43.37.72.65 1.09-.14.41-1.27.06-.98.84.43.25 1.42.16 1.42.79-.29.16-.56.31-.84.47 0 .38.24.56.48.85 0 .61-.88.07-1.15.35 0 .76.71.88-.37 1.31-.11 0-.74-.01-.74-.18 1.85-.61-.55-3.62-.97-4.33zm9.04 6.21c-.05-.12-.08-.24-.12-.35q.2.07.3.17c.68.59 1.43 1.91.55 2.64-.26 0-.42 0-.65-.11 0-.06 0-.12.01-.17.5-.74.28-1.39-.1-2.18zm-1.32-1.04c.17.13.35.28.53.42.4.54 1.03 2.14-.04 2.3l-.19-.07c.02-.47.05-.92.08-1.38q-.38-1.14-.38-1.27zm-3.74 3.2s.04 1 0 1q-.28.04-.36.01c-.25-.46-.37-.94-.41-1.44.46-.18.54.07.77.43zm-.69-3.78c.79.36 1.13 1.34.58 2.08-.24-.68-.43-1.37-.58-2.08zm.68 2.44c.71 0 1.31 1.33.53 1.67-.19-.5-.64-1.14-.53-1.67zm.76-2.3q-.47-.7-.66-1.07c.96 0 1.34 1.12 1.58 1.88 0 .3-.01.82-.32.97-.54-.41-.37-1.21-.6-1.79zm-.35-2.06c1.07.06 2.11.56 2.56 1.56-.02.16-.05.32-.07.49-.07 0-.14.01-.2.02-.67-.52-1.91-1.32-2.28-2.08zm2.17-1.73c.1.23.17.62-.13.72q-.31-.25-.67-.46c-.4-.13-.96-.22-1.21-.31-.11-.19-.12-.34-.16-.55.79-.26 1.62.05 2.17.6zm-2-1.64c.67 0 1.79.02 1.86.89h-.42c-.5-.17-1.01-.34-1.5-.5-.04-.18-.02-.22.06-.38zm1.58 5.9q.08-.07.22-.08c.74.43 1.31 1.08.73 1.94-.07.01-.14.02-.22.05-.24-.16-.79-1.61-.73-1.91zm1.18-2.01q-.79-.36-1.91-.79c.79-.6 2.51.3 3.06.91.05.11.1.23.14.35q-.35.17-.44.18c-.32-.13-.56-.43-.85-.65zm-5.68 3.96q.08.02.36.34c.49.73.66 1.99-.23 2.5-.05-.13-.1-.25-.13-.37.07-.36.14-.72.22-1.08q-.04-.47-.22-1.38zm-.22-1.98c.83-.49 1.54.91 1.68 1.5-.02.12-.05.24-.07.36-.07 0-.14.01-.2.02-.05-.04-.1-.06-.13-.08-.38-.5-1.08-1.2-1.27-1.8zm-.6 2.33c.42.62.52 1.31-.19 1.81-.06 0-.11.01-.16.02-.06-.07-.12-.14-.18-.2.17-.55.35-1.09.53-1.63zm-.63 4.74q.23-.76.38-1.12c.35 0 .7.02.88-.37.4.1.76.04 1.1-.12.95.47 1.37-.01 2-.78.8 0 1.1-.44 1.2-1.24.53.07 1.07.14 1.54-.17.29.11.48.13.79.16.55.55 1.16.84 1.94.9l.49-.2c.44-.37.55-.73.64-1.28.1-.04.2-.06.31-.08q.64.49 1.97 1.38c.94.53 2.22 1.54 3.36 1.08.44.32.91.61 1.39.89q.53.2.53.24c-.72-.1-.77-.14-2.47-.46-2.05.23-4.08 2.86-3.32 4.91.4.67.62.98.65 1.09h-.34c-2.08-.4-4.1-1.09-6.19-1.44-.88 0-1.72.06-2.59.16l-.23-.49c-.26 0-.54.53-.65.74-.19.06-.38.12-.58.19-.02-.3-.05-.59-.06-.88-.3.24-.62.47-.88.77-.01.16-.02.31-.02.48-.08.01-.16.04-.23.06-.02-.28-.11-.65-.44-.65-.13.18-.26.36-.38.55-.18-.18-.4-.36-.5-.59q.2-.71.26-1.13c-.08-.9-.61-1.73-.55-2.6zm-1.79-9.17c-.02.1-.29.4-.32.5.02 0 .05.01.07.02 1.57-.78 2.11 1.04 1.99 2.29-.11.36-.26.71-.44 1.03-.07-.05-.25-.49-.31-.53-.08.28-.06.56-.07.86-.05.01-.1.04-.13.06q-.28-.41-.35-.44c-.05.18-.14.71-.34.8-.06-.18-.12-.35-.18-.52-.04-.01-.06-.01-.08-.01-.07.29-.2.54-.35.8-.14-.22-.18-.47-.25-.72-.08.31-.2.8-.5.98q-.14-.71-.2-.84-.11.31-.2.44c-.28-.32-.54-.65-.8-.97.23-.32.13-.54.05-.92.08-.19.18-.38.28-.56-.22 0-.25.02-.44.16-.18 0-.77-.64-.82-.79.14-.1.3-.18.46-.26-.12-.05-.24-.08-.36-.12q-.43.05-.49.02c.18-.19.43-.53.73-.53.29.29.3.88.54 1.26.53.2 1.12.77 1.63.36.06-.55.19-.95.41-1.46-.08-.32-.42-.56-.5-.91.34-.01.67-.01 1.01-.01zm-3.27-2.68c.4.13.68.31.89.67v.89c.35.79 1.04 1.39 1.63 2-.28.44-.37.74-.48 1.25-.06 0-.11.01-.16.02-.3-.3-.6-.29-1-.32-.12-.98-.43-1.97-1.43-2.29-.32.01-.65.04-.96.06-.35-.14-.9-.4-1.09-.7.14-.29.06-.66.01-.98.82-.31 1.73-.43 2.58-.6zM20.32 34.53c0-1.45 2.18-1.36 3.18-1.62 1.15-.52 2.14-1.27 3.2-1.91q.28-.25.35-.4c-.74 0-1.09.12-1.76.46-.62.41-1.68 1.27-2.5 1.48q-.38-.08-.53-.16c.77-.97 1.8-1.48 2.86-2.11.95-.85 1.66-1.94 2.59-2.81 2.45-1.74 4.94-3.44 7.44-5.1 3.41-1.96 7.65-4.68 11.76-4.61 1.78.22 4.81.86 3.71 3.31-.47.17-1.07.42-1.33.83q-.01.47.04.67c-.52.28-1.09.5-1.03 1.19.28.58.66 1.04-.13 1.31-1.2 0 .06-.67-.04-1.15q-.28-.2-.82-.48c.11-.76 1.98-.55 1.33-1.37-.42-.14-.95-.06-1.38-.05 0-.44 1.43-.74 1.1-1.39-.18-.05-.36-.1-.53-.13.42-.42 1.45.38 1.94-.23.04-.58.05-.68-.54-.64-.24.16-.5.4-.65.47-.68 0-1.81-1.61-2.52-1.14-.31.78.2.83.86 1.09 0 .29-.73.36-.94.3-.7-.66-.76-1.16-1.7-.83-.41.41.04.49.36.77.12.86-1.32 1.36-1.98 1.36-.47-.23-.37-.83-.6-1.26-.55-.55-1.49-.11-2.08.17-.6.36-1.2.73-1.8 1.1-1 .35-2.16.61-2.6 1.66.38.22.64.17 1.04 0 1.21-.68 2.44-1.46 3.71-2.05.1-.01.2-.01.31-.01.01.04.02.07.04.12q-.65.38-.96.64c-.46.85 1.09.17 1.36.25-.12.17-.91 1.03-.83 1.2.64.18 1.1-.23 1.69-.36h.55c0 .25-.49.5-.7.59-1.12.13-2.17.42-3.26.7h-.22c0-.49 1.13-.88 1.48-1.04-.01-.04-.02-.07-.02-.1-1.79-.59-2.64 2.16-3.89 2.78q-1.27.32-1.42.31c.32-.59.94-1.02 1.24-1.58 0-.59-.91-.24-1.19-.12-.36.25-1.66 1.43-2.05 1.36 0-.76 1.54-.88 1.16-1.63-1.22 0-1.4.78-1.57 1.9-1.03 1.72-3.61 1.34-4.91 2.75-.08.23-.26.48-.14.73.91 0 1.62-.32 2.42-.74.96-.64 1.92-1.26 2.88-1.88.44-.07.86 0 .59.56-.85.64-2 .6-2.46 1.7-.56.17-1.32.06-1.32.83.04.04.07.08.12.13h1.03c1.44-.38 2.69-1.79 3.76-2.76.01 0 .04.01.06.02 0 .53-.12.54.42.54.97-.43 1.7-1.48 2.58-2.11.23-.12.46-.24.68-.36q2.34-.89 2.39-.94s.07.01.12.02c-.06.32-.6.62-.36.98.13 0 .26 0 .41.01.46-.24 1.54-1.34 1.54-.14-.36.9-1.25 1.31-1.84 2.06-.13.34-.2.7-.32 1.03-.24-.01-.47-.02-.7-.02-.6.25-.89.94-1.46 1.22-.19 0-.38 0-.58.01-.74.44-1.52 1.12-2.4 1.2q-.5-.17-.64-.17c-.83.43-1.68.95-2.6 1.14-.46 0-.7-.3-1.13-.3-1.56.73-3.17 1.56-4.8 2.1-.36 0-.55-.02-.89-.16a.15.15 0 0 1 .04-.08c.56-.28 1.16-.59 1.63-1 .97.32 2.9-.4 2.77-1.63-.94 0-1.42 1.25-2.46 1.25.01-.08.02-.17.05-.25-1.52.43-2.74 1.73-4.3 2.09-.68-.22-1.25.37-1.93.43zm5.96 4.96c-.12-.06-.24-.12-.35-.17-1.14-1.36-2.28-2.7-3.41-4.04v-.08q.79.31.86.37c.01.14.02.29.05.44q4.18 3.36 4.18 3.41-.65.06-1.33.07zm2.34 33.37q-.65-1.48-1.15-2.81c-.29-.95-.56-1.9-.84-2.84-.6-2.69-.97-5.42-1.28-8.16-.01-3.05-.01-6.08-.01-9.12.11-1.34.22-2.68.32-4.01-.62-.01-1.25-.02-1.86-.04-.06-.04-.12-.07-.17-.1q-2.23-2.5-3.77-4.28.1-.01 5.37 1.88c.23.23.24.78.48 1.1q.66.48 12.24 8.23c-.02.12-.04.24-.05.37-3.78-2.53-7.56-5.06-11.33-7.59-.18 0-.29.17-.25.34q5.47 3.67 5.54 3.76.06.43.12 2.2s-.05.01-.07.02c-1.26-1.04-2.44-2.2-3.59-3.36-.05-.01-.08-.02-.12-.02q-.13.12-.23.29c1.28 1.28 2.64 2.51 4.01 3.72.06.35.37 4.79.58 6.75-.02.06-.04.12-.05.19-1.58-2.24-2.54-4.66-3.36-7.26q-.16-.02-.4.04c.59 2.86 2.09 5.82 3.91 8.1q.34 2.12.73 4.16c.72 2.82 1.93 5.54 3.35 8.07 0 .04 0 .08.01.13-.58.07-1.82-.61-2.36-.85-3.38-2.11-4.66-6.98-5.53-10.58-.67-3.22-1.21-6.47-1.45-9.75-.14 0-.29.01-.42.02.36 4.56 1.13 9.08 2.47 13.45 1.03 2.78 2.1 5.47 4.64 7.17.97.48 1.97.83 3.02 1.08 1.18 1.9 2.41 3.9 3.9 5.57-.01.04-.01.07-.01.11-2.17.61-4.56.78-6.77.2q-1.54-.67-2.32-1.06a32.68 32.68 0 0 1-3.32-5.14zm14.48 9.71c-.38.05-.77.1-1.14.14-3.43-.06-6.59-1.24-9.05-3.7.31 0 .61.2.89.32q.79.22.84.26 1.25.17 2.11.24h.89c1.22-.11 2.45-.24 3.61-.62 2.04-.96 3.68-2.45 5.36-3.94.07.01 2.45 2.33 3.61 3.38.19.16.38.31.59.48v.13c-2.44 1.46-4.91 2.77-7.71 3.29zm4.7 4.92c-.07-.04-.14-.06-.2-.08 1.51-2.47 2.66-5.1 3.74-7.77.61.47 1.22.95 1.85 1.43.01.04.02.08.04.13q-.65 4.28-1.04 6.6c-.05.12-.1.25-.14.38-.04 0-.06.01-.08.02-1.24-.77-2.75-.68-4.15-.71zm3.88 1.02c-.29.29-1 .48-1.38.64.1-.34.19-.67.29-1.01.38.05.73.22 1.09.37zm-.15 1.91c-.56 0-.96-.12-1.43-.4.16-.79 1.51-.88 2.1-1.3q.2-.35.35-.71.32-1.76 1.06-6.61.12.02.26.13c-.17 2.82-.24 5.79-.64 8.59-.6.24-1.07.26-1.7.29zm1.53.27c-.12.1-.24.19-.36.29 0-.07 0-.14.01-.22.11-.02.23-.05.35-.07zm.39.23c1.07 0 2.15 0 3.23.01.26.32.84.86.88.95-1.67 0-3.34.01-5 .02.13-.4.59-.72.9-.98zm3.72-.1q.2.05.26.1v.24c-.12-.1-.23-.2-.26-.34zm-2.16 2.2c-.5-.04-2.04-.07-2.24-.7 1.63 0 3.26.01 4.91.02-.47.78-1.88.64-2.66.67zm3.51-2.56c-.3 0-.6 0-.89.01-.22-.05-.43-.1-.65-.14-.04-.3-.06-.59-.08-.88.94-.01 1.88-.01 2.83-.01.92.64-.89.98-1.21 1.02zm3.93-3.06c-1.52.01-3.02-.05-4.46.48q-.19-.82-.34-1.8s-.02-.07-.02-.11c1.33 0 2.66.01 4.01.02q.8 1.31.82 1.4zm-1.07-1.84h-3.77c-.17-.79-.25-1.61-.35-2.41.98-.01 1.97-.02 2.96-.02.38.8.77 1.62 1.15 2.44zm-1.32-2.87c-.92 0-1.85 0-2.77.01-.22-.14-.32-1.26-.23-1.52.41-.31.82-.62 1.22-.92.28 0 .55 0 .83.01.31.8.62 1.61.95 2.42zm13.79-1.03c-.82.32-1.62.62-2.47.83-.55.07-1.1.14-1.66.23-.66-.02-1.32-.05-1.97-.06-3.08-.4-5.75-1.52-8.37-3.17v-.12c1.52-1.3 2.99-2.72 4.43-4.1 1.69 1.52 3.34 2.96 5.39 3.98 1.2.3 2.35.52 3.6.58h.91c.88-.05 1.72-.2 2.58-.36q1.28-.54 1.38-.55c-1.12 1.12-2.4 2.03-3.82 2.75zm12.78-35.82h-1.64s-.1.07-.13.12c.1 1.38.2 2.77.31 4.16v8.07c-.22 2.05-.42 4.1-.62 6.15-.86 5.02-2.7 9.57-5.9 13.55q-1.4.72-2.11 1.03c-1.21.35-2.41.46-3.68.48-.56-.05-2.89-.11-3.47-.6 1.39-1.8 2.69-3.68 3.9-5.61 1.12-.29 2.15-.7 3.19-1.18 1.34-1 2.26-2.23 3.1-3.7q.61-1.33 1.09-2.53c1.62-4.61 2.38-9.48 2.77-14.33-.13-.01-.26-.02-.4-.02-.54 6.02-1.45 12.3-4.41 17.66-.71 1.07-1.5 1.98-2.58 2.68-.76.35-1.55.62-2.34.86a.304.304 0 0 0-.07-.05c.84-1.66 1.67-3.3 2.4-5q.62-1.79.67-1.84c.43-1.79.78-3.6 1.04-5.41.42-.61.84-1.21 1.27-1.81.74-1.33 1.4-2.7 1.98-4.12q.67-2.06.7-2.26c-.16-.01-.25-.08-.38-.05-.62 1.92-1.33 3.77-2.27 5.54-.18.28-.92 1.63-1.18 1.72.22-2.3.42-4.62.58-6.92 1.38-1.18 2.71-2.44 4-3.72 0-.16-.16-.26-.29-.31-.43.42-.86.85-1.28 1.28q-2.26 2.05-2.41 2.14c.04-.74.07-1.49.11-2.23q.5-.37 5.55-3.76-.01-.16-.12-.37s-.1.02-.14.04c-3.77 2.53-7.52 5.06-11.28 7.59v-.41c3.92-2.65 7.86-5.3 11.79-7.94.43-.41.7-.77.86-1.34 1.72-.64 3.43-1.26 5.16-1.88.01.02.02.06.04.1-1.27 1.4-2.53 2.81-3.79 4.21z" class="cls-1"/><path d="M58.5 71.36s.06-.06.1-.08c-.07-.49-.05-.83.01-1.31a110 110 0 0 0-1.79-.05q-.02-.07.04-.17h.77q.04-.06-.02-.41.01-.76.06-.98c-.18-.02-.36-.05-.53-.06l.41-.19c-.25-.08-.5-.17-.76-.25-.05.16-.08.31-.12.47q-.91 0-.91.04c-.1.44-.12.95.04 1.38.18 0 .37 0 .56.01-.01.05-.01.11-.01.17h-1.44v-.14c.2-.01.41-.02.61-.02.01-.04.04-.07.06-.11-.24-.24-.04-1.01 0-1.32-.12-.02-.24-.04-.36-.05.13-.05.28-.08.42-.12v-.07c-.25-.1-.52-.2-.78-.2q-.01.17-.11.44c-.36 0-.72 0-1.08.01-.1.47-.1.91 0 1.38.26.01.53.02.8.04-.02.06-.05.12-.06.19-.65-.01-1.3-.01-1.94-.01-.1.36-.1.7-.1 1.07-.65.01-1.3.04-1.94.06.1.28.2.56.31.85.17.01.34.04.52.06.23.29.46.58.7.86h6.48c.37-.37.74-.74 1.13-1.12-.29-.02-.58-.05-.86-.06-.07-.11-.13-.2-.19-.3zm-5.79-1.29q1.39-.01 1.38.01-.02.76.01.9s-.07.02-.11.05l-1.28.04v-.06c-.07-.34-.04-.59 0-.94zm.38 1.57s-.1.02-.14.05c-.1-.11-.19-.22-.28-.31.16-.01.31-.02.48-.04-.02.1-.05.19-.06.3zm1.02.05c-.18 0-.36 0-.54.01-.02-.16-.04-.2.05-.35h.53c-.01.11-.02.22-.04.34zm-.25-2.31c-.04-.22-.02-.77.01-.9v-.06q1.4 0 1.4.04c-.04.19-.01.88-.05.95-.46-.01-.91-.02-1.37-.02zm1.13 2.31c-.13 0-.25 0-.37.01q-.04-.26 0-.35c.16 0 .31 0 .47.01q-.02.23-.1.32zm1.04.01h-.5c-.06-.17-.04-.22.05-.35.17.01.34.02.5.04-.02.1-.04.2-.05.31zm.12-.66c-.44-.01-.89-.01-1.32-.01-.05-.36-.08-.55-.02-.92.04-.02.07-.05.11-.06.42 0 .84.01 1.27.02-.02.53.01.84-.04.97zm-.17-1.63c-.06-.25-.17-.73.01-.95.46 0 .91.01 1.38.02q-.04.14-.02.92h-1.37zm.98 2.28c-.16 0-.31 0-.47.01 0-.26.06-.5.12-.77.02.13.06.26.1.4.11.01.22.04.34.06-.04.1-.06.19-.08.3zm.49.01q-.02-.14.02-.35c.42 0 .47-.01.67.32-.24 0-.47.01-.7.02zm.84-1.62q-.01.79-.06.95c-.16-.19-.31-.37-.47-.55-.17 0-.22.11-.34.2.06.12.13.24.2.36-.24-.01-.48-.02-.71-.04-.07-.29-.02-.62-.01-.92v-.06q1.39.04 1.38.06zm-.4 8.54s-.06.01-.08.02v-.29h-.4c0-.18 0-.36.01-.53.18-.01.37-.02.56-.02-.02-.42-.04-.84.01-1.25-.2-.01-.4-.02-.59-.04v-.72c-.13 0-.26 0-.4.01v.67c-.18.01-.36.02-.53.04-.04.38-.13.92.05 1.28.16.01.31.02.48.04v.5a2.2 2.2 0 0 0-.37.05c-.01.08-.02.17-.04.25h-.48v-.29h-.4c0-.17 0-.34.01-.49q.07-.05.6-.08-.05-1-.01-1.26c-.19-.01-.38-.02-.58-.04-.01-.23-.02-.46-.02-.68h-.38c-.01.23-.01.46-.01.7-.17 0-.32.01-.48.02-.06.42-.08.86.01 1.28.14 0 .29.01.43.02.01.17.02.35.05.53h-.4v.29c-.17-.01-.34-.02-.49-.02-.01-.1-.01-.18-.01-.26h-.4c.01-.18.02-.36.05-.53h.53c.05-.16.01-.52.06-1.31-.2-.01-.41-.02-.61-.04-.01-.23-.02-.46-.02-.68h-.36c-.01.23-.02.46-.04.68-.17.01-.32.02-.48.04-.04.24-.07.48-.1.72-.29.28-.58.55-.85.83-.31.01-.62.04-.94.06.16.29.32.58.49.86.34.23.67.46 1.01.68 1.67-.01 3.35-.02 5.03-.02.36-.2.73-.41 1.1-.61.07-.31.14-.62.23-.94h-1.06c-.07.17-.14.34-.2.52zm-4.5-2s1.08-.04 1.08 0q-.04.23 0 .89s-.02.02-.04.05c-.35-.01-.7-.02-1.04-.04-.08-.22-.1-.71 0-.9zm-.09 1.74v.29h-.14c-.19-.26-.25-.58-.61-.55-.01-.02-.02-.05-.04-.06.14-.16.41-.55.62-.55.02.11.05.22.08.32.13 0 .28.01.42.02.01.17.04.35.06.53h-.4zm1.74-.85c-.01-.31-.08-.58 0-.88h1.08c-.01.28-.02.56-.02.85.02.02-1.03.06-1.06.02zm1.63.01v-.9c.35 0 .71.01 1.07.02 0 .29 0 .58.01.88h-1.08zM41.62 41.54s.02-.1.04-.13c-.08 0-.17 0-.24.01-.01-.5-.02-1-.02-1.49-.22.07-.64.26-.64.54.06-.04.13-.06.2-.08.01.01.02.04.04.06 0 .31 0 .64.01.96-.06.17-.25.26-.25.44.19-.04.24-.08.86-.31zm.12-.24c.89.44 2.09-1.33 1.08-1.84-.32 0-.48.08-.71.31-.01-.3-.02-.6-.04-.89-.04-.04-.59.19-.59.44.07-.01.14-.02.23-.04 0 .66.01 1.33.02 2zm.38-1.17c.07-.24.26-.24.47-.3.43.29.17 1.02-.19 1.26h-.28s-.04-.96 0-.96zm-.75-.85s-.1-.06-.14-.08c-.24.06-.31.22-.23.46.24-.02.4-.08.37-.37zm28.4 2.96s0 .07.01.12c.25.04.5.07.77.11 0-.05.01-.08.02-.12-.35-.17-.16-.89-.16-1.2.71-.3.47.62.47 1.14-.07.02-.13.06-.19.1 0 .02 0 .06.01.1.23.04.47.07.71.11a.25.25 0 0 1 .1-.02v-.11c-.06-.02-.12-.05-.17-.07-.04-.7.08-1.98-.95-1.46-.02-.06-.04-.12-.05-.18-.19.02-.37.06-.55.1-.01.04-.02.08-.02.13.05.01.11.02.17.05v1.19c-.06.01-.12.02-.17.04zm-25.76-1.37c.4-.11.89-.29.89-.79-.04-.01-.07-.02-.11-.02-.11.12-.2.24-.3.37-.49.16-.64-.06-.72-.53.36-.06.72-.12 1.08-.17-.19-.96-.95-.71-1.37.01-.07.49-.07 1.03.53 1.13zm-.07-1.5c.19-.02.48-.07.48.24-.2.02-.41.05-.6.08q.01-.14.12-.32zm24.77-13.25c-.11.07-.22.14-.32.23 0 .05.01.1.02.16l1.63 1.99c.11-.02.22-.04.32-.05.11-.97-.52-2.33-1.66-2.33zm-28.08 15.2c-.06.01-.12.02-.17.04-.35.53-.56.53-1.22.61v-1.78c.05-.24.05-.23.32-.3-.02-.06-.04-.12-.05-.17-.35.05-.7.11-1.03.17v.16c.14.01.25-.05.3.12v1.8c-.04.12-.18.16-.3.2v.16q1.73-.25 1.98-.32c.05-.23.11-.46.17-.68zM76.7 30.46c-.42-.3-.84-.59-1.25-.88-.48-.44-.96-1.01-1.09-1.1.06.68.44 1.26.79 1.84-.76.07-1-.44-1.51-1-.98-.82-2.02-1.63-2.75-2.7-.01.22-.02.43-.02.66.36 1.01.82 1.81 1.81 2.27q.36 0 .44.05.18.4.55.96c.42.42 1.32.9 1.86.36h.12s.02.05.05.08c.67.41 1.24.79 2.02.86.25-.01.38-.01.56-.19-.01-.08-.01-.17-.01-.24-.48-.37-1.04-.66-1.57-.97zM45.06 40.57s0 .07.01.12h.89s.01-.08.02-.12c-.08-.02-.17-.05-.24-.06 0-.35-.11-.89.08-1.18.13.01.26.02.4.05.01-.11.02-.2.04-.3-.19-.19-.37 0-.55.11-.02-.07-.05-.13-.07-.19-.19.06-.38.12-.56.19-.01.05-.01.1-.01.14.06 0 .13.01.2.02.01.02.02.06.04.1v1.04c-.08.02-.17.05-.24.07zm-4.62-13.83c.17-.16.34-.31.5-.47-.04-.24-.05-.26-.28-.4-1.1.12-2.03 1.26-1.69 2.38.78-.2 1.06-.86 1.46-1.51zm-9.28 4.71q.83-.02 1.15-.07c.46-.24.9-.54 1.32-.83q.1.01.54.24c1.03-.07 1.67-.54 2.03-1.55 1.39-.1 2.22-1.49 2.29-2.8-.02-.04-.05-.07-.07-.11-.73.89-1.56 1.51-2.48 2.21-.43.47-.88 1.02-1.38 1.42-.13 0-.26 0-.38.01.4-.59.72-1.1.77-1.82-.7.73-1.4 1.38-2.24 1.96-.14.06-2.45.89-1.54 1.34zM21.3 42.09c-.01.17-.01.34-.01.52 1.37 1.02 2.75 2.05 4.13 3.08h.08c.04-.18.23-.78.16-.94-1.45-.89-2.9-1.78-4.36-2.66zm28.48-.91s.02.07.04.11c.16-.02.31-.05.48-.06q0-.06-.18-.19v-1.69c-.17-.01-.34-.01-.5-.01.02.13.06.14.18.2 0 .12.01.24.02.36-1.46-.48-.82 1.67-.04 1.28zM49.37 40c.56 0 .42.44.44.92q-.05.06-.18.08c-.36-.18-.5-.68-.26-1.01z" class="cls-1"/><path d="M48.47 40.97c.23-.02.34-.06.38-.29h-.22c-.02-.35-.05-.68-.07-1.02-.28-.35-.66-.44-.98-.12.04.25-.05.25.28.26q.04-.22.11-.3c.29 0 .3.17.3.4-.34.1-.52.13-.74.36 0 .88.52.28.95.71zm-.21-.87q.01.41-.02.49c-.1 0-.18.01-.26.02-.25-.32.04-.42.29-.52zm4.15-17.09c.06.11.11.18.23.24.25-.05.3-.19.35-.42.01 0 .04.01.06.02.05-.11.05-.16-.01-.25-.44-.1-.83.19-1.26.08-.01.02-.02.06-.04.1.23.24.36.23.67.23zm-5.77 17.42c0 .47.52.32.72.1-.01-.04-.02-.07-.02-.1-.12.05-.28.11-.34-.02v-1.02c.1 0 .19.01.3.02v-.2c-.11-.01-.22-.02-.31-.02-.01-.13-.02-.26-.04-.4-.17.05-.49.35-.49.54.05.02.1.05.16.08 0 .34.01.67.02 1.02z" class="cls-1"/></g></svg>