<svg xmlns="http://www.w3.org/2000/svg" id="Layer_1" version="1.1" viewBox="0 0 1024 1024"><defs><style>.st0{fill:#ffb366}.st1{fill:#1e1b4b}.st2{fill:#d77e90}.st3{fill:#bd2846}.st4{fill:#ff8000}</style></defs><path d="M820 666c.3.3 3-1 2.1 3.9 7.3 0 5.6 1.6 6.9 6.1-3.1-.4-2 1.1-1.6 3.1 5.2 24.6 12.1 48.5 17.6 72.9l2.3-16.4c.3 7.1 9.2-2.3 9.5 4.7s-2.2 8.7.9 13.6c-2.9 2.4 5.4 20 6.4 25.1l3.9 78.5c-.9 7-12.5-3.9-15.6 3-.3-1.9-6.6-52.2-7.2-55.3s-.4-4.1-.3-6.2c-1.5-.3-2.3.1-3.6.9-3.6 2.4-9.9 16.9-12.6 21.4-7.9 13.1-24.1 35.2-27.6 49.4-.8 3.3-.5 3.6 2.8 3.3-4 2.9-7 2-13 3 .4-2.3 2.5-8.3 3.6-9.9s2.7-1.2 3.3-2.7c1.1-3 .8-7.1 3.3-10.7 3.7-5.2 2.5-1.5 5.1-8.9 4.4-11.9 15.6-26.6 21.9-38.1s11.5-21 11.6-23.4-1.8-2.4-1.8-3.8 2.1-2.9 2.1-6c0-5-2.3-10.3-3-15.1-3.3-20.7-6.7-42-13-62l-4.1-30.4Zm-89.8 218.3h-.9c-.2.8.2.7.9 0ZM798 646l8 3c-4.3-4.1-8.8-8.1-13-12 3 7.1-1 12.3-1.9 18.6-3 20.8-5.7 41-10.4 61.6-1.5 6.8-4.5 12.9-5.7 20.4-1.6 10-27.3 68.5-30.5 78.3 1.2-.5 3.7 1 6.7 3.4-4.4 13-10.5 29.7-13.1 41.3-1.8 2.4-3.7 13.9-4.1 18.8-1.5 2.1-2.9 3.9-3.9 4.8l22-3.3c.7-10.9 3.6-41.8 7.2-54.3 5.8 5.5 11.4 11.3 13.3 12.3 0-5.9 12-104.2 14-110.8 1.5-5.1 2.8-3.5 4.3-5.6 2.8-3.8-.8-6.1-.9-9-.4-10.7 3.1-22.7 4.8-33.2 1-6.4.7-15.7 2.1-21.7.3-1.2 3.4-1.1 3.1-3.2l-2-9.6Zm-59.8 225.6V870c.1.4 0 1 0 1.6Zm37.2-257.5c-4.5-2.5-7-.6-10.6-6.4-1.1-1.7-1.4-4.6-2.3-5.7-1.2-1.5-3-.7-3.5-1-1 3.5 3.4 5.9 3.9 7.7.7 2.5-6.5 11.2-8.2 14.4-3.9 7.3-4 9.2-9.1 15.9-7.5 9.9-12 21.4-20.6 31.9-1.6 1.9-1.2 2.1-2 4-4.2 10.3-9.4 18-15.4 27.1-1 1.4-1 3.3-1.7 4.8l-4.7.3c-.9 8.7-2.5 13.7-7.8 20.6-.6.8 0 1.8-2.3 1.3-.7-5.2-2.2-10.4-2.9-15.6-1.8-15.4-2.5-31.5-3.1-46.9-.4-10.7-6.7-28-.5-37.4 2-2.9 6.8-8.2 9.4-11.6 10.9-13.8 23.1-26.6 35-39.5-3.2 0-7.8 1.2-11 2-.4-3.2.2-6 1-9l-36.5 42c-2.4.4-1.2-1.1-1.4-2.5-.7-5-1.7-11-2-16-.5-7.6 2.3-16.8-2.5-23.5l-2 2c.4 3.4-.6 7.2-.5 10.4.2 8.9 1.2 18 1.1 27.1 0 4-1.3 6 .6 10.5-18.6 21.7-35.7 46.2-54.6 67.4-4 4.4-11.1 6.7-8 13.5h1c2-.2 3.9-.9 6-1v2.3l2 .2 54-61.5c1.6 10 1.2 20.4 2.1 30.4 1.7 19.4 4.2 40 4.9 60.1.1 3 .4 7.1 0 10-.7 6.3-11.5 18.6-14.6 26.2h-.3v.8c-2.5 1.7-2.2 7.1-3.3 8.3-.5.5-1.6 0-1.8.2-.4.3-.6.6-1 1 0 .6.1 1.4 0 2-1 5.8-7.5 22.8-10 29l5 2 15.4-26.7c6.8 21.1 19.2 53.3 19.7 63.2.4 10.1-1.2 22.4 0 32.1.4 3.6 2.4 4.4 3 7.5l-12 4c6.9-.2 18.1.5 23-3-3.1.1-3.6-3.3-3.9-5.6-1.6-10.5-2.5-25-3.1-35.9-1-16.2-1.3-32.5-2.7-48.7-.6-19.2-3.3-50.5-3.2-49.8l45.5-79 2.4-1c.5.4.1 4.8 2.5 4 4.9-1.7 6.3-8.4 1.5-10.7 5.4-16.5 16-30.8 24.2-46.1 8.1-1.9 9.9 7 14.3 11.9 1.4 1.6 3.4 1.8 3.5 1.9-.8-4.8-7.5-13.6-11.6-15.9Zm-90 150c.7.2.6 2.5.2 5.8-.4-3.5-.6-5.7-.2-5.8Z" class="st2"/><path d="M354 691c6.5-1.8 2.6-8.9 6.5-14s4.7-2.5 6.5-4.5 1.8-4.4 3-5 13.5-3.4 14.7-3.4c2.3 0 4.1.9 6.3.9v-3c2.8-.9 1.8 2.3 3.6 3s2.2-1 2.4-1c.6 0 1.5-.1 2 0 .8.2 1.9 1.7 3.5 2 3.6.5 7.4 0 11 1.2l3.5-3.1v1c.2.6 0 1.5.4 2 4.6.9 12.2 0 17.1 0 13.4.5 71.7 12.1 73.3 12.4 7.2 1.3 14.4 5.1 22.2 5.4.3 1.2 1.4 1.6 2.5 2s15.2 4 16 4h21c.4 0 5.5 3.2 7.2 3.8 2.7.9 77.8 17.1 86 36.2s-.4 38.8-5.2 51c-1.2 2.9-4.5 4.2-3.5 8l2-3c6.2.8-1.6 4.9-1.8 5.2s-3 7.1-3.1 7.5c-.3 1.3.9 2.8.7 3.7-.3 1.4-13 64.5-35.8 75.6s-2.4-.4-4.5.9-6.8 6.6-7.5 9l-6-4 1 5.5c-.2 3.1-9 5.2-11.4 7.6s-1.8 6.1-6.9 4.9-5.6.4-5.6.4c-1 2.3-11.2 6.9-13.6 7.2s-3.8-1.2-4.3-.7.3 2.2-1.6 3.9c-3.6 3.1-12.9 3.9-15.8 6s-.4 2.9-.6 3.1c-.4.4-2.5-1-3.4-1s-.4 1.5-1.4 1.9-4.7 1.9-4.9 1.9c-1.9.3-3.5-4.4-4.8.2-6.9-3.8-16.6 2.6-22 2.9s-4.1-1.4-5.8-1-.9 2.1-1.7 2.6c-3.2 2.1-11.8-.7-15.1 0s-2.1 3-3.6 3.4-10.7 2.9-11.9 3.1c-4.7.7-12.5-1.4-17.4-1.9-2.3 3.1-20.6 13.1-52.5 10-1.2 1.6-4.6 1-6.5 1h-1c-2.4-8.2-7.9-3.2-11.3-3.9s-1-2.6-2.3-3-3.5 1.3-5.7.8-2.3-2.2-3.7-2.9l-10-14.5c15-3.5.7-6.8.1-7.6s.3-4.4-.3-6.2-3.9-2-4.7-4.3c-1.7-5.5 2.4-15.5-.7-19.3s-2.1-.7-2.5-1-.6-1.5-1-2c7.5-1.2 1.6-17.9 1-24-1.2-7.3-.4-15.1-1-15 1.9-7.1 2-19.8 1-27s0-2 0-3c4.5-.7 4.4-10.7 1.1-11v-1.5s2.9-18.3 2.9-26.5v-3c0-1 .9-1.3.8-2.4-.1-3.3-1-8.3-1.8-11.6l2.8-.2c1.8-5.8 2.6-9.5 8.2-12.3.3-1.2-7.1-5.9-8-10.5s0-2 0-3c-.5-5.3 1.5-11 1.7-15.3s-1.9-6.9-1.7-10.1c.3-5.1 2.8-4.3 2-11.6s.7-.8 0-3Z" class="st4"/><path d="M680 541c2.4 1 8.8 3.9 11 5s6.4 4.4 9.3 6.2c7 4.2 13.7 8.8 20.2 13.8 1.7 2.1-1.2 3.7-1.5 5l-36.5 42c-2.4.4-1.2-1.1-1.4-2.5-.7-5-1.7-11-2-16-.5-7.6 2.3-16.8-2.5-23.5l-2 2c.4 3.4-.6 7.2-.5 10.4.2 8.9 1.2 18 1.1 27.1 0 4-1.3 6 .6 10.5-18.6 21.7-35.7 46.2-54.6 67.4-4 4.4-11.1 6.7-8 13.5-3.3.3-5.4-.1-9 0s-4.6-.3-6.8.2c-11.1 15.2 1.3 39.8 20.6 34.1s19.9-10.2 21.3-17.2c3.6.3 3.2-4.8 2.3-6.8-2.4-5-9.8-3.5-13.7-4.3s-2.9-1.4-4.3-1.7c-3.3-.7-8.7.7-9.3-4.2 2-.2 3.9-.9 6-1v2.3l2 .2 54-61.5c1.6 10 1.2 20.4 2.1 30.4 1.7 19.4 4.2 40 4.9 60.1s.4 7.1 0 10c-.8 6.5-9.4 14.9-12 22.5s-1.3 2.5-1 4c-4.6-.1-3.9 7.4-5.2 8.8s-1.6 0-1.8.2c-.8-6.2 2.8-11.8 3.9-17.6s-.4-5.9.3-8.7 2.6-3.3 2.8-5.2-1.1-8.2-1.4-9.5c-1.6-5.8-10.4-15.7-15.9-18.2s-3.9 3.5-4.7 5.3c-3.2 7.8-9.2 13.8-16.3 18.2-33.8 21.1-62.5-11.9-41.7-43.7-.2-1-10.6-2.8-13.3-3.8s-6.8-3.8-7.2-3.8h-21c-.8 0-14.8-3.5-16-4s-2.1-.8-2.5-2c11.7.5 11-2.9 5.5-12-4.4 1-6.4 8.4-5.5 12-7.7-.3-14.5-2.4-21.7-3.8-1.6-.3-10.8-1.4-11.6-1.1-5.3 8.8-9.1 17-19.8 20.2-20.6 6.2-35.3-11.9-31.8-31.3-4.1-2.2-7.5.2-11.5 0s-11.5-1.2-16.1-2.1c-.5-.6-.3-1.4-.4-2 4 .4 2.5-4.2 3.1-4.9s8.3.3 7.9-4.1c.9-.1 2 0 3 0 2 0 3.6.5 5.4.9l2.6-5.9 3.5 2 .5-2c.6 0 1.4.1 2 0 1.8-.5 3.8-.5 5.3-1.9s.5-1.9.7-2.1c.8-1.1 1.8-3.8 2-4 1-1 4.5-1.5 5-4h1c-.1 1.4 0 2.8.2 4.2.7 4 5.4 22.1 7 25.1s6.2 5 7.7 2.6-8-26.3-7.8-31.5l-4.1-3.4c1.1-1.3 2.4-2.3 3-3 4.7-.5 16.4-10 17-14s0-5.7 0-8l1-1c.7 1.1 3.4 2.3 3 5h1c-.3-2.6 2.9-2.2 5-3.5s7.6-5.1 10.1-7.5c6.5-.4 3 5.5 3 9.4-.1 12.4.9 24.5 1 37.1s2 22 3.3 25.7 4.2 5.6 8.7 5.8c.6-2.6-1-5.2-1-7.5.1-17.9-4-36.1-3.9-54.1 0-3.3 2-6.2 1.8-9.8s-4.1-7.9-3.9-12.6c1.3-.2 4.1.5 4.9-.2s.4-2.4 1.1-3.4c5.4-7.7 25.7-18.4 34.6-24.5s3-.8 2.5-3c2.9-1.3 8.6-3.9 9-7 3.1-.2 21.1-10.5 25-13l4.9 2.1c2.8 3.2-9.4 17.7-7.9 22.9l-4.6-1c-6.5 2.4.8 7.4.4 10.2s-3.5 7.1-4.3 9.8c-3 9-5.1 19.3-8 28s-11.1 24.4-12.1 31 .7 4.7.4 6.3c-.5 2.4-5.3 8.6-6.3 10.8-2.4 5.6-3.4 12.3-6.4 17.7l.9 2.8c13.6 10.6 13.2-21.8 20-26.5v5l3.4-.1c5.2-3.5-1.2-8.2-1.3-10.3-.3-6.2 5.7-17 7.4-22.6 4.4-14.3 8.7-28.5 13.3-42.7 3-9.2 5.4-22.2 9.2-30.8.9-2.1 2.1-3.4 4.1-4.4-.9 10.1 11.8 2.5 3-5s-1.1-1.1-2-1l3-11c16.5-4.3 37.9-12.1 54.5-5 7.2 3.1 13.7 5.2 20.5 8Zm-4 14c-2.3-.5-1.6.4-2.3 1.3-3.1 4 .5 9.3 1.3 13.7 1.4 1.4 1.8 0 2-1.5.6-4.4-.2-9.2-1-13.5Zm-41.3 48.1c-1.1.3-4.5 4.8-5.1 6-1.6 3.4-2 15.3 1.9 15.9 15.4 2.7 12.1-24.6 3.2-21.9Zm-38.1 6c-4.3.7-3.2 10.5 2.9 6s-1.4-6.2-2.9-6Zm-112.5 17c-1.2.7-3 8 2.4 8 8.3 0 3.1-11.4-2.4-8ZM603 630c-1.8-.1-3.8-.2-5.1 1.4-4.7 5.8 7.4 9.7 5.1-1.4Zm21.5 11c-2.9 1.8-1.9 8.2 2 7 3.3-1.7.7-7.5-2-7Zm-42.7 11.2-3.8-.2c-1.4 10.2 8 10.7 3.8.2ZM485 676c-4.6-2-9.8-.4-14.4-1.1s-20-10.6-16.1 4.1c4.4 16.2 28.8 13.4 30.5-3Zm101-3c-1.6 2.1-.6 8.6 2.5 8s2.6-9.8-2.5-8Zm10.6 8.1c-2.6.9-2.2 7.1.4 8.4 7.4 3.7 6.5-10.7-.4-8.4Zm77.3 19c-2.9-1.8-6.9.3-5.4 4.9 2.7 8.2 9.7-2.2 5.4-4.9ZM787 630c2 2 3.5 4.7 6 7 3 7.1-1 12.3-1.9 18.6-3 20.8-5.7 41-10.4 61.6-1.5 6.8-4.5 12.9-5.7 20.4s-3.9 14.5-7.1 24.3-4.4 15.4-7 23-1.4 1.6-1 3c-.6.5-.7 2.3-1 3-2.4 5.3-2.2 10.4-3.7 15.8-4.1 14.8-18.1 49.1-18.3 62.2s0 1.3 0 2c-2 2.7-3 6.7-3 10-.9 1.1-2.3 2.8-3 4l-3 1c-2.5-.2-5.5-.1-8 0-4.3.2-5.2.7-9 2s-4.8.9-5 1c-3.1.1-3.6-3.3-3.9-5.6-1.6-10.5-2.5-25-3.1-35.9-1-17.1-1.3-34.5-3-51.5-.7-7.2-.7-13.5-2-21 1.8-5.6-.8-12.9-1.4-18.9s.5-2.4.4-3.1c-.1-1.3.1-2.7 0-4l45.5-79 2.4-1c.5.4.1 4.8 2.5 4 4.9-1.7 6.3-8.4 1.5-10.7 5.4-16.5 16-30.8 24.2-46.1 8.1-1.9 9.9 7 14.3 11.9s3.4 1.8 3.5 1.9Zm-5.1 61.8-.3-6.9-4.5-.9c-1.6 4.1-1.1 11 4.8 7.8Zm-28.4.2c-2.5 1.7-3.9 4.8-1 7 4.8 1.5 4.5-7.8 1-7Zm3.6 13.1c-1.7 1.1-2.1 10.2 2.4 10.9 8.6 1.4 4.2-15-2.4-10.9Zm-30.5 14.1c-3.9.7-3.4 9.2.8 9.9 4.7 0 5.3-10.2-.8-9.9Zm34.9 13.8c-3.5 1.3-3.5 11.2-1 12 5.2 1.6 4.6-12.7 1-12ZM736 763c2-10.1-6.9-11.3-4.6-.9l4.6.9Zm4.1 31.9c1.7 1.1 6.8-.6 7.9-2.3 2.7-3.9-.2-19.6-4.7-20.5s-7 20.4-3.3 22.8ZM723 866c1.2-4.4 5.4-13.6-2.4-13.1-1.8.4-2.5 11.2-.7 12.6l3 .4Z" class="st3"/><path d="M286 517c-.1 0-1.2.9-2.4 1-3.4.4-7.7-1.5-9.4 2.7l-9.3 42.7c3.8 1.4 27.9 5.9 29.2 4l9.9-46.9c.5-3.8-7.8 1.1-7-3.5 4.5-.2 9.1-.6 13.7-.9s3.8-.7 5.3.9c-1.5.2-5.7 3.3-8.9 2.1L297 569l32.9 4.9 10.9-50.6c0-3.3-3.6-2.6-4.6-3.5s0-1.5-.2-1.8c1.9-.2 3.2-.1 4.5-2 .7 2.7 5.6 2.7 8.5 3v1l-2.1 2.9-2.9-.9c-1.2 6.4-13 52.1-11 54l28 3.5 2-2.5h1c0 .2 2.6 2.5 2.7 4 10.4.8 22.9 5.5 33 5.9s3.2-2.8 3.4-5.9c.6.9 1.6 2 2 3s-.3 2.1.4 3c9.3 2 20.5 5.4 30.1 6 1.9.1 5.8.6 7-1l6.5-62c1.4.5 4.1.3 5.3 1s.6 1.9.7 2c-2.9-.7-3.8 1.1-4 3.5s3 .1 3 2.5c-2.2 0-2.5-1-3 1.5-1.4 6.2-2.3 17.3-3 24s-.5 19.4-1.9 28.8c.9 2.7 21.5 4.9 25.3 5.6l3.6-16 4 1.5c0 2.6-3.1.7-2 4.5h3c.5 2.5-.4 1.6-2 2.5 2.1 3.6 2.5 7.5 3 11.5h-6l-3 22c4.7.6 5.6-5.5 10-6-.6 4-12.3 13.5-17 14 4.8-6.1 5.5-9.7 6-17.5s-1.3-3.8-1-5.9 3.7-4.7 1.6-7.7-24.2-4.5-25.6-3.5l-3.9 38.5 16 2c-.5 2.5-4 3-5 4-3.6-2-7.8-3.1-12-3 .1 3.9-1 7.9 2 11l-.5 2-3.5-2-2.6 5.9c-1.9-.4-3.5-.9-5.4-.9-.3-4.5 5.3-3.4 6.1-4.6 1.4-2 3-10.6.5-12.5s-25.1-3.6-30.1-5.9l-6.4 2.6-1 21.3c.6.7 17 3.1 18.4 3 2.2-.1 6.7-3.4 9.5-3.9.4 4.4-7.1 3.3-7.9 4.1s.9 5.3-3.1 4.9v-1c-.1-.7.6-1.8-.6-2-4.6 0-17.5-6-17.4 2-.5-.1-1.4 0-2 0l-1.7-4.8-39.4-4.8-3.7 34.9c.4 1.2 1.8 1.5 1.8 1.7.7 2.2 0 2.4 0 3-4-.3-2.4-.1-3 2.4-2 8.8-3.3 22.9-4 32.1s0 1.3 0 2l5 .5c0 1-.2 2.1 0 3l-5.1.6-3.7 33.1c0 3.3 4.2 3.6 6.7 3.3v3h-7l-3 39c1.9-.2 4.2.3 6 0 0 1-.1 2.1 0 3l-6.5 1c-1.3 1.7-3.4 30.7-2.4 31.9l4.9.7c.9-.5 2.6-5.2 3-6.6.6 0 1.4.1 2 0-2.5 5-1.3 7.4-1 12-3.4-1.7-5.6-3.7-10-3l-3 30c-5.6.1-11.9 1.4-17-1 .1 0 1.1-1 2.4-1 3.8-.3 7.7.3 11.5 0 1.2-4.1 4.8-28 1.9-29.8l-44.4-8.2c-1.2 0-2.5-.1-3.5.5-2.5 1.7-4.6 32.4-6 37.5-2.2 0-5.2.6-6-2 5.3-1.2 3.5-7.9 4.1-11.4s5.6-22.4 3.5-25.6-2.4-1.2-3.5-1.5c-3.9-1.1-25.9-5.7-28.6-5.5s-2 .5-2.3 1.7c-.5 11.8-5.4 26-5.8 37.3s.3 2.6 1.6 4c-3.1-.2-4.6-.9-6-1 1.7-2 2.2-4.3 2.7-6.8 1.6-8.2 3.8-21.6 4.3-29.7s.4-4-.5-5.5c-.8-1.1-2.1-1.3-3.3-1.7-3.8-1.2-29.3-5.9-31.6-5.2s-1.2.7-1.4 1.6c0 8.8-9.4 35.4-7.2 42.3-8.7 1.4-21.9 0-30.2-3.3s-4.5-3.3-5.8-3.7l8.9-43.9c-8.4-.5-19.7-6.6-26.9-2.1v-3c-5.1-1.3-1 3.3-5 3 1-5.5 1.3-4.2 3-7 3.7 1.4 27.3 6.4 29 5.5s1.4-1.4 1.8-2.3c1.2-3 5.4-24.1 3.7-25.4-4.8-.7-26.7-5.5-29.5-3.5s-.4 4.8-2.9 5.6c.8-6.4 0-14.6 4-20 0 3.4 1.9 5.5-1 9.5.4 1.7 28.4 6.1 30.4 5.4s1.3-.8 1.4-1.6l5.2-30.3-33-2c.4-4.3-.3-2.5 1-7 .1 1.9.9 3.1 2.7 3.8 2.9 1 27.3 2.9 29.6 2.1 1.9-.8 1.9-3 2.3-4.7 1-3.8 6.4-29.9 5.2-31.1l-32.9-3.1c.9-3.9-.4-2.7 2-7-.1 2.3 0 3.4 2.5 4 8.8 1.8 19.2.9 28.1 3l2.2-1.7c-.2-4.7 8.6-32.7 7.8-34.3s-1.9-1.8-3.1-2c-4.6-.8-13.1-1.6-18-2s-6.4.1-9.5 0c0-3.6.3-8.2 4-10 0 .8 1.4 4.8 0 7 8.8 0 18.2 3.3 26.6 2.1 1.5-1.1 6-17.8 6.4-20.7s-1.1-9.9-.8-10.3 3.4-.5 2.9-2.6c-.6-2.7-22.3-3.4-26-3.5 1.5-6.4-1.3-14.3 5-19-.5 3-2.8 13.3-1.9 14.9l23.9 2.7 8.9-35.9c-.7-2.3-20.4-6.2-22.9-5.1s-2.9 2.3-3 2.5c.8-3.9-2.4-12.5 3-13-.1 3.7.9 5.7 4.4 7.1s15.1 3.5 17.3 3.6 2.9-.2 3.3-1.4l6-29.3c-9.8.2-18.5-7.3-26 2 1.7-8.5 5.7-12.8 10-19 1.6 5.7-4.6 5.3-3 11 5.1-.6 19.8 6.4 21.7.3 1.3-9.3 4.1-18.6 7.2-27.3h2v2l-7.6 28.1c1.1 1.5 28.3 6.1 29.5 4.9l10.1-44.9-5-2c6 0 14.6-2 19 1Zm-33.1 80.9 6.7-30.9-28.5-4.9-7 30.9 28.8 5ZM293 572c-5.3-.2-26.6-6.1-30-3.6l-6.7 26.3.2 4.3 30.6 5.9 6-33Zm-4 34c5.4 0 29 7.4 32 5.5s1.9-4.1 2.3-5.7c2.3-8.7 2.5-18.2 5.2-26.9-.9-1-2.1-1.4-3.3-1.7-4.6-1.3-20.3-4.1-24.9-4.2-7.5-.2-5.6 6.3-6.6 11.2-1.5 7.3-3.4 14.5-4.8 21.7Zm68 13c-.4-6.8 5.6-29.2 3.5-34s-2.1-2.5-3.2-2.8l-25.1-3.1-7.1 33.8c4.5 1.5 9.3 1.8 13.9 2.6s3-.5 4.3-.3c3.7.7 8.9 4.7 13.7 3.8Zm44.9-28.9L364 584l-3.9 35.9c5.7.8 34.8 8.7 37.9 6.7s1.7-15.1 2-18.9 1.7-4.4 2-7.1.2-10-.1-10.4Zm.2 38.8 34.9 6.6c4.5-3.4 2.4-8.5 3-13 1-7.7 2-15.4 2.9-23.1l-.8-2L405 591l-2.9 37.9ZM250.9 601l-28-4.6c-1.6 4.5-9.4 36.1-7.9 37.6l28 2.5 1.5-2.5c-.3-4.9 8.6-30.8 6.4-33Zm34 7.1-30.8-5c.7 5.5-8.5 31.4-6.6 34l31.4 3.8 6-32.8Zm4.8 2.1c-1.2.3-2.2 1.3-2.5 2.5l-4.8 28.3c10.9 1.6 21.6 4.2 32.6 3.5l5.5-28.6c-.9-1.3-28.2-6.5-30.9-5.8ZM353 651c1.8-9.1 4.1-18.7 2.6-28-5.3-1-28.1-7.9-31.6-5.5s-6.3 26.2-5.5 27.6 2.2 1.5 3.3 1.8c9.4 2.3 21.6 1.1 31.2 4.2Zm46-20c-13.5-1-26.3-7.1-40-6l-2.9 25.9c6.1.7 37.7 7 41 4.7L399 631Zm-158.9 13.1c.5-.7 6.5-1.7.4-4.1s-24-4-26.5-2.5c-2.2 4.1-3.6 9.7-4.7 14.3s-4 18.7-2.8 20.3c9 1.5 18.4 3.7 27.6 2.5 1.2-.7 6.6-22.1 6.9-25.2s-1-5-.9-5.3Zm37.9-.1c-10.6-.6-21.2-3.7-31.8-2.8-1.5.9-9.1 33-8 34.7l32.9 3.7L278 644Zm28.9 39.9 7.1-30.5-.4-4.5c-1-1.3-31.2-4.9-32.5-3.8L275 681l31.9 2.9Zm42 6 3.7-35.9c-.7-1-3.8-1.6-5.2-1.9-6.4-1.1-19.9-2.9-26-3s-2.6.1-3.7.8c-3.4 2.2-4.8 26.6-7.5 31.9l.7 2.8c.7.9 1.6 1.1 2.7 1.4 3.8.9 34 5.1 35.3 4ZM233 678c-5.1 0-10.3-.6-15.4-1.1s-11.6-4.4-14.4 1.8l-6.1 33.2c4.7.5 25.8 4.7 28.4 2.2s8.8-34.7 7.5-36Zm37 5-29.6-4c-1.2-.1-2.1.3-3 1-3.5 2.6-7.4 30.2-8.4 36.1 6-.7 30.3 5.2 34.1 2.6l6.9-35.6Zm-4 37 33 3.5c2.4-4.4 8.3-33.1 6.5-35.6l-32.5-3.8-7.1 35.9Zm44.6-31.9c-1.7.6-1.8 3.2-2.2 4.9-1.6 7.1-5 20.9-5.4 27.7s-.4 2.3.4 3.4c1 1.4 31 5.7 35.1 5.9 6.2.4 6.6-.5 7.5-6.5s1.7-16.2 2-23 .7-7.6-4.6-8.5c-10.7-1.7-22-2-32.8-4ZM188 752c9.8-.3 19.3 3.4 29.1 1.6 1.4-6.4 3.5-12.9 4.7-19.4s-.8-3.6-.4-5.3c.6-2.3 4.9-6.1 2.1-10s-25.6-3.9-27.6-2.5L188 752Zm40.6-32.9c-1.4.5-1.2 1.3-1.6 2.4-3.4 8.3-3.8 23.4-6.6 32.5 1.1 1.2 2.6 1.6 4.1 1.9 6.6 1.3 20.2 2.9 27 3.1s2.4.2 3.5-.5c1.9-1.3 2.7-13.3 3.4-16.6 1.3-6.3 4.7-12.6 3.1-19-.5-.8-15.8-2.6-18.2-2.8s-12.6-1.7-14.7-1Zm64.3 43.8 5.7-34.9c-1.5-2-28.4-5-32.6-3.5-1.5 1-7.2 32-6.5 33.5s3.5 2.7 5.1 3c4.9.8 13.9 1.7 19 2s6.3 0 9.4-.1Zm46.9 5.9c2.8-1.7 2.8-21.8 3.2-26.2s3.2-5.6.5-8.6l-41.4-5.8c-.9 9.7-6 23.3-6.1 32.5s1 3.9 3.5 4.3l40.3 3.9Zm-129.9 21.1 5.7-32-27.6-2.5c-1.5 1-7.1 28.3-5.5 30.6s26.2 4.9 27.4 3.8Zm39 6 5.7-32.9-34.7-4.5-6.5 31.6c.9 1 2.1 1.4 3.3 1.7 5.4 1.6 20.7 3.6 26.9 4.1s3.5.4 5.2 0Zm9.7-32.8-1.5 1.5-4.7 31.3 2.3 1.8 31.3 4.8c1.5-1.1 6.6-34.2 5.5-35.7l-32.9-3.8Zm38 4c-2 .7-2.8 8.3-3.3 10.7-.8 4-4.4 23-2.9 25.2l45.6 8.5c2.7-5.4 1.4-11.4 2-17.1s2.7-18.9 1.5-20.6l-42.9-6.9ZM180 789c.5 6-6.5 23.5-3.5 28s24.6 5.8 26.6 4.5l5.5-27.6L180 789Zm68 10c-6 1-31.4-6.4-35-4.5s-1.5 1.9-1.9 3.1c-1 2.9-4.9 23.9-3.9 25.3l34.9 6.7c1.3-.7 1.5-1.9 1.9-3.1.9-2.6 5.1-26.5 4.1-27.4Zm37.9 7.1-33.9-5.7c-1.8 1.2-6.3 28.2-5.1 29.9 4.8 1.4 31.7 8.1 34.2 6.2l4.8-30.5ZM334 847c.2-3.4-.4-7.1 0-10.4s1.7-3.3 1.9-5.1c.5-4.6-.6-9.3 1.1-13.9l-1.4-2.6-46.4-7.8-5 28.4c0 1.1.5 1.9 1.3 2.5 1.7 1.3 34.8 8.1 39.3 8.7s6.2.3 9.3.3Zm-132.1-21.9c-4.9.1-24.9-5.7-27.7-2.8s-7.9 33.7-8.1 37.4-.5 3.1.9 4.8 5.4 3.5 6.3 3.4c1.7-.3 3-4.4 6-3.9s3.2 4.6 4.4 5c1.9.7 9.5 1.9 10.8.1l7.4-44Z" class="st0"/><path d="m806 649 1 1c1.5 5.1 6.5 12.9 12 14 .2.5.7 1.7 1 2l4.1 30.4c6.3 20 9.7 41.3 13 62 .8 4.8 3.1 10.1 3 15.1s-2.1 4.7-2.1 6 1.9 2.4 1.8 3.8c-.2 2.4-9.6 19.8-11.6 23.4-6.3 11.5-17.5 26.1-21.9 38.1-2.7 7.3-1.5 3.6-5.1 8.9s-2.2 7.7-3.3 10.7-2.5 1.6-3.3 2.7-3.1 7.7-3.6 9.9c-5.2.9-21.2 5.8-24.6 3.1s-.7-5.6-4.9-5.1-3 3.8-4.5 5.6c-2.7 3.2-7.2 2.5-11 2.5-1.6-7.5 2.4-5.9 4.8-8.2 2-2 1-8.7 1.2-11.8 1.3-19.7 10.3-45.6 16-65 .6-1.9 1.6-3.4 2.2-5.3s1.7-13.4 3-14.5 3.7-.2 5.2-1.1c2.3-1.4 1.7-8.9 1.7-11.7s-1-2.3-1-2.4c0-5.9 5.7-28.2 7.7-34.8s2.8-3.5 4.3-5.6c2.8-3.8-.8-6.1-.9-9-.4-10.7 3.1-22.7 4.8-33.2s.7-15.7 2.1-21.7 3.4-1.1 3.1-3.2l-2-9.6 8 3Zm-3.1 72.9c6.8-17.1-8.6-17-3.7 0h3.7Zm3.7 7.2c-3.1 1-3.3 13.9 4.6 11.8 6.1-3 1.5-13.7-4.6-11.8Zm17.1 51.1c-3.6 1-3.8 7.5-.7 9.4 7 3.6 7.8-11.4.7-9.4ZM676 779l10.1 2.6c2.4 6.4 1.3 13.4 2 19.8s1.9 3.6 1.9 4.6c1.1 13 1.5 29.1 2 42.5.4 10.1-1.2 22.4 0 32.1s2.4 4.4 3 7.5l-12 4c-8.1.2-14 3.5-21.3 2.8s-3.6-.2-8.3.2-7.7-.1-11.5 0c0-.2-1-1.3-.7-2.3.4-1.9 2.4-3.6 1.6-6l-3.4-2.6c-3.5 3.6-2.3 6.6.5 10-3.3.8-5.9 2.2-9.5 2.1s-5.2-2-7.5-2.1c-4.8-.3-3.1 2.4-4.9 4.6s-8.9 1-12.5 1.5-2.7 1.9-4 1.9-3.7-1.8-6.5-2c-1.5 4.2-3.5 4.1-8 4 .2-.2 0-1.4.5-2 1.9-2.1 4.8-2.2 7.5-2 2.5-7 1.8-2.8 5.7-5.3s4.8-5 6.3-6.2c3.5-2.7 9.4-2.8 9-9.5 5.2-1.9 7.2-8.3 11-12.5-11.3-5.8-23-15.6-24.9-29.1-3.1-22.6 22.5-32.9 40.9-26.4.4.1 2.1 2.1 5 3l-.5 10c1.9 0 5.7-6 6.4-7.6s-3.7-2-4.9-2.4c.4-1.4 2.6-3.1 3-4l5 2 19-33Zm-49.6 75.6c3.8 2.5 5.5 1.6 8.1-1.7l10.2-23.6c.7-11.9-21.1-12.2-28-6.4s-4.1 10.3-3.6 13.5 10.1 16.2 13.3 18.2Zm42.8-34.3c-1.9 1.9-1.6 7.9.7 9.3 5.9 3.6 8.5-9.1 3.3-10.4-1.3-.2-3.2.2-4 1.1ZM878 730c0 1.4 15.2 16 17.7 20.8 1.2 2.4 1.1 5.3 1.5 6s3.4.6 4.3 2.2 1.2 9.5 4 12 5.5.6 7.3 2.2 8.8 20.3 9.2 23.3c2.7 20.7-5.6 40.2-23.9 50.4-.5.3-2.6.2-4.3 1.1s-5.7 3.8-5.7 5.9c-.9.1-2.1-.1-3 0-2.1.3-6.9.6-8.3 1.2s-1.8 2.8-2.7 3.4c-1.9 1.3-5.9-2.6-6 2.4-.8 0-2.1 1.8-4 .6-4.7-6.1-2.3-13.9-3.1-20.9-1.9-16.3-8.4-37.1-9-52.1-.4-10.2 1.7-13.3 5.1-21.5s4.9-9.9 7.9-15.6 6-15.8 8.7-19.3 2.8-1.8 4.4-2.1Zm18 55c4-.4 3.7-10.1 1.5-10-3.3 2.8-2.8 6.3-1.5 10Zm-.1 29.1c-5.3-4.3-6.3 11.9-3.4 11.9 3.6-1.4 6-9.8 3.4-11.9Zm7.6 11.9c-2.4.8-2.5 11.8 1 11 3.1-1.4 4.3-12.6-1-11ZM759 601c-1 3.5 3.4 5.9 3.9 7.7s-6.5 11.2-8.2 14.4c-3.9 7.3-4 9.2-9.1 15.9-7.5 9.9-12 21.4-20.6 31.9l-2.6-5.9-2.9.9-1.5 8.4 5 .6c-4.2 10.3-9.4 18-15.4 27.1-1 1.4-1 3.3-1.7 4.8l-4.7.3c-.9 8.7-2.5 13.7-7.8 20.6s0 1.8-2.3 1.3c-.7-5.2-2.2-10.4-2.9-15.6-1.8-15.4-2.5-31.5-3.1-46.9s-6.7-28-.5-37.4 6.8-8.2 9.4-11.6c10.9-13.8 23.1-26.6 35-39.5 2.2 0 3.5-.3 5.6.9s8.7 10.5 12.4 13.6 9.5 7 12 8.5Zm-31.4 41.1c-4.3.8-5.1 13-.1 13s4.6-13.8.1-13ZM700.5 691c-2.5.8-2.3 9.8 1 9 2.9-1.3 4.1-10.6-1-9Z" class="st3"/><path d="m806.8 442.3.7 1.6 2.5-.9c-1.2 5.6.3 11.9 2.3 17.2 4.6 12.1 14.5 21.9 26.8 26.2s17.7-.7 17 7c-.7 6.5-8.3 3.6-11.5 4-14.5 1.9-28.2 15.3-32.7 28.8s.6 21.8-10.8 15l-2.5-19.2c-4.9-5.1-8.4-11.6-14-16s-10.2-6.7-14.7-7.3-7.6-.7-11.2-1.6l-2.6-7.6c.4-2.2 20.9-2.1 23.5-7.5l1 4c3.3-1.8 2.9-5.2 4.5-7.5s4.8-3.4 6.5-5.5 2.5-6.2 4.5-8.5l4 1.6c-3.6-7.5 1.1-13.6 1.2-21.3l5.6-2.4ZM240.3 278.7c3.4 3.1 14.6 7.4 16.2 9.3s-3.6 1.9-1.5 4 2.8-2.9 3.7-3.1 7.4.1 7.7.3c1.9.6.4 4 6.6 1.8v6.4c-.1 0-1.6 1.5-1.6 1.5-21.9.3-33.1 10.2-41.4 29.4s-1.7.8-1.7.9c-.2.6.9 2.1.8 3.3-.4 3.8-1.7 7.5-1 11.5-2.5-1.6-4.4 1.3-6.3.9-4.8-1.1-5.1-15-3.7-18.9-5.7 0-3-4.2-6-7.5l2-.5v-2c-5.7 1.7-6.2-5.1-7.2-5.8s-2.6.2-3.6-.4-1.7-4.8-3.9-5.6-3.3 0-4.6-.4c-6.7-2.4-12.1-5.6-19.8-5.2l-1.9-8.6c19.7.5 28.5-6.5 39.6-20.9s2.2-4.1 3.7-8.2-.7-5.7 3.7-4.8c.4-2.4-.3-1.6-1.9-2.4l1-6.9c11.1-7.4 7.8 2.8 8.9 8.8s6.7 18.2 12.3 23.2Z" class="st1"/><path d="M804 874c-3.3.4-3.6 0-2.8-3.3 3.5-14.2 19.7-36.3 27.6-49.4s9-19 12.6-21.4 2-1.2 3.6-.9c0 2.1 0 4.1.3 6.2.5 3.1 2.4 6.9 2.7 8.8 1.7 9.3 2 20.8 3 30.5s3.4 13 1.5 19.6c-10.8 5.8-23 5-34.8 7.2s-13.2 2.3-13.8 2.7Zm28-36c3 2.2 7.6-5.8 3.5-7s-5.1 5.8-3.5 7Z" class="st3"/><path d="m267 516 5 2-10.1 44.9c-1.2 1.2-28.4-3.4-29.5-4.9l7.6-28.1c9.5 1.2 3.2-9.7-1.1-6.6s-.6 3.6-.9 4.6c-3.1 8.7-5.9 17.9-7.2 27.3-1.9 6.1-16.7-1-21.7-.3-1.6-5.7 4.6-5.2 3-11 5.3-7.7 10.9-15.1 18.5-21 12-9.2 22.8-6.9 36.5-7Zm69 2c.1.3-.4 1.2.2 1.8.9.9 4.5.2 4.6 3.5l-10.9 50.6L297 569l10.1-49.9c3.2 1.2 7.4-1.9 8.9-2.1 6.7-.9 13.4 1.7 20 1ZM235 876c-10.1-.8-21.3-.6-31.4-2.1s-5.2-1.7-5.6-2.9c-2.2-6.9 7.2-33.5 7.2-42.3.2-.8.6-1.3 1.4-1.6 2.3-.8 27.8 3.9 31.6 5.2s2.5.6 3.3 1.7c.9 1.5.6 3.8.5 5.5-.5 8.2-2.7 21.6-4.3 29.7s-1 4.8-2.7 6.8Zm43 4c1.3-5.1 3.5-35.9 6-37.5s2.3-.6 3.5-.5l44.4 8.2c2.9 1.8-.7 25.7-1.9 29.8-3.8.3-7.7-.3-11.5 0s-2.3 1-2.4 1c-7.6.1-17.5-.8-25-2s-5.8-2-6.5-2c-1 0-.3 1.8-.5 2-.5.6-4.8 1-6 1Zm19-363c-.8 4.6 7.5-.3 7 3.5l-9.9 46.9c-1.3 1.9-25.4-2.6-29.2-4l9.3-42.7c1.7-4.2 6-2.3 9.4-2.7s2.3-1 2.4-1c3.6-.3 7.4.2 11 0Zm-25 361c-7.1 1.6-23.1-.5-31-1-1.3-1.4-1.7-2-1.6-4 .4-11.3 5.3-25.6 5.8-37.3.3-1.3 1-1.7 2.3-1.7 2.7-.2 24.7 4.4 28.6 5.5s2.9.6 3.5 1.5c2.1 3.2-2.6 20.9-3.5 25.6s1.3 10.2-4.1 11.4Z" class="st1"/><path d="M829 676s.8.9 1 1c.6 2.8 3 5 5 7s.6.7 1 1c0 2.9 2.6 3.6 4 5s2.2 2.1 3 3c6.9 7.6 13.8 14.6 21 22s.6.7 1 1c2.2 5.3 1.8 7.5.3 12.8-3.2 10.8-10 22.6-14.3 33.2-.3 0-1.5 1.2-2.4.9l-1.1-.9c-1.8-3.2-1.8-6.8-2.5-10-5.4-24.4-12.3-48.3-17.6-72.9-.4-1.9-1.5-3.5 1.6-3.1Z" class="st3"/><path d="M139 818c4 .3-.1-4.3 5-3v3c7.2-4.5 18.4 1.6 26.9 2.1L162 864c-9.4-3.4-18.5-2.7-24.6-13.9s-.2-22.7 1.6-32.1Zm20-106 32.9 3.1c1.2 1.2-4.2 27.4-5.2 31.1s-.5 3.8-2.3 4.7c-2.3.8-26.8-1.1-29.6-2.1s-2.6-1.9-2.7-3.8c2.9-10.1 4.7-22.4 7-33Zm2-7c.3-.5-.3-2 1-3 4.7-3.5 1.2-3.2 3.5-9 3.2-8.1 5.7-10.5 5.5-20s0-.7 0-1c3.1.2 6.4-.3 9.5 0 4.9.4 13.4 1.2 18 2s2.6.9 3.1 2c.8 1.6-7.9 29.6-7.8 34.3l-2.2 1.7c-8.9-2.1-19.3-1.1-28.1-3s-2.7-1.6-2.5-4Zm-10 47 33 2-5.2 30.3c-.2.9-.6 1.3-1.4 1.6-1.9.7-30-3.8-30.4-5.4 2.9-3.9.9-6 1-9.5.1-6.7 2.4-12.5 3-19Zm43-158c.1-.2 2.9-2.4 3-2.5 2.5-1.1 22.2 2.8 22.9 5.1l-8.9 35.9-23.9-2.7c-1-1.6 1.4-11.9 1.9-14.9.8-5.4 1.9-16.7 5-21Z" class="st1"/><path d="M184 634c3.7.1 25.4.9 26 3.5.5 2.1-2.5 2.1-2.9 2.6s1.2 7.1.8 10.3-4.9 19.6-6.4 20.7c-8.4 1.2-17.8-2.1-26.6-2.1 1.4-2.2 0-6.2 0-7 1.1-10.9 6.9-19.1 9-28Zm-40 157c2.5-.8 1.6-4.6 2.9-5.6 2.8-2.1 24.7 2.8 29.5 3.5 1.8 1.2-2.5 22.3-3.7 25.4s-.9 1.9-1.8 2.3c-1.7.8-25.3-4.1-29-5.5.5-.9 1.6-16.8 2-20Z" class="st1"/><path d="M388 946c1.9 0 5.3.6 6.5-1 1.7-8.4 2.8-14.8 8.5-21.5 10.8-13 24.5-15.6 37.5-4.5s6.1 10.2 6.5 16-2.4 3.7 2 5.7v1.3c-11 .9-25.8 3.2-36 3v-2l23.9-3.1-1.8-12.4c-1.5-2.7-9.6-6.3-12.7-6.4-7.4-.3-21.3 14.5-18.3 22.8 2.8 1.5 5.9 1.1 8.9 1.1v2c-3.2.8-6.7-1-9.4-.9s-13.6 7.4-15.6 0Z" class="st3"/><path d="M202 563c7.5-9.3 16.2-1.8 26-2l-6 29.3c-.4 1.2-2.3 1.5-3.3 1.4-2.2-.1-15.3-2.8-17.3-3.6-3.6-1.4-4.6-3.4-4.4-7.1s3.9-12.5 5-18Z" class="st1"/><path d="M616 879c.4 6.7-5.5 6.8-9 9.5s-4.5 5-6.3 6.2c-3.9 2.5-3.2-1.6-5.7 5.3-2.7-.2-5.6 0-7.5 2s-.3 1.8-.5 2c-6.4 6-23.8 8.4-32.3 12.2-6.6 3-8 7.9-16.7 10.3s-14.4 1.2-21.1 2.9-9 5-10.6 5.3c-6.3 1-15.7-1.8-22.8-.6s-5.6 3.2-8.3 3.7c-8.1 1.6-18 3.6-26.3 4.2v-1.3c-4.4-1.9-1.9-4.3-2-5.7 5 .5 12.7 2.7 17.4 1.9s10.5-2.7 11.9-3.1 1.4-3 3.6-3.4c3.3-.7 11.9 2.2 15.1 0s.7-2.4 1.7-2.6c1.6-.3 3.9 1.2 5.8 1 5.4-.3 15.1-6.7 22-2.9 1.3-4.6 2.9 0 4.8-.2s4.1-1.6 4.9-1.9.9-1.9 1.4-1.9c.9 0 3 1.4 3.4 1s-.5-2.3.6-3.1c2.9-2.1 12.2-2.9 15.8-6s1.5-3.7 1.6-3.9c.5-.5 3.1.8 4.3.7 2.4-.3 12.6-5 13.6-7.2l-4-2.5c1.8.2 8.4-.4 9 0s-.4 1.8.6 2.1c5.1 1.1 4.9-2.9 6.9-4.9s11.2-4.5 11.4-7.6l-1-5.5 6 4c.7-2.4 5.4-7.8 7.5-9s3.5-.6 4.5-.9Z" class="st0"/><path d="m333 882 3-30c4.4-.7 6.6 1.3 10 3 0 1-.1 2 0 3 .6 6.1 6.5 22.8-1 24s-8.3 0-12 0Z" class="st1"/><path d="M865 716c3 2.6 1.2 1.5 2.9 4.3s3.9 2.3 4 6.3l7.1.4c.3 1-1 2.6-1 3-1.7.3-3.3.6-4.4 2.1-2.7 3.5-6.3 14.6-8.7 19.3s-5.2 9.2-7.9 15.6c-1.4-3.4-2.1-4.8-6-5 4.3-10.6 11.1-22.4 14.3-33.2s2-7.5-.3-12.8Zm3 18c-2.8-.5-1.6.8-2.3 2.2-1.2 2.5-2.2 5.2-3.2 7.8 5.3-1.6 6-4.7 5.5-10Z" class="st2"/><path d="M346 884c.3.3 1.6 0 2.5 1 3.2 3.8-.9 13.8.7 19.3s4.1 2.5 4.7 4.3-.4 5.3.3 6.2 14.9 4.1-.1 7.6l10 14.5c-2.4-1.1-5.5-2.1-8-3-5.7-10.4-5.6-19.6-10.8-29.7l.8-20.3Z" class="st0"/><path d="M364 937c1.4.7 2.5 2.6 3.7 2.9 2.1.5 4.2-1.2 5.7-.8s1.2 2.8 2.3 3c3.5.7 9-4.3 11.3 3.9-3.8-.2-13.4-.5-16.3-1.2s-12.7-6.1-13.3-6.7c-1.8-1.8-1-3.3-1.4-4 2.5.9 5.6 1.9 8 3Z" class="st3"/><path d="M642 895c-.7 6.2-15.1 2-19 5v-6c2.3.1 4.2 2 7.5 2.1s6.2-1.3 9.5-2.1c-2.9-3.4-4-6.3-.5-10l3.4 2.6c.8 2.4-1.2 4.1-1.6 6s.8 2.1.7 2.3Z" class="st2"/><path d="M162 702c-3.8-7.8 3.9-14.5 5.6-19.9s-.8-7.4 3.4-9.1c.3 9.5-2.3 11.9-5.5 20s1.2 5.4-3.5 9Z" class="st0"/><path d="M864 715c-7.2-7.4-14.1-14.4-21-22 2.4-.5 3.1.9 4.5 2 2.5 1.8 14.9 12.4 15.7 14.3s.9 3.7.8 5.7Zm21 139c-2.3 7.2-10.9 6.7-17 7 .1-5.1 4.1-1.2 6-2.4s1-2.7 2.7-3.4 6.2-.9 8.3-1.2Zm-66-190c-5.5-1.1-10.5-8.9-12-14 6.9 6.6 7.6 3 12 14Zm79 183c-3 5.6-4.1 6.1-10 7 0-2.1 3.9-4.9 5.7-5.9s3.8-.8 4.3-1.1Z" class="st2"/><path d="M291 879v2c-2.6 0-6 .9-7-2 .2-.2-.5-2.1.5-2s3.9 1.6 6.5 2Z" class="st0"/><path d="M720 886v2c-3-.7-7 2.4-9 0 3.8-1.3 4.7-1.8 9-2Zm115-202c-2-2-4.4-4.2-5-7 2 1.7 6.1 1.6 5 7Zm5 6c-1.4-1.4-4.1-2.1-4-5 1.3 1.1 4.8.7 4 5ZM731 885c-.2.3.2 1.4 0 2-1.4.6-2.7-1-3-1l3-1Z" class="st2"/><path d="M407 522c1.1 7.2-1.3 13.9-1.9 20.6-1.1 12.5-1.4 25.6-2.1 38.4s1 6.1-3.4 5.9c-10.1-.4-22.6-5.2-33-5.9 0-1.5-2.6-3.8-2.7-4 0-.7 1.7-5.8 1.9-7.6 1.6-15.3 2.5-31.1 6.1-45.9l8-2.5c9.3.7 17.6 1.1 27 1Z" class="st1"/><path d="M407 522c4.9 0 13.3 2.6 15-3h1.5l2.5 5c.4.4 3-1 4-1 .4.7 1.7.7 2 1 3.2 2.6 3.8 2.7 8 4-2.3 0-5.3 2.9-7.7-2l-22.3-1-5 59c-.4-1-1.4-2.1-2-3 .7-12.7 1.1-25.9 2.1-38.4s3-13.5 1.9-20.6Zm-27-1-8 2.5c-3.6 14.8-4.5 30.6-6.1 45.9s-2 6.9-1.9 7.6h-1l6.1-54.3c-.8-3.3-16.9-.2-20.1-2.7v-1c9.3.9 21.2 1.3 31 2Z" class="st4"/><path d="M623 210c3.5 1 2.1-1.9 4.5-2l1.4 3.4-6.9 3.6v-4.9l-3-1c3.5.3 1.9-3.4 4-4v5Z" class="st3"/><path d="M612.2 182.8c1.6 1 4.6-1.2 3.8 2.2l-11 1c-.5-3.9 5.3-1.2 4-6h1.5c1 .4 1.1 2.4 1.7 2.8ZM425 508c-1.9 3.1-.8 5.8 0 9l-4.9-1.1c-.6-1 .2-2.9-.1-4.2s-2.4 0-2-1.7l7-2Zm-16-76v7c-3.3 1.2-2.5-4.5-3-5l-5 1v-3h8Z" class="st2"/><path d="m575 272 2.9.9 1.1-1.9 2 5.5-5.1 1.1-.9-5.6z" class="st3"/><path d="M473 381c1.7 1.7-2.7 8.3-6 7-.7-2.3 3.8-9.2 6-7Zm-47 126-4-.5 2.5-1.5 1.5 2z" class="st2"/><path d="M531.7 769.2c23.4-3.6 40.9 11.5 31.4 35.4-8 20.2-35.1 23.2-42.7 1.3-1.3-3.8-4.7-20.7-4.1-24 1.2-6.8 8.9-11.7 15.3-12.7Zm22 15.1c-6.4-7.1-19.4-7-27.2-2.4-2.6 12.1.5 30.7 16.1 30.1s18.4-19.7 11.1-27.7ZM501 860c-.2-8 9.8-4.1 14.3-1.8 20.8 10.6 14.7 56.8-15.6 51.6-7.8-1.3-23.1-16.2-23.7-23.3s0-10.1.2-10.7c1-5.5 13.7-18.6 19.2-17.8s3.2 2.6 5.6 2Zm-10.4 10.6c-4.3 3.6-7.3 5.6-7.6 12-1 21.1 31.2 25.3 33.8 1.8 1.8-16.6-8.4-26-23.6-16.6s-1.8 2.1-2.6 2.9ZM387.3 759.7c-.2-.3-3-6.9-3-7.3-.1-1.3 1.2-3.2.6-4.2s-4.2-.6-4.9-6.6c-1.6-14 2.1-22.9 14.7-29.3 36.8-19 57.9 32.5 22.6 50.6s-16.7 4.8-25 .4-4.7-3.1-5-3.5Zm33.3-10.1C434.5 735 425 711 403.5 715s-13.2 7.4-14.5 9.4c-5.3 8.2-.2 26.8 8 32 7 4.4 18.5-1.4 23.6-6.8Zm31.2 28.7c8-1.2 16.2.5 21.2 7.2s3.3 23.6-.1 31.8c-5.7 13.5-17.3 23.2-32.2 16.5-23.2-10.4-10.8-52.5 11.1-55.6Zm-1.1 6.9c-14.4 3.3-19.9 34-7.1 40.7 22.4 11.6 38.7-47.8 7.1-40.7Zm48-59c11.9-2 23.4 5.5 23.3 18.3 0 12.9-22.4 27.3-32.1 16s-4.8-32 8.7-34.3Zm-104 129c16.1-3.3 33.7 13 22.7 28.7-8.7 12.4-34.5 10.2-38-4.9s-1.1-14.2 1.1-17 13-6.6 14.2-6.8Zm0 8c-17.4 3.6-1.5 24.5 11.2 17.2s-.7-19.3-11.2-17.2ZM571 901c-14.4-1.4-21.8-20.1-17.2-32.7 3.9-10.5 9.8-15.2 21.2-12.9 4.3.9 13.4 7.5 13 12s-4 1-3.1 3.5l5.9 1.1c.1 6.7.7 13.8-2.4 20-1.8 3.6-5.7 5.9-8.5 9-.6-.4-7.2.2-9 0Zm-6.7-37.7c-8.3 6.9-1.1 34.3 13.5 28s5.6-25.9-3.7-28.8-7.6-.9-9.8.8Zm-175.6-70.1c9.8-2.3 21.2 5.8 20.2 16.2s-9.7 13.9-16.5 13.7-19.6-13.3-14.4-22.5 9.1-7.1 10.6-7.4Z" class="st3"/><path d="M397 664c-.1 0-1.1 1.5-2.4 1s-.8-3.9-3.6-3v3c-2.3 0-4-1-6.3-.9s-14 3-14.7 3.4c-1.1.7-1.7 3.7-3 5-1.8 2-4.7 2.2-6.5 4.5-3.9 5.1 0 12.2-6.5 14 0-.1-1.5-.4-1.8-1.7l3.7-34.9 39.4 4.8 1.7 4.8Z" class="st1"/><path d="M349 800v-1c7.2-3.3 8.9-15 7.5-22s-6.2-10.2-4.5-17c6.9-1.7 11.2 7 13 12.5 3.1 9.1 2.4 19.4-4.6 26.5s-10.3 8.5-11.5 1Z" class="st3"/><path d="M663 778c-.4.3-.6.6-1 1-.7.7-1.5.6 0 2-1 5.8-7.5 22.8-10 29s-2.6 2.6-3 4h-1c-2.9-.9-4.6-2.9-5-3l5-.6c-1.8-4.4 3.5-5.5 3.8-6.9s-1-2.4-.7-3.7 2.9-7.1 3.1-7.5 8-4.4 1.8-5.2l-2 3c-1-3.8 2.3-5.1 3.5-8 4.8-12.2 9.7-37.6 4.7-49.7-2.1-5-8.7-13-14.2-8.3.8-1.8-.4-7.6 4.7-5.3s14.3 12.4 15.9 18.2 1.5 8.5 1.4 9.5c-.2 1.9-2.3 3.2-2.8 5.2s.2 6-.3 8.7c-1.1 5.7-4.7 11.4-3.9 17.6Z" class="st0"/><path d="M379.7 669.2c13.4-2.1 16.9 13.2 6.6 19.6-16.2 10-21.5-17.2-6.6-19.6Z" class="st3"/><path d="M350 774c0 8.2 0 16.6-1 25v1l-2 .5v1.5c3.4.3 3.5 10.4-1 11s-4.1-.2-6 0l3-39h7Z" class="st1"/><path d="M498.6 825.3c12-.8 18.8 20.2 2.9 19.8-12.3-.4-14.1-19-2.9-19.8Z" class="st3"/><path d="M352 734c.9 4.6 8.2 9.3 8 10.5-5.6 2.8-6.4 6.5-8.2 12.3l-2.8.2c.9 3.3 1.7 8.2 1.8 11.6s-.8 2.1-.8 2.4c-2.5.3-6.7 0-6.7-3.3l3.7-33.1 5.1-.6Zm-6 82c1 7.2.9 19.9-1 27s-2.1 6-3 6.6l-4.9-.7c-1.1-1.2 1-30.2 2.4-31.9l6.5-1Z" class="st1"/><path d="M601.7 773.2c15.8-4.7 16.6 19.1 1 15.6s-7.4-13.7-1-15.6ZM346 858c-.1-1 0-2 0-3-.3-4.6-1.5-7 1-12 15.4-3.5 17.1 20.4-1 15Z" class="st3"/><path d="M354 694c.8 7.3-1.6 6.6-2 11.6s1.8 7.2 1.7 10.1c-.2 4.2-2.2 9.9-1.7 15.3l-5-.5v-2c.7-9.2 1.9-23.3 4-32.1s-.9-2.8 3-2.4Zm45-30c-.1-8 12.8-2 17.4-2 1.2.2.5 1.4.6 2l-3.5 3.1c-3.6-1.2-7.4-.7-11-1.2s-2.7-1.8-3.5-2Z" class="st1"/><path d="m605 538-3 11c.9 0 1.4.5 2 1-1.9.9-2.8 3-3 5-2 1-3.2 2.4-4.1 4.4-3.8 8.6-6.2 21.5-9.2 30.8-4.6 14.2-8.8 28.4-13.3 42.7-1.7 5.6-7.8 16.4-7.4 22.6s6.5 6.8 1.3 10.3h-3.4v-4.9c-6.8 4.7-6.4 37.1-20 26.5l-.9-2.8c3-5.4 4-12.1 6.4-17.7s5.8-8.4 6.3-10.8-.8-3.5-.4-6.3c1-6.5 9.6-23.3 12.1-31s5-19 8-28 4-7.4 4.3-9.8-6.9-7.8-.4-10.2l4.6 1c-1.6-5.2 10.7-19.7 7.9-22.9l-4.9-2.1c.1 0 .2-2.1 1.4-3 4.8-3.9 10.4-4.6 15.6-6Z" class="st2"/><path d="M465 633c-.6.7-1.9 1.7-3 3s-1.9 2.1-3 3h-1l-16-2 3.9-38.5c1.5-1 24.9 2.4 25.6 3.5 2.1 2.9-1.3 5.6-1.6 7.7s1.1 4.1 1 5.9c-.5 7.8-1.2 11.4-6 17.5Zm9-73c6.3 0 12.3.4 18.5.4s3.9.6 6 .7c4 .1 3.4-.7 9.1-.1s16.4-1.7 23.2-1.7 2.2 1.5 3.6 1.5c4.1 0 9.5-4.6 11.2 3.2 1-6.1 4.5-3 9.2-3.3s5.3-.5 8.3-.7c-.4 3.1-6.1 5.7-9 7s-11.2 4.1-12.5 4.1c-2.5 0-6.7-3.2-9.9-3.1s-.6 1.6-1.4 1.9c-3.5 1.6-9.7.2-13.7 0s-7.4 0-12.1 1-7.7-2-11.4 0v-3c-4.5 3.7-11.4.9-17 1-1.2-4-1.2-4.6-2-9Zm-46 96c-2.8.5-7.3 3.7-9.5 3.9s-17.8-2.3-18.4-3l1-21.3 6.4-2.6c5 2.3 27.4 3.8 30.1 5.9s.9 10.6-.5 12.5-6.4.1-6.1 4.6c-1 0-2.1-.1-3 0Z" class="st1"/><path d="M511 598c-.1 4.7 3.7 7.7 3.9 12.6s-1.8 6.4-1.8 9.8c0 18 4 36.2 3.9 54.1s1.6 4.9 1 7.5c-4.5-.2-7.2-1.4-8.7-5.8s-3.2-21.4-3.3-25.7c-.2-12.5-1.2-24.6-1-37.1s3.5-9.9-3-9.4c.2-.2.2-1.7 1-2.5 3.1-3.3 3.9-2.9 8-3.5Zm-49 38 4.1 3.4c-.3 5.2 9.4 28.8 7.8 31.5s-6.3 0-7.7-2.6-6.3-21-7-25.1-.4-2.8-.2-4.2c1.1-.9 2.1-1.9 3-3Z" class="st2"/><path d="M613 702h1c.5 5 6 3.5 9.3 4.2s2.6 1.4 4.3 1.7c3.9.8 11.3-.7 13.7 4.3s1.4 7.1-2.3 6.8c.6-3.3-.3-5.6-4-6.6s-5.5 2.7-9.3 1.6-2.5-3.3-4.8-4.4c-5.3-2.6-13.3-1.4-16.9-7.6 3.6-.1 5.7.3 9 0Z" class="st0"/><path d="M481 603c.1 1-.1 2 0 3 .2 1.7 1 4.5 1 5 0 2.3.3 5.9 0 8-4.4.5-5.3 6.6-10 6l3-22h6Zm-28 40c-.2.2-1.2 2.9-2 4-2.3 0-6.4 1.3-6 4-.6.1-1.4 0-2 0-3-3.1-1.9-7.1-2-11 4.2-.1 8.4 1 12 3Z" class="st1"/><path d="M530 685c-1-3.7 1.1-11 5.5-12 5.5 9.1 6.2 12.5-5.5 12Zm66.6-3.9c6.9-2.3 7.7 12.2.4 8.4s-3-7.6-.4-8.4Zm-112.5-55c5.5-3.4 10.7 7.9 2.4 8-5.3 0-3.5-7.2-2.4-8ZM676 555c.8 4.3 1.6 9.1 1 13.5s-.5 2.9-2 1.5c-.8-4.5-4.4-9.7-1.3-13.7s0-1.8 2.3-1.3Zm-2.1 145.1c4.3 2.7-2.8 13.1-5.4 4.9s2.5-6.7 5.4-4.9ZM603 630c2.3 11.1-9.8 7.2-5.1 1.4 1.3-1.6 3.3-1.5 5.1-1.4Zm-6.4-20.9c1.6-.2 6.2 3.7 2.9 6-6.1 4.5-7.3-5.3-2.9-6Zm-14.8 43.1c4.2 10.6-5.2 10.1-3.8-.2l3.8.2ZM586 673c5.1-1.8 5 7.5 2.5 8s-4-5.9-2.5-8Zm38.5-32c2.7-.5 5.3 5.3 2 7-3.9 1.2-4.8-5.2-2-7Z" class="st2"/><path d="M451 647c-.1.2.3 1.1-.7 2.1-1.5 1.5-3.6 1.5-5.3 1.9-.4-2.7 3.7-3.9 6-4Zm32-37-1 1c0-.5-.8-3.3-1-5 1.3 1 1.3 2.8 2 4Z" class="st0"/><path d="m723 866-3-.4c-1.9-1.4-1.1-12.2.7-12.6 7.8-.5 3.5 8.7 2.4 13.1Zm3.6-146.8c6.1-.3 5.6 9.9.8 9.9-4.2-.7-4.8-9.2-.8-9.9Zm34.9 13.8c3.6-.7 4.2 13.6-1 12s-2.4-10.7 1-12ZM693 753c0 .7-.5 1.8-.4 3.1.6 6.1 3.2 13.3 1.4 18.9-1.2-6.7-3.3-10.5-3-18.5s-1-4 2-3.5Zm88.9-61.2c-5.9 3.2-6.3-3.6-4.8-7.8l4.5.9.3 6.9ZM736 763l-4.6-.9c-2.3-10.4 6.5-9.2 4.6.9Zm17.5-71c3.5-.8 3.7 8.5-1 7-2.9-2.2-1.5-5.3 1-7Zm7.5 93 1 3c-.6.1-1.8-.2-2 0-.4-1.4.7-2.2 1-3Z" class="st2"/><path d="m405 584 5-59 22.3 1c2.4 4.8 5.4 2 7.7 2s3.7-.2 5 0 2.7 1.6 4 2l-6.5 62c-1.2 1.6-5.1 1.1-7 1-9.6-.6-20.8-4-30.1-6-.7-.9-.2-2.4-.4-3ZM296.6 767.1l42.9 6.9c1.2 1.6-1.2 17.2-1.5 20.6-.5 5.7.8 11.7-2 17.1l-45.6-8.5c-1.6-2.2 2-21.2 2.9-25.2s1.3-10 3.3-10.7ZM334 847c-3.1 0-6.2.1-9.3-.3-4.5-.6-37.6-7.4-39.3-8.7s-1.4-1.4-1.3-2.5l5-28.4 46.4 7.8 1.4 2.6c-1.6 4.6-.6 9.3-1.1 13.9s-1.6 3.3-1.9 5.1c-.4 3.3.2 7.1 0 10.4Zm5.8-78.2-40.3-3.9c-2.5-.4-3.5-1.8-3.5-4.3 0-9.3 5.2-22.8 6.1-32.5l41.4 5.8c2.7 3-.2 5.6-.5 8.6-.4 4.4-.5 24.5-3.2 26.2ZM349 520c3.1 2.4 19.3-.6 20.1 2.7L363 577l-2 2.5-28-3.5c-2-1.9 9.8-47.6 11-54l2.9.9 2.1-2.9Zm-38.4 168.1c10.8 2 22.1 2.2 32.8 4s4.8 3.8 4.6 8.5c-.3 6.8-1.1 16.3-2 23s-1.3 6.9-7.5 6.5-34.1-4.5-35.1-5.9c-.7-1.1-.4-2.2-.4-3.4.4-6.7 3.8-20.5 5.4-27.7s.4-4.3 2.2-4.9Zm91.5-59.2L405 591l37.1 6.4.8 2c-.9 7.7-1.9 15.4-2.9 23.1s1.5 9.6-3 13l-34.9-6.6Zm-.2-38.8c.3.4.3 8.9.1 10.4-.3 2.7-1.8 4.9-2 7.1-.3 3.8 1.3 16.8-2 18.9s-32.2-5.9-37.9-6.7l3.9-35.9 37.9 6.1ZM455 533c2 1.3 8.5 3.8 8.8 4.2.5.6.2 3.1.9 4.6 3.2 6.6 7.5 8.6 9.2 18.3s.8 5 2 9-.5 12.2-1 14l-3.6 16c-3.8-.7-24.4-2.9-25.3-5.6 1.4-9.5 1-19.4 1.9-28.8s1.6-17.9 3-24 .8-1.5 3-1.5c0-2.3-3.2.6-3-2.5s1.1-4.3 4-3.5ZM348.9 689.9c-1.3 1.2-31.5-3.1-35.3-4s-2-.4-2.7-1.4l-.7-2.8c2.7-5.3 4.1-29.7 7.5-31.9s2.4-.9 3.7-.8c6.1 0 19.7 1.9 26 3s4.5.9 5.2 1.9l-3.7 35.9Zm-147 135.2-7.4 44c-1.2 1.7-8.8.6-10.8-.1s-3.9-4.9-4.4-5c-3-.5-4.3 3.6-6 3.9s-5.7-2.6-6.3-3.4c-1.5-1.8-1.1-2.8-.9-4.8.3-3.8 6.8-36 8.1-37.4 2.8-2.9 22.8 3 27.7 2.8Zm26.7-106c2.2-.7 11.6.7 14.7 1s17.7 2.1 18.2 2.8c1.6 6.4-1.8 12.7-3.1 19s-1.5 15.3-3.4 16.6c-1.1.7-2.3.5-3.5.5-6.7-.3-20.4-1.8-27-3.1s-3-.7-4.1-1.9c2.8-9.1 3.1-24.3 6.6-32.5s.2-1.9 1.6-2.4ZM270 683l-6.9 35.6c-3.7 2.6-28-3.3-34.1-2.6 1-5.9 4.9-33.5 8.4-36.1s1.8-1.1 3-1l29.6 4Zm22.9 79.9c-3.1.2-6.3.3-9.4.1-5-.3-14.1-1.2-19-2s-4.4-1.5-5.1-3 5-32.5 6.5-33.5c4.2-1.5 31.1 1.4 32.6 3.5l-5.7 34.9ZM266 720l7.1-35.9 32.5 3.8c1.8 2.5-4.2 31.2-6.5 35.6l-33-3.5Zm-7.4 43.1 32.9 3.8c1.1 1.5-4.1 34.6-5.5 35.7l-31.3-4.8-2.3-1.8 4.7-31.3 1.5-1.5Zm-9.7 32.8c-1.7.5-3.5.2-5.2 0-6.2-.6-21.4-2.5-26.9-4.1s-2.4-.7-3.3-1.7l6.5-31.6 34.7 4.5-5.7 32.9Zm58-112L275 681l6.1-35.9c1.3-1.1 31.5 2.5 32.5 3.8l.4 4.5-7.1 30.5ZM278 644l-6.9 35.6-32.9-3.7c-1.1-1.7 6.5-33.8 8-34.7 10.7-.9 21.2 2.2 31.8 2.8Zm11-38c1.4-7.3 3.3-14.5 4.8-21.7s-.9-11.4 6.6-11.2 20.3 2.9 24.9 4.2 2.4.7 3.3 1.7c-2.7 8.6-3 18.2-5.2 26.9s-1 4.9-2.3 5.7c-3 1.8-26.6-5.6-32-5.5Zm-41 193c1 1-3.2 24.8-4.1 27.4s-.6 2.5-1.9 3.1l-34.9-6.7c-.9-1.4 3-22.4 3.9-25.3s.6-2.4 1.9-3.1c3.6-1.8 29 5.5 35 4.5Zm37.9 7.1-4.8 30.5c-2.5 1.8-29.3-4.9-34.2-6.2-1.3-1.7 3.3-28.7 5.1-29.9l33.9 5.7Zm-35-205.1c2.1 2.2-6.7 28.1-6.4 33l-1.5 2.5-28-2.5c-1.5-1.4 6.3-33.1 7.9-37.6l28 4.6ZM357 619c-4.9.9-10-3-13.7-3.8s-2.8.6-4.3.3c-4.6-.8-9.4-1-13.9-2.6l7.1-33.8 25.1 3.1c1.1.3 2.8 1.8 3.2 2.8 2.2 4.8-3.9 27.2-3.5 34Zm-72.1-10.9-6 32.8-31.4-3.8c-1.9-2.6 7.3-28.5 6.6-34l30.8 5ZM233 678c1.3 1.3-6.2 34.7-7.5 36-2.6 2.6-23.7-1.7-28.4-2.2l6.1-33.2c2.8-6.3 9.2-2.4 14.4-1.8s10.3 1.1 15.4 1.1Zm166-47-1.9 24.6c-3.3 2.3-34.8-3.9-41-4.7L359 625c13.7-1.1 26.5 5 40 6Zm-158.9 13.1c-.1.2 1.1 3.1.9 5.3s-5.7 24.4-6.9 25.2c-9.2 1.3-18.5-1-27.6-2.5-1.1-1.6 2.1-17.2 2.8-20.3 1.1-4.6 2.5-10.1 4.7-14.3 2.5-1.5 23.1 1.2 26.5 2.5 6.1 2.4 0 3.4-.4 4.1ZM188 752l7.9-35.6c2-1.4 26.4.7 27.6 2.5 2.7 3.9-1.5 7.7-2.1 10s.7 3.4.4 5.3c-1.3 6.4-3.4 12.9-4.7 19.4-9.8 1.9-19.3-1.9-29.1-1.6Zm101.7-141.8c2.6-.8 29.9 4.5 30.9 5.8l-5.5 28.6c-11 .6-21.8-2-32.6-3.5l4.8-28.3c.3-1.2 1.3-2.2 2.5-2.5ZM293 572l-6 33-30.6-5.9-.2-4.3 6.7-26.3c3.4-2.5 24.7 3.4 30 3.6Zm60 79c-9.7-3.1-21.9-1.9-31.2-4.2s-2.7-.9-3.3-1.8c-.8-1.4 4.3-26.8 5.5-27.6 3.5-2.4 26.3 4.5 31.6 5.5 1.5 9.4-.8 18.9-2.6 28Zm-100.1-53.1-28.8-5L231 562l28.6 4.9-6.7 31zm-43 192c-1.3 1.1-26.4-2.3-27.4-3.8-1.6-2.3 4-29.6 5.5-30.6l27.6 2.5-5.7 32ZM180 789l28.6 4.9-5.5 27.6c-2 1.3-25.6-3-26.6-4.5-3-4.5 4.1-22.1 3.5-28Z" class="st1"/><path d="M238 528c.4-1-.6-3.4.9-4.6 4.2-3.1 10.6 7.8 1.1 6.6v-2h-2Z" class="st3"/><path d="M802.9 721.9h-3.7c-4.9-17 10.6-17.1 3.7 0Zm-133.7 98.4c.9-.9 2.8-1.3 4-1.1 5.2 1.3 2.6 14-3.3 10.4s-2.6-7.4-.7-9.3ZM649 814c1.2.3 5.8.1 4.9 2.4s-4.5 7.6-6.4 7.6l.5-10h1Zm246.9.1c2.6 2.1.2 10.4-3.4 11.9-2.9 0-2-16.2 3.4-11.9Zm7.6 11.9c5.2-1.7 4 9.6 1 11-3.5.8-3.4-10.2-1-11Zm-7.5-41c-1.3-3.7-1.8-7.1 1.5-10 2.2-.1 2.5 9.6-1.5 10Zm-195.5-94c5-1.6 3.9 7.7 1 9-3.3.8-3.5-8.2-1-9Z" class="st2"/><path d="M686 772c-4.9-1.9-2.7-3.4-4-5-.6-2.3 1.6-2.6 3.4-2.9 2.4.6 1.9 6.1.6 7.9Z" class="st3"/><path d="M832 838c-1.6-1.2-.5-8.2 3.5-7s-.5 9.2-3.5 7Z" class="st2"/><path d="M432 523c.7 0 1.8.6 2.5.9l1.9-2c4.3 3.1 5.3 1.8 9.5 0l-1 6c-1.3-.2-3.5 0-5 0-4.2-1.3-4.8-1.4-8-4v-1Z" class="st1"/><path d="M336 518c-4.4-8.2-.5-17.1-1.3-25.7s-1.8-2.7-1.6-3.7 3.8-2.6 2.4-5.7l2.8-.9c3-1.7-1.4-5.2-4.3-4l1-14.5c-.3-2.8-4.7-3.5 1-6-2.9-4.4-2-12.4-2-18.1s.9-3.2.8-4.2c0-1.6-2-2.7-1.8-3.7s3-1.6 3.6-2.6-1.2-4.2 1.4-6c-3.8.2-5.9-2.6-5-6.3s1.6-.5 1.9-1.4c.7-1.8-.2-4.3 2.1-6.2l-4-.5c1.8-1.9-.2-4.2.9-6 3.1-5.2 6.1 3.3 8.1-3-3.4-2.5-6.4-1-7.6-6.1s2.4-7.4 2.4-7.8-1.8-2.3-2.1-3.7c-1.4-7.2 2.2-10.9 2.5-15.3s-2.2-1-2.2-2.9 1.1-3.7 1-5.1c-.1-2.2-3.1-2.4 0-5.4h-3c-.6-2.3 2.7-3.3 2.9-4.6s-1.5-2-1.5-2.9c-.2-4.4.4-11.5.3-16.1s-.4-11.9-1.6-17.8l3.9-1.6-3-4.5c2.4-.4 2.8-5.6 3-8.2.2-4.2-.5-11.1-.9-15.3h4c-.6-4.7-2.1-8.6-1-13.3l5-1.7c-2.1-2.4-1.9-6.5-1.1-9.5s.9.3 1.1-3.8 3.2-1.5 2.1-4.5l2.9-.6 1.9-11.4 1 2c3.9-1.2 3.6-14.3 6.5-15s1.6 4.1 3.5 4c-.2-2.4 1.6-4.3 2-6.5.7-3.8-1-1.3 1.5-6.5s1.2-2.1 4-5 4.6-8.2 6.2-10 6.9-4.3 8-5.3c2.7-2.6.3-11.1 7.3-7.7v-2.8c.1 0 4.6-1.1 4.6-1.1-.3-5.6 1.5-4.3 3.5-6.5s1.7-2.8 2.2-3.3c1.8-1.4 5-.3 4.8-3.2l5 1.9-2-5c3.2.5 5.9-3.3 7.7-3.8s5.3.3 6.2-.3.4-2.4 1.1-3.1c2.6-2.9 5.5-2 8-3.3s3-3.9 4.7-4.2 3.2 1.3 6.1.1 2-4.3 6.9-5.2 0 5.3 2.9 3.9-.5-5.4 2.1-5.9 1.7.9 2.3.7 1.5-3.8 3.7-3.6l3 2.6 8.9-4.7c1.8.8 2.7 2.1 1.6 3.9h6l-.7-1.8c2.7-.4 1.6-2.9 1.7-5.2 4.7 2.3 9.2-1.5 14.4 1.1l1.2-2.1 4.4 1.1-.5 2 3-3 5 4c1.1-3.2 7.6-5.5 10-3s.7 4 2.5 4c-1.2-5.1 4.9-8.5 7.9-4.4s0 4.3 4.1 3.4c.3-7.6 4.3-1.1 6.6-.9s6-4.5 8.9 1.9l3.5-3v3l3.5-1.1 1 2c5.1-3.4 5.2 2.9 8.1 3.2l5.5-2.1c-.6 4.1 1.5 5.9 5.5 6s3.9-2.8 6.1 2.1l3.4-1.1v3c.3.4 5.5-1.1 6.4-.9s7.2 5.4 8.3 6.3c3.5 3 2.7 1.3 5.8 3.2s8.2 5.5 12 8.5 1.8 4.7 6.5 4.1v2.8c.1 0 5.1-2 5.1-2v7h6v4c7.2-1.1 3.8 6.6 10 5-2.6 7 4.5 7 5.8 9.2s-.2 2.9.4 3.6 4.7 3.5 6.8 5.7 2.8 1.3 3 1.6c.4.6-.8 2.3-.7 3.3.3 2.8 1.3 5.5.8 8.5l2-3c1.6-.4.6 1.1 1.3 1.7 2.2 1.6 1-.4 3.1 2.9s1.5.5 1.5 1.1c0 2-3 2.3 1.8 2.5-.1 2.6 2.7 5 3 6.6s.4 6.2 1.4 8 4 4.4 4.7 4.2l-2 4h3l-1 5h3l-2 4c5.3.7 3.8 5.6 4.4 9.3.3 1.8 4 4.8-.4 4.7v2l3 .6c1.2 6.2 1.6 12.5 2.3 18.7 1.2 9.7.2 11.6 0 20.2s1.9 5 1.6 6.9-2.4-.1-2 1.6h3c.4 2.5-.3 1.7-1.9 2.4 3.1 3.2-1.1 7.4-.9 8.9.9 8.7.5 18.3 2.9 27.1-2.2 0-1.9 8.4-1.8 10.8s1.2 3.8 1.7 5.6l-2.9 1.6 2.1 1.1c-.3 2.6-.9 6.4-.9 9s1 9.2.7 11.9-1.9 3.8-2 6.1 1.9 1.3 2.1 2.1c.8 3.4-1.9 5.5-1.9 7.8s2.6 5.1 2.5 6-1.6 2-1.7 4c-.5 6.4.3 16.4 0 23s.7 3.4 1 5.1c.6 2.7-1.9 4.1-2 5.9-.2 3.4 4.8 8.3 0 12.5h3c-3.1 3-.8 5.8-1.2 8.3s-2.6 6.3-2.7 8.3 3.7 1.6 1.9 5.9l-2-.5c-.2 4 3.4 2.5.9 7.4l2.2 2.1c-.4 2.3-2.1 8.5-2.1 10 0 2.7 6.1 5.5 0 6.5-.3 1.8 2 2.9 2 4.5s-1.8 8.5-1.8 9.8c0 2.4 3.4 5.6.8 8.7-2.2-1.1-8.6-4-11-5l-.8-7.5c4.8-2.3-2.8-7.9 3.9-10V522c-4-1.7-2.3-2.5-2.6-5s-1-6.4-1-7.6 1.2-2.9 1.1-4.4c-.3-3.9-3.9-3-5.5-4s-.9-2.1-1.2-2.3-3.3 1.5-4.4-.2l.5 3h-5v-4h-3l-.1 2.8c-1.5.2-3.3.9-4.6.9-6.7.2-12.8-2.8-16.8-2.8s-6.3 5-9.5 3.1c2.9-3 .2-7.1 1-11 3.5-1.5 7 1.6 8.7 1.8s2.1-1.4 3-1.5c12.3-.9 24.2 1.3 36.3-.3-1.2-5.5 1.2-10 .7-15.7s-1.7-2.7-1.6-3.7 2.1-1.7 2.6-3.9-1.4-4.4-1.6-6.2c-.3-4.6.4-11.2.3-16s-3-2.4.5-5.5l-2-.5c5.9-13.5-5.8-11.5-15.4-10.4l-.5-3.1c-3.6-1-2.8 1.7-4 2.5-4.3 2.7-15.3-1.2-19.7-1.2-6.9 0-15.2 2.8-23.8 1.7s-5.7-3.3-7.9-3.1-2.7 2.4-4.2 2.9-23.9.2-27.8.3c-7.4 0-31.7 1.2-36.8-1.1-1.1-.5-.4-1.9-1.2-2l-1 3.1c-9.4-1-20.9 1.1-30 0s-1-2.5-2.9-2.1c-5.6 1-6.9 2.2-14 2s-3.8-2.2-9 3c-1.7-4.8-6.3-2.6-10.5-3-.6 2.6 2.2 2.1 3 3.8 2.4 4.9-.8 12.4 0 16.5s5.2 1.9 2.5 4.7h-3.4c3.1 12.3 0 24.6 1 37 5.3-2.1 9.8 2.2 15.6 1.1l2.4-2.1.6 2.1 5.4-1.1.5 4 1.1-3.1c8.9-1.7 17.9.1 26.9.1h34c11.4 0 4.8-1.3 7-1.1 3.2.2 3.9 3 5.8 2.9 5.3 0 12.1-4.8 20-2.8s.6 1.9 1.3 2c2.2.3 8.4-2.1 10.9-1.9s2.5 1.8 3.9 1.9c3.4.1 10.5-2.3 15.8-1.6 7.3.9 7.8 4.6 4.4 10.4l-1.3.3c-5.6-2.2-11.4 0-16 0-8.1-.2-14.1-.9-22.2-.4-4.8.3-10.1-1.7-11.8-1.6s-2.6 2-4 2-2.3-1.7-3.2-1.9-2.1 1.6-3.8 1.7c-2.6.2-8.3-1.7-8.9-1.7-1.8.1-5.5 3.2-8.7 1.8l1.5-3-6.5 1 .5 2c-.8-.8-2-1-3-1-9.8.2-19 .4-27.8.6-8.7.2-18.8 1.9-26.2-2.7l-1.9 2.8c-5.3-1.4-10.4.3-16.1.2-5.4 0-9.8-2.5-15.4-1l.5 5-4.3-1.2v-3.8c-5-.5-8.9 1.4-13.1-1v2.5c-3.5 4.2-6-1.4-6.4-1.4-4.2.3-9 1.6-13.6.9l12 1.5c3.6 1.8.4 9.4 7 7.5v4c-4.4-.6-6.1-1.7-9 2.5 3.7 1.1 5.5 2.2 5 6.5h-2c-1 0-3.6 1.4-4 1l-2.5-5h-1.5c-1.7 5.6-10.2 3-15 3-9.4 0-17.7-.3-27-1s-21.7-1.1-31-2-7.8-.3-8.5-3c-1.3 1.9-2.6 1.8-4.5 2Zm113.9-346.9c-.2-.3-5.5-2.4-5.9-2.1l-1 6c2.7-1 9.2-.1 6.9-3.9ZM661.5 279c5.5.2 11-.1 16.5 0 1-2.9-1.4-2.8-1.6-3.3-.8-1.9-.7-3.9-2.4-5.7 1.6-1.1 8.9 4.1 8-3l-7.4 1.8c-6-3.3.5-4.9.4-5.3-1.6-.8-1.5-3.6-2.3-4.3s-2.2 0-2.8-.8c-1.2-1.7.3-5.9-2.9-5.4 3.3-2.8 1-7.4-3-7v-2h2l-2.5-1.9c.9-1.9-2-7.5-5-7.1 0 12.6-2.1 28.1-.6 40.6.5 4 .9 3.4 3.5 3.5Zm18.9 44.7c-2.6-3.7 1-14.5.3-19s-3-6.9-2.7-10.1 4.7-4.2-1.5-6.6-4.9.1-8 .1c-9.3 0-23.6 1.2-32.1 0s-4.1-2.3-5.9-2.1 0 2-2 2.2-4.5-.8-6.2-.7c-8.8.3-17.6.6-26.3.6l1 63c2.6.8 2.4-2.8 3.7-3.1 2.9-.5 7.2 1.9 9.8 3.1l.5-3h11l.5 2c1.6-4.2 5-1.9 4 2 4.4-5.3 7.9-2.8 13-2.9 8.7-.3 18.4-1.1 27.2-.9s10.3 1.8 15.4.9c-3.6-5.2-.2-3.1 0-5.4s0-5.5-2.1-7.1c4.1-1 .4-1.3.1-3.2s1.6-2.1 1.7-3-1.5-2.1-1.5-2.8 1.5-1.6 1.7-3-1.3-.4-1.7-.8ZM465 305c.9 2.3.5 3.5 4 3l1-6c-3.5-1.3-3.1 2.7-5 3-.2-.4.2-1.4 0-2-2.1-.3-2.3 0-2 2 .6 0 1.4.1 2 0Zm-15.3 28.7c.6-1.9.3-3.8.3-5.7-1.7 0-.5 1.9-2.9 2.6s-4.7.4-7.1.4l3.5 4 2.5-3v4c.7.9 3.6-2.1 3.7-2.3Zm85.3 25.8v35c0 1.8-5.2 3.2-7 2.5 1.4 3.5 4.5 1.4 7 1v20c19.8.9 40-1.6 59.5 2l-.5-2h25c.3 2-2.6-.2-2 2.5s1.7.3 2.5.5l1-3H680c-2.6-4.4 2.3-7.5 2.1-10.4s-2.4-2.7-2.9-4.3c-1.3-4.3 1.9-8.8 2.8-12.8l-3 .5 2-2-1.9-3.4c4.7-3.4 2-11.1 0-15.1l3.9-3-2-2 2-1-4-1.5 2-4c-2.2-.2-4.2-.9-6.5-1-21-1.4-50.7 3.1-70 0-1.8-.3-2.6-1.9-4-2s0 1.9-1.9 2.1c-12.7 1.7-31-.8-44.1-.9-3.5 2-18.5-.8-19.5 2.3ZM473 406c-1.2-1-6.4 3.2-6.9 4.6.8 3.5 3.2 3.9 4.6 1s0-2.4.4-2.9 3.7-1.3 2-2.8Z" class="st1"/><path d="M662 781c-1.5-1.4-.7-1.3 0-2 0 .6.1 1.4 0 2Z" class="st3"/></svg>