<svg xmlns="http://www.w3.org/2000/svg" id="Layer_2" data-name="Layer 2" viewBox="0 0 2136.38 1315.17"><defs><style>.cls-1{opacity:.15;fill:#f0f}</style></defs><g id="Layer_1-2" data-name="Layer 1"><path d="M170.44 0h1965.94v1196.88H170.44z" style="fill:#fff2fc"/><g style="opacity:.79"><path d="M1430.49 855.42c5.16-1.77 9.87-4.69 14.21-7.95 4.95-3.72 9.51-7.95 13.59-12.61 3.69-4.22 7.12-8.82 9.54-13.9 1.82-3.82 3.35-8.31 2.35-12.57-.96-4.14-4.51-6.63-8.44-7.65-6.45-1.67-13.34-.46-19.82.36-7.84 1-15.82 2.26-23.13 5.39-3.27 1.4-6.42 3.23-8.94 5.75-2.73 2.73-4.47 6.32-5.52 10.01-1.9 6.7-.16 13.26 4.85 18.09 5.12 4.95 12.01 7.82 18.56 10.33 1.65.63 3.31 1.24 4.98 1.85 1.65.6 2.37-2.04.73-2.63-6.33-2.3-12.79-4.63-18.43-8.38-4.98-3.31-9.01-8.07-8.76-14.35.15-3.63 1.5-7.47 3.48-10.5 1.73-2.64 4.29-4.62 7.02-6.15 6.4-3.58 13.9-5.03 21.08-6.11 3.48-.53 6.97-.93 10.47-1.33 3.18-.37 6.41-.56 9.6-.25 3.61.35 7.7 1.56 9.24 4.98.6 1.31.72 2.95.57 4.58-.18 1.87-.78 3.78-1.49 5.55-1.88 4.67-4.85 8.95-8.02 12.83-6.85 8.39-15.52 16.26-25.44 20.82-.98.45-1.97.85-2.99 1.19-1.65.57-.94 3.21.73 2.63Z" class="cls-1"/><path d="M1462.48 864.55c18.36-4.7 33.15-19.41 43.35-34.77 5.37-8.09 9.76-16.92 12.64-26.21 2.47-7.98 4.02-16.67 2.8-25.01-.9-6.13-3.75-11.77-8.73-15.55-4.89-3.71-11.07-5.23-17.08-5.82-13.92-1.35-28.23 1.8-41.65 5.24-6.3 1.61-12.56 3.83-18.99 4.78-8.52 1.26-17.24.73-25.82.5-8.58-.23-17.35-.39-25.75 1.62-8.1 1.93-15.22 6.22-20.24 12.94-5.5 7.37-8.58 16.83-7.4 26.02 1.1 8.65 5.58 16.34 11.06 22.96 5.89 7.11 13 13.12 20.28 18.74 6.38 4.93 12.85 9.89 19.7 14.15 12.67 7.88 27.25 14.13 42.24 15.46 6.83.61 13.9.02 20.26-2.69 6.42-2.73 11.58-7.59 15.01-13.64 2.06-3.64 3.5-7.61 4.53-11.65.43-1.7-2.2-2.43-2.63-.73-1.85 7.28-5.16 14.3-10.98 19.25-4.81 4.09-10.99 6.2-17.22 6.77-14.25 1.29-28.8-3.86-41.29-10.29-6.32-3.25-12.19-7.12-17.92-11.3-7.06-5.15-14.1-10.35-20.58-16.23-6.42-5.83-12.49-12.39-16.36-20.23-3.71-7.5-4.66-15.89-2.12-23.92 2.61-8.25 8.04-15.7 15.75-19.8 7.06-3.75 15.26-4.61 23.13-4.79 8.48-.19 16.94.46 25.42.35 4.12-.06 8.24-.31 12.31-.96 3.2-.51 6.29-1.41 9.4-2.27 12.77-3.55 25.8-6.93 39.08-7.69 10.92-.63 25.03.35 31.17 10.94 3.5 6.03 3.55 13.49 2.69 20.22-1.12 8.73-4.1 17.24-7.95 25.12-8.15 16.66-20.9 32.53-37.46 41.38-3.6 1.92-7.39 3.45-11.34 4.46-1.7.44-.98 3.07.73 2.63Z" class="cls-1"/><path d="M1454.76 925.14c13.78-4.47 27.04-10.54 39.6-17.76 13.34-7.67 25.94-16.66 37.5-26.82 11.54-10.15 22.05-21.53 30.9-34.11 8.52-12.11 15.47-25.43 19.81-39.62 3.84-12.57 5.66-25.83 5.2-38.97-.42-12.12-2.79-24.22-7.55-35.4-4.39-10.31-10.96-19.82-19.69-26.93-9.04-7.36-19.94-11.79-31.48-13.24-6.59-.83-13.28-.68-19.86.18-9.15 1.19-18.23 3.18-27.32 4.74-19.21 3.3-38.55 6.09-58.06 6.67-9.8.29-19.57-.05-29.33-.95-8.81-.81-17.65-1.26-26.5-1.29-18-.05-36.16 1.6-53.61 6.17-12.1 3.17-24.72 7.53-32.66 17.79-6.04 7.8-8.1 17.68-7.66 27.39.49 11 3.68 21.77 7.65 31.97 4.19 10.75 9.39 21.07 14.95 31.17 2.46 4.46 4.99 8.88 7.55 13.29 2.46 4.25 5.08 8.45 7.25 12.86 6.39 13.02 9.21 27.83 18.72 39.18 4.99 5.95 11.56 10.18 18.37 13.77 7.41 3.91 15.17 7.1 22.89 10.34 7.83 3.28 15.48 6.97 23.36 10.11 8.71 3.47 17.73 6.31 27 7.77 8.83 1.39 17.77 1.5 26.57-.14 1.73-.32.99-2.95-.73-2.63-18.23 3.4-36.69-1.33-53.54-8.21-7.73-3.15-15.28-6.75-22.99-9.98-7.56-3.17-15.15-6.34-22.37-10.25-6.7-3.63-13-7.92-17.69-14.02-4.34-5.65-7.21-12.23-9.75-18.84-2.55-6.64-4.86-13.41-8.12-19.75-2.13-4.15-4.61-8.13-6.94-12.17-5.29-9.13-10.47-18.33-15.09-27.82-4.9-10.07-9.26-20.51-11.99-31.4-2.38-9.54-3.61-19.84-.98-29.46 2.64-9.67 9.39-17.04 18.17-21.67 6.65-3.5 14.1-5.56 21.37-7.34 8.7-2.12 17.56-3.52 26.47-4.37 17.44-1.65 34.91-1.14 52.33.43 19.1 1.71 38.32.7 57.32-1.65 9.45-1.17 18.86-2.66 28.25-4.26s17.9-3.48 26.91-4.7c12.17-1.65 24.88-.74 36.24 4.15 10.04 4.32 18.59 11.53 24.89 20.43 6.58 9.3 10.76 20.11 13 31.24 2.43 12.06 2.61 24.61.89 36.78-1.94 13.75-6.34 27.02-12.7 39.34-6.82 13.2-15.66 25.28-25.71 36.19s-21.95 21.26-34.4 30.05c-12.03 8.49-24.86 15.87-38.31 21.86a189.78 189.78 0 0 1-18.83 7.23c-1.66.54-.95 3.18.73 2.63Z" class="cls-1"/><path d="M1453.79 958.38c25.45-9 52.21-14.13 76.97-25.09 25.15-11.13 46.82-28.95 66.95-47.39 10.22-9.36 20.12-19.06 30.13-28.64 9.12-8.73 18.03-17.59 26.29-27.16 17.19-19.92 32.21-42.02 42.99-66.07 9.97-22.23 17.14-47.38 15.22-71.97-1.69-21.66-10.35-42.6-23.98-59.47-6.76-8.37-14.81-15.73-23.87-21.56-10.72-6.9-22.95-11.25-35.16-14.71-24.6-6.96-50.1-8.09-75.38-4.66-25.87 3.52-51.01 10.97-76.16 17.75-14.31 3.86-28.55 7.54-43.33 9.17-13.9 1.53-27.91 1.68-41.88 1.19-27.04-.96-54.02-4.33-81.11-3.5-7.1.22-14.19.72-21.24 1.61-5.62.71-11.17 1.81-16.78 2.54-10.02 1.3-20.12 1.9-30.2 2.62-20.48 1.48-41.74 3.07-60.84 11.22-9.1 3.88-17.53 9.42-24.14 16.84-5.67 6.37-9.15 14.38-11.9 22.37-3.5 10.16-5.8 20.75-7.28 31.38-1.26 9.07-2.08 18.36-1.38 27.52 1.95 25.54 18.29 45.54 32.19 65.84 13.88 20.29 27.78 40.96 46.19 57.51 8.78 7.89 18.6 14.13 28.38 20.67 9.83 6.58 19.56 13.31 29.35 19.96 20.64 14.01 41.6 27.71 63.87 39.02 21.16 10.75 43.73 19.48 67.4 22.44 10.96 1.37 22 1.34 32.93-.2 1.73-.24 1-2.87-.73-2.63-47.86 6.72-94.12-17.44-133.34-42.08-19.74-12.4-38.73-25.9-58.1-38.86-9.85-6.59-19.72-12.86-28.52-20.87-9.08-8.27-17.14-17.59-24.58-27.35-7.36-9.66-14.16-19.73-21.02-29.75-6.89-10.06-14.34-19.83-20.36-30.45-6.05-10.68-10.34-22.36-11.03-34.7-.53-9.48.38-19.09 1.84-28.45 1.57-10.06 3.87-20.07 7.31-29.66 2.99-8.36 6.9-16.16 13.26-22.46 14.58-14.43 35.49-19.6 55.22-22.19 19.82-2.6 39.91-2.6 59.68-5.59 12.95-1.96 25.71-3.51 38.84-3.67 13.07-.16 26.13.57 39.17 1.43 26.93 1.78 53.97 3.97 80.89.75 26.69-3.19 52.42-12.22 78.42-18.75 24.01-6.03 48.53-10.72 73.4-9.79 12.92.49 25.73 2.49 38.21 5.86 12.15 3.28 24.39 7.46 35.14 14.12 18.79 11.63 33.22 29.98 41.16 50.52 8.46 21.89 8.44 44.83 2.98 67.46-6.07 25.16-17.97 48.68-32.44 70.02-14.49 21.37-31.91 39.8-50.46 57.62-19.17 18.41-38.18 37.18-59.75 52.84-11.06 8.03-22.67 15.13-35.24 20.56-12.3 5.32-25.16 9.21-38.02 12.91-12.37 3.56-24.77 7-36.91 11.3-1.65.58-.94 3.22.73 2.63Z" class="cls-1"/><path d="M1401.93 1002.12c60.99-17.76 128.04-11.74 186.2-39.74 15.06-7.25 29.17-16.46 42.7-26.25 12.67-9.16 24.8-18.51 34.61-30.79 9.07-11.36 16.73-23.82 26.35-34.74 10.44-11.85 23.37-19.41 37.05-26.94 6.57-3.61 13.12-7.32 19.14-11.81 6.11-4.56 11.52-9.99 16.69-15.58 10.3-11.11 19.25-23.39 26.99-36.4 9.27-15.57 16.55-31.72 22.25-48.88 5.96-17.94 10.65-36.43 13.08-55.2 2.15-16.62 3.1-35.2-3.6-50.98-2.66-6.26-6.73-11.86-12.4-15.71-7.49-5.09-16.43-5.98-25.26-6.13-13.29-.23-27.55 1.27-38.94-7.03-6-4.37-10.63-10.77-15.16-16.57-4.21-5.38-8.29-10.86-12.69-16.09-9.79-11.64-21.16-21.23-34.97-27.75s-29.24-9.72-44.69-9.88c-15.73-.16-31.35 2.5-46.72 5.61-15.89 3.21-31.71 6.64-47.66 9.57-33.9 6.22-68.38 11.62-102.95 10.47-35.24-1.17-68.95-12.39-103.76-16.81-33.33-4.23-67.78.41-100.22 8.52a333.494 333.494 0 0 0-45.39 14.87c-14.67 6.01-29.72 12.7-43.05 21.35-10.21 6.63-18.48 15.59-24.35 26.25-5.88 10.68-9.45 22.44-12.78 34.11-4.06 14.22-9.01 28.32-12.36 42.71-3.43 14.73-4.92 29.9-4.31 45.02 2.48 61.74 38.23 115.69 72.21 164.9 8.97 12.99 17.82 25.89 28.83 37.27 1.22 1.27 3.15-.67 1.93-1.93-11.52-11.91-20.7-25.53-30.07-39.14-8.73-12.68-17.34-25.44-25.46-38.52-15.87-25.56-30.11-52.56-38.15-81.68-8.13-29.44-8.95-60.3-1.18-89.92 3.55-13.51 7.97-26.87 11.85-40.3 3.37-11.64 7.09-23.36 13.37-33.81 6.94-11.56 16.78-20.05 28.5-26.52 14.02-7.74 28.56-14.55 43.53-20.24 30.22-11.49 62.02-18.38 94.22-21.06 17.61-1.47 34.89-.58 52.33 2.22 17.51 2.81 34.76 6.96 52.16 10.31 15.81 3.04 31.62 5.06 47.73 5.26 16.9.21 33.8-1.11 50.57-3.18 32.04-3.96 63.56-10.69 95.17-17.08 31.43-6.36 63.89-9.47 93.31 5.99 13.54 7.12 24.2 17.48 33.7 29.33 4.24 5.3 8.28 10.76 12.55 16.04 4.11 5.09 8.34 10.29 13.86 13.92 10.73 7.07 23.68 6.45 35.98 6.49 9.35.03 18.96.36 26.94 5.79 12.85 8.73 15.74 26.14 16.07 40.53.44 18.74-3.08 37.54-7.73 55.63-10.74 41.75-29.64 81.34-60.45 112.17-10.86 10.86-23.63 17.91-36.93 25.31-12.89 7.17-24.08 15.44-33.52 26.87-9.16 11.08-16.72 23.38-25.96 34.4-10.13 12.08-22.98 21.34-35.79 30.37-13.52 9.54-27.65 18.46-42.76 25.24-14.06 6.31-28.93 10.7-43.96 14.02-30.79 6.81-62.31 9.22-93.42 14.08-14.82 2.31-29.55 5.21-43.96 9.4-1.68.49-.97 3.13.73 2.63Zm-367.12-175.36c4.82 24.69 10.97 49.26 20.66 72.52 9.36 22.44 22.09 43.35 38.58 61.28 8.96 9.74 18.91 18.53 29.53 26.42 9.51 7.06 19.73 12.82 30.54 17.65 11.9 5.32 24.24 9.65 36.81 13.07 12.36 3.36 25 5.89 37.76 7.02 5.59.5 11.22.72 16.83.47 7.04-.3 14.06-1.2 21.07-1.92 12.92-1.32 25.66-1.9 38.42.95 3.82.85 7.57 1.93 11.29 3.15 1.67.55 2.39-2.09.73-2.63-6.94-2.28-14.04-4.01-21.31-4.84-6.2-.71-12.44-.69-18.66-.29-12.87.84-25.68 3.18-38.61 2.92-12.26-.25-24.47-2.16-36.41-4.88a256.74 256.74 0 0 1-37.55-11.61c-11.01-4.35-21.84-9.48-31.77-15.96-10.84-7.08-20.94-15.54-30.14-24.63-17.38-17.17-31.17-37.52-41.32-59.71-10.22-22.35-16.81-46.2-21.88-70.19-.67-3.17-1.31-6.35-1.93-9.53-.34-1.72-2.97-.99-2.63.73Z" class="cls-1"/><path d="M1032.65 815.21c.69 3.85 1.41 7.7 2.16 11.55.14.72 1.01 1.14 1.68.95.76-.21 1.1-.95.95-1.68-.75-3.84-1.47-7.69-2.16-11.55-.13-.73-1.02-1.14-1.68-.95-.77.21-1.08.95-.95 1.68Zm277.11 212.53c13.9-6.11 29.42-6.78 44.38-6.03 15.55.77 30.96 3.17 46.42 4.91 14.81 1.67 29.36 2.43 44.18.52 19.2-2.48 38.25-5.93 57.21-9.79 37.36-7.6 74.76-15.56 111-27.56 17.81-5.89 34.82-12.95 51.8-20.88 8.46-3.95 16.89-7.81 26.15-9.4 7.79-1.34 15.58-1.86 23.14-4.34 31.42-10.3 57.72-33.13 84.36-51.9 24.64-17.36 49.01-36.49 67.51-60.52 8.25-10.72 14.8-22.33 19.09-35.16 3.57-10.65 6.49-21.53 8.96-32.48 5.73-25.37 10.04-52.57 6.36-78.54-1.46-10.34-4.31-23.22-12.87-30.1-5.84-4.7-12.4-7.04-16.24-13.96-3.34-6.02-2.69-12.3-2.18-18.9 2.01-26.09-3.89-53.69-17.8-75.97-30.2-48.4-88.71-63.25-135.87-89.01-16.16-8.83-32.27-18.1-47.67-28.22-12.32-8.1-24.86-19-40.39-19.09-8.17-.05-16.17 2.06-24.15 3.5-9.38 1.69-18.84 2.97-28.24 4.58-19.03 3.27-38.01 6.85-57.08 9.84-19.51 3.06-39.16 5.33-58.84 6.88-19.81 1.56-40.11 2.13-59.75-1.4-8.08-1.45-15.72-4.53-23.59-6.76-7.27-2.06-14.47-2.71-22.01-2.24-15.94 1.01-31.45 5.74-46.55 10.64-16.02 5.2-31.95 10.01-48.23 14.32-17.79 4.71-35.61 9.96-52.81 16.54-30.11 11.51-58.04 29.23-81.06 51.81-11.75 11.52-22.35 24.25-30.16 38.79-4.2 7.81-7.79 15.93-11.66 23.91-3.99 8.23-9.02 15.69-14.63 22.89-10.69 13.72-21.21 27.07-28.73 42.89-7.1 14.93-11.75 30.9-14.1 47.25-2.29 15.94-2.48 32.06-1.49 48.11.11 1.75 2.84 1.76 2.73 0-2.09-33.97 1.78-68.19 17.6-98.78 8.06-15.59 19.34-28.5 29.71-42.5 10.13-13.68 15.81-29.59 24.01-44.38 16.04-28.93 43.28-52.26 71.31-69.14 30.09-18.13 64.2-28.35 98.08-36.82 15.5-3.88 30.48-9.24 45.71-14.01 15.3-4.8 31.31-9.32 47.48-8.92 8.32.21 16.04 2.85 23.88 5.36 7.97 2.55 15.87 4.22 24.19 5.14 18.58 2.06 37.34 1.21 55.92-.45 37.58-3.35 74.48-10.09 111.63-16.46 8.89-1.52 17.84-2.76 26.72-4.31 8.42-1.48 16.92-3.91 25.54-3.5 16.22.78 29.79 13.93 42.96 22.08 15.76 9.75 31.7 19.23 48.06 27.94 15.13 8.06 30.71 14.89 46.33 21.91 22.53 10.13 44.85 22.08 62.98 39.11 18.15 17.05 30.33 38.84 35.05 63.32 1.4 7.25 2.17 14.62 2.45 22 .26 6.94-.64 13.72-.75 20.63-.09 5.66 1.45 10.81 4.71 15.46 3.72 5.3 9.27 7.63 14.33 11.37 9.79 7.24 12.25 22.46 13.34 33.79 1.26 13.06.52 26.28-1.02 39.28-2.81 23.69-8.11 47.69-16.28 70.13-10.42 28.61-34.35 51.22-57.46 69.96-11.62 9.42-23.87 17.91-36.01 26.62-13.66 9.81-27.11 19.96-41.42 28.82-13.94 8.63-28.93 16.54-45.33 18.9-8 1.15-15.84 2.08-23.43 5.05-8.28 3.23-16.24 7.25-24.29 11.01-33.53 15.65-70.12 25.56-106.16 33.47-18.78 4.12-37.56 8.29-56.44 11.95-18.17 3.52-36.74 7.32-55.23 8.58-29.75 2.03-59.18-6.5-88.89-6.71-12.94-.09-25.94 1.39-37.87 6.64-1.6.71-.22 3.06 1.38 2.36Z" class="cls-1"/><path d="M1033.01 790.7c1.98 0 3.95.47 5.77 1.41 3 1.54 5.22 4.16 6.25 7.37 2.12 6.63-1.54 13.75-8.17 15.88-3.21 1.03-6.63.74-9.63-.8s-5.22-4.16-6.25-7.37a12.51 12.51 0 0 1 .8-9.63c1.54-3 4.16-5.22 7.37-6.25 1.27-.41 2.57-.61 3.87-.61Zm-.03 22.53c1.02 0 2.04-.16 3.03-.48 5.2-1.66 8.07-7.25 6.41-12.44a9.83 9.83 0 0 0-4.89-5.78 9.863 9.863 0 0 0-7.55-.63c-2.52.81-4.57 2.54-5.78 4.89s-1.43 5.03-.63 7.55a9.83 9.83 0 0 0 4.89 5.78c1.42.73 2.96 1.1 4.52 1.1Z" class="cls-1"/><path d="M1282.83 1061.54c95.78-6.34 191.62 41.48 286.68 14.93 48.09-13.43 87.22-47.38 134.67-62.52 21.73-6.94 43.29-12.91 63.81-23.14 21.03-10.48 39.87-24.22 58.15-38.87 35.41-28.37 68.26-60.06 95.54-96.43 13.87-18.49 27.68-38.44 37.34-59.51 9.6-20.93 9.85-44.17 6.4-66.57-3.8-24.67-11.24-48.73-17.2-72.93-5.25-21.33-11.57-42.47-20.98-62.37a228.314 228.314 0 0 0-16.29-28.78c-5.81-8.74-12.12-16.99-17.1-26.27-9.54-17.81-16.02-37.04-23.86-55.61-7.95-18.81-17.45-37.14-31.39-52.26-16.23-17.6-37.29-31.75-57.45-44.41-21.09-13.25-43.31-24.76-66.26-34.44-22.97-9.69-47.2-16.61-72.34-14.39-48.2 4.26-94.2 20.88-140.41 34.11-23.86 6.83-48.02 12.96-72.67 16.13-11.96 1.53-24.03 2.36-36.09 2.24-12.37-.13-24.55-1.99-36.89-2.57-23.24-1.1-45.86 2.9-68.16 9.18-23.5 6.61-46.79 13.66-70.44 19.74-45.47 11.7-91.2 23.38-132.29 46.8-19.78 11.27-38.63 24.32-56.04 39-16.39 13.81-31.92 29.28-43.66 47.31-24.01 36.87-32.89 82.24-39.92 124.97-3.75 22.82-7.98 45.65-5.84 68.87 2.18 23.7 10.23 45.78 16.13 68.65 10.96 42.47 16.81 87.17 35.79 127.14 8.12 17.09 18.95 30.21 34.37 41.21 16.31 11.64 34.46 20.4 52.2 29.59 8.31 4.3 16.61 8.67 24.56 13.62 8.74 5.44 16.58 12.05 24.83 18.18 8.33 6.19 17.35 12.02 27.62 14.29 11.82 2.62 24.31 2.31 36.32 1.65 25.8-1.42 51.6-4.78 76.17 5.52 1.62.68 2.33-1.96.73-2.63-23.57-9.88-48.42-7.41-73.25-5.83-12.95.82-26.47 1.49-39.23-1.33-10.57-2.33-19.72-8.55-28.24-14.97-8.13-6.12-15.93-12.56-24.63-17.88-7.63-4.67-15.55-8.85-23.49-12.96-17.33-8.98-35.05-17.55-51.07-28.79-7.62-5.35-14.89-11.36-20.9-18.5-6.3-7.48-10.85-16.4-14.88-25.26-9.16-20.13-14.98-41.67-20.12-63.12-5.07-21.16-9.31-42.53-14.89-63.56-6.2-23.39-14.24-45.94-15.67-70.34-1.36-23.14 3.31-46.29 7.19-69.01 3.67-21.51 8.04-42.95 14.44-63.83 6.3-20.57 14.61-40.83 27.03-58.51 12.53-17.84 28.65-33.13 45.53-46.79 35.83-29.01 76.11-50.13 120.05-63.84 22.93-7.15 46.26-12.94 69.51-18.95 23.1-5.97 45.78-13.31 68.83-19.42 22.49-5.97 45.22-8.89 68.48-6.98 12 .99 23.82 2.28 35.89 2.1 11.32-.17 22.62-1.16 33.83-2.73 47.47-6.63 92.66-23.42 138.73-35.95 23.13-6.29 46.66-11.66 70.57-13.78 26.05-2.3 51.02 5.33 74.67 15.6 22.47 9.76 44.22 21.18 64.9 34.34 20.2 12.86 41.33 27.15 57.11 45.36 26.72 30.85 34.15 72 53.63 106.93 5.19 9.3 11.78 17.61 17.54 26.54 5.67 8.78 10.74 17.95 15.14 27.43 9.46 20.35 15.63 42.01 20.89 63.76 5.72 23.67 13.12 47.08 16.63 71.23 1.78 12.25 2.45 24.77.84 37.07-1.63 12.53-5.96 23.89-12.05 34.9-21.97 39.77-50.35 75.53-83 107.05-16.25 15.69-33.45 30.37-51.22 44.3-18.62 14.59-38.13 27.62-59.75 37.37-10.25 4.62-20.81 8.53-31.52 11.94-11.47 3.66-23.15 6.49-34.39 10.85-21.9 8.51-42.29 20.31-62.85 31.57-21.42 11.74-43.1 22.84-66.99 28.61-22.78 5.5-46.33 6.73-69.67 5.62-47.61-2.27-94.14-13.71-141.33-19.58-22.66-2.82-45.5-4.3-68.32-2.79-1.74.12-1.76 2.85 0 2.73Z" class="cls-1"/><path d="M1079.48 1007.34c.04 27.16-7.25 53.5-21.77 76.5-14.12 22.35-33.85 40.65-55.24 55.93-43.71 31.22-94.19 51.09-143.31 71.97-8.64 3.67-16.93 8.21-25.73 11.47-8.94 3.31-17.92 4.04-27.37 3.5-9.29-.52-18.51-1.9-27.8-2.49-9.94-.64-19.96.04-29.9.36-41.05 1.34-82.34 2.68-122.79-5.76-62.63-13.06-124.61-44.08-169.64-89.92-11.16-11.36-21.27-23.77-29.71-37.29-9.43-15.09-14.92-31.41-19.93-48.39-2.54-8.61-5.04-17.26-8.17-25.68-3.24-8.7-7.37-17.04-11.4-25.39-9.09-18.87-18.74-37.46-28.79-55.83-10.06-18.38-20.53-36.54-31.28-54.52-8.22-13.75-16.51-27.19-26.12-40s-18.78-24.58-26.84-37.76c-6.78-11.09-12.53-22.62-11.39-35.93 1.28-14.9 6.97-29.46 12.45-43.24 5.13-12.91 10.73-25.6 15.38-38.7 10.73-30.23 20.99-61.34 39.28-88.02 9.26-13.5 20.68-25.57 34.4-34.6 14.73-9.69 31.01-17.04 47.65-22.78 33.75-11.64 69.52-16.89 105.06-18.79 18.81-1.01 37.65-.71 56.48-1.15 21.16-.49 42.31-1.47 63.43-2.73 21-1.25 41.99-2.78 62.97-4.35 21.03-1.57 42.12-3.88 63.23-3.43 40.62.86 80.74 9.08 121.44 8.34 6.3-.11 12.71-.4 18.96.66s12.5 3.85 18.03 7.44c12.78 8.28 24.06 19.45 30.88 33.16 6.15 12.37 9.46 26.03 14.15 38.97.59 1.64 3.23.93 2.63-.73-4.82-13.31-8.23-27.35-14.63-40.04-6.62-13.14-17.19-23.65-29.15-32.04-5.44-3.82-11.37-7.06-17.85-8.7-5.85-1.48-11.91-1.61-17.9-1.54-19.18.2-38.1-.66-57.2-2.55-21.51-2.12-43-4.83-64.62-5.58-21.66-.76-43.21 1.44-64.79 3.06-43.14 3.24-86.31 6.3-129.57 7.31-19.26.45-38.53.15-57.77 1.22-17.81.99-35.59 2.87-53.18 5.91-35.01 6.04-70.89 16.61-100.62 36.63-27.13 18.27-43.97 47.09-56.4 76.63-6.25 14.86-11.55 30.1-16.93 45.29-4.77 13.48-10.46 26.54-15.75 39.82-5.5 13.81-11 28.19-12.62 43.07-1.4 12.87 3.05 23.95 9.37 34.96 7.88 13.71 17.61 26.29 27.1 38.9 9.69 12.88 18.21 26.15 26.5 39.97 22.1 36.81 43.04 74.35 61.68 113.04 4.5 9.34 9.05 18.65 12.46 28.45 3.05 8.75 5.54 17.68 8.2 26.56 4.97 16.63 10.94 32.25 20.39 46.88 35.41 54.84 95.36 92.44 155.95 113.8 34.17 12.05 69.54 18.06 105.75 18.98 21.48.55 42.96-.32 64.42-1 10.29-.33 20.55-.82 30.83.05 9.25.78 18.47 2.13 27.77 2.35 9.35.23 18.04-1.31 26.72-4.82 8.04-3.25 15.72-7.31 23.7-10.7 12.21-5.19 24.45-10.29 36.64-15.53 25.79-11.09 51.4-22.79 75.78-36.76 45.33-25.98 89.43-62.11 104.02-114.43 3.63-13.03 5.25-26.52 5.23-40.03 0-1.76-2.73-1.76-2.73 0Z" class="cls-1"/><path d="M1039.04 979.32c-32.36 24.46-58.14 56-88.07 83.14-14.79 13.41-30.74 25.68-48.53 34.85-19.46 10.04-42.13 17.35-64.2 17.14-23.27-.22-43.44-11.1-63.37-21.89-10.37-5.62-20.83-10.6-32.15-14.01-11.03-3.32-22.39-5.4-33.81-6.81-47.39-5.87-97.79.15-142.45-19.98-20.67-9.32-39.26-23.73-55.28-39.63-16.42-16.29-31.35-35.59-39.09-57.62-4.01-11.43-5.72-23.71-6.96-35.7-1.33-12.91-1.77-25.91-1.61-38.89.33-26.22 3.05-52.38 6.89-78.3 1.95-13.16 3.52-26.25 4.26-39.54.8-14.23 1.05-28.48 1.74-42.72.67-13.89 1.54-27.97 4.24-41.63 1.94-9.84 5.83-19.27 11.87-27.31 11.62-15.47 29.95-24.04 48.74-26.95 11.88-1.84 24.15-1.54 36.13-1.45 13.6.1 27.2.66 40.77 1.56 55.7 3.68 110.83 12.84 165.94 21.35 13.27 2.05 26.69 3.61 39.89 6.08 10.58 1.98 20.91 5.31 30.48 10.28 17.54 9.13 31.36 23.32 44.14 38.12 6.6 7.65 13.03 15.45 19.68 23.05 1.16 1.32 3.08-.61 1.93-1.93-13.5-15.42-25.97-32.01-41.41-45.61-15.72-13.85-34.36-23-55.01-26.72-13.44-2.42-27.05-4.07-40.55-6.15-13.95-2.16-27.9-4.35-41.85-6.48-27.97-4.27-55.99-8.29-84.13-11.3-27.92-2.99-55.98-4.99-84.07-5-21.18-.01-42.37.62-61.38 11.1-16.87 9.29-28.76 25.06-33.19 43.8-3.14 13.27-3.97 27.27-4.72 40.84-.78 14.22-1.04 28.47-1.74 42.7-.71 14.52-2.26 28.82-4.39 43.19-1.85 12.51-3.45 25.07-4.65 37.66-2.55 26.63-3.49 53.6-.73 80.26 1.22 11.83 2.84 23.94 6.65 35.25 3.6 10.68 8.96 20.73 15.23 30.07 13.19 19.64 30.31 36.7 49.21 50.86 18.73 14.03 39.34 24.07 62.23 29.19 23.77 5.32 48.24 6.14 72.48 7.27 24.18 1.13 48.67 2.47 72.05 9.23 12.04 3.48 23.06 8.73 34.04 14.68 9.75 5.29 19.49 10.65 29.82 14.77 10.6 4.22 21.78 6.82 33.21 7.05s23.52-1.94 34.81-5.05c19.99-5.5 38.6-15.01 55.42-27.06 33.4-23.92 59.47-56.14 89.56-83.79 7.48-6.87 15.21-13.47 23.32-19.6 1.38-1.05.03-3.42-1.38-2.36Z" class="cls-1"/><path d="M884.77 996.56c11.92-2.51 22.34-9.5 30.73-18.15 9.76-10.06 17.16-22.31 22.88-35.04 6.3-14.02 10.72-28.88 13.36-44.01 2.59-14.8 3.58-29.99 2.17-44.98-1.23-13.06-4.22-26.25-10.59-37.82-3.4-6.17-7.72-11.86-13.58-15.88-8.13-5.58-17.81-8.34-26.91-11.88-22.27-8.65-41-24.15-61.94-35.34-20.53-10.96-42.58-19.13-64.98-25.35a369.448 369.448 0 0 0-34.17-7.77c-10.73-1.9-21.54-3.17-32.24-5.25-21.25-4.13-43.23-9.72-65.04-7.13-9.93 1.18-19.54 4.25-27.88 9.85-7.64 5.13-14.13 11.83-19.76 19.07-11.75 15.09-20.29 32.52-27.33 50.22-8.06 20.26-13.98 41.56-13.47 63.53.51 22.33 7.46 43.79 15.77 64.32 3.76 9.29 7.45 18.63 11.29 27.89 3.55 8.54 7.36 17.02 12.26 24.88 4.63 7.44 10.27 14.29 17.21 19.68 8.26 6.42 17.69 9.67 27.57 12.75 24.57 7.65 49.56 13.83 74.3 20.91 12.48 3.58 24.89 7.41 37.15 11.7 11.72 4.11 23.54 8.42 35.89 10.17 17.97 2.54 35.58-2.5 51.96-9.64s33.04-17.2 45.56-30.54c5.04-5.37 9.45-11.42 12.14-18.31.64-1.64-2-2.35-2.63-.73-2.76 7.08-7.58 13.22-12.87 18.59-6.18 6.28-13.24 11.66-20.65 16.41-14.91 9.55-31.69 17.17-49.1 20.73-9.33 1.91-18.62 1.92-28 .14-12.07-2.29-23.57-6.71-35.15-10.69-23.95-8.25-48.49-14.61-72.9-21.29-12.04-3.3-24.06-6.67-35.98-10.4-5.23-1.64-10.51-3.19-15.44-5.6-4.05-1.98-7.9-4.42-11.38-7.29-13.88-11.43-21.63-28.29-28.29-44.58-3.82-9.34-7.62-18.7-11.34-28.08-4.21-10.6-8.02-21.39-10.71-32.48-4.99-20.51-5.09-41.35-.17-61.89 4.61-19.22 12.32-38.11 21.63-55.52 8.66-16.19 19.72-32.88 35.63-42.74 18.11-11.23 40.53-9.87 60.73-6.63 10.73 1.72 21.34 4.07 32.02 6.07 10.48 1.96 21.08 3.14 31.56 5.09 22.6 4.22 44.89 10.51 66.29 18.93 10.56 4.16 20.94 8.85 30.9 14.3 10.26 5.62 19.99 12.13 29.91 18.33 9.59 6 19.44 11.77 29.97 15.96 9.03 3.59 18.62 6.24 26.78 11.69 10.83 7.23 16.67 20.63 19.94 32.8 3.63 13.53 4.45 27.74 3.69 41.69-.81 15.03-3.55 29.97-7.94 44.36-4.22 13.84-10.02 27.31-17.92 39.47-6.85 10.56-15.5 20.41-26.43 26.86-4.74 2.8-9.85 4.86-15.24 5.99-1.72.36-.99 2.99.73 2.63Z" class="cls-1"/><path d="M827.37 932.26c9.75-9.76 14.54-23.74 16.67-37.1 2.41-15.09 1.79-30.92-2.36-45.65-3.63-12.91-10.36-25.85-21.95-33.28-5.94-3.81-12.72-6.28-19.49-8.12-8.03-2.18-16.3-3.46-24.58-4.19-16.43-1.44-33.48-.92-49.58 2.88-13.21 3.12-26.53 9.48-32.13 22.66-5.33 12.54-2.33 26.93 3.06 38.91 5.83 12.97 15.07 24.85 26.5 33.35 2.68 2 5.51 3.73 8.48 5.27 5.16 2.67 10.37 5.25 15.65 7.66 9.63 4.39 19.51 8.26 29.72 11.09 19.82 5.49 40.38 6.34 60.55 2.3 5.42-1.09 10.78-2.49 16.06-4.14 1.67-.52.96-3.16-.73-2.63-19.77 6.15-40.47 8.43-60.97 5-20.45-3.42-39.69-11.72-58.01-21.17-12.3-6.34-22.18-16.32-29.49-28.01-6.93-11.08-12.18-24.54-10.63-37.83.7-6 3.08-11.8 7.05-16.38 4.44-5.13 10.44-8.58 16.76-10.86 14.26-5.14 30.08-6.27 45.12-6.02 15.7.26 32.07 2.18 46.69 8.19 5.79 2.38 11.16 5.61 15.52 10.16 4.52 4.72 7.92 10.46 10.46 16.45 5.71 13.43 7.55 28.51 6.76 43-.75 13.75-3.94 28.15-11.62 39.79-1.6 2.43-3.42 4.69-5.48 6.75-1.24 1.24.69 3.18 1.93 1.93Zm721.43-618.57c20.51-6.63 43.79-13.38 58.24-30.48 13.59-16.08 16.63-40.8 9.99-60.51-12.16-36.12-56.11-45.85-88.54-54.38-9.06-2.38-18.13-4.74-27.04-7.63-13-4.22-25.62-9.74-38.27-14.91-31.88-13.03-63.52-26.65-95.37-39.76-31.81-13.1-63.84-25.72-96.46-36.69-8.06-2.71-16.15-5.32-24.28-7.8-6.63-2.02-13.4-4.47-20.35-5.11-6.21-.57-12.25 1.12-18.02 3.26-6.32 2.34-11.15 6.48-16.33 10.65-12.15 9.78-28.28 14.08-43.12 18.01-15.25 4.03-30.57 7.55-45.61 12.36-32.58 10.43-65.14 20.99-97.05 33.36-15.31 5.94-30.18 12.8-45.33 19.09-11.74 4.87-24.19 8.68-34.86 15.76-11.01 7.31-16.25 17.83-17.53 30.79-1.4 14.08-1.49 28.51-1.36 42.66.23 24.78 3.11 49.61 12.19 72.83 9.62 24.62 25.76 45.13 41.28 66.22 7.43 10.11 15.3 20.38 25.41 27.97 8.67 6.51 18.84 9.15 29.47 10.39 24.98 2.91 50.77-1.07 75.34-5.47 25.97-4.64 51.75-10.4 77.63-15.51 33.98-6.71 67.96-13.41 101.79-20.86 33.75-7.43 67.57-15.29 100.68-25.26 31.89-9.6 62.41-23.05 93.6-34.6 14.98-5.54 30.13-10.63 45.6-14.61 1.7-.44.98-3.07-.73-2.63-31.18 8.03-60.92 20.53-90.87 32.15-15.11 5.86-30.32 11.52-45.82 16.3-15.86 4.89-31.97 9.02-48.05 13.08-63.73 16.06-128.38 27.63-192.7 40.94-23.53 4.87-47.03 10-70.93 12.75-12.09 1.4-24.3 2.26-36.47 1.71-10.63-.48-22.27-1.76-31.68-7.11-11.23-6.37-19.76-17.1-27.41-27.26-7.65-10.17-15.41-20.39-22.7-30.82-14.35-20.55-24.7-43.32-29.29-68.03-4.78-25.76-3.98-52.28-2.7-78.33.34-6.9.92-13.96 3.73-20.36 2.85-6.48 7.84-11.35 13.72-15.12 10.67-6.85 22.97-10.54 34.58-15.44 14.93-6.3 29.65-12.98 44.77-18.83 15.31-5.92 30.77-11.43 46.31-16.71 15.78-5.36 31.65-10.49 47.52-15.58 14.72-4.72 29.62-8.41 44.58-12.25 13.94-3.58 28.97-7.37 41.4-14.89 5.69-3.44 10.25-8.44 15.89-11.94 5.64-3.51 13.33-5.95 20.01-6.05s13.65 2.4 20.12 4.35c7.92 2.39 15.8 4.9 23.65 7.51 15.61 5.19 31.09 10.78 46.47 16.61 31.44 11.93 62.46 24.92 93.46 37.95 29.09 12.22 58.08 25.31 87.79 35.97 17.22 6.18 35.21 9.91 52.75 15.01 17.34 5.04 35.51 11.13 49.56 22.9 14.59 12.21 20.84 29.56 19.85 48.35-.63 11.9-4.08 23.61-11.69 32.95-6.81 8.35-16.07 14.19-25.74 18.72-10.25 4.8-21.08 8.23-31.83 11.71-1.67.54-.95 3.18.73 2.63ZM791.01 177.32c11.42 41.07-9.14 80.67-21.53 118.89-5.88 18.14-10.02 36.74-8.86 55.9 1.02 16.86 3.49 33.72 6.98 50.24 3.76 17.76 8.39 37.31 19.04 52.37.39-.68.79-1.37 1.18-2.05-48.81 3.48-96.21 16.31-144.26 24.72-24.23 4.24-48.72 7.37-73.35 7.46-12.26.05-24.43-1.27-36.68-1.46-11.86-.18-23.73.53-35.51 1.92-48.52 5.73-94.88 22.45-140.7 38.62-20.58 7.26-41.13 15.41-62.59 19.71-9.28 1.86-18.64 3.46-27.77 5.99-7.18 1.99-14.26 4.57-19.78 9.75-12.08 11.34-16.58 29.25-21.25 44.54-6.53 21.39-14.67 42.62-24.02 62.93-2.51 5.45-5.18 10.82-8.02 16.1.51-.21 1.03-.42 1.54-.63-24.19-9.92-44.09-28.22-65.05-43.36-10.46-7.56-21.56-14.19-32.17-21.54-10.09-6.99-19.89-14.41-29.07-22.57a223.153 223.153 0 0 1-29.59-32c-1.05-1.38-3.42-.02-2.36 1.38 15.23 20.11 33.68 37.01 54.14 51.68 10.63 7.62 21.83 14.36 32.57 21.8 11.34 7.86 22.11 16.52 33.22 24.69 11.78 8.66 23.98 16.99 37.57 22.56.53.22 1.28-.14 1.54-.63 11.2-20.82 19.48-43.04 27.55-65.21 5.81-15.96 8.98-33.26 17.7-48.02 4.31-7.28 10-12.99 17.94-16.14 8.39-3.33 17.44-5.02 26.26-6.76 8.58-1.7 17.28-3.13 25.67-5.67 11.25-3.41 22.34-7.41 33.43-11.3 45.44-15.9 90.9-33.2 138.59-41.09 12.07-2 24.25-3.34 36.48-3.83 11.97-.47 23.76.39 35.7.97 23.64 1.14 47.3-.88 70.67-4.32 48.15-7.08 95.24-20.32 143.64-25.88 5.97-.69 11.95-1.24 17.95-1.67.94-.07 1.82-1.14 1.18-2.05-9.53-13.48-13.97-30.61-17.61-46.48-3.91-17.06-6.6-34.5-7.85-51.96-2.9-40.29 16.89-75.84 27.54-113.56 5.98-21.18 8.55-43.27 2.57-64.76-.47-1.69-3.11-.97-2.63.73Z" class="cls-1"/><path d="M716.81 211.1c10.91 27.53 4.85 59.62-.69 87.67-2.85 14.48-6.19 28.86-8.7 43.41-2.1 12.15-3.16 24.5-6.51 36.4-2.11 7.48-5.21 14.93-11.21 20.13-5.91 5.11-13.76 7.43-21.2 9.24-13.28 3.23-26.85 5.09-40.19 8.07-18.65 4.16-37.05 9.37-55.31 14.97-18.28 5.6-36.34 11.95-54.77 17.05-17.54 4.85-35.37 8.57-53.29 11.76-34.9 6.22-69.96 10.82-104.26 20.02-66.78 17.91-132.45 45.92-202.44 47.98-29.19.86-60.67-1.77-83.06-22.69-8.56-8-15.04-18.27-17.29-29.86-2.38-12.28.53-24.82 6.68-35.57 3.79-6.62 8.67-12.48 14.09-17.82 1.25-1.24-.68-3.17-1.93-1.93-10.04 9.91-18.48 22.02-21.34 36.04-2.26 11.1-.75 22.54 4.15 32.73 11.26 23.4 37.04 36.76 61.86 40.18 34.55 4.76 70.24.1 104.04-7.46 35.36-7.9 69.76-19.45 104.41-29.91 16.9-5.1 33.88-9.97 51.08-13.98 18.07-4.22 36.39-7.09 54.69-10.07 18.12-2.94 36.24-5.9 54.19-9.72 18.77-3.99 37.09-9.26 55.35-15.12 19.01-6.1 38.06-12.13 57.33-17.37 17.43-4.74 35-8.42 52.74-11.75 16.01-3 34.68-6.01 43.34-21.57 4.84-8.7 6.75-18.92 8.37-28.63 2.36-14.16 4.46-28.27 7.38-42.34 6.16-29.61 14.02-60.8 9.99-91.23-.88-6.63-2.42-13.13-4.89-19.36-.64-1.61-3.28-.91-2.63.73Z" class="cls-1"/><path d="M661.1 208.94c3.39 22.23 1.37 45.09-8.06 65.67-8.5 18.55-22.07 34.17-37.54 47.28-16.14 13.67-34.32 24.78-52.88 34.82-23.46 12.7-47.66 24.08-72.14 34.68-27.58 11.94-55.64 22.75-83.8 33.23-14.27 5.31-28.6 10.44-42.84 15.83-13.06 4.94-25.92 10.38-39.02 15.23-23.67 8.76-48.74 15.16-73.82 8.56-24.73-6.51-46.44-23.27-63.81-41.55-33.9-35.67-54.78-82.09-70.74-128.05-1.94-5.6-3.81-11.22-5.63-16.86-.54-1.67-3.17-.95-2.63.73 15.16 47.07 34.34 94.45 65.75 133.21 15.55 19.18 34.58 36.55 56.79 47.67 11.97 6 24.96 9.74 38.37 10.34 12.32.55 24.61-1.52 36.45-4.82 13.01-3.63 25.58-8.65 38.11-13.64 14.05-5.59 28.19-10.9 42.39-16.13 28.9-10.64 57.77-21.39 86.25-33.15 27.03-11.16 53.68-23.23 79.68-36.61 19.13-9.84 37.98-20.48 55.21-33.43 16.49-12.4 31.62-27.04 42.3-44.82 11.11-18.5 16.47-39.72 15.88-61.27-.16-5.92-.76-11.81-1.65-17.66-.26-1.73-2.9-1-2.63.73Z" class="cls-1"/><path d="M551.68 255.28c-16.04 19.41-34.94 36.34-55.32 51.06-20.89 15.09-43.36 27.96-66.65 38.97-22.93 10.83-46.72 19.86-71.02 27.12-11.97 3.58-24 6.98-36.59 7.12-10.83.11-21.58-2.08-31.49-6.47-20.26-8.97-36.21-25.33-51.13-41.25-2.02-2.16-4.04-4.33-6.05-6.5-1.2-1.29-3.12.64-1.93 1.93 15.29 16.53 31.03 33.9 51.01 44.85 9.36 5.13 19.55 8.54 30.17 9.71 12.31 1.35 24.52-.51 36.38-3.78a512.17 512.17 0 0 0 71.91-25.74c23.95-10.65 47.11-23.21 68.77-37.99 21.06-14.38 40.79-30.91 57.77-49.99 2.07-2.33 4.1-4.7 6.09-7.11 1.11-1.34-.81-3.29-1.93-1.93Zm16.34 1036.06c-19.28-28.39-54.59-37.01-79.71-58.52-4.81-4.12-8.98-8.82-12.33-14.2-3.91-6.27-6.9-13.08-9.9-19.81-7.23-16.22-14.92-32.25-23.85-47.61-8.36-14.38-17.8-28.11-28.42-40.91a291.345 291.345 0 0 0-17.64-19.37c-6.26-6.29-12.69-12.56-19.71-17.99-7.26-5.61-15.07-10.53-22.06-16.5-3.25-2.78-6.3-5.8-8.79-9.29-2.03-2.85-3.68-5.92-5.23-9.05-2.76-5.56-5.47-11.19-10.94-14.57-6.09-3.78-13.62-4.49-20.6-3.73-16.2 1.78-31.11 9.11-46.62 13.57-14.2 4.08-30.41 3.79-42.64 13.1-2.93 2.23-5.39 4.92-7.39 8-.96 1.48 1.4 2.85 2.36 1.38 8.83-13.59 26.25-15.19 40.76-18.03 15.33-3.01 29.53-10.06 44.71-13.68 6.96-1.66 14.37-2.79 21.41-.97 3.49.9 6.84 2.39 9.46 4.91 2.1 2.02 3.62 4.51 4.96 7.08 3.34 6.37 6.26 12.72 11.2 18.07 5.92 6.41 13.31 11.37 20.37 16.43 14.26 10.23 26.88 22.54 38.51 35.66 11.02 12.44 20.88 25.85 29.59 40 8.95 14.53 16.71 29.75 23.85 45.24 6.01 13.05 10.99 27.27 20.74 38.12s24.14 18.96 37.22 26.39c14.31 8.13 29.11 16.23 40.64 28.2 2.83 2.93 5.41 6.08 7.7 9.45.98 1.45 3.35.08 2.36-1.38ZM279.36 999.78c4.46-13.57 8.32-27.34 11.37-41.29 3.11-14.23 5.39-28.66 6.5-43.19 1.1-14.34 1.04-28.8-.74-43.08-1.71-13.76-4.99-27.33-10.38-40.13-5.43-12.9-12.99-24.84-22.49-35.13-11.19-12.11-24.92-21.36-39.24-29.38-15.89-8.9-32.74-15.99-49.99-21.77-17.25-5.77-34.91-10.24-52.67-14.17-17.79-3.94-35.68-7.34-53.53-11.01-17.99-3.7-35.95-7.66-53.63-12.66-4.31-1.22-8.61-2.5-12.88-3.86-1.68-.53-2.4 2.1-.73 2.63 17.31 5.47 34.95 9.77 52.68 13.61 17.75 3.84 35.59 7.22 53.37 10.92 17.59 3.66 35.12 7.64 52.37 12.69 17.3 5.07 34.31 11.24 50.54 19.13 15.41 7.49 30.76 16.3 43.59 27.75 10.54 9.4 19.29 20.65 25.82 33.17 6.33 12.15 10.52 25.33 12.99 38.78s3.26 28.02 2.77 42.09c-.5 14.43-2.29 28.81-4.97 42.99-2.65 14-6.15 27.83-10.3 41.45-.99 3.25-2.02 6.49-3.08 9.71-.55 1.67 2.09 2.39 2.63.73Zm212.88 312.99c-16.26-19.7-36.28-35.68-54.93-52.98-9.3-8.63-18.3-17.65-26.26-27.55-7.88-9.8-14.84-20.32-21.86-30.74-7.07-10.5-14.17-20.99-22.1-30.87-7.37-9.17-15.46-17.97-25.07-24.83-17.79-12.7-39.54-18.22-61.08-19.88-21.95-1.69-44.02.41-65.75 3.53-2.53.36-5.07.74-7.6 1.13-1.73.27-1 2.9.73 2.63 21.37-3.3 43-5.79 64.65-5.01 21.5.78 43.44 4.95 62.04 16.25 9.85 5.98 18.11 13.96 25.61 22.66 8.2 9.5 15.4 19.81 22.44 30.18 6.98 10.29 13.78 20.7 21.24 30.65 7.53 10.04 15.95 19.27 24.96 27.99 18.13 17.52 38.13 33.09 55.06 51.84 2.05 2.26 4.04 4.57 5.98 6.93 1.12 1.36 3.04-.58 1.93-1.93Z" class="cls-1"/><g style="opacity:.15"><path d="M1250.03 973.59c2.4-.77 4.31-2.36 5.53-4.35.07.05.15.09.24.13 15.45 6.51 31.57 10.9 47.98 14.25 15.69 3.21 31.52 5.85 47 9.99 8.53 2.28 16.97 5.01 25.02 8.67 1.59.72 2.98-1.63 1.38-2.36-14.5-6.58-30.06-10.36-45.59-13.57-15.85-3.27-31.87-5.85-47.5-10.13-9.33-2.55-18.51-5.68-27.43-9.43.55-1.87.56-3.92-.07-5.92-.82-2.57-2.6-4.67-5.01-5.91a10.04 10.04 0 0 0-7.72-.64c-2.57.82-4.67 2.6-5.91 5-1.24 2.4-1.46 5.14-.64 7.72 1.7 5.31 7.41 8.25 12.72 6.55Zm-5.34-16.67c3.88-1.24 8.05.9 9.29 4.78 1.24 3.88-.9 8.05-4.78 9.29-.75.24-1.5.35-2.25.35-3.13 0-6.04-2-7.04-5.13-1.24-3.88.9-8.05 4.78-9.29Zm-49.05-18.51c1.7 5.31 7.41 8.25 12.72 6.55 5.31-1.7 8.25-7.41 6.55-12.72-1.37-4.29-5.36-7.03-9.64-7.03-1.02 0-2.06.16-3.08.48-2.57.82-4.67 2.6-5.91 5-1.24 2.4-1.46 5.14-.64 7.72Zm3.07-6.47a7.35 7.35 0 0 1 4.31-3.65c3.88-1.24 8.05.9 9.29 4.78 1.24 3.88-.9 8.05-4.78 9.29-.75.24-1.5.35-2.25.35-3.13 0-6.04-2-7.04-5.13-.6-1.88-.44-3.88.47-5.63Z" style="fill:#f0f"/></g><path d="M2039.82 687.6c1.61 8.16 3.78 16.26 4.72 24.53 1.4 12.24 2.2 24.54 2.68 36.85.95 24.6.6 49.23 1.16 73.84.07 3.04.15 6.07.25 9.11.06 1.75 2.79 1.76 2.73 0-.78-24.08-.46-48.18-1.07-72.26-.31-12.12-.85-24.25-1.89-36.33-.44-5.13-.87-10.3-1.67-15.39-.6-3.81-1.42-7.59-2.23-11.36-1.84-8.61-3.84-17.27-4.39-26.08-.45-7.17.33-14.35 4.58-20.37 7.44-10.56 21.48-5.77 31-1.21 12.57 6.01 23.71 14.48 35.9 21.15 1.05.58 2.12 1.13 3.2 1.65a7.366 7.366 0 0 0-.48 5.3c1.13 3.92 5.23 6.2 9.15 5.07a7.412 7.412 0 0 0 5.07-9.15c-.55-1.9-1.8-3.47-3.53-4.43a7.316 7.316 0 0 0-3.57-.93 7.416 7.416 0 0 0-4.98 1.92c-5.68-2.72-10.99-6.19-16.31-9.55-6.28-3.96-12.57-7.95-19.14-11.42-9.87-5.2-24.48-11.92-34.73-3.98-5.27 4.08-8.07 11-8.78 17.47-.94 8.49.71 17.25 2.35 25.56Zm78.29-14.43c.49-.88 1.29-1.51 2.25-1.79.97-.28 1.98-.16 2.86.32s1.51 1.29 1.79 2.25c.57 1.99-.58 4.08-2.57 4.65-.35.1-.69.15-1.04.15-1.63 0-3.14-1.07-3.61-2.72a3.75 3.75 0 0 1 .32-2.86Zm-155.44-73.43c3.39 11.31 7.1 22.53 9.09 34.2 4.4 25.85 7.98 51.84 10.9 77.89 2.91 26 5.15 52.08 6.86 78.19 1.62 24.89 2.32 49.83 4 74.71 1.55 22.97 3.6 46.48-.04 69.35-.43 2.68-.94 5.34-1.55 7.98-.39 1.71 2.24 2.44 2.63.73 5.14-22.28 3.8-45.64 2.34-68.27-.74-11.42-1.56-22.83-2.02-34.26-.53-13.2-1.18-26.4-1.97-39.59-1.56-26.24-3.66-52.44-6.41-78.58-2.73-25.97-6.1-51.88-10.25-77.67-1-6.2-1.9-12.45-3.29-18.58-1.29-5.69-2.93-11.29-4.62-16.87-3.4-11.21-7.23-22.47-8.76-34.13-.31-2.36-.5-4.74-.57-7.12 18.31-1.95 36.84-.63 55.13 1.11.04.24.06.48.13.72.84 2.92 3.88 4.6 6.8 3.77 2.92-.84 4.6-3.88 3.77-6.8a5.503 5.503 0 0 0-6.8-3.77c-1.74.5-3.03 1.8-3.62 3.37-18.84-1.79-37.94-3.17-56.8-.99-.73.08-1.38.56-1.37 1.37.14 11.35 3.19 22.44 6.43 33.24Z" class="cls-1"/><circle cx="1968.49" cy="460.41" r="5.5" class="cls-1"/><path d="M1742.1 311.32c24.64 13.43 48.95 27.79 70.96 45.29 10.93 8.69 21.27 18.13 30.7 28.43 9.67 10.56 18.83 22 25.53 34.71 6.64 12.58 11.21 26.11 17.48 38.87 3.11 6.34 6.65 12.47 10.94 18.09 4.29 5.63 9.09 10.95 13.95 16.09 8.96 9.48 18.9 18.33 30.44 24.55 5.52 2.98 11.39 5.34 17.48 6.88 5.95 1.51 12.08 2.14 18.18 2.67 13.04 1.13 26.13 1.47 39.14 2.9 12.69 1.4 25.69 3.76 37.17 9.59 2.47 1.26 4.85 2.69 7.13 4.28a6.896 6.896 0 0 0-.55 5.14 6.862 6.862 0 0 0 3.29 4.13c1.61.89 3.47 1.1 5.24.59 1.77-.51 3.24-1.67 4.13-3.29s1.1-3.47.59-5.24a6.906 6.906 0 0 0-6.63-4.99c-.63 0-1.27.09-1.9.27-.92.26-1.74.71-2.44 1.28-10.17-7.19-22.37-10.81-34.53-12.89-13.01-2.23-26.23-2.85-39.38-3.68-12.59-.79-25.34-1.48-37.21-6.11-12.12-4.73-22.66-12.72-31.97-21.68-4.97-4.78-9.63-9.86-14.14-15.08-4.85-5.62-9.25-11.42-12.91-17.9-6.95-12.3-11.56-25.7-17.5-38.48-3.04-6.54-6.46-12.92-10.57-18.86-4.04-5.84-8.39-11.47-12.98-16.89-8.99-10.63-18.95-20.42-29.57-29.42-21.33-18.07-45.15-32.93-69.51-46.54-3.05-1.7-6.11-3.39-9.17-5.06-1.54-.84-2.92 1.52-1.38 2.36Zm324.01 231.57c2.21-.63 4.52.65 5.15 2.85a4.13 4.13 0 0 1-.36 3.17 4.16 4.16 0 0 1-2.49 1.99 4.21 4.21 0 0 1-3.17-.36 4.16 4.16 0 0 1-1.99-2.49c-.63-2.21.65-4.52 2.85-5.15Zm-229.46-350.68c5.46 9.36 12.15 18.09 18.41 27.02 6.64 9.48 12.93 19.18 19.07 28.91 12.72 20.16 24.33 40.98 32.37 63 .87 2.37 1.68 4.76 2.46 7.16-2.51 1.67-3.77 4.84-2.89 7.88a7.082 7.082 0 0 0 3.39 4.26c1.66.92 3.59 1.14 5.41.61 3.77-1.08 5.96-5.03 4.88-8.81a7.128 7.128 0 0 0-6.84-5.15c-.48 0-.96.07-1.44.17-7.06-21.44-17.58-41.85-29.5-61.49-6.13-10.1-12.62-20.03-19.22-29.9-5.96-8.91-12.47-17.52-18.43-26.43-5.93-8.87-11.58-18.32-13.7-28.56-1.46-7.08-.27-13.72 4.1-19.8 4.12-5.74 9.48-10.68 13.37-16.57 5.41-8.18 7.56-17.28 8.91-26.59 3.14-21.6 1.36-43.82 7.29-65.09.56-2.01 1.22-4 1.94-5.97.95.13 1.92.08 2.87-.2a6.827 6.827 0 0 0 4.13-3.29c.89-1.61 1.1-3.47.59-5.24a6.862 6.862 0 0 0-3.29-4.13 6.924 6.924 0 0 0-3.33-.87c-.64 0-1.28.09-1.91.27a6.862 6.862 0 0 0-4.13 3.29 6.842 6.842 0 0 0-.59 5.24c.49 1.71 1.6 3.13 3.12 4.02-7.49 20.35-6.35 42.32-8.39 63.41-.97 10.02-2.2 20.58-7.09 29.78-3.49 6.58-8.78 11.99-13.59 17.81-4.39 5.32-7.39 11.14-7.39 17.84 0 9.6 4.51 19.03 9.41 27.41Zm80 130.94a3.885 3.885 0 0 1-3.74 4.95c-.65 0-1.29-.16-1.87-.49-.91-.5-1.56-1.33-1.85-2.32a3.88 3.88 0 0 1 7.46-2.14Zm-53.44-291.96a4.13 4.13 0 0 1 .36-3.17 4.11 4.11 0 0 1 2.49-1.98 4.13 4.13 0 0 1 3.17.36 4.16 4.16 0 0 1 1.63 5.66 4.16 4.16 0 0 1-2.49 1.99 4.21 4.21 0 0 1-3.17-.36 4.16 4.16 0 0 1-1.99-2.49Zm-393.12 1.8a6.862 6.862 0 0 0 3.29 4.13c1.61.89 3.47 1.1 5.24.59.86-.25 1.65-.65 2.34-1.19 27.38 17.32 51.58 38.38 76.23 58.83 24.56 20.36 50.03 40.03 79.05 54.7 11.45 5.79 23.33 10.73 35.04 16.02 10.22 4.63 20.39 9.64 29.19 16.4 9.37 7.2 16.71 16.21 22.07 26.33 3.62 6.85 6.32 14.09 8.64 21.4 2.49 7.86 4.43 15.86 5.72 23.96 4.94 31.02-1.02 61.92-6.64 92.47-.77 4.19-1.53 8.38-2.28 12.57-.27 1.53 2.25 2.19 2.52.65 5.49-31.05 12.97-62.38 10.4-94.04-1.33-16.38-5.2-32.68-11.4-48.07-4.6-11.4-11.06-22.16-20.18-30.98-16.68-16.12-40.04-23.91-61.12-33.68-14.17-6.57-27.74-14.11-40.66-22.63-13.73-9.05-26.71-19.04-39.38-29.33-25.1-20.4-49.13-42-76.1-60.3a374.35 374.35 0 0 0-9.45-6.19c.04-.07.09-.14.13-.22.89-1.61 1.1-3.47.59-5.24a6.862 6.862 0 0 0-3.29-4.13 6.924 6.924 0 0 0-3.33-.87c-.64 0-1.28.09-1.91.27a6.862 6.862 0 0 0-4.13 3.29 6.842 6.842 0 0 0-.59 5.24Zm2.98-3.92a4.11 4.11 0 0 1 2.49-1.98 4.13 4.13 0 0 1 3.17.36 4.16 4.16 0 0 1 1.63 5.66 4.16 4.16 0 0 1-2.49 1.99 4.21 4.21 0 0 1-3.17-.36 4.16 4.16 0 0 1-1.63-5.66Z" class="cls-1"/><path d="M1869.96 157.72c2.21 9.3 5.7 18.23 8.35 27.4.49 1.69 3.12.97 2.63-.73-4.42-15.29-11.76-30.79-9.96-47.09.8-7.27 3.73-14.38 6.45-21.12 2.68-6.64 5.79-13.12 9.49-19.26 3.96-6.55 8.64-12.72 14.46-17.73 1.3.87 2.95 1.21 4.58.74 2.92-.84 4.6-3.88 3.77-6.8a5.503 5.503 0 0 0-6.8-3.77c-2.92.84-4.6 3.88-3.77 6.8.1.35.24.68.4 1-10.85 9.31-18.06 22.43-23.56 35.42-1.4 3.3-2.7 6.64-3.91 10.02-1.29 3.6-2.57 7.23-3.28 10.99-1.51 8.04-.71 16.21 1.17 24.12Zm-867.93-41.11c2.21 9.3 5.7 18.23 8.35 27.4.49 1.68 3.12.97 2.63-.73-4.42-15.29-11.76-30.79-9.96-47.09.8-7.27 3.73-14.38 6.45-21.12 2.68-6.64 5.79-13.12 9.49-19.26 3.48-5.77 7.53-11.24 12.42-15.89 1.27.78 2.85 1.07 4.4.62 2.92-.84 4.6-3.88 3.77-6.8a5.503 5.503 0 0 0-6.8-3.77c-2.92.84-4.6 3.88-3.77 6.8.12.42.3.81.51 1.18-9.69 9.15-16.32 21.39-21.46 33.52-1.4 3.3-2.7 6.64-3.91 10.02-1.29 3.6-2.58 7.23-3.28 10.99-1.51 8.04-.71 16.21 1.17 24.12Zm647.98-98.94c.84 2.92 3.88 4.6 6.8 3.77 1.11-.32 2.04-.96 2.72-1.79 18.37 8.11 34.83 19.07 49.97 30.93 16.88 13.22 32.29 27.73 46.86 42.76 7.05 7.27 13.89 14.67 20.59 22.17 6.06 6.78 12.4 13.52 17.51 20.85 10.39 14.91 16.08 31.84 19.31 48.81 3.42 17.95 4.12 36.22 3.67 54.36-.42 17.47-1.77 34.98-3.74 52.37-.87 7.7-2.66 15.52-2.06 23.28.56 7.27 3.94 13.76 9.15 19.53 7.12 7.89 16.16 14.45 24.97 20.96 9.42 6.96 18.46 14.02 26.58 22.07 8.45 8.38 16.79 16.86 25.78 24.84 6.79 6.03 13.99 11.48 21.7 16.66 7.78 5.22 15.68 10.31 23.2 15.79 7.08 5.15 14.16 10.66 19.4 17.24 2.15 2.7 3.94 5.58 4.93 8.74.41 1.32 2.85.76 2.43-.56-2.09-6.62-7.35-12.26-12.81-17.19-6.75-6.09-14.4-11.45-22.11-16.66-7.48-5.06-15.18-9.91-22.42-15.21-8.77-6.41-16.58-13.78-24.18-21.15-8.54-8.28-16.51-17.05-25.85-24.71-8.7-7.13-18.21-13.51-27-20.56-7.84-6.29-16.16-13.35-19.58-22.23-2.64-6.83-1.8-14.05-.88-21.06 2.27-17.29 3.81-34.68 4.63-52.06.87-18.25.74-36.61-1.74-54.78-2.34-17.12-6.76-34.21-15.31-49.94-4.21-7.74-9.62-14.73-15.59-21.57a906.29 906.29 0 0 0-18.87-20.98c-14.29-15.37-29.32-30.29-45.66-44.15-15.69-13.31-32.7-25.81-51.75-35.63-3.31-1.71-6.69-3.32-10.14-4.83.29-.97.32-2.03.02-3.07a5.503 5.503 0 0 0-6.8-3.77c-2.92.84-4.6 3.88-3.77 6.8Zm-504.24 223.88c8.52 5.05 17.67 9.02 26.91 12.56 8.95 3.42 18.08 6.39 27.3 9.01 18.56 5.26 37.62 8.22 56.76 10.48 28.39 3.36 57.16 4.68 85.7 2.6 26.86-1.95 54.38-6.79 78.67-18.92 5.3-2.65 10.41-5.67 15.24-9.11.35-.25.53-.59.58-.93.81.85 2.64.11 2.31-1.34-2.39-10.44-6.83-20.37-13.21-28.98-6.23-8.41-14.06-15.49-22.75-21.29-18.76-12.52-41.02-19.29-63.06-23.16-22.39-3.93-45.31-5.01-68-3.87-12.22.61-24.46 1.76-36.41 4.46-9.13 2.07-18.09 4.82-27.04 7.55-7.25 2.22-14.5 4.63-21.93 6.19-11.75 2.47-23.71 3.9-35.35 6.94-9.29 2.42-19.08 5.67-24.23 14.38-8.57 14.49 7.46 26.87 18.51 33.42Zm-7.03-40.42c4.93-2.51 10.37-4.01 15.72-5.31 6.14-1.5 12.36-2.63 18.58-3.73 5.21-.91 10.45-1.74 15.62-2.88 7.78-1.72 15.41-4.3 23.03-6.63 8.76-2.67 17.55-5.31 26.5-7.25 6.58-1.42 13.23-2.33 19.93-2.97 21.41-2.05 43.11-1.97 64.49.36 22.38 2.44 45.02 7.4 65.35 17.32 18.56 9.06 35.03 22.78 43.72 41.87 2.04 4.47 3.57 9.16 4.71 13.94-.37-.32-.9-.42-1.44-.03-21.05 15-46.94 21.94-72.22 25.52-27.98 3.96-56.53 3.82-84.65 1.63a535.613 535.613 0 0 1-39.56-4.57c-8.72-1.34-17.47-2.75-26.06-4.82-17.36-4.17-34.64-9.67-50.93-17.01-8.25-3.71-16.55-7.93-23.6-13.65-4.73-3.83-9.99-9.1-10.38-15.53-.43-7.12 5.24-13.23 11.19-16.26Zm309.26 66.5c-11.16 6.55-21.72 14.23-33.38 19.9a5.454 5.454 0 0 0-4.24-.51c-2.92.84-4.6 3.88-3.77 6.8.84 2.92 3.88 4.6 6.8 3.77 2.92-.84 4.6-3.88 3.77-6.8-.12-.43-.31-.82-.52-1.19 19.69-9.77 36.68-25.82 58.56-30.61 4.78-1.05 9.63-1.23 14.5-1.4 4.81-.17 9.64-.2 14.45.12 4.75.32 9.6.97 14.08 2.69 4.14 1.6 7.21 4.48 9.04 8.54 4.63 10.25-1.57 22.54-10.78 27.81-1.52.87-.15 3.23 1.38 2.36 8.86-5.07 14.9-15.56 13.43-25.87-.67-4.74-3.1-9.55-6.92-12.52-3.63-2.83-8.29-4.12-12.76-4.88-5.21-.89-10.52-1.12-15.8-1.11-4.69.01-9.44.1-14.11.51-12.15 1.06-23.35 6.3-33.74 12.4Zm-76.97-121.79c.18-.05.35-.14.52-.21 2.04 2.69 4.72 4.94 7.37 6.96 4.15 3.17 8.61 5.88 12.99 8.7 4.63 2.98 8.91 6.44 13.55 9.39 5.49 3.49 11.23 6.56 16.83 9.86 4.49 2.64 8.7 5.69 13.11 8.43 3.43 2.13 6.96 4.11 10.48 6.11 7.9 4.49 15.9 8.98 23.08 14.58 6.75 5.26 13.98 12.27 14.93 21.27.18 1.73 2.92 1.75 2.73 0-.86-8.11-6.03-14.74-11.93-20.02-6.81-6.1-14.72-10.87-22.61-15.42-3.81-2.19-7.65-4.32-11.44-6.54-3.67-2.15-7.14-4.54-10.7-6.87-5.46-3.58-11.2-6.67-16.84-9.95-2.82-1.64-5.62-3.33-8.34-5.14-2.42-1.62-4.7-3.42-7.08-5.1-4.69-3.32-9.69-6.18-14.4-9.47-3.39-2.36-6.99-5.02-9.53-8.4 1.09-1.35 1.54-3.18 1.02-4.98a5.503 5.503 0 0 0-6.8-3.77c-2.92.84-4.6 3.88-3.77 6.8.84 2.92 3.88 4.6 6.8 3.77Z" class="cls-1"/></g></g></svg>