<svg id="Layer_2" xmlns="http://www.w3.org/2000/svg" viewBox="0 0 221.97 170.11" width="100%" height="100%" preserveAspectRatio="none"><defs><style> .cls-1 { fill: #ffcb66; } </style></defs><g id="Layer_1-2"><g><g><path class="cls-1" d="M42.15,170.11c-8.99,0-11.96-3.78-11.96-14.26v-37.86c0-10.42,2.98-14.26,11.96-14.26s11.96,3.84,11.96,14.26v37.86c0,10.48-2.98,14.26-11.96,14.26ZM42.15,161.43c2.17,0,3.16-.99,3.16-3.47v-41.76c0-2.73-.99-3.78-3.16-3.78s-3.16,1.05-3.16,3.78v41.76c0,2.48.99,3.47,3.16,3.47Z"/><path class="cls-1" d="M75.69,137.62c-2.11,0-2.73-.37-3.35-2.23l-3.04-9.61c-.19-.62-.31-.68-.62-.68-.37,0-.5.12-.5.68v42.04c0,1.8-.5,2.29-2.29,2.29h-3.47c-1.8,0-2.29-.5-2.29-2.29v-61.2c0-1.8.5-2.29,2.29-2.29h3.97c2.73,0,3.6.62,4.4,3.22l4.9,16.12c.19.56.37.74.74.74s.56-.19.74-.74l4.9-16.12c.81-2.6,1.67-3.22,4.4-3.22h3.97c1.8,0,2.29.5,2.29,2.29v61.2c0,1.8-.5,2.29-2.29,2.29h-3.47c-1.8,0-2.29-.5-2.29-2.29v-42.04c0-.56-.12-.68-.5-.68-.31,0-.43.06-.62.68l-3.04,9.61c-.62,1.86-1.24,2.23-3.35,2.23h-1.49Z"/><path class="cls-1" d="M107.3,167.82c0,1.8-.5,2.29-2.29,2.29h-3.97c-1.8,0-2.29-.5-2.29-2.29v-61.2c0-1.8.5-2.29,2.29-2.29h3.97c1.8,0,2.29.5,2.29,2.29v61.2Z"/><path class="cls-1" d="M137.13,156.47c0,9.98-2.85,13.64-11.84,13.64s-11.96-3.66-11.96-13.64v-39.31c0-9.98,2.98-13.64,11.96-13.64s11.84,3.66,11.84,13.64v1.86c0,1.8-.5,2.29-2.29,2.29h-3.97c-1.8,0-2.29-.5-2.29-2.29v-3.35c0-2.48-1.05-3.47-3.22-3.47s-3.22.99-3.22,3.47v42.29c0,2.48,1.05,3.47,3.22,3.47s3.22-.99,3.22-3.47v-3.35c0-1.8.5-2.29,2.29-2.29h3.97c1.8,0,2.29.5,2.29,2.29v1.86Z"/><path class="cls-1" d="M151.7,167.82c0,1.8-.5,2.29-2.29,2.29h-3.97c-1.8,0-2.29-.5-2.29-2.29v-61.79c0-1.8.5-2.29,2.29-2.29h3.97c1.8,0,2.29.5,2.29,2.29v61.79Z"/><path class="cls-1" d="M167.4,161.43h7.75c1.8,0,2.29.5,2.29,2.29v4.09c0,1.8-.5,2.29-2.29,2.29h-15.13c-1.8,0-2.29-.5-2.29-2.29v-61.79c0-1.8.5-2.29,2.29-2.29h3.97c1.8,0,2.29.5,2.29,2.29v54.41c0,.74.25.99,1.12.99Z"/><path class="cls-1" d="M192.03,167.82c0,1.8-.5,2.29-2.29,2.29h-3.97c-1.8,0-2.29-.5-2.29-2.29v-61.79c0-1.8.5-2.29,2.29-2.29h3.97c1.8,0,2.29.5,2.29,2.29v61.79Z"/><path class="cls-1" d="M210.01,170.11c-8.99,0-11.96-3.78-11.96-14.26v-38.07c0-10.42,2.98-14.26,11.96-14.26s11.96,3.84,11.96,14.26v38.07c0,10.48-2.98,14.26-11.96,14.26ZM210.01,161.43c2.17,0,3.16-.99,3.16-3.47v-41.98c0-2.73-.99-3.78-3.16-3.78s-3.16,1.05-3.16,3.78v41.98c0,2.48.99,3.47,3.16,3.47Z"/><g><path class="cls-1" d="M12.46,130.53c-.06-.31-.12-.37-.4-.37s-.34.06-.4.37l-1.42,5.94c-.03.15-.06.31-.06.46,0,.28.18.4.52.4h2.71c.34,0,.52-.12.52-.4,0-.15-.03-.31-.06-.46l-1.42-5.94Z"/><path class="cls-1" d="M9.86,103.74H2.29c-1.8,0-2.29.5-2.29,2.29v61.79c0,1.8.5,2.29,2.29,2.29h7.56c11.9,0,14.32-4.34,14.32-14.88v-36.62c0-10.54-2.42-14.88-14.32-14.88ZM18.12,148.39c0,.89-.25,1.14-1.14,1.14h-1.97c-.89,0-1.14-.25-1.14-1.14v-6.2c0-.43-.12-.55-.55-.55h-2.52c-.43,0-.55.12-.55.55v6.2c0,.89-.25,1.14-1.14,1.14h-1.97c-.89,0-1.14-.25-1.14-1.14v-10.02c0-1.35.06-1.91.43-3.14l2.8-9.38c.37-1.29.68-1.54,2.28-1.54h1.11c1.6,0,1.91.25,2.28,1.54l2.8,9.38c.37,1.2.43,1.78.43,3.14v10.02Z"/></g></g><g><path class="cls-1" d="M15.36,34.95c0,1.56.45,2,2,2h2.34c5.23,0,7.9-2.34,7.9-7.68v-5.79c0-5.23-2.45-7.35-7.9-7.35h-2.34c-1.56,0-2,.45-2,2v16.81ZM27.82,87.53c0-3.9-.22-25.2-1.89-28.21l-2.67-4.79c-1.22-2-1.89-2.34-3.9-2.34h-2c-1.56,0-2,.45-2,2v34.02c0,3.23-.89,4.12-4.12,4.12h-7.12c-3.23,0-4.12-.89-4.12-4.12V5.23C0,2,.89,1.11,4.12,1.11h14.69c16.92,0,24.6,5.79,24.6,20.03v8.01c0,8.01-1.22,13.24-5.79,16.92-.56.33-.67.67-.67,1s.11.67.45,1.22l3.12,5.68c2.34,4.34,2.67,6.12,2.67,12.02v22.22c0,3.23-.89,4.12-4.12,4.12h-7.12c-3.23,0-4.12-.89-4.12-4.12v-.69Z"/><path class="cls-1" d="M79.86,46.74c0-.56-.11-1.11-.22-1.67l-5.12-21.48c-.22-1.11-.45-1.34-1.45-1.34s-1.22.22-1.45,1.34l-5.12,21.48c-.11.56-.22,1.11-.22,1.67,0,1,.67,1.45,1.89,1.45h9.79c1.22,0,1.89-.45,1.89-1.45ZM62.39,92.34h-7.12c-3.23,0-4.12-.89-4.12-4.12v-36.24c0-4.9.22-6.9,1.56-11.35L62.84,6.68c1.34-4.67,2.45-5.56,8.24-5.56h4.01c5.79,0,6.9.89,8.24,5.56l10.13,33.94c1.34,4.34,1.56,6.45,1.56,11.35v36.24c0,3.23-.89,4.12-4.12,4.12h-7.12c-3.23,0-4.12-.89-4.12-4.12v-22.44c0-1.56-.44-2-2-2h-9.13c-1.56,0-2,.45-2,2v22.44c0,3.23-.89,4.12-4.12,4.12Z"/><path class="cls-1" d="M118.36,18.7v56.05c0,1.45.45,2,2,2h1.22c6.23,0,9.01-2.89,9.01-10.13V26.82c0-7.23-2.78-10.13-9.01-10.13h-1.22c-1.56,0-2,.45-2,2ZM146.4,27.82v37.8c0,18.92-4.34,26.71-25.71,26.71h-13.58c-3.23,0-4.12-.89-4.12-4.12V5.23c0-3.23.89-4.12,4.12-4.12h13.58c21.37,0,25.71,7.79,25.71,26.71Z"/><path class="cls-1" d="M164.42,92.34h-4.2c-3.08,0-5.58-2.5-5.58-5.58V6.69c0-3.08,2.5-5.58,5.58-5.58h4.2c3.08,0,5.58,2.5,5.58,5.58v80.07c0,3.08-2.5,5.58-5.58,5.58Z"/><path class="cls-1" d="M193.36,46.94v-26.06c0-3.35,2.24-4.69,7.13-4.69s7.13,1.34,7.13,4.69v30.04c0,3.68-2.24,5.1-7.13,5.1s-7.13-1.42-7.13-5.1v-3.97ZM200.49,0c-16.14,0-21.48,6.9-21.48,25.6v42.25c0,18.81,5.34,25.6,21.48,25.6s21.48-6.79,21.48-25.6V25.6c0-18.7-5.34-25.6-21.48-25.6ZM214.07,46.87c0,.08,0,.15,0,.22v3.82c0,3.21-1.14,10.35-11,11.4v9.31h3.19c1.08,0,1.38.3,1.38,1.38v2.38c0,1.08-.3,1.38-1.38,1.38h-11.51c-1.08,0-1.38-.3-1.38-1.38v-2.38c0-1.08.3-1.38,1.38-1.38h3.19v-9.3c-9.86-1.05-11-8.19-11-11.4v-3.82c0-.07,0-.14,0-.22v-2.49c0-.08,0-.15,0-.22v-.06h0c.06-.85.39-1.1,1.37-1.1h2.38c.98,0,1.31.25,1.37,1.1h0v.06c0,.07,0,.14,0,.22v2.49c0,.08,0,.15,0,.22v3.82c0,2.76.88,6.42,8.45,6.42s8.45-3.67,8.45-6.42v-3.82c0-.07,0-.14,0-.22v-2.49c0-.08,0-.15,0-.22v-.06h0c.06-.85.39-1.1,1.37-1.1h2.38c.98,0,1.31.25,1.37,1.1h0v.06c0,.07,0,.14,0,.22v2.49Z"/></g></g></g></svg>