<svg id="Layer_2" xmlns="http://www.w3.org/2000/svg" viewBox="0 0 300.65 230.41" width="100%" height="100%" preserveAspectRatio="none"><defs><style> .cls-1 { fill: #4a43b3; } </style></defs><g id="Layer_1-2"><g><g><path class="cls-1" d="M57.09,230.41c-12.18,0-16.21-5.12-16.21-19.31v-51.28c0-14.11,4.03-19.31,16.21-19.31s16.21,5.21,16.21,19.31v51.28c0,14.19-4.03,19.31-16.21,19.31ZM57.09,218.65c2.94,0,4.28-1.34,4.28-4.7v-56.56c0-3.69-1.34-5.12-4.28-5.12s-4.28,1.43-4.28,5.12v56.56c0,3.36,1.34,4.7,4.28,4.7Z"/><path class="cls-1" d="M102.51,186.4c-2.85,0-3.69-.5-4.53-3.02l-4.11-13.01c-.25-.84-.42-.92-.84-.92-.5,0-.67.17-.67.92v56.94c0,2.44-.67,3.11-3.11,3.11h-4.7c-2.43,0-3.11-.67-3.11-3.11v-82.89c0-2.43.67-3.11,3.11-3.11h5.37c3.69,0,4.87.84,5.96,4.37l6.63,21.83c.25.76.5,1.01,1.01,1.01s.76-.25,1.01-1.01l6.63-21.83c1.09-3.53,2.27-4.37,5.96-4.37h5.37c2.43,0,3.11.67,3.11,3.11v82.89c0,2.44-.67,3.11-3.11,3.11h-4.7c-2.44,0-3.11-.67-3.11-3.11v-56.94c0-.76-.17-.92-.67-.92-.42,0-.59.08-.84.92l-4.11,13.01c-.84,2.52-1.68,3.02-4.53,3.02h-2.02Z"/><path class="cls-1" d="M145.33,227.3c0,2.44-.67,3.11-3.11,3.11h-5.37c-2.43,0-3.11-.67-3.11-3.11v-82.89c0-2.43.67-3.11,3.11-3.11h5.37c2.44,0,3.11.67,3.11,3.11v82.89Z"/><path class="cls-1" d="M185.74,211.94c0,13.52-3.86,18.47-16.04,18.47s-16.21-4.95-16.21-18.47v-53.25c0-13.52,4.03-18.47,16.21-18.47s16.04,4.95,16.04,18.47v2.52c0,2.44-.67,3.11-3.11,3.11h-5.37c-2.43,0-3.11-.67-3.11-3.11v-4.53c0-3.36-1.43-4.7-4.37-4.7s-4.37,1.34-4.37,4.7v57.28c0,3.36,1.43,4.7,4.37,4.7s4.37-1.34,4.37-4.7v-4.53c0-2.44.67-3.11,3.11-3.11h5.37c2.44,0,3.11.67,3.11,3.11v2.52Z"/><path class="cls-1" d="M205.47,227.3c0,2.44-.67,3.11-3.11,3.11h-5.37c-2.43,0-3.11-.67-3.11-3.11v-83.69c0-2.43.67-3.11,3.11-3.11h5.37c2.44,0,3.11.67,3.11,3.11v83.69Z"/><path class="cls-1" d="M226.74,218.65h10.5c2.43,0,3.11.67,3.11,3.11v5.54c0,2.44-.67,3.11-3.11,3.11h-20.49c-2.43,0-3.11-.67-3.11-3.11v-83.69c0-2.43.67-3.11,3.11-3.11h5.37c2.44,0,3.11.67,3.11,3.11v73.69c0,1.01.34,1.34,1.51,1.34Z"/><path class="cls-1" d="M260.1,227.3c0,2.44-.67,3.11-3.11,3.11h-5.37c-2.43,0-3.11-.67-3.11-3.11v-83.69c0-2.43.67-3.11,3.11-3.11h5.37c2.44,0,3.11.67,3.11,3.11v83.69Z"/><path class="cls-1" d="M284.44,230.41c-12.18,0-16.21-5.12-16.21-19.31v-51.57c0-14.11,4.03-19.31,16.21-19.31s16.21,5.21,16.21,19.31v51.57c0,14.19-4.03,19.31-16.21,19.31ZM284.44,218.65c2.94,0,4.28-1.34,4.28-4.7v-56.86c0-3.69-1.34-5.12-4.28-5.12s-4.28,1.43-4.28,5.12v56.86c0,3.36,1.34,4.7,4.28,4.7Z"/><g><path class="cls-1" d="M16.88,176.8c-.08-.42-.17-.5-.54-.5s-.46.08-.54.5l-1.92,8.04c-.04.21-.08.42-.08.62,0,.38.25.54.71.54h3.67c.46,0,.71-.17.71-.54,0-.21-.04-.42-.08-.62l-1.92-8.04Z"/><path class="cls-1" d="M13.35,140.51H3.11c-2.43,0-3.11.67-3.11,3.11v83.69c0,2.44.67,3.11,3.11,3.11h10.24c16.12,0,19.4-5.88,19.4-20.15v-49.6c0-14.27-3.27-20.15-19.4-20.15ZM24.55,200.99c0,1.21-.33,1.54-1.54,1.54h-2.67c-1.21,0-1.54-.33-1.54-1.54v-8.4c0-.58-.17-.75-.75-.75h-3.42c-.58,0-.75.17-.75.75v8.4c0,1.21-.33,1.54-1.54,1.54h-2.67c-1.21,0-1.54-.33-1.54-1.54v-13.57c0-1.83.08-2.58.58-4.25l3.79-12.71c.5-1.75.92-2.08,3.08-2.08h1.5c2.17,0,2.58.33,3.08,2.08l3.79,12.71c.5,1.62.58,2.42.58,4.25v13.57Z"/></g></g><g><path class="cls-1" d="M20.8,47.33c0,2.11.6,2.71,2.71,2.71h3.17c7.08,0,10.7-3.17,10.7-10.4v-7.84c0-7.08-3.32-9.95-10.7-9.95h-3.17c-2.11,0-2.71.6-2.71,2.71v22.76ZM37.69,118.55c0-5.28-.3-34.13-2.56-38.2l-3.62-6.48c-1.66-2.71-2.56-3.17-5.28-3.17h-2.71c-2.11,0-2.71.6-2.71,2.71v46.08c0,4.37-1.21,5.58-5.58,5.58H5.58c-4.37,0-5.58-1.21-5.58-5.58V7.08C0,2.71,1.21,1.51,5.58,1.51h19.9c22.91,0,33.31,7.84,33.31,27.13v10.85c0,10.85-1.66,17.94-7.84,22.91-.75.45-.9.9-.9,1.36s.15.9.6,1.66l4.22,7.69c3.17,5.88,3.62,8.29,3.62,16.28v30.1c0,4.37-1.21,5.58-5.58,5.58h-9.65c-4.37,0-5.58-1.21-5.58-5.58v-.94Z"/><path class="cls-1" d="M108.17,63.31c0-.75-.15-1.51-.3-2.26l-6.93-29.09c-.3-1.51-.6-1.81-1.96-1.81s-1.66.3-1.96,1.81l-6.93,29.09c-.15.75-.3,1.51-.3,2.26,0,1.36.9,1.96,2.56,1.96h13.27c1.66,0,2.56-.6,2.56-1.96ZM84.51,125.06h-9.65c-4.37,0-5.58-1.21-5.58-5.58v-49.09c0-6.63.3-9.35,2.11-15.38l13.72-45.98c1.81-6.33,3.32-7.54,11.16-7.54h5.43c7.84,0,9.35,1.21,11.15,7.54l13.72,45.98c1.81,5.88,2.11,8.74,2.11,15.38v49.09c0,4.37-1.21,5.58-5.58,5.58h-9.65c-4.37,0-5.58-1.21-5.58-5.58v-30.4c0-2.11-.6-2.71-2.71-2.71h-12.36c-2.11,0-2.71.6-2.71,2.71v30.4c0,4.37-1.21,5.58-5.58,5.58Z"/><path class="cls-1" d="M160.31,25.32v75.92c0,1.96.6,2.71,2.71,2.71h1.66c8.44,0,12.21-3.92,12.21-13.72v-53.91c0-9.8-3.77-13.72-12.21-13.72h-1.66c-2.11,0-2.71.6-2.71,2.71ZM198.29,37.69v51.2c0,25.63-5.88,36.18-34.82,36.18h-18.39c-4.37,0-5.58-1.21-5.58-5.58V7.08c0-4.37,1.21-5.58,5.58-5.58h18.39c28.94,0,34.82,10.55,34.82,36.18Z"/><path class="cls-1" d="M230.25,119.49c0,4.37-1.21,5.58-5.58,5.58h-9.65c-4.37,0-5.58-1.21-5.58-5.58V7.08c0-4.37,1.21-5.58,5.58-5.58h9.65c4.37,0,5.58,1.21,5.58,5.58v112.4Z"/><path class="cls-1" d="M261.89,63.57V28.28c0-4.53,3.03-6.35,9.66-6.35s9.66,1.82,9.66,6.35v40.68c0,4.99-3.03,6.91-9.66,6.91s-9.66-1.93-9.66-6.91v-5.38ZM271.56,0c-21.86,0-29.09,9.35-29.09,34.67v57.23c0,25.48,7.24,34.67,29.09,34.67s29.09-9.2,29.09-34.67v-57.23c0-25.32-7.24-34.67-29.09-34.67ZM289.94,63.49c0,.11,0,.2-.01.3v5.17c0,4.35-1.54,14.02-14.9,15.45v12.6h4.32c1.46,0,1.86.4,1.86,1.86v3.23c0,1.46-.4,1.86-1.86,1.86h-15.59c-1.46,0-1.86-.4-1.86-1.86v-3.23c0-1.46.4-1.86,1.86-1.86h4.32v-12.6c-13.36-1.43-14.9-11.1-14.9-15.45v-5.17c0-.1-.01-.19-.01-.3v-3.37c0-.11,0-.2.01-.3v-.08h0c.07-1.14.53-1.48,1.85-1.48h3.23c1.32,0,1.77.34,1.85,1.48h0v.08c0,.1.01.19.01.3v3.37c0,.11,0,.2-.01.3v5.17c0,3.73,1.19,8.7,11.45,8.7s11.45-4.96,11.45-8.7v-5.17c0-.1-.01-.19-.01-.3v-3.37c0-.11,0-.2.01-.3v-.08h0c.07-1.14.53-1.48,1.85-1.48h3.23c1.32,0,1.77.34,1.85,1.48h0v.08c0,.1.01.19.01.3v3.37Z"/></g></g></g></svg>